
<svg version="1.1" xmlns="http://www.w3.org/2000/svg" viewBox="0 0 828.0826302128523 752.4114486284365" width="1656.1652604257047" height="1504.822897256873" filter="invert(93%) hue-rotate(180deg)">
  <!-- svg-source:excalidraw -->
  
  <defs>
    <style class="style-fonts">
      @font-face {
        font-family: "Virgil";
        src: url("https://excalidraw.com/Virgil.woff2");
      }
      @font-face {
        font-family: "Cascadia";
        src: url("https://excalidraw.com/Cascadia.woff2");
      }
    </style>
  </defs>
  <rect x="0" y="0" width="828.0826302128523" height="752.4114486284365" fill="#ffffff"></rect><g stroke-opacity="0.2" fill-opacity="0.2" stroke-linecap="round" transform="translate(10 10) rotate(0 404.04131510642617 366.20572431421823)"><path d="M0.58 0.48 C193.87 3.2, 389.8 1.95, 808.82 -0.38 M808.43 -0.48 C805.53 278.44, 805.18 556.17, 808.12 732.74 M807.51 732.99 C556.25 732.22, 305.12 731.86, 0.61 733.2 M-0.12 732.49 C-1.76 480.63, -2.05 227.24, 0.63 -0.55" stroke="#000000" stroke-width="1.5" fill="none" stroke-dasharray="8 9"></path></g><g stroke-linecap="round" transform="translate(293.7692626488388 112.96956798373674) rotate(0 120.61163058806926 266.84212418471714)"><path d="M0 0 C0 0, 0 0, 0 0 M0 0 C0 0, 0 0, 0 0 M0.19 6.99 C1.65 5.34, 1.45 3.07, 4.96 1.09 M-0.58 6.03 C1.4 4.11, 2.99 2.38, 4.65 0.57 M0.2 13.52 C2.61 9.74, 4.99 8.21, 11.09 -1.1 M-0.03 11.84 C3.09 8.8, 6.22 5.33, 10.81 -0.69 M-1.21 17.2 C6.12 12.72, 12.5 4.57, 14.17 0.92 M-0.23 18.13 C4.68 14.11, 9.65 7.5, 15.16 0.47 M-0.14 25.93 C6.69 15.12, 13.01 6.43, 20.97 0.46 M-0.32 23.15 C8.68 14.69, 16.68 5.96, 20.95 -1.02 M-0.33 28.54 C7.42 25.35, 11.74 19.3, 27.79 1.93 M0.67 31.33 C6.01 22.76, 13.78 14.13, 25.38 0.71 M1.63 35.95 C10.53 26.55, 20.33 13.18, 32.68 -1.33 M-1.11 36.57 C9.66 24.99, 21.3 12.52, 31.86 -0.64 M1.85 41.26 C15.9 25.12, 30.36 8.54, 35.83 2.14 M-0.65 42.18 C9.05 32.87, 18.5 20.91, 37.53 1.09 M0.76 49.47 C12.12 32.77, 28.75 19.22, 44.42 1.36 M0.69 47.95 C10.15 37.01, 19.8 25.98, 42.19 0.29 M-0.72 53.58 C16.67 33.56, 33.6 13.84, 48.95 0.33 M-0.53 54.63 C12.85 39.76, 24.76 26.27, 47.79 0.39 M-0.87 60.14 C10.92 46.96, 23.51 34.36, 51.97 1.47 M-0.34 60.78 C12.27 47.4, 24.78 32.75, 53.43 -0.4 M-1.04 69.32 C15.21 47.66, 33.36 31.07, 56.49 -0.91 M-1.05 67.21 C19.62 44.81, 40.07 20.67, 58.76 -0.27 M1.97 72.69 C18.85 51.78, 36.21 29.64, 62.72 -1.22 M-0.54 72.1 C24.53 45.43, 46.45 18.58, 63.01 -0.05 M1.48 80.87 C26.24 50.39, 47.55 23.8, 68.44 -1.12 M-0.43 79 C12.28 63.01, 27.13 47.5, 68.44 -0.43 M-0.87 85.71 C18.73 60.65, 38.94 36.54, 73.76 -2.09 M1.16 84.32 C26.29 55.99, 51.54 24.87, 75.3 -0.17 M-0.86 91.74 C30.63 59.71, 60.81 26, 77.47 0 M0.11 91.18 C28.08 60.26, 55.88 27.77, 79.28 0.68 M-1.51 98.36 C23.35 68.37, 49.4 37.77, 85.81 -1.67 M-0.39 96.89 C34.12 58.88, 66.89 22.19, 84.55 0.56 M0.52 103.52 C28.37 72.45, 55.35 38.32, 88.86 0.59 M-0.1 103 C30.11 69.68, 59.84 34.27, 89.14 -0.82 M-1.47 109.41 C22.11 82.19, 44.47 56.41, 97.25 0.36 M-0.96 110.35 C33.58 70.76, 68.38 33.83, 95.97 -0.72 M-0.1 114.65 C34.63 78.15, 65.97 42.55, 102.58 -1.37 M1.19 115.56 C34.71 74.51, 68.96 35.4, 100.29 -0.52 M-1.56 123.72 C27.03 90.4, 53.47 58.69, 106.13 -0.85 M0.13 121.84 C21.16 97.53, 44.13 71.76, 106.67 -0.03 M-1.47 127.16 C23.1 102.8, 43.58 76.4, 111.25 1.94 M-0.48 127.51 C43.3 79.53, 85.73 29.88, 110.44 -0.64 M-1.28 135.24 C40.11 84.69, 81.55 35.01, 115.47 -0.55 M-0.34 133.04 C45.58 82.39, 90.56 29.7, 116.03 1.17 M1.3 141.67 C35.42 98.94, 66.54 60.08, 122.14 -1.79 M-0.71 141.08 C41.77 93.46, 82.34 45.53, 121.71 0.9 M-1.5 145.76 C49.53 88.65, 96.76 33.04, 125.96 -1.41 M0.81 145.98 C32.25 110.44, 64 73.68, 127.33 0.02 M-1.1 151.95 C42.95 104.59, 82.72 56.69, 131.32 0.84 M0.78 151.68 C31.25 116.12, 64.29 78.14, 131.75 -0.44 M0.8 159.58 C30.27 125.75, 57.85 93.61, 137.88 0.95 M-0.44 158.79 C51.49 96.94, 104.05 36.22, 136.89 -0.22 M-0.13 163.76 C32.33 125.42, 67.62 89.48, 144.73 -0.45 M0.19 163.58 C36.25 121.23, 73.27 78.53, 142.36 -0.9 M1.54 170.97 C51.85 110.53, 104.65 51.25, 148.07 1.14 M0.14 171.51 C43.15 120.6, 86.87 70.23, 147.37 -0.35 M0.9 177.44 C57.67 108.27, 117.86 42.81, 154.59 0.89 M1.01 175.97 C48.86 124.42, 95.24 70.89, 153 0.26 M-0.34 181.94 C58.81 112.69, 119.36 45.45, 158.68 -1.01 M0.45 182.35 C56.2 118.37, 112.4 53.53, 158.44 0.57 M-0.15 188.24 C44.04 140.85, 88.56 87.63, 166.02 0.57 M-0.16 188.78 C61.21 117.62, 123.66 46.39, 165.14 -0.85 M0.05 193.49 C49.64 136.32, 100.91 77.9, 168.04 -0.28 M-0.39 194.19 C41.14 150.3, 80.83 104.75, 169.76 0.77 M-0.37 201.61 C39.41 154.81, 78.58 108.41, 174.59 -0.55 M0.25 202 C48.44 143.68, 98.61 87.58, 174.88 -0.29 M1.27 207.9 C63.14 136.24, 126.89 60.67, 179.11 -0.79 M-0.47 207.44 C47.52 152.2, 94.05 98.85, 180.19 0.16 M-0.81 212.76 C61.95 138, 126.53 64.48, 184.55 1.22 M-0.31 213.02 C50.12 154.67, 101.74 95.5, 185.23 -0.45 M0.4 218.79 C48.87 161.65, 97.69 107.02, 191.18 -0.97 M0 220.47 C54.4 157.29, 106.96 97.66, 190.19 0.75 M0.88 224.9 C68.26 147.27, 138.46 68.82, 197.14 -1.35 M0.88 225.38 C43.35 176.85, 86.78 126.09, 196.94 -0.98 M0.16 231.37 C60.14 161.47, 123.11 89.84, 201.94 1.12 M-0.56 232.09 C73.48 145.58, 148.96 58.85, 200.82 -0.16 M-0.6 238.53 C62.33 167, 123.63 97.49, 206.79 -0.41 M-0.29 237.79 C51.83 175.47, 106.54 113.63, 206.66 0.08 M0.17 243.75 C65.51 164.24, 133.7 88.56, 211.93 0.77 M0.52 243.59 C78.64 155.6, 156.44 66.21, 211.57 -0.14 M0.21 251.33 C65.8 175.35, 132.08 98.34, 217.34 -1.61 M0.15 250.44 C64.99 173.77, 132.92 97.39, 217.97 -0.14 M1.11 254.86 C63.27 185.97, 123.27 114.25, 222.76 -0.11 M0.4 256.3 C66.12 178.28, 133.96 100.55, 222.58 0.09 M0.44 262.33 C51.24 204.42, 100.63 147.92, 228.58 0.6 M0.19 262.55 C83.2 167.11, 167.21 71.28, 227.64 0.05 M0.12 268.85 C62.78 196.92, 125.22 125.2, 233 -0.65 M0.74 267.73 C85.08 168.25, 170.94 69.5, 232.66 0.45 M0.71 274.55 C81.01 180.4, 160.49 86.69, 237.58 0.26 M0.09 274.75 C54.82 213.57, 108.85 151.99, 238.2 -0.08 M-0.54 281.26 C90.08 179.28, 179.68 76.9, 243.59 1.94 M-0.51 281 C90.76 174.75, 181.3 70.55, 242.51 1.04 M0.69 285.56 C74.66 201.46, 148.69 116.95, 241.81 6.53 M-0.07 286.85 C87.11 187.67, 173.24 88.99, 243.18 7.31 M-0.25 293.18 C85.4 195.2, 168.06 100.32, 243.7 12.32 M-0.6 293.31 C66.03 215.4, 132.03 139.27, 242.36 13.78 M-0.18 297.29 C91.93 191.75, 185.86 85.63, 243.56 19.11 M-0.22 297.93 C48.88 240.93, 97.87 184.25, 243 19.3 M0.15 303.95 C88.95 201.12, 178.43 98.85, 243.05 26 M-0.42 304.98 C57.5 236.75, 116.45 169.03, 242.63 25.86 M0.38 310.45 C96.22 201.06, 193.66 89.11, 242.85 30.9 M-0.41 311.42 C74.09 224.3, 147.97 138.4, 242.96 31.4 M-0.39 317.04 C70.51 237.59, 140.6 159.41, 241.98 38.44 M0.1 317.02 C97.84 206.22, 194.41 95.39, 243.22 38.03 M-0.99 322.77 C53.3 262.75, 107.57 202.2, 243.42 43.48 M0.01 322.81 C93.81 214.97, 187.19 107.09, 242.69 43.73 M0 329.64 C82.37 234.07, 166.21 136.83, 241.18 51.34 M0.65 328.76 C68.43 250.56, 138.08 170.34, 242.73 50.47 M1.24 334.78 C58.67 268.57, 117.39 201.2, 243.91 55.09 M0.3 334.71 C56.94 270.02, 114.29 204.31, 242.72 55.9 M-0.8 342.06 C66.93 263.94, 136.48 183.63, 243.11 63.38 M-0.7 341.76 C93.11 234.62, 185.92 127.23, 242.91 62.83 M0.76 348 C77.36 258.63, 153.6 169.92, 243.34 67.61 M0.32 347 C58.85 278.6, 118.57 209.49, 243.24 68.31 M-0.04 353.51 C54.85 290.98, 109.2 225.46, 241.88 73.59 M-0.56 353.65 C51.8 294.85, 100.55 238.4, 242.89 74.44 M-0.37 359.54 C55.85 296.6, 110.83 230.2, 241.72 81.07 M0.49 359.46 C67.1 280.64, 133.68 204.55, 242.81 81.1 M-0.27 365.34 C51.84 308.68, 103.65 249.86, 241.91 86.92 M0.28 365.75 C97.88 253.93, 192.88 143.65, 242.38 86.87 M-0.9 371.49 C53.42 310.3, 108.79 249.43, 241.46 91.94 M-0.7 371.91 C93.72 266.83, 185.59 161.36, 242.81 92.97 M-0.49 376.84 C59.55 311.42, 117.52 243.38, 243.7 98.98 M0.1 378.23 C57.39 314.06, 113.47 250.19, 242.91 99.11 M0.89 384.18 C63 313.55, 124.41 242.27, 242.12 103.78 M0.26 384.26 C67.9 303.08, 138.44 222.7, 242.94 105.07 M-0.52 389.64 C54.62 327.67, 108.87 264.96, 241.95 110.35 M-0.12 390.22 C76.89 301.17, 155.83 211.74, 242.85 111.42 M-0.37 397.04 C85.47 299.99, 170.04 201.22, 241.9 118.06 M-0.1 396.72 C77.51 308.39, 152.62 221.77, 243.2 117.38 M-0.44 402.36 C63.06 328.54, 126.83 257.5, 241.77 122.33 M-0.36 402.42 C74.89 314.81, 151.74 226.94, 243.07 122.91 M-0.97 409.25 C66.13 333.46, 131.73 259.33, 243.08 128.75 M-0.31 408.64 C61.18 338.75, 122.47 268.17, 242.59 128.87 M0.79 413.7 C83.65 320.28, 165.67 223.42, 243.59 135.31 M0.34 414.71 C91.24 306.6, 183.99 200.09, 242.46 135.49 M-0.54 420.06 C47.72 365.06, 97.18 309.08, 242.78 141.6 M-0.83 420.67 C68.49 339.24, 137.92 259.51, 242.83 141.3 M0.22 425.78 C61.75 357.05, 123.07 285.76, 242.15 146.98 M0.65 426.35 C80.83 333.97, 162.39 238.86, 242.36 147.71 M-0.66 431.88 C73.75 349.57, 145.19 268.33, 241.7 155.04 M0.41 433.5 C65.82 356.5, 133.92 278.34, 242.91 154.37 M-0.39 439.86 C67.41 363.76, 132.83 286.89, 241.82 159.25 M0.15 438.51 C78.24 348.65, 154.87 260.84, 242.81 159.89 M-0.14 446.23 C81.3 350.92, 163.1 257.26, 241.45 165.98 M-0.25 445.7 C68.09 367.99, 136.19 290.33, 243.2 165.93 M0.52 451.7 C62.56 379.64, 125.84 307.87, 242.41 172.82 M-0.14 451.47 C72.73 368.72, 144.99 285.24, 242.55 171.75 M-1.06 456.96 C59.44 385.92, 121.66 314.72, 243.47 177.89 M-0.29 457.45 C49.58 400.33, 100.44 341.52, 242.54 178.22 M0.68 464.55 C91.15 357.97, 182.95 252.95, 243.03 185.45 M-0.66 463.45 C96.57 354.64, 190.68 244.93, 242.23 183.74 M-0.78 469.57 C51.18 411.25, 101.31 354.91, 242.22 190.42 M0.28 469.41 C92.75 362.32, 185 255.38, 243.09 190.59 M-1.26 475.21 C91.14 366.8, 186.75 260.59, 241.83 195.18 M-0.47 475.75 C78.99 382.68, 159.17 290.75, 242.33 195.98 M-1.22 480.97 C77.06 394.71, 152.72 307.59, 242.98 203.9 M0.13 481.67 C93.64 370.8, 189.29 260.9, 242.91 203.34 M0.57 487.02 C78.29 399.21, 155.62 310.84, 242.34 208.47 M-0.2 487.89 C95.88 376.42, 191.57 266.9, 242.72 208.37 M-0.08 494.94 C78.22 401.85, 157.25 310.63, 243.55 215.06 M-0.13 493.82 C51.6 432.18, 105.5 370.71, 242.94 215.35 M0.12 499.54 C54.97 437.15, 106.84 375.41, 244.18 219.97 M0.43 500.2 C67.84 419.18, 137.56 339.03, 242.59 220.67 M-0.94 505.72 C80.93 411.11, 163.82 317.44, 243.87 227.71 M-0.09 506.34 C78.88 414.66, 157.51 325.29, 242.37 226.71 M-0.29 512.95 C51.52 451.47, 104.96 392.24, 243.64 234.23 M0.04 512.74 C59.6 446.07, 119.34 377.99, 242.9 232.71 M0.47 518.42 C68.96 437.84, 137.48 358.06, 242.48 238.68 M0.06 518.27 C84.4 424.08, 166.56 329.43, 243.18 238.81 M-0.89 523.88 C54.07 459.87, 109.39 394.93, 242.46 244.18 M0.1 524.13 C84.33 430.23, 166.07 334.1, 242.2 245.63 M-0.44 531.27 C59.7 461.41, 123.11 389.92, 242 252.08 M0.69 529.73 C50.3 473.17, 98.53 416.76, 242.68 250.79 M1.54 534.53 C66.52 461.97, 131.03 386.59, 242.66 256.64 M1.7 535.17 C91.84 428.34, 184.66 323.47, 243.22 257.18 M8 534.21 C94.21 437.95, 179.02 339.03, 242.36 264.05 M7.47 535.1 C56.93 476.42, 106.76 418.48, 242.08 263.33 M12.93 535 C93.76 442.44, 174.16 348.89, 243.03 268.31 M11.53 535.5 C104.37 428.88, 197.46 323.26, 242.47 269.18 M16.78 535.84 C77.66 465.66, 138.8 395.58, 242.11 275.74 M17.36 534.16 C101.44 437.95, 184.33 342.87, 242.37 276.39 M23.74 534.92 C101.58 445.27, 181.03 353.78, 242.01 280.15 M21.96 534.45 C103.91 441.42, 185.52 347.36, 242.62 281.52 M28.09 535.3 C90.01 465.46, 151.45 393.98, 243.39 286.72 M28.66 535.18 C78.51 473.82, 129.76 414.6, 242.17 287.85 M33.98 534.45 C115.22 441.84, 194.57 347.55, 241.12 294.61 M33.04 534.32 C92.96 464.8, 153.12 394.6, 242.6 294.73 M38.8 535.57 C91.58 470.28, 146.48 409.79, 242.71 301.24 M38.86 535.21 C97.47 469.3, 155.14 402.87, 242.37 300.28 M42.68 533.66 C88.22 481.87, 132.21 432.23, 243.92 305.46 M43.67 535.11 C103.62 465.35, 164.3 395.96, 243.15 306.19 M47.99 533.26 C106.26 470.29, 164.07 403.96, 242.49 310.71 M49.48 534.41 C114.17 459.96, 179.46 383.56, 243.55 311.75 M55.28 534.05 C98.51 481.46, 143.97 430.26, 241.53 317.71 M55.16 534.79 C124.65 455.37, 193.69 375.78, 242.16 318.24 M58.31 535.17 C132.69 451.34, 203.65 367.73, 243.82 324.35 M59.25 535.14 C120.51 467.58, 180 397.51, 242.98 324.12 M64.47 534.07 C116.67 474.05, 171.62 415.53, 242.97 329.08 M64.63 534.39 C134.39 454.84, 204.09 374.71, 242.57 330.24 M71.38 536.19 C115.95 482.57, 159.35 431.5, 241 335.91 M70.3 535.2 C129.63 462.83, 192.09 392.77, 242.3 336.58 M75.32 533.45 C119.05 487.04, 163.02 436.52, 243.77 340.91 M76.44 534.58 C127.03 474.98, 178.29 414.59, 243.65 342.95 M81.7 533.67 C128.1 480.51, 176.6 422.23, 243.98 347.18 M80.38 534.44 C115.02 496.14, 149.66 456.08, 243.26 349.35 M85.86 535.07 C129.22 486.51, 170.18 437.55, 241.18 354.48 M85.85 534.72 C145.8 465.51, 206.36 395.65, 242.18 355.3 M90.21 536.36 C147.83 470.13, 204.31 403.35, 241.62 360.9 M90.99 535.9 C131.8 488.05, 172.22 441.57, 242.97 361.21 M97.81 533.46 C138.88 487.54, 179.97 438.38, 242.53 366.19 M97.38 535.2 C144.08 481.72, 190.63 427.56, 242.51 367.05 M103.01 533.87 C140.6 491.91, 178.07 447.8, 244.63 373.02 M101.16 535.87 C155.23 475.59, 206.44 414.82, 243.81 372.83 M108.38 532.97 C152.7 484, 195.63 431.74, 242.93 380.48 M107.57 535 C153.46 481.85, 201.12 429.17, 242.03 379.32 M112.15 535.11 C145.44 495.55, 179.29 459.25, 243.49 384.94 M113.4 534.46 C160.41 481.74, 208.15 425.98, 241.79 385.07 M118.74 536.68 C145.76 500.6, 176.7 466.59, 242.83 391.29 M117.45 534.14 C157.57 489.95, 196.1 442.94, 243.09 390.5 M121.41 536.07 C156.74 491.09, 196.31 452.13, 242.73 395.88 M123.65 535.67 C168.96 484.96, 212.91 434.6, 242.58 397.03 M128.75 535.98 C163.31 495.82, 200.62 453.5, 242.36 401.96 M128.86 535.05 C156.5 501.78, 186.58 467.87, 242.44 403.58 M135.05 534.67 C158.53 505.53, 184.31 475.06, 242.74 409.27 M133.39 534.59 C164.09 500.39, 194.09 464.26, 241.74 409.33 M139.18 535.39 C167.76 499.57, 199.62 463.35, 242.78 414.22 M138.95 535.56 C176.67 488.69, 215.06 444.78, 242.78 416.24 M142.84 533.84 C168.8 507.5, 192.68 480.01, 242.98 423.58 M145.12 534.07 C172.88 501.73, 201.81 469.56, 243.82 422.13 M149.39 535.55 C181.81 495, 215.91 458.14, 242.93 426.21 M149.32 533.78 C171.56 510.41, 194.37 484.1, 242.81 428.68 M154.18 535.37 C185.74 503.35, 212.96 469.81, 243.56 435.15 M155.27 535.76 C186.52 497.95, 217.98 462.78, 242.75 432.96 M159.35 534.89 C186.12 502.07, 213.96 474.72, 241.36 439.18 M160.99 535.18 C181.65 510.62, 203.03 486.53, 242.14 441.21 M164.15 533.88 C182.39 516.38, 197.94 497.05, 242.61 444.9 M165.21 535.15 C192.33 506.06, 217.17 476.82, 242.27 446.4 M171.07 536.46 C188.36 514.89, 210.13 490.82, 240.92 452.49 M170.73 536.26 C196.23 507.77, 219.18 478.21, 242.99 452.21 M175.47 534.83 C199.61 508.68, 224.85 480.35, 240.87 457.34 M176.18 534.57 C193.58 516.33, 209.65 497.28, 243.47 458.12 M181.16 534.91 C196.57 514.98, 211.38 497.95, 242.12 466.31 M180.73 534.65 C197.35 516.6, 214.28 498.21, 242.5 463.89 M188.53 536.55 C198.5 519.11, 212.96 503.08, 243.76 471.08 M186.41 534.14 C201.09 519.83, 214.22 505.18, 241.93 470.37 M190.92 534.96 C205.74 516.86, 222.21 503.38, 244.46 476.43 M191.6 534.52 C208.15 516.86, 224.91 498.92, 243.05 478.03 M199.36 536.18 C209.88 518.89, 223.99 503.66, 242.04 481.83 M197.99 534.85 C214.83 514.95, 231.89 494.6, 243.28 481.98 M202.97 534.45 C215.53 522.35, 227.94 505.35, 243.08 489.21 M202.05 534.63 C211.56 524.22, 221.02 514.32, 241.95 490 M209.67 535.72 C214.35 528.26, 221.53 519.2, 241.09 493.12 M207.97 535.5 C216.64 524.05, 225.95 514.55, 243.59 494.08 M214.59 535.05 C226.99 522.66, 237.96 508.21, 242.8 500.14 M213.19 536.09 C222.02 525.22, 229.28 516.08, 242.42 500.23 M220.8 536.03 C228.28 526.32, 234.93 515.66, 242.33 507.11 M219.31 535.72 C224.68 528.11, 230.84 520.29, 241.67 507.93 M223.7 536.26 C229.9 527.6, 239.23 519.04, 242.76 512.77 M223.59 535.29 C230.43 528.36, 235.52 521.74, 243.3 512.24 M227.77 534.78 C232.55 530.8, 234.62 529.03, 243.76 519.51 M229.9 534.96 C232.02 530.74, 234.59 528.36, 242.76 518.82 M234.75 534.03 C236.53 532.08, 238.94 530.57, 242.18 525.42 M234.3 535.02 C236.6 533.01, 237.42 530.82, 243.21 524.7 M240.34 535.05 C240.66 534.21, 241.26 533.43, 242.61 531.36 M240 534.85 C240.97 533.62, 241.85 532.68, 242.9 531.66" stroke="#ced4da" stroke-width="0.5" fill="none"></path><path d="M0.95 -1.23 C68.33 1.34, 137.15 0.05, 241.2 -0.03 M241.87 0.05 C241.35 193.23, 241.5 385.07, 241.25 533.84 M242.59 533.4 C189.77 535.37, 138.29 535.1, -1.38 533.91 M-0.19 533.47 C-1.45 395.92, -1.35 258.72, -0.31 0.36" stroke="#c92a2a" stroke-width="1.5" fill="none" stroke-dasharray="8 9"></path></g><g stroke-linecap="round" transform="translate(102.48658269004949 164.95555507873667) rotate(0 23.70664414789681 35.97351518460738)"><path d="M-0.77 -0.32 L46.4 1.36 L47.97 73.75 L1.35 71.35" stroke="none" stroke-width="0" fill="#fff"></path><path d="M1.32 -0.93 C14.51 1.16, 30.87 0.56, 47.43 1.59 M0.03 0.34 C12.81 0.45, 26.65 0.64, 47.99 0.76 M47.54 0.99 C46.18 20.61, 47.88 37.19, 45.73 73.79 M47.16 -0.67 C48.01 19.7, 47.05 38.69, 47.85 71.88 M47.48 72.96 C36.77 72.57, 26.88 70.1, 0.48 71.41 M46.61 71.8 C33.07 72.4, 19.19 72.62, -0.28 71.92 M1.32 71.74 C-1.56 46.01, 0.63 17.05, -0.25 0.18 M-0.35 71.27 C0.94 48.29, 1.36 24.67, 0.26 0.4" stroke="#000000" stroke-width="2" fill="none"></path></g><g stroke-linecap="round" transform="translate(97.42354074840637 160.24627096591792) rotate(0 23.70664414789681 35.97351518460738)"><path d="M-0.32 -1.01 L48.77 0.56 L49.21 73.29 L-0.6 70.66" stroke="none" stroke-width="0" fill="#fff"></path><path d="M-0.93 -1.28 C15.57 -1.02, 29.15 -0.3, 49 -0.55 M0.34 -0.11 C11.95 0.79, 23.76 0.57, 48.18 -0.29 M48.4 -1.1 C47.84 20.84, 44.9 38.81, 49.26 71.23 M46.75 0.2 C48.31 24.83, 48.31 51.62, 47.35 71.25 M48.43 72.22 C33.2 73.24, 15.84 72.44, -0.54 71.91 M47.27 71.74 C33.59 71.61, 19.58 71.29, -0.03 72.67 M-0.21 70.59 C0.34 49.2, -1.81 24.54, 0.18 0.54 M-0.68 72.25 C-0.6 57.49, -0.7 41.84, 0.4 -0.38" stroke="#000000" stroke-width="2" fill="none"></path></g><g stroke-linecap="round" transform="translate(91.12103619169545 154.70930583772258) rotate(0 23.70664414789681 35.97351518460738)"><path d="M-1.01 1.36 L47.97 1.8 L48.76 71.35 L-1.29 72.66" stroke="none" stroke-width="0" fill="#fff"></path><path d="M-1.28 1.4 C15.92 1.02, 33.28 1.81, 46.86 -1.09 M-0.11 0.32 C13.65 0.34, 26.26 0.6, 47.13 -0.19 M46.31 1.1 C48.05 12.99, 45.77 31.51, 46.69 73.06 M47.61 0.7 C46.47 24.24, 47.67 47.02, 46.71 72.09 M47.68 72.62 C34.98 70.4, 20.48 71.65, -0.04 71.95 M47.2 72.35 C32.79 72.51, 17.8 71.85, 0.73 72.22 M-1.36 72.82 C0.36 43.77, -0.72 18.33, 0.54 -1.78 M0.3 71.8 C0.98 45.57, 0.52 20.08, -0.38 -0.16" stroke="#000000" stroke-width="2" fill="none"></path></g><g stroke-linecap="round"><g transform="translate(99.16188667063102 187.41039832069976) rotate(0 15.244426950461332 -1.0178534017976517)"><path d="M-0.77 0.84 C3.55 1.03, 21.36 0.91, 26.69 0.59 C32.03 0.26, 30.55 -0.57, 31.26 -1.12 M1.03 0.23 C5.08 0.11, 20.61 -0.75, 25.52 -1.29 C30.43 -1.82, 29.58 -2.85, 30.5 -2.97" stroke="#000000" stroke-width="1" fill="none"></path></g></g><mask></mask><g stroke-linecap="round"><g transform="translate(100.40644489975949 166.30255032178127) rotate(0 15.669475766080637 -0.6380277696072767)"><path d="M0.84 -0.43 C2.89 -0.61, 6.66 -1.85, 11.77 -1.87 C16.88 -1.89, 28.5 -0.77, 31.52 -0.55 M-0.18 -1.69 C1.81 -1.61, 5.84 -0.71, 11.07 -0.33 C16.31 0.05, 28.13 0.48, 31.25 0.6" stroke="#000000" stroke-width="1" fill="none"></path></g></g><mask></mask><g stroke-linecap="round"><g transform="translate(100.35505967219234 211.5126955389659) rotate(0 15.856713457561227 0.2942689647014731)"><path d="M-0.43 0.48 C2.66 0.47, 13.51 0.71, 17.73 0.78 C21.95 0.85, 22.52 1.24, 24.91 0.9 C27.3 0.55, 30.75 -0.9, 32.08 -1.29 M1.55 -0.31 C4.54 -0.72, 13.05 -1.21, 16.78 -0.84 C20.52 -0.48, 21.41 1.76, 23.97 1.87 C26.53 1.98, 30.87 0.33, 32.14 -0.17" stroke="#000000" stroke-width="1" fill="none"></path></g></g><mask></mask><g stroke-linecap="round"><g transform="translate(98.21910638211676 219.05493296960856) rotate(0 17.81902988691388 0.4694394169340512)"><path d="M0.48 0.01 C1.63 -0.11, 6.16 -0.96, 7.77 -1.11 C9.39 -1.27, 6.28 -1.24, 10.16 -0.92 C14.05 -0.59, 26.7 0.86, 31.06 0.82 C35.43 0.78, 35.3 -0.87, 36.37 -1.16 M-0.73 -1.03 C0.28 -0.93, 5.69 0.04, 7.32 0.25 C8.95 0.46, 5.05 -0.1, 9.05 0.22 C13.06 0.53, 27.03 2.27, 31.33 2.13 C35.62 2, 34.09 0.06, 34.83 -0.57" stroke="#000000" stroke-width="1" fill="none"></path></g></g><mask></mask><g stroke-linecap="round"><g transform="translate(98.41018744506948 176.40564854997535) rotate(0 14.842977090385148 0.7878307434401108)"><path d="M0.01 0.95 C2.06 0.7, 6.69 -1.11, 11.88 -1.05 C17.06 -1, 27.8 0.93, 31.13 1.3 M-1.45 0.41 C0.46 0.26, 5.48 -0.23, 10.75 0.14 C16.03 0.51, 26.58 2.29, 30.18 2.63" stroke="#000000" stroke-width="1" fill="none"></path></g></g><mask></mask><g stroke-linecap="round"><g transform="translate(98.48229371521 199.53808846296045) rotate(0 15.75959883967451 0.4107928632062112)"><path d="M0.95 -0.33 C1.67 -0.23, 2.89 0.55, 4.77 0.61 C6.65 0.66, 7.81 -0.16, 12.24 0.01 C16.67 0.18, 27.98 1.33, 31.35 1.64 M-0.01 -1.55 C1.06 -1.28, 5.22 2.06, 7.14 1.96 C9.06 1.87, 7.42 -2.28, 11.49 -2.12 C15.55 -1.96, 28.19 2.16, 31.53 2.95" stroke="#000000" stroke-width="1" fill="none"></path></g></g><mask></mask><g transform="translate(72.68316460709252 249.4247118534969) rotate(0 51.5 19.5)"><text x="51.5" y="15.5" font-family="Cascadia, Segoe UI Emoji" font-size="16px" fill="#000000" text-anchor="middle" style="white-space: pre;" direction="ltr">INITIATING </text><text x="51.5" y="35" font-family="Cascadia, Segoe UI Emoji" font-size="16px" fill="#000000" text-anchor="middle" style="white-space: pre;" direction="ltr">EVENT</text></g><g stroke-linecap="round"><g transform="translate(395.50307188099623 162.97270733236917) rotate(89.99999999999994 16.521207733410847 40.98596035107255)" fill-rule="evenodd"><path d="M1.21 -2.93 C1.21 -2.93, 1.21 -2.93, 1.21 -2.93 M1.21 -2.93 C1.21 -2.93, 1.21 -2.93, 1.21 -2.93 M2.48 2.18 C5.29 -0.69, 7.12 -3.04, 8.23 -6.55 M1.96 2.28 C4.6 -0.43, 7.46 -4.09, 9.06 -5.13 M3.14 6.69 C5.69 5.46, 10.05 -0.67, 13.88 -5.62 M1.84 7.67 C7.46 4.23, 10.17 -0.97, 15.89 -6.57 M2.12 13.89 C7.29 8.53, 15.72 1.35, 19.04 -6.7 M2.42 13.52 C8.99 7.88, 14.12 0.87, 18.49 -4.21 M1.01 18.6 C9.29 11.99, 18.22 -0.42, 25.26 -6.38 M1.63 19.77 C10.08 11.4, 16.82 1.77, 23.98 -4.83 M3.36 26.49 C9.19 17.06, 14.77 8.7, 29.95 -6.1 M2.08 26.71 C8.51 19.38, 14.69 10.78, 29.74 -3.43 M1.08 31.79 C12.88 21.8, 19.79 10.79, 31.77 -0.94 M2.26 33.09 C9.04 24.41, 15.98 18, 32.04 -1.36 M1.13 36.94 C12.83 24.57, 23.59 14.21, 35.34 2.01 M3.6 38.81 C10.81 28.5, 20.34 18.38, 36.09 -0.64 M3.71 46.07 C13.3 32.93, 22.55 22.01, 36.87 6.74 M1.98 44.62 C12.28 32.16, 22.67 21.03, 35.98 6.37 M0.95 48.63 C13.93 33.99, 28.64 21.01, 35.34 13.77 M2.76 50.87 C13.34 36.63, 23.5 25.23, 35.24 12.52 M3.1 56.92 C12.73 44.49, 26.16 28.59, 34.12 19.33 M2.35 57.24 C13.12 44.25, 22.3 32.65, 34.79 18.26 M1.21 61.63 C11.42 52.7, 19.6 44.89, 33.75 25.38 M3.19 61.4 C9.47 53.74, 18.22 44.27, 35.03 25.75 M1.3 69.47 C15.02 55.99, 25.93 41.38, 33.91 31.9 M3.29 68.78 C11.37 60.04, 18.09 51.29, 36.25 30.39 M2.45 75.4 C11.03 67.6, 20.1 55.2, 35.67 38.5 M2.65 74.03 C10.69 65.66, 19.74 54.97, 36.1 36.49 M2.2 80.51 C9.91 69.78, 21.49 59.39, 35.5 44.69 M2.03 80.98 C11.27 70.42, 19.34 60.97, 34.03 42.78 M4.06 87.8 C13.32 73.64, 22.38 61.91, 34.72 47.71 M2.75 87.6 C9.36 80.02, 15.28 72.18, 36.06 48.34 M4.81 88.72 C13.41 79.89, 17.63 73.57, 34.99 54.35 M5.4 88.73 C15.22 78.92, 25.6 67.31, 34.61 55.61 M9.5 89.3 C15.95 83.28, 21.88 75.39, 34.34 63.23 M9.13 91.31 C18.03 81.77, 25.6 72.4, 35.87 60.81 M16.02 90.68 C24.1 81.73, 31.34 74.5, 35.35 68.43 M13.6 91.1 C18.09 85.93, 24.07 80.07, 34.33 66.73 M19.27 92.63 C21.76 86.75, 27.97 84.11, 33.19 73.71 M19.47 91.36 C25.79 85.72, 31.92 78.39, 34.15 73.12 M26.53 89.16 C30.7 85.76, 32.08 81.5, 35.17 80.14 M26.89 88.83 C29.49 87.04, 31.32 84.24, 35.13 79.71" stroke="#40c057" stroke-width="0.5" fill="none"></path><path d="M0.83 0.2 C0.82 12.66, 0.58 61.15, 0.59 74.8 C0.6 88.46, 0.65 80.32, 0.9 82.15 C1.15 83.97, 0.95 84.76, 2.06 85.76 C3.17 86.76, 4.82 87.3, 7.57 88.17 C10.32 89.04, 15.12 90.96, 18.54 90.95 C21.97 90.94, 25.65 89.2, 28.1 88.12 C30.56 87.03, 32.55 85.61, 33.28 84.42 C34.02 83.24, 32.71 82.54, 32.51 81 C32.32 79.46, 32.01 87.54, 32.11 75.19 C32.22 62.84, 32.8 19.39, 33.13 6.92 C33.47 -5.54, 34.55 2.36, 34.13 0.41 C33.71 -1.55, 32.06 -3.57, 30.62 -4.8 C29.17 -6.02, 27.91 -6.24, 25.44 -6.93 C22.97 -7.63, 18.84 -9.15, 15.78 -8.97 C12.72 -8.79, 9.37 -6.97, 7.09 -5.85 C4.8 -4.72, 3.24 -3.07, 2.09 -2.21 C0.94 -1.34, 0.53 -0.97, 0.21 -0.66 C-0.11 -0.36, 0.36 -0.6, 0.2 -0.39 M-0.19 -0.75 C-0.37 11.37, -0.24 59.03, -0.1 73.03 C0.03 87.02, 0.17 80.96, 0.6 83.23 C1.04 85.49, 1.59 85.82, 2.5 86.61 C3.4 87.4, 3.68 87.34, 6.06 87.95 C8.43 88.56, 13.5 89.9, 16.75 90.26 C19.99 90.62, 22.85 91.18, 25.52 90.1 C28.18 89.01, 31.29 84.96, 32.73 83.73 C34.18 82.51, 34.27 84.26, 34.2 82.76 C34.13 81.26, 32.44 87.76, 32.32 74.74 C32.19 61.71, 33.29 17.01, 33.46 4.61 C33.63 -7.78, 33.8 1.52, 33.35 0.35 C32.89 -0.82, 31.65 -1.09, 30.75 -2.41 C29.85 -3.73, 30.4 -6.91, 27.94 -7.59 C25.47 -8.26, 19.32 -6.43, 15.95 -6.47 C12.58 -6.5, 10.17 -8.08, 7.71 -7.78 C5.25 -7.47, 2.63 -5.8, 1.19 -4.61 C-0.26 -3.42, -0.58 -1.34, -0.95 -0.62 C-1.33 0.09, -1.14 -0.29, -1.08 -0.34" stroke="#087f5b" stroke-width="1" fill="none"></path></g></g><mask></mask><g stroke-linecap="round"><g transform="translate(379.9344502593689 200.48921190571798) rotate(89.99999999999994 16.32909722395391 3.951552445141658)"><path d="M0.2 0.48 C0.44 1.03, 0.86 3.14, 1.5 4.11 C2.15 5.07, 2.83 5.7, 4.06 6.26 C5.29 6.82, 6.93 7.08, 8.89 7.46 C10.86 7.84, 12.9 8.54, 15.84 8.55 C18.78 8.55, 24.12 8.27, 26.56 7.48 C29 6.68, 29.63 5.18, 30.45 3.78 C31.28 2.38, 31.41 -0.08, 31.53 -0.95 M-1.16 -0.31 C-1.02 -0.16, 0.19 1.72, 0.9 2.46 C1.6 3.19, 1.73 3.09, 3.06 4.1 C4.39 5.12, 6.49 7.64, 8.89 8.52 C11.28 9.4, 14.79 9.66, 17.42 9.39 C20.05 9.11, 22.44 7.95, 24.66 6.87 C26.88 5.79, 29.24 4.32, 30.76 2.91 C32.29 1.5, 33.5 -1.15, 33.82 -1.59" stroke="#087f5b" stroke-width="1" fill="none"></path></g></g><mask></mask><g stroke-linecap="round"><g transform="translate(408.7681830875732 200.70444408561877) rotate(89.99999999999994 16.566118428337006 3.1986436851217945)"><path d="M0.48 0.65 C0.63 0.98, 1.01 1.53, 1.74 2.13 C2.47 2.73, 3.59 3.79, 4.85 4.25 C6.1 4.71, 7.11 4.46, 9.27 4.89 C11.43 5.32, 14.91 6.86, 17.81 6.83 C20.7 6.8, 24.3 5.56, 26.65 4.69 C29 3.83, 31.1 2.64, 31.91 1.64 C32.73 0.64, 31.67 -0.96, 31.52 -1.28 M-0.72 -0.05 C-0.72 0.42, 0.43 2.54, 1.26 3.43 C2.09 4.32, 2.9 4.99, 4.27 5.32 C5.63 5.64, 7.39 5.01, 9.47 5.38 C11.56 5.76, 14.23 7.3, 16.79 7.57 C19.35 7.83, 22.74 7.64, 24.83 6.98 C26.93 6.32, 27.87 4.52, 29.38 3.61 C30.88 2.7, 33.34 2.4, 33.86 1.52" stroke="#087f5b" stroke-width="1" fill="none"></path></g></g><mask></mask><g stroke-linecap="round" transform="translate(438.35027376465484 196.98916427958682) rotate(89.99999999999994 16.274237016333302 7.235175596323074)"><path d="M16.65 0.23 C19.96 0.42, 24.69 1.59, 27.27 2.68 C29.85 3.76, 31.69 5.45, 32.15 6.74 C32.61 8.04, 31.97 9.07, 30.03 10.43 C28.08 11.78, 23.6 14.43, 20.48 14.87 C17.36 15.32, 14.48 13.69, 11.29 13.1 C8.11 12.51, 3.23 12.41, 1.38 11.33 C-0.47 10.24, -0.7 8.37, 0.21 6.6 C1.11 4.84, 3.19 1.63, 6.79 0.74 C10.38 -0.15, 18.76 1.23, 21.77 1.26 C24.78 1.29, 25.13 0.87, 24.85 0.92 M10.56 -0.34 C13.32 -1, 16.53 0.47, 19.85 1.12 C23.16 1.77, 28.59 2.45, 30.45 3.55 C32.32 4.66, 31.68 6.05, 31.03 7.77 C30.37 9.5, 28.56 12.99, 26.53 13.9 C24.5 14.8, 21.9 13.12, 18.84 13.18 C15.78 13.24, 11.17 14.73, 8.15 14.24 C5.13 13.76, 1.58 11.98, 0.73 10.27 C-0.12 8.56, 1.6 5.61, 3.06 3.99 C4.51 2.37, 8.49 0.85, 9.46 0.54 C10.43 0.22, 8.61 1.75, 8.86 2.11" stroke="none" stroke-width="0" fill="#fff"></path><path d="M13.19 -0.84 C16.48 -1.04, 21.79 0.65, 24.95 1.48 C28.12 2.31, 30.95 2.88, 32.19 4.15 C33.43 5.41, 33.74 7.66, 32.39 9.08 C31.04 10.49, 27.38 11.75, 24.1 12.63 C20.83 13.52, 16.1 14.39, 12.74 14.37 C9.39 14.36, 5.91 13.61, 3.95 12.54 C1.99 11.46, 1.07 9.67, 1 7.91 C0.93 6.14, 0.88 3.37, 3.53 1.94 C6.17 0.5, 13.87 -0.33, 16.86 -0.71 C19.85 -1.1, 21.48 -0.75, 21.47 -0.38 M19.98 0.53 C22.94 0.64, 27.07 0.88, 29.28 2.26 C31.48 3.64, 33.5 7.11, 33.2 8.82 C32.91 10.53, 29.99 11.39, 27.49 12.53 C24.99 13.66, 21.68 15.54, 18.23 15.62 C14.78 15.7, 9.98 14.12, 6.78 13.01 C3.59 11.89, 0 10.36, -0.95 8.95 C-1.9 7.55, -0.45 5.87, 1.09 4.57 C2.63 3.27, 4.87 2.11, 8.27 1.17 C11.67 0.23, 19.31 -0.98, 21.48 -1.05 C23.65 -1.11, 21.58 0.49, 21.28 0.76" stroke="#087f5b" stroke-width="1" fill="none"></path></g><g stroke-linecap="round"><g transform="translate(164.39315131514195 198.13451136180026) rotate(0 96.41134428439005 0.21570301204974385)"><path d="M-0.14 -1.2 C59.92 -1.81, 118.88 -1.37, 192.95 0.71 M0.16 0.34 C76.69 2.05, 151.34 2.49, 192.96 0.91" stroke="#000000" stroke-width="1" fill="none"></path></g><g transform="translate(164.39315131514195 198.13451136180026) rotate(0 96.41134428439005 0.21570301204974385)"><path d="M192.63 -0.89 L180.15 8.08 L178.07 -6.16 L191.6 1.7" stroke="none" stroke-width="0" fill="#000000" fill-rule="evenodd"></path><path d="M192.86 0.01 C188.5 2.55, 183.29 4.63, 179.72 7.03 M193.09 1.17 C188.09 3.86, 181.66 6.39, 179.73 7.18 M178.71 6.5 C178.9 3.98, 180 0.87, 179.41 -5.86 M178.86 7.46 C180 3.71, 180.02 0.52, 179.59 -5.55 M179.03 -4.52 C183.31 -3.06, 189.14 -1.11, 192.27 0.92 M179.85 -4.65 C183.78 -3.36, 189.08 -0.16, 192.26 1 M192.96 0.91 C192.96 0.91, 192.96 0.91, 192.96 0.91 M192.96 0.91 C192.96 0.91, 192.96 0.91, 192.96 0.91" stroke="#000000" stroke-width="1" fill="none"></path></g></g><mask></mask><g stroke-linecap="round"><g transform="translate(469.607748584991 204.96399980346598) rotate(0 78.14133989757613 12.783852168214594)"><path d="M-1.59 -0.58 C41.2 6.97, 84.17 15.69, 156.86 26.15 M-0.52 0.99 C40.26 6.22, 81.45 12.77, 157.87 24.23" stroke="#000000" stroke-width="1" fill="none"></path></g><g transform="translate(469.607748584991 204.96399980346598) rotate(0 78.14133989757613 12.783852168214594)"><path d="M159.68 22.96 L144.12 30 L146.7 15.3 L159.06 25.43" stroke="none" stroke-width="0" fill="#000000" fill-rule="evenodd"></path><path d="M156.68 23.8 C153.48 24.83, 150.52 27.59, 142.51 29.57 M157.48 24.97 C154.06 24.86, 150.99 26.14, 143.27 28.13 M143.61 28.97 C144.37 26.3, 143.66 21.75, 145.43 14.7 M144.1 28.72 C144.57 22.86, 144.45 18.83, 145.32 15.38 M145.45 15.22 C149.19 19.71, 153.83 22.1, 157.4 23.59 M145.35 16.01 C148.63 17.97, 151.41 20.1, 157.47 24.87 M157.87 24.23 C157.87 24.23, 157.87 24.23, 157.87 24.23 M157.87 24.23 C157.87 24.23, 157.87 24.23, 157.87 24.23" stroke="#000000" stroke-width="1" fill="none"></path></g></g><mask></mask><g stroke-linecap="round"><g transform="translate(393.42583017786956 306.52761583553604) rotate(89.99999999999994 16.188415640570213 41.479078302321795)" fill-rule="evenodd"><path d="M1.21 -2.93 C1.21 -2.93, 1.21 -2.93, 1.21 -2.93 M1.21 -2.93 C1.21 -2.93, 1.21 -2.93, 1.21 -2.93 M1.36 2.3 C4.24 -0.33, 5.3 -2.45, 8.14 -4.69 M2.28 2.13 C4.26 -0.35, 5.36 -2.52, 8.72 -5.58 M2.85 9.32 C7.02 5.71, 9.94 1.39, 16.76 -7.68 M1.87 8.16 C7.1 1.57, 12.14 -3.46, 15.93 -6.03 M3.69 14.65 C5.99 8.88, 8.59 4.34, 18.52 -5.3 M2.48 14.04 C7.29 8.43, 11.83 1.82, 19.31 -4.96 M2.69 21.05 C8.62 12.3, 17.57 2.7, 22.49 -5.71 M1.91 19.95 C7.79 14.12, 14.53 5.42, 24.5 -4.53 M0.97 26.73 C10.13 14.94, 19.94 5.63, 28.86 -3.07 M2.67 26.21 C11.44 15.11, 21.27 3.79, 28.18 -5.11 M3.25 31.25 C8.54 24.95, 18.04 14.39, 30.38 -0.38 M1.54 33.24 C8.75 23.86, 15.93 17.27, 32.26 -1.76 M4.56 39.08 C12.4 25.61, 25.39 13.14, 36.99 0.06 M2.58 38.21 C12.01 26.85, 23.05 15.39, 35.98 -0.57 M0.43 45.18 C13.97 31.47, 27.95 15.56, 33.47 7.8 M2.71 44.79 C13.6 30.14, 26.21 17.26, 35.84 7.61 M1.55 50.54 C10.29 40.09, 20.63 30.63, 34.61 13.67 M2.69 49.88 C12.83 36.81, 25 24, 34.14 12.81 M4 55.75 C12.51 45.76, 21.66 33.59, 34.87 16.94 M2.71 57.29 C12.35 44.27, 24.94 31.62, 34.95 18.25 M3.88 60.59 C15.84 49.88, 25.34 34.25, 33.08 23.38 M3.36 62.49 C13.7 49.54, 22.02 38.24, 34.2 24.52 M3.56 69.54 C11.75 57.31, 23.45 45.77, 34.52 29.53 M3.18 68.34 C16.04 53.42, 27.41 38.89, 36.08 31.03 M1.68 76.13 C10.02 64.43, 21.77 52.52, 37.07 36.3 M3.07 74.49 C10.29 66.71, 16.07 58.41, 34.54 37.76 M2.59 80.76 C11.26 72.14, 20.61 61.61, 33.26 45.26 M3.06 81.45 C10.79 71.56, 17.97 63.06, 35.65 42.73 M3.87 86.47 C10.66 79.57, 17.28 68.66, 35.75 48.45 M2.13 87.47 C10.8 77.26, 20.76 65.82, 34.47 49.93 M7.64 89.53 C14.23 78.3, 25.01 69.86, 36.76 56.22 M6.9 89.3 C17.32 75.97, 30.08 63.17, 34.83 56.33 M11.5 89.52 C13.72 85.57, 21.57 78.03, 36.14 59.49 M8.93 91.42 C16.97 81.95, 24.28 75.04, 34.68 60.33 M13.17 89.88 C23.6 80.76, 30.32 71.81, 33.54 69.38 M14.63 92.74 C19.56 84.55, 25.51 78.91, 34.68 68.47 M18.62 93.44 C22.22 88.1, 26.71 83.1, 36.44 75.49 M19.84 91.33 C23.57 86.78, 26.98 82.98, 35.51 73.93 M28.28 89.67 C30.37 85.21, 31.28 83.97, 35.51 80.9 M27.69 88.51 C29.7 86.51, 31.74 83.7, 35.58 79.57" stroke="#40c057" stroke-width="0.5" fill="none"></path><path d="M-1.06 0.15 C-1.34 12.49, -1.13 60.91, -1.06 74.68 C-1 88.45, -1.02 80.99, -0.67 82.77 C-0.33 84.54, -0.53 84.29, 1 85.34 C2.52 86.39, 5.78 88.35, 8.47 89.06 C11.17 89.76, 14.09 89.6, 17.17 89.58 C20.24 89.57, 24.39 89.71, 26.93 88.97 C29.46 88.24, 31.47 86.39, 32.38 85.17 C33.29 83.95, 32.1 83.31, 32.4 81.65 C32.69 79.99, 34.09 87.63, 34.17 75.23 C34.25 62.84, 32.97 19.73, 32.89 7.29 C32.81 -5.14, 33.86 2.62, 33.7 0.63 C33.55 -1.36, 33.24 -3.43, 31.96 -4.66 C30.67 -5.88, 28.63 -6.02, 25.99 -6.72 C23.34 -7.43, 18.94 -8.86, 16.1 -8.9 C13.26 -8.94, 11.35 -7.7, 8.94 -6.94 C6.54 -6.18, 3.07 -5.4, 1.68 -4.35 C0.29 -3.29, 0.91 -1.44, 0.6 -0.64 C0.29 0.16, 0 0.23, -0.18 0.45 M0.58 -0.82 C0.6 11.11, 1.43 58.67, 1.03 72.84 C0.64 87, -1.77 81.99, -1.8 84.18 C-1.82 86.36, -0.67 85.11, 0.87 85.97 C2.41 86.82, 4.53 88.32, 7.43 89.3 C10.34 90.28, 14.98 92.09, 18.3 91.83 C21.63 91.57, 25.21 88.9, 27.39 87.74 C29.57 86.58, 30.26 85.54, 31.36 84.88 C32.47 84.21, 33.95 85.43, 34.02 83.75 C34.09 82.07, 31.95 87.89, 31.79 74.8 C31.64 61.71, 32.94 17.53, 33.09 5.18 C33.24 -7.17, 33.36 1.92, 32.7 0.69 C32.04 -0.54, 30.4 -0.87, 29.13 -2.2 C27.87 -3.53, 27.23 -6.58, 25.11 -7.27 C23 -7.97, 19.48 -6.61, 16.44 -6.36 C13.4 -6.12, 9.53 -6.14, 6.88 -5.79 C4.23 -5.43, 1.76 -5.08, 0.56 -4.21 C-0.65 -3.34, 0.02 -1.44, -0.36 -0.58 C-0.73 0.28, -1.68 0.97, -1.67 0.95" stroke="#087f5b" stroke-width="1" fill="none"></path></g></g><mask></mask><g stroke-linecap="round"><g transform="translate(377.8572085562423 344.04412040888485) rotate(89.99999999999994 15.526791691579945 3.326448621329746)"><path d="M0.15 -1.17 C0.27 -0.57, 0.62 1.47, 1.38 2.53 C2.13 3.6, 3.5 4.22, 4.68 5.19 C5.86 6.17, 6.46 8.04, 8.47 8.37 C10.48 8.69, 13.94 7.51, 16.72 7.17 C19.51 6.83, 22.76 7.02, 25.19 6.3 C27.62 5.59, 30.13 4.11, 31.31 2.88 C32.49 1.65, 32.19 -0.69, 32.28 -1.06 M-1.23 0.83 C-1.28 1.67, -0.17 2.83, 0.71 3.72 C1.58 4.6, 2.75 5.72, 4 6.14 C5.26 6.56, 5.78 6.05, 8.24 6.24 C10.7 6.43, 15.77 7.48, 18.77 7.29 C21.77 7.09, 24.02 6.04, 26.23 5.08 C28.45 4.12, 31.22 2.68, 32.07 1.54 C32.91 0.4, 31.03 -1.47, 31.3 -1.77" stroke="#087f5b" stroke-width="1" fill="none"></path></g></g><mask></mask><g stroke-linecap="round"><g transform="translate(406.69094138444666 344.2593525887854) rotate(89.99999999999994 16.25235439492718 2.7930780295902764)"><path d="M-1.17 0.53 C-0.97 0.96, -0.66 2.2, 0.17 2.75 C0.99 3.3, 2.11 3.33, 3.78 3.83 C5.45 4.34, 8.06 5.5, 10.17 5.77 C12.28 6.04, 13.88 5.5, 16.43 5.46 C18.98 5.42, 23.04 6.06, 25.47 5.55 C27.91 5.04, 30.03 3.42, 31.02 2.39 C32 1.36, 31.06 -0.2, 31.41 -0.64 M0.41 -0.24 C1.1 0.4, 1.54 3.56, 2.52 4.38 C3.5 5.2, 4.91 4.28, 6.3 4.68 C7.69 5.07, 8.84 6.6, 10.85 6.73 C12.86 6.87, 15.7 5.83, 18.34 5.48 C20.99 5.13, 24.48 5.35, 26.7 4.62 C28.92 3.89, 30.5 2.05, 31.66 1.09 C32.83 0.12, 33.63 -0.71, 33.68 -1.16" stroke="#087f5b" stroke-width="1" fill="none"></path></g></g><mask></mask><g stroke-linecap="round" transform="translate(436.2730320615283 340.5440727827537) rotate(89.99999999999994 16.274237016333302 7.235175596323074)"><path d="M12.93 -0.74 C16.29 -1.13, 21.36 0.43, 24.36 1.29 C27.36 2.16, 29.85 3.19, 30.96 4.44 C32.06 5.7, 31.86 7.41, 30.98 8.84 C30.1 10.27, 28.64 12.05, 25.69 13.04 C22.74 14.02, 16.87 14.86, 13.28 14.75 C9.69 14.63, 6.29 13.68, 4.16 12.36 C2.02 11.05, 0.7 8.6, 0.46 6.83 C0.22 5.07, 0.56 2.9, 2.72 1.78 C4.88 0.66, 11.56 0.53, 13.4 0.11 C15.25 -0.31, 13.83 -0.95, 13.8 -0.76 M20.94 0.72 C24.22 0.72, 28.47 1.17, 30.63 2.24 C32.78 3.32, 34.07 5.53, 33.88 7.16 C33.7 8.8, 32.22 10.85, 29.53 12.04 C26.84 13.23, 21.66 14.15, 17.76 14.3 C13.85 14.46, 8.93 13.62, 6.11 12.98 C3.29 12.35, 1.45 12.14, 0.83 10.49 C0.22 8.84, 0.94 4.95, 2.43 3.09 C3.92 1.23, 6.64 -0.27, 9.75 -0.67 C12.86 -1.07, 19.38 0.66, 21.11 0.69 C22.85 0.71, 20.48 -0.36, 20.15 -0.52" stroke="none" stroke-width="0" fill="#fff"></path><path d="M18.14 -0.21 C21.48 -0.17, 24.83 0.31, 27.17 1.46 C29.51 2.6, 31.74 5.03, 32.17 6.68 C32.6 8.33, 31.76 10.16, 29.75 11.37 C27.75 12.57, 23.36 13.49, 20.14 13.91 C16.92 14.33, 13.55 14.31, 10.43 13.87 C7.32 13.43, 2.99 12.56, 1.45 11.28 C-0.1 10.01, 0.09 7.99, 1.14 6.24 C2.18 4.49, 4.79 1.89, 7.71 0.77 C10.62 -0.35, 16.54 -0.25, 18.64 -0.47 C20.74 -0.69, 20.14 -0.72, 20.29 -0.53 M17.26 -0.19 C20.91 -0.36, 25.88 0.61, 28.56 1.59 C31.25 2.57, 33.34 3.89, 33.37 5.71 C33.4 7.52, 30.71 11.01, 28.73 12.45 C26.76 13.9, 25.02 13.94, 21.51 14.36 C18.01 14.77, 10.81 15.73, 7.69 14.95 C4.57 14.17, 3.83 11.07, 2.82 9.65 C1.8 8.24, 0.62 7.67, 1.58 6.44 C2.55 5.21, 5.83 3.37, 8.61 2.28 C11.39 1.19, 16.77 0.27, 18.26 -0.11 C19.75 -0.48, 17.44 -0.36, 17.56 0.03" stroke="#087f5b" stroke-width="1" fill="none"></path></g><g stroke-linecap="round"><g transform="translate(608.1037703471719 294.76051051166394) rotate(0 -70.7761375411464 27.321947409338406)"><path d="M-1.33 1.08 C-36.87 12.18, -70.77 25.75, -140.71 53.82 M-0.84 0.82 C-48.89 17.53, -95.91 36.9, -140.03 53.82" stroke="#000000" stroke-width="1" fill="none"></path></g><g transform="translate(608.1037703471719 294.76051051166394) rotate(0 -70.7761375411464 27.321947409338406)"><path d="M-141.09 53 L-127.77 41.41 L-127.02 56.48 L-141.93 55.76" stroke="none" stroke-width="0" fill="#000000" fill-rule="evenodd"></path><path d="M-141.03 54.63 C-138.1 50.96, -134.18 48.26, -129.54 43.26 M-140.65 54.44 C-137.07 49.6, -132.27 46.55, -129.03 43.26 M-128.76 41.85 C-129.04 46.12, -128.12 50.31, -125.39 54.77 M-129.53 42.72 C-128.13 47.57, -126.52 51.77, -124.76 54.28 M-126.35 55.79 C-130.18 55.55, -136.77 55.11, -139.53 53.17 M-124.42 55 C-128.67 54.26, -133.97 54.89, -139.71 53.47 M-140.03 53.82 C-140.03 53.82, -140.03 53.82, -140.03 53.82 M-140.03 53.82 C-140.03 53.82, -140.03 53.82, -140.03 53.82" stroke="#000000" stroke-width="1" fill="none"></path></g></g><mask></mask><g stroke-linecap="round" transform="translate(74.78448483165039 385.34734182556883) rotate(0 46.92544770835718 46.023035252427235)"><path d="M-1.1 0.05 L93.46 0.79 L91.98 92.15 L1.98 93.4" stroke="none" stroke-width="0" fill="#eeeeee"></path><path d="M1.08 -1.34 C22.48 -0.51, 47.14 -0.91, 94.73 -0.35 M-0.67 -0.89 C20.59 -1.03, 42.75 -1.24, 94.21 -0.66 M93.06 -1.16 C92.09 33.23, 92.3 67.56, 93.35 91.66 M93.02 0.79 C95.41 24.54, 94.59 50.11, 92.99 92.77 M93.75 91.69 C70.12 93.7, 43.64 93.85, -0.9 92.36 M93.52 91.31 C56.21 92.96, 18.6 93.3, -0.71 91.35 M-1.61 92.93 C-1.25 58.46, -2.07 26.32, -1.74 -1.44 M0.39 91.79 C-0.33 70.71, -0.83 47.7, -0.67 -0.63" stroke="#000000" stroke-width="1" fill="none"></path></g><g transform="translate(81.94784952718163 412.6679511259539) rotate(0 39 17.5)"><text x="39" y="14.5" font-family="Cascadia, Segoe UI Emoji" font-size="14.53640502362555px" fill="#000000" text-anchor="middle" style="white-space: pre;" direction="ltr">EVENT</text><text x="39" y="32" font-family="Cascadia, Segoe UI Emoji" font-size="14.53640502362555px" fill="#000000" text-anchor="middle" style="white-space: pre;" direction="ltr">PROCESSOR</text></g><g stroke-linecap="round" transform="translate(147.84239828360546 462.7600498508333) rotate(0 15.075640493638588 22.876446739244784)"><path d="M-0.39 0.79 L28.28 0.1 L32.13 47.1 L-1.41 47.15" stroke="none" stroke-width="0" fill="#fff"></path><path d="M-0.77 0.39 C12.59 0.19, 24.77 -0.15, 28.73 0.57 M-0.91 -0.66 C9.97 -0.61, 20.8 -0.39, 30.86 -0.66 M29 -0.88 C29.03 13.71, 29.47 28.35, 29.51 47.39 M30.95 -0.13 C29.76 16.01, 28.91 31.22, 29.85 45.44 M31.77 47.47 C21.78 47.56, 11.54 46.01, 2 45.16 M30.04 46.2 C19.38 46.31, 8.31 44.83, 0.53 46.69 M-0.39 44.69 C-0.84 27.58, -1.37 9.3, -1.26 1.85 M0.52 46.24 C-0.16 34.39, -0.85 23.79, -0.55 0.02" stroke="#000000" stroke-width="2" fill="none"></path></g><g stroke-linecap="round" transform="translate(144.62268487160827 459.76529977889834) rotate(0 15.075640493638588 22.876446739244784)"><path d="M0.79 -1.88 L30.26 1.98 L31.5 44.35 L1.4 44.72" stroke="none" stroke-width="0" fill="#fff"></path><path d="M0.39 0.65 C10.67 1, 21.01 -1.3, 30.72 0.78 M-0.66 -0.26 C6.14 0.63, 13.36 0.98, 29.49 0.14 M29.27 -0.94 C29.23 11.42, 29.5 23.19, 31.79 46.42 M30.02 -0.01 C31.28 9.06, 31.24 19.53, 29.84 45.69 M31.87 46.24 C23.13 45.09, 12.69 47.99, -0.59 46.76 M30.59 45.55 C22.89 45.01, 13.37 46.25, 0.94 46.58 M-1.06 44.55 C-0.87 33.99, -1.64 24.43, 1.85 -1.34 M0.49 45.77 C-0.58 29.56, -0.51 14.16, 0.02 -0.19" stroke="#000000" stroke-width="2" fill="none"></path></g><g stroke-linecap="round" transform="translate(140.61476657183812 456.24420690815157) rotate(0 15.075640493638588 22.876446739244784)"><path d="M-1.88 0.1 L32.13 1.35 L28.75 47.15 L-1.03 47.72" stroke="none" stroke-width="0" fill="#fff"></path><path d="M0.65 -0.01 C7.9 -0.41, 12.62 0.51, 30.93 -1.35 M-0.26 -0.88 C6.73 -0.46, 13.45 -0.47, 30.29 -0.4 M29.21 -0.66 C29.39 10.69, 29.25 23.78, 30.82 44.09 M30.14 0.77 C29.66 18.06, 30.22 34.37, 30.09 45.7 M30.64 47.62 C20.75 46.33, 15.14 45.42, 1.01 45.09 M29.95 46.53 C22.6 45.19, 17 46.82, 0.83 44.95 M-1.2 45.08 C-1.65 28.57, -1.17 16.11, -1.34 0.78 M0.02 45.05 C-0.91 32.59, -0.79 20.71, -0.19 0.39" stroke="#000000" stroke-width="2" fill="none"></path></g><g stroke-linecap="round"><g transform="translate(145.7281419752601 477.0396392328204) rotate(0 10.300124189481267 -0.9097028467600694)"><path d="M0.39 0 C3.43 -0.07, 14.67 0.02, 17.77 -0.14 C20.88 -0.3, 18.59 -0.64, 19.02 -0.98 M-0.87 -1.05 C2.1 -0.95, 13.38 1.63, 17.1 1.29 C20.83 0.94, 20.85 -2.68, 21.47 -3.14" stroke="#000000" stroke-width="1" fill="none"></path></g></g><mask></mask><g stroke-linecap="round"><g transform="translate(146.51958728986006 463.6166373924567) rotate(0 9.157948684197606 -0.7584405726348677)"><path d="M0 0.53 C1.12 0.12, 3.67 -2.01, 6.97 -2.05 C10.27 -2.08, 17.84 0.19, 19.78 0.33 M-1.47 -0.24 C-0.54 -0.55, 2.47 -0.7, 5.91 -0.96 C9.36 -1.21, 17.11 -1.82, 19.2 -1.77" stroke="#000000" stroke-width="1" fill="none"></path></g></g><mask></mask><g stroke-linecap="round"><g transform="translate(146.48691015459576 492.3668852853003) rotate(0 9.452158276004212 -0.4323966616728967)"><path d="M0.53 -0.21 C2.2 -0.17, 7.75 0.17, 10.42 0.23 C13.08 0.3, 14.99 0.54, 16.52 0.18 C18.04 -0.18, 19 -1.72, 19.56 -1.94 M-0.65 -1.36 C1.36 -1.7, 9.91 -2.11, 12.68 -1.71 C15.46 -1.3, 14.9 1.02, 16 1.07 C17.09 1.12, 18.31 -1.08, 19.24 -1.41" stroke="#000000" stroke-width="1" fill="none"></path></g></g><mask></mask><g stroke-linecap="round"><g transform="translate(145.12860470606847 497.1631803371298) rotate(0 11.575317465424803 -0.4373770241110151)"><path d="M-0.21 -0.85 C0.57 -0.94, 3.63 0.07, 4.68 -0.03 C5.73 -0.12, 3.75 -1.34, 6.07 -1.42 C8.4 -1.51, 15.83 -0.43, 18.64 -0.53 C21.44 -0.63, 22.07 -1.82, 22.9 -2.03 M-1.78 1.32 C-1.12 0.81, 2.19 -1.57, 3.91 -1.9 C5.63 -2.24, 6.14 -1.01, 8.54 -0.67 C10.94 -0.32, 15.58 0.41, 18.31 0.16 C21.04 -0.1, 24.38 -2.24, 24.93 -2.19" stroke="#000000" stroke-width="1" fill="none"></path></g></g><mask></mask><g stroke-linecap="round"><g transform="translate(145.25011787310495 470.04144707070384) rotate(0 10.219927106159048 -0.31348608684538704)"><path d="M-0.85 0.34 C0.43 0.2, 4.93 -0.96, 8.23 -1.06 C11.53 -1.17, 17.12 -0.55, 18.95 -0.29 M0.9 -0.52 C2.02 -0.51, 4.13 -0.11, 7.53 0.05 C10.93 0.21, 19.37 0.22, 21.29 0.45" stroke="#000000" stroke-width="1" fill="none"></path></g></g><mask></mask><g stroke-linecap="round"><g transform="translate(145.29597203108665 484.75193691031257) rotate(0 9.430185486156745 -0.26100700135441457)"><path d="M0.34 0.47 C0.82 0.53, 1.59 -0.2, 2.64 -0.46 C3.7 -0.71, 3.82 -1.08, 6.66 -1.04 C9.51 -1.01, 17.41 -0.42, 19.71 -0.25 M-0.94 -0.33 C-0.06 -0.08, 3.28 0.49, 4.93 0.52 C6.58 0.55, 6.5 -0.11, 8.98 -0.14 C11.46 -0.18, 18.09 0.28, 19.8 0.31" stroke="#000000" stroke-width="1" fill="none"></path></g></g><mask></mask><g stroke-linecap="round"><g transform="translate(351.0861560018286 360.36357177347475) rotate(0 -86.29054770417014 25.885181471470105)"><path d="M-1.92 0.63 C-62.93 18.3, -125.51 36.06, -172.92 51.14 M0.34 0.63 C-38.46 13.17, -76.35 23.33, -171.81 51.12" stroke="#000000" stroke-width="1" fill="none"></path></g><g transform="translate(351.0861560018286 360.36357177347475) rotate(0 -86.29054770417014 25.885181471470105)"><path d="M-173.14 51.73 L-159.8 41.75 L-155.56 51.85 L-172.5 50.07" stroke="none" stroke-width="0" fill="#000000" fill-rule="evenodd"></path><path d="M-173.24 51.59 C-167.28 47.67, -162.84 43.06, -161.32 40.53 M-171.55 51.6 C-169.33 49.45, -166.54 46.17, -160.49 40.51 M-160.69 41.51 C-160.54 42.95, -160.01 47.22, -155.86 53.51 M-160.33 40.81 C-158.71 45.22, -158.25 50.14, -157.59 54.06 M-158.44 53.7 C-161.18 53.39, -166.96 50.31, -171.44 51.5 M-156.51 54.12 C-161.5 52.99, -166.47 52.54, -172.3 51.08 M-171.81 51.12 C-171.81 51.12, -171.81 51.12, -171.81 51.12 M-171.81 51.12 C-171.81 51.12, -171.81 51.12, -171.81 51.12" stroke="#000000" stroke-width="1" fill="none"></path></g></g><mask></mask><g stroke-linecap="round"><g transform="translate(392.71359404093675 461.3243739768751) rotate(89.99999999999994 16.182255190912997 40.79595711306331)" fill-rule="evenodd"><path d="M1.21 -2.93 C1.21 -2.93, 1.21 -2.93, 1.21 -2.93 M1.21 -2.93 C1.21 -2.93, 1.21 -2.93, 1.21 -2.93 M2.66 1.78 C4.98 -0.74, 6.45 -2.13, 9.32 -6.32 M2.03 2.28 C3.72 -0.23, 5.45 -2.75, 9.3 -6.06 M0.3 9.06 C7.33 2.85, 12.5 -1.39, 15.28 -8.59 M2.53 8.02 C5.61 3.83, 8.64 0.74, 15.34 -6.04 M0.71 14.42 C6.59 7.28, 13.2 1.97, 18.68 -4.64 M1.84 13.57 C6.49 9.35, 9.96 4.39, 18.56 -3.89 M0.28 19.57 C7.17 13.51, 12.57 10.41, 23.05 -2.98 M2.94 19.5 C7.66 12.35, 15.03 5.89, 24.08 -5.4 M1.65 27.27 C6.61 19.9, 16.46 13.13, 28.27 -2.56 M2.36 26.13 C8.57 19.93, 12.13 13.66, 28.49 -3.76 M0.46 32.6 C11.95 20.04, 19.87 10.4, 33.27 -3.32 M2.43 31.65 C10.74 22.27, 19.44 11.95, 31.61 -2.48 M4.12 36.35 C13.66 24.16, 26.45 9.37, 36.76 1.2 M3.26 38.87 C11.16 28.09, 19.82 17.13, 35.47 0.31 M2.15 44.53 C9.76 34.93, 18.53 22.13, 35.04 4.85 M3.21 45.07 C10.51 36.86, 17.56 27.75, 35.24 6.23 M1.01 49.71 C13.37 33.91, 26.66 22.38, 33.3 12.25 M2.86 50.69 C12.46 39.49, 22.11 27.53, 34.66 12.35 M2.35 54.57 C14.35 40.65, 27.28 27.54, 35.35 19.78 M3.44 57.21 C10.58 46.76, 17.65 39.61, 34.96 19.51 M1.88 61.24 C10.96 54.19, 17.11 43.97, 36.52 23.49 M2.88 61.82 C12.64 49.56, 24.05 37.93, 35.92 24.63 M3.68 66.79 C11.81 58.39, 20.24 51.24, 33.82 29.3 M2.19 69.33 C13.97 55.04, 26.66 41.53, 35.14 30.19 M2.3 73.41 C12.15 60.7, 27.03 49.88, 36.2 36.44 M2.83 75.58 C10.32 66.68, 15.29 59.69, 34.54 38.07 M4.42 80.09 C13.88 68.61, 26.51 55.77, 34.78 43.62 M2.44 81.53 C16.02 66.25, 27.95 52.1, 35.64 43 M4.43 88.32 C7.8 78.17, 16.84 71.73, 36.39 48.73 M1.59 86.33 C13.89 73.92, 25.96 59.23, 35.36 48.65 M7.82 90.46 C14.41 79.94, 27.83 65.67, 35.19 54.53 M5.39 87.98 C13.42 81.17, 19.66 74.37, 34.71 54.68 M10.36 89.82 C18.89 80.88, 25.8 68.94, 36.82 60.82 M9.73 90.75 C19.63 79.44, 28.24 70.34, 35.16 61.2 M14.78 90.97 C20.54 88.61, 22.06 83.82, 34.71 65.92 M14.19 91.9 C21.13 83.72, 29.53 74.55, 36.06 67.62 M19.03 93.22 C23.51 86.79, 28.91 82.28, 34.23 74.79 M19.42 92.43 C22.36 87.96, 26.14 85.02, 34.98 73.12 M27.31 88.5 C31.6 84.69, 34.72 82.1, 35.91 80.37 M27.94 89 C29.71 85.93, 33.09 82.51, 34.81 79.74" stroke="#40c057" stroke-width="0.5" fill="none"></path><path d="M0.04 -0.31 C-0.14 12.05, -0.26 60.6, -0.25 74.26 C-0.23 87.93, -0.27 79.57, 0.13 81.69 C0.54 83.82, 1.11 85.57, 2.19 87.01 C3.27 88.45, 4.05 89.71, 6.61 90.34 C9.17 90.97, 14.11 91.11, 17.54 90.82 C20.98 90.53, 24.74 89.5, 27.2 88.6 C29.66 87.69, 31.2 86.64, 32.29 85.39 C33.37 84.13, 33.56 82.81, 33.71 81.09 C33.86 79.37, 33.49 87.47, 33.2 75.09 C32.91 62.71, 31.97 19.51, 31.97 6.81 C31.98 -5.88, 33.26 0.56, 33.24 -1.09 C33.22 -2.75, 32.92 -2.2, 31.86 -3.12 C30.8 -4.05, 29.61 -5.73, 26.88 -6.62 C24.16 -7.51, 18.85 -8.35, 15.52 -8.47 C12.18 -8.58, 9.26 -8.21, 6.85 -7.32 C4.44 -6.42, 2.1 -4.2, 1.04 -3.08 C-0.02 -1.96, 0.61 -1.18, 0.48 -0.59 C0.35 -0.01, 0.49 0.37, 0.23 0.43 M-1.4 -1.51 C-1.83 11.05, -1.52 61.85, -1.38 75.86 C-1.24 89.87, -1.24 81.04, -0.56 82.54 C0.12 84.04, 1.23 84.02, 2.69 84.86 C4.16 85.7, 5.55 86.74, 8.25 87.6 C10.95 88.47, 15.62 90.13, 18.88 90.06 C22.14 89.98, 25.74 87.98, 27.8 87.17 C29.86 86.36, 30.46 85.92, 31.22 85.2 C31.98 84.49, 31.9 84.67, 32.36 82.9 C32.82 81.13, 34.09 87.65, 33.98 74.58 C33.87 61.5, 32.03 17.2, 31.7 4.45 C31.37 -8.3, 32.44 -0.61, 31.99 -1.94 C31.54 -3.27, 29.91 -2.66, 28.99 -3.52 C28.07 -4.39, 28.72 -6.14, 26.48 -7.12 C24.24 -8.09, 18.74 -9.49, 15.55 -9.37 C12.36 -9.24, 9.4 -7.54, 7.35 -6.35 C5.3 -5.17, 4.56 -3.25, 3.25 -2.28 C1.93 -1.3, 0.17 -1.04, -0.54 -0.51 C-1.26 0.02, -0.93 0.58, -1.03 0.9" stroke="#087f5b" stroke-width="1" fill="none"></path></g></g><mask></mask><g stroke-linecap="round"><g transform="translate(377.1449724193095 498.8408785502239) rotate(89.99999999999994 16.094514709209705 3.1742465004704172)"><path d="M-0.31 -0.36 C-0.17 0.19, 0.31 2.22, 0.96 3.34 C1.61 4.47, 2.08 5.87, 3.61 6.39 C5.14 6.92, 7.74 6.31, 10.14 6.5 C12.54 6.69, 15.3 7.54, 18.01 7.55 C20.72 7.56, 24.27 7.37, 26.43 6.57 C28.58 5.78, 29.92 3.84, 30.93 2.79 C31.95 1.73, 32.43 0.77, 32.49 0.25 M1.74 -1.59 C1.71 -0.83, -0.65 3.97, 0.07 4.95 C0.78 5.93, 4.24 3.95, 6.03 4.3 C7.82 4.65, 8.95 6.46, 10.79 7.06 C12.63 7.65, 14.79 8.12, 17.07 7.86 C19.35 7.6, 22.05 6.57, 24.46 5.49 C26.86 4.41, 30.3 2.27, 31.5 1.4 C32.69 0.52, 31.41 0.76, 31.63 0.24" stroke="#087f5b" stroke-width="1" fill="none"></path></g></g><mask></mask><g stroke-linecap="round"><g transform="translate(405.97870524751386 499.0561107301247) rotate(89.99999999999994 16.182752603929032 2.6824152410024453)"><path d="M-0.36 0.11 C-0.2 0.44, 0.09 0.78, 0.97 1.68 C1.86 2.58, 3.75 4.61, 4.98 5.51 C6.2 6.4, 6.33 6.86, 8.3 7.06 C10.28 7.25, 13.9 7.01, 16.81 6.69 C19.71 6.38, 23.39 5.86, 25.74 5.17 C28.1 4.49, 29.76 3.66, 30.92 2.6 C32.08 1.54, 32.52 -0.69, 32.72 -1.2 M1.66 -0.88 C1.66 -0.39, -0.37 2, 0.09 2.74 C0.56 3.48, 3.15 3.19, 4.46 3.57 C5.78 3.95, 6.21 4.4, 8.01 5.03 C9.8 5.66, 12.08 7.53, 15.26 7.36 C18.45 7.2, 24.41 5.04, 27.12 4.05 C29.83 3.06, 30.7 2.42, 31.52 1.41 C32.34 0.4, 32.2 -1.46, 32.02 -2.01" stroke="#087f5b" stroke-width="1" fill="none"></path></g></g><mask></mask><g stroke-linecap="round" transform="translate(435.5607959245955 495.34083092409276) rotate(89.99999999999994 16.274237016333302 7.235175596323074)"><path d="M10.13 1.01 C13.1 0.45, 17.52 0.76, 20.7 1.24 C23.88 1.71, 27.26 2.63, 29.23 3.85 C31.2 5.07, 32.93 7.14, 32.52 8.55 C32.11 9.96, 29.22 11.18, 26.75 12.31 C24.27 13.44, 21.09 15.07, 17.66 15.31 C14.23 15.54, 9.15 14.76, 6.16 13.7 C3.17 12.64, 0.63 10.67, -0.27 8.93 C-1.18 7.19, -1.56 4.86, 0.73 3.25 C3.03 1.64, 10.95 -0.3, 13.5 -0.76 C16.04 -1.21, 16.04 0.38, 16 0.51 M19.97 0.97 C23.2 0.91, 26.89 -0.02, 28.88 1.2 C30.88 2.42, 31.95 6.36, 31.94 8.27 C31.94 10.19, 31.08 11.6, 28.85 12.69 C26.62 13.79, 22.17 14.71, 18.57 14.83 C14.96 14.94, 10.1 14.2, 7.23 13.4 C4.35 12.6, 2.18 11.35, 1.32 10.03 C0.45 8.72, 0.92 7.2, 2.03 5.53 C3.13 3.87, 5.32 0.89, 7.96 0.04 C10.6 -0.81, 16.22 0.41, 17.87 0.42 C19.52 0.44, 17.8 -0.09, 17.87 0.12" stroke="none" stroke-width="0" fill="#fff"></path><path d="M9.46 1.34 C12.38 0.69, 17.89 0.49, 21.33 0.82 C24.77 1.15, 28.27 2.04, 30.09 3.33 C31.92 4.62, 32.72 7.13, 32.3 8.56 C31.88 9.99, 30.16 10.94, 27.56 11.91 C24.96 12.88, 20.43 14.13, 16.7 14.38 C12.97 14.62, 7.87 14.45, 5.18 13.39 C2.5 12.33, 0.97 9.49, 0.58 8.01 C0.2 6.52, 0.76 5.84, 2.86 4.45 C4.97 3.07, 11.24 0.5, 13.23 -0.31 C15.22 -1.11, 14.98 -0.5, 14.82 -0.38 M13.01 0.38 C16.32 -0.27, 22.11 -0.84, 25.16 -0.32 C28.21 0.21, 30.32 1.91, 31.29 3.52 C32.26 5.14, 32.3 7.55, 30.99 9.38 C29.68 11.2, 26.41 13.8, 23.44 14.48 C20.48 15.15, 16.47 13.85, 13.21 13.43 C9.95 13, 5.84 12.76, 3.87 11.95 C1.89 11.15, 1.31 10.41, 1.36 8.61 C1.42 6.81, 2.03 2.59, 4.22 1.17 C6.4 -0.24, 12.84 0.18, 14.45 0.12 C16.06 0.05, 13.84 0.76, 13.89 0.79" stroke="#087f5b" stroke-width="1" fill="none"></path></g><g transform="translate(375.24547862787006 530.4543889568073) rotate(0 33.5 19.5)"><text x="33.5" y="15.5" font-family="Cascadia, Segoe UI Emoji" font-size="16px" fill="#000000" text-anchor="middle" style="white-space: pre;" direction="ltr">EVENT</text><text x="33.5" y="35" font-family="Cascadia, Segoe UI Emoji" font-size="16px" fill="#000000" text-anchor="middle" style="white-space: pre;" direction="ltr">CHANNEL</text></g><g stroke-linecap="round"><g transform="translate(187.90251843638373 480.7849863896664) rotate(0 76.35404931639982 11.122183208047772)"><path d="M-0.22 -1.88 C40.89 6.17, 85.28 13.24, 152.92 24.12 M-0.85 0.81 C37.68 6.36, 74.67 13.99, 153.55 24.13" stroke="#000000" stroke-width="1" fill="none"></path></g><g transform="translate(187.90251843638373 480.7849863896664) rotate(0 76.35404931639982 11.122183208047772)"><path d="M154.24 22.17 L137.64 29.07 L141.41 16.4 L153.21 23.03" stroke="none" stroke-width="0" fill="#000000" fill-rule="evenodd"></path><path d="M153.39 22.72 C148.66 24.18, 146.47 25.76, 138.28 28.57 M152.92 24.73 C150.74 24.37, 147.45 26.84, 138.76 28.58 M140.33 27.5 C138.59 26.59, 140.34 23.07, 142.15 15.52 M139.39 28.69 C139.22 26.03, 139.95 22.92, 140.45 16.41 M141.11 15.75 C144.5 19.34, 146.73 20.85, 154.37 23.67 M140.33 16.19 C144.21 19.06, 148.82 20.32, 154.3 23.94 M153.55 24.13 C153.55 24.13, 153.55 24.13, 153.55 24.13 M153.55 24.13 C153.55 24.13, 153.55 24.13, 153.55 24.13" stroke="#000000" stroke-width="1" fill="none"></path></g></g><mask></mask><g stroke-linecap="round"><g transform="translate(465.87352978733634 490.58590962449864) rotate(0 80.14033378860574 -21.536374212630562)"><path d="M-0.15 -1.71 C39.59 -10.54, 81.09 -21.51, 158.31 -42.6 M-0.63 -0.12 C60.51 -16.73, 122.48 -33.41, 160.91 -42.96" stroke="#000000" stroke-width="1" fill="none"></path></g><g transform="translate(465.87352978733634 490.58590962449864) rotate(0 80.14033378860574 -21.536374212630562)"><path d="M161.95 -42 L147.91 -34.56 L147.91 -46.65 L160.6 -43" stroke="none" stroke-width="0" fill="#000000" fill-rule="evenodd"></path><path d="M160.8 -44.24 C157.77 -39.51, 155.9 -37.14, 147.9 -32.63 M160.44 -43.04 C156.01 -39.11, 151.99 -35.42, 149.85 -32.89 M149.5 -32.38 C148.91 -37.34, 146.82 -39.84, 146.65 -45.61 M149.88 -33.57 C148.41 -36.31, 147.33 -39.72, 146.54 -45.28 M145.21 -45.77 C149.21 -44.91, 155.23 -42.96, 161.8 -42.45 M146.51 -45.46 C150.83 -45.49, 154.42 -44.2, 160.26 -43.05 M160.91 -42.96 C160.91 -42.96, 160.91 -42.96, 160.91 -42.96 M160.91 -42.96 C160.91 -42.96, 160.91 -42.96, 160.91 -42.96" stroke="#000000" stroke-width="1" fill="none"></path></g></g><mask></mask><g stroke-linecap="round"><g transform="translate(467.3687839032125 514.3580581838474) rotate(0 79.46122196375006 37.76518543229474)"><path d="M-1.83 -0.47 C52.21 24.34, 106.29 50.9, 160.11 76.09 M-0.7 -0.56 C53.97 23.53, 105.65 48.73, 160.76 75.01" stroke="#000000" stroke-width="1" fill="none"></path></g><g transform="translate(467.3687839032125 514.3580581838474) rotate(0 79.46122196375006 37.76518543229474)"><path d="M158.78 73.29 L147.67 76.69 L150.87 61.86 L160.11 73.06" stroke="none" stroke-width="0" fill="#000000" fill-rule="evenodd"></path><path d="M159.38 74.65 C155.34 75.18, 150.91 76.25, 145.29 75.29 M160.23 74.59 C156.49 74.68, 150.8 74.96, 145.77 74.48 M144.66 74.01 C147.76 70.78, 149.86 67, 150.02 63.18 M145.81 74.73 C146.74 72.46, 148.56 69.42, 151.64 63.37 M151.42 63.88 C154.77 67.24, 154.31 68.6, 159.55 75.2 M151.16 63.85 C154.22 67.61, 157.74 72.5, 160.4 74.39 M160.76 75.01 C160.76 75.01, 160.76 75.01, 160.76 75.01 M160.76 75.01 C160.76 75.01, 160.76 75.01, 160.76 75.01" stroke="#000000" stroke-width="1" fill="none"></path></g></g><mask></mask><g transform="translate(296.6388892614784 81.14189329827605) rotate(0 35.5 12)"><text x="0" y="20" font-family="Cascadia, Segoe UI Emoji" font-size="20px" fill="#c92a2a" text-anchor="start" style="white-space: pre;" direction="ltr">BROKER</text></g><g stroke-linecap="round" transform="translate(638.244923422169 408.6174920610688) rotate(0 46.92544770835718 46.02303525242718)"><path d="M0.09 1.45 L95.3 1.35 L95.68 92.93 L0.45 93.04" stroke="none" stroke-width="0" fill="#eeeeee"></path><path d="M-0.34 -1.91 C29.21 -2.22, 59.77 0.08, 92.61 -0.53 M0.74 -0.39 C33.36 -0.02, 67.26 -0.22, 93.53 0.04 M93.85 -0.68 C92.52 23.63, 91.69 43.73, 94.64 92.99 M94.2 0.01 C92.85 36.31, 94.09 70.73, 94 92.41 M95.65 90.26 C63.68 92.93, 35.92 92.73, 0.5 90.82 M94.23 92.05 C73.09 90.54, 50.83 91.14, 0.32 91.69 M-0.29 91.35 C1.13 56.01, 0.29 20.19, 0.5 -1.06 M0.79 92.11 C0.63 64.75, -1 36.1, 0.33 -0.25" stroke="#000000" stroke-width="1" fill="none"></path></g><g transform="translate(645.4082881177003 435.93810136145385) rotate(0 39 17.500000000000057)"><text x="39" y="14.5" font-family="Cascadia, Segoe UI Emoji" font-size="14.53640502362555px" fill="#000000" text-anchor="middle" style="white-space: pre;" direction="ltr">EVENT</text><text x="39" y="32" font-family="Cascadia, Segoe UI Emoji" font-size="14.53640502362555px" fill="#000000" text-anchor="middle" style="white-space: pre;" direction="ltr">PROCESSOR</text></g><g stroke-linecap="round" transform="translate(635.9752488376545 533.2494853633463) rotate(0 46.92544770835724 46.023035252427235)"><path d="M-0.8 1.4 L95.25 -0.07 L93.91 93.81 L0.25 92.81" stroke="none" stroke-width="0" fill="#eeeeee"></path><path d="M1.3 1.86 C23.96 -1.55, 46.48 1.15, 94.55 0.78 M-0.71 -0.22 C33.88 0.4, 66.74 0.13, 94.52 0.34 M93.41 -0.09 C94.06 26.66, 94.33 54.98, 92.74 90.21 M94.05 -0.55 C93.72 22.59, 93.7 45.97, 93.34 91.07 M95.77 92.32 C57.51 91.95, 24.01 90.52, -0.73 91.27 M92.93 91.37 C58.66 90.97, 24.79 92.23, 0.11 91.67 M1.14 93.79 C-1.27 58.9, -0.52 25.67, -0.16 -1.33 M-0.41 92.36 C1.05 62.25, 0.08 33.32, -0.8 -0.77" stroke="#000000" stroke-width="1" fill="none"></path></g><g transform="translate(643.1386135331855 560.5700946637315) rotate(0 39 17.5)"><text x="39" y="14.5" font-family="Cascadia, Segoe UI Emoji" font-size="14.53640502362555px" fill="#000000" text-anchor="middle" style="white-space: pre;" direction="ltr">EVENT</text><text x="39" y="32" font-family="Cascadia, Segoe UI Emoji" font-size="14.53640502362555px" fill="#000000" text-anchor="middle" style="white-space: pre;" direction="ltr">PROCESSOR</text></g><g stroke-linecap="round" transform="translate(640.3188855223555 197.0803111260392) rotate(0 46.92544770835718 46.02303525242718)"><path d="M1.05 0 L94.92 0.45 L95.48 91.59 L0.79 90.14" stroke="none" stroke-width="0" fill="#eeeeee"></path><path d="M-1.43 0.89 C37.56 1.24, 73.19 1.04, 95.5 1.35 M0.55 -0.11 C23.4 -1.18, 47.25 -0.59, 94.75 -0.35 M94.44 0.24 C94.23 36.6, 94.77 72.72, 95.16 92.53 M94.05 0.06 C94.29 19.69, 94.12 40.54, 93.91 91.42 M93.4 91.18 C60.93 92.44, 25.18 93.21, 0.53 92.95 M94.51 92.19 C55.87 90.91, 19.2 92.52, -0.48 91.98 M0.67 91.55 C-0.5 58.33, 0.07 25.87, 1.8 -1.36 M-0.21 91.29 C0.92 57.11, 0.68 23.3, -0.35 0.52" stroke="#000000" stroke-width="1" fill="none"></path></g><g transform="translate(647.4822502178868 224.40092042642425) rotate(0 39 17.5)"><text x="39" y="14.5" font-family="Cascadia, Segoe UI Emoji" font-size="14.53640502362555px" fill="#000000" text-anchor="middle" style="white-space: pre;" direction="ltr">EVENT</text><text x="39" y="32" font-family="Cascadia, Segoe UI Emoji" font-size="14.53640502362555px" fill="#000000" text-anchor="middle" style="white-space: pre;" direction="ltr">PROCESSOR</text></g><g stroke-linecap="round" transform="translate(627.0247647181471 274.41855071217594) rotate(0 15.075640493638616 22.876446739244784)"><path d="M1.07 0.45 L31.78 -0.45 L30.94 43.84 L0.06 45.61" stroke="none" stroke-width="0" fill="#fff"></path><path d="M1.89 0.71 C9.17 0.37, 16.28 1.22, 29.17 -1.09 M-0.12 -0.48 C11.48 0.14, 23.48 -0.32, 31.07 0.36 M30.2 0.49 C30.87 16.57, 31.6 32.61, 28.46 45.48 M30.72 -0.15 C30.64 19.02, 30.3 35.69, 30.86 44.84 M32.02 46.97 C24.66 47.6, 17.88 46.52, 1.99 44.91 M29.66 44.97 C22.56 46.63, 13.86 45.73, 0.6 44.9 M-1.29 45.22 C-0.87 32.38, 1.65 17.28, 1.51 -1.96 M0.02 45.37 C-0.12 35.16, -0.26 24.37, 0.53 0" stroke="#000000" stroke-width="2" fill="none"></path></g><g stroke-linecap="round" transform="translate(623.8050513061497 271.423800640241) rotate(0 15.075640493638616 22.876446739244784)"><path d="M0.45 1.63 L29.7 0.79 L28.24 45.81 L-0.14 43.81" stroke="none" stroke-width="0" fill="#fff"></path><path d="M0.71 1.85 C7.39 1.37, 15.14 -1.27, 29.06 1.49 M-0.48 0.19 C10.79 0.94, 21.03 0.96, 30.51 0.51 M30.65 0.58 C30.72 16.38, 30.69 28.44, 29.88 47.69 M30.01 0.4 C31.05 14.68, 29.56 29.94, 29.24 44.88 M31.37 46.66 C23.76 46.57, 14.31 48.02, -0.84 45 M29.37 46.07 C19.95 45.13, 8.02 46.21, -0.86 45.72 M-0.54 45.04 C0.3 32.29, -1.25 16.73, -1.96 -1.21 M-0.39 45.54 C0.7 32.64, 0.86 20.77, 0 0.53" stroke="#000000" stroke-width="2" fill="none"></path></g><g stroke-linecap="round" transform="translate(619.7971330063796 267.902707769494) rotate(0 15.075640493638616 22.876446739244784)"><path d="M1.63 -0.45 L30.94 -1.91 L30.21 45.61 L-1.94 46.63" stroke="none" stroke-width="0" fill="#fff"></path><path d="M1.85 0.5 C12.04 1.24, 19.78 -1.2, 31.64 1.09 M0.19 0.1 C9.61 -0.21, 18.34 0.5, 30.66 0.29 M30.74 0.51 C31.47 14.77, 28.47 28.3, 32.09 46.14 M30.55 0.87 C30.47 13.39, 31.12 27.11, 29.27 45.53 M31.06 47.74 C22.95 46.84, 16.67 45.1, -0.75 47.07 M30.47 46.58 C20.19 45.46, 11.79 44.66, -0.04 46.09 M-0.72 45.94 C2.1 31.79, 1.8 18.59, -1.21 -0.42 M-0.22 46.11 C-0.36 36.01, 0.52 25.23, 0.53 0.23" stroke="#000000" stroke-width="2" fill="none"></path></g><g stroke-linecap="round"><g transform="translate(624.9105084098018 288.698140094163) rotate(0 10.013296179022632 -0.5002298915986216)"><path d="M1.11 0.3 C3.96 0.38, 15.21 1.26, 18.24 0.88 C21.26 0.5, 18.86 -1.72, 19.28 -1.97 M0.24 -0.59 C2.92 -0.88, 14.82 -0.75, 17.81 -0.82 C20.8 -0.89, 17.59 -0.66, 18.2 -1" stroke="#000000" stroke-width="1" fill="none"></path></g></g><mask></mask><g stroke-linecap="round"><g transform="translate(625.7019537244017 275.27513825379935) rotate(0 8.89210820968151 -0.3980446079155513)"><path d="M0.3 0.99 C1.56 0.51, 4.91 -1.75, 7.99 -1.79 C11.07 -1.83, 16.77 0.5, 18.79 0.75 M-1 0.47 C0.14 0.65, 4.36 -0.3, 7.47 -0.56 C10.58 -0.83, 15.47 -1.34, 17.68 -1.12" stroke="#000000" stroke-width="1" fill="none"></path></g></g><mask></mask><g stroke-linecap="round"><g transform="translate(625.6692765891374 304.025386146643) rotate(0 10.358606752085905 0.3276407041055336)"><path d="M0.99 0.81 C2.59 0.63, 8.02 -0.9, 10.68 -0.76 C13.33 -0.62, 15.31 1.68, 16.94 1.64 C18.58 1.6, 19.97 -0.61, 20.49 -0.99 M0.05 0.19 C1.95 0.13, 10.31 0.52, 13.08 0.43 C15.84 0.34, 15.38 -0.29, 16.64 -0.36 C17.91 -0.42, 19.78 -0.01, 20.66 0.04" stroke="#000000" stroke-width="1" fill="none"></path></g></g><mask></mask><g stroke-linecap="round"><g transform="translate(624.3109711406099 308.82168119847245) rotate(0 11.608898407187553 0.22209041985036038)"><path d="M0.81 -0.59 C1.37 -0.69, 2.56 0.38, 3.68 0.4 C4.8 0.41, 4.89 -0.37, 7.54 -0.49 C10.19 -0.61, 16.93 -0.25, 19.59 -0.31 C22.24 -0.37, 22.66 -0.67, 23.44 -0.85 M-0.22 1.71 C0.71 1.2, 4.83 -1.1, 6.05 -1.26 C7.28 -1.42, 4.83 0.46, 7.11 0.75 C9.4 1.05, 17.26 0.68, 19.75 0.49 C22.25 0.3, 21.61 0.13, 22.09 -0.4" stroke="#000000" stroke-width="1" fill="none"></path></g></g><mask></mask><g stroke-linecap="round"><g transform="translate(624.4324843076464 281.6999479320465) rotate(0 9.647228495519812 0.2584118920210017)"><path d="M-0.59 -0.65 C0.69 -0.72, 5.24 0.18, 8.65 0.4 C12.07 0.62, 18.09 0.55, 19.89 0.65 M1.3 1.62 C2.41 1.13, 5.22 -1.42, 8.18 -1.38 C11.13 -1.33, 17.18 1.29, 19.05 1.89" stroke="#000000" stroke-width="1" fill="none"></path></g></g><mask></mask><g stroke-linecap="round"><g transform="translate(624.4783384656283 296.4104377716552) rotate(0 9.982425925865982 0.6334110073024704)"><path d="M-0.65 0.89 C-0.1 1.07, 2.73 0.76, 4.11 0.48 C5.49 0.19, 4.92 -0.9, 7.61 -0.83 C10.3 -0.75, 18 0.73, 20.25 0.93 M1.2 0.32 C1.58 0.74, 2.58 1.96, 3.5 1.94 C4.43 1.92, 3.92 0.16, 6.77 0.19 C9.62 0.21, 18.38 2.04, 20.62 2.1" stroke="#000000" stroke-width="1" fill="none"></path></g></g><mask></mask><g transform="translate(375.6985792338869 375.4292944555135) rotate(0 33.5 19.5)"><text x="33.5" y="15.5" font-family="Cascadia, Segoe UI Emoji" font-size="16px" fill="#000000" text-anchor="middle" style="white-space: pre;" direction="ltr">EVENT</text><text x="33.5" y="35" font-family="Cascadia, Segoe UI Emoji" font-size="16px" fill="#000000" text-anchor="middle" style="white-space: pre;" direction="ltr">CHANNEL</text></g><g transform="translate(377.8758896434275 232.18188491684361) rotate(0 33.5 19.5)"><text x="33.5" y="15.5" font-family="Cascadia, Segoe UI Emoji" font-size="16px" fill="#000000" text-anchor="middle" style="white-space: pre;" direction="ltr">EVENT</text><text x="33.5" y="35" font-family="Cascadia, Segoe UI Emoji" font-size="16px" fill="#000000" text-anchor="middle" style="white-space: pre;" direction="ltr">CHANNEL</text></g></svg>
