<svg width="667" height="279" viewBox="0 0 667 279" fill="none" xmlns="http://www.w3.org/2000/svg">
<path d="M356 144L371 152.66V135.34L356 144ZM570 144V145.5H571.5V144H570ZM369.5 145.5H570V142.5H369.5V145.5ZM571.5 144V42H568.5V144H571.5Z" fill="#545454"/>
<path d="M78 144V142.5H76.5V144H78ZM78 219L86.6603 204H69.3398L78 219ZM250 142.5H78V145.5H250V142.5ZM76.5 144V205.5H79.5V144H76.5Z" fill="#545454"/>
<path d="M250.393 24.0211L235.393 15.3609L235.393 32.6814L250.393 24.0211ZM121 25.5208L236.893 25.5211L236.893 22.5211L121 22.5208L121 25.5208Z" fill="#464646"/>
<rect x="472" y="6" width="195" height="36" rx="4" fill="#F3F3F3"/>
<rect x="472.5" y="6.5" width="194" height="35" rx="3.5" stroke="#7343DA" stroke-opacity="0.24"/>
<path d="M512.079 26.59L513.879 19.702H515.559L513.027 28H511.071L508.551 19.702H510.297L512.079 26.59ZM521.825 19.702V20.932H520.067V26.77H521.825V28H516.665V26.77H518.423V20.932H516.665V19.702H521.825ZM527.928 23.812C527.928 23.196 527.87 22.698 527.754 22.318C527.642 21.938 527.488 21.648 527.292 21.448C527.096 21.244 526.874 21.106 526.626 21.034C526.378 20.962 526.12 20.926 525.852 20.926H525.24V26.782H525.858C526.138 26.782 526.402 26.738 526.65 26.65C526.902 26.562 527.124 26.41 527.316 26.194C527.508 25.974 527.658 25.672 527.766 25.288C527.874 24.9 527.928 24.408 527.928 23.812ZM529.644 23.812C529.644 24.492 529.57 25.074 529.422 25.558C529.278 26.042 529.078 26.444 528.822 26.764C528.566 27.08 528.27 27.328 527.934 27.508C527.602 27.688 527.246 27.816 526.866 27.892C526.49 27.964 526.108 28 525.72 28H523.596V19.702H525.576C526.092 19.702 526.592 19.758 527.076 19.87C527.56 19.978 527.994 20.178 528.378 20.47C528.766 20.762 529.074 21.178 529.302 21.718C529.53 22.254 529.644 22.952 529.644 23.812ZM532.933 20.914V23.188H535.873V24.382H532.933V26.794H536.503V28H531.289V19.702H536.461L536.293 20.914H532.933ZM544.058 23.848C544.058 24.712 543.936 25.47 543.692 26.122C543.452 26.77 543.092 27.276 542.612 27.64C542.132 28 541.538 28.18 540.83 28.18C540.126 28.18 539.532 28.004 539.048 27.652C538.568 27.296 538.206 26.796 537.962 26.152C537.722 25.504 537.602 24.738 537.602 23.854C537.602 22.99 537.722 22.234 537.962 21.586C538.206 20.934 538.568 20.428 539.048 20.068C539.532 19.704 540.126 19.522 540.83 19.522C541.538 19.522 542.132 19.698 542.612 20.05C543.092 20.402 543.452 20.902 543.692 21.55C543.936 22.198 544.058 22.964 544.058 23.848ZM542.366 23.848C542.366 22.8 542.246 22.024 542.006 21.52C541.77 21.012 541.378 20.758 540.83 20.758C540.282 20.758 539.888 21.012 539.648 21.52C539.412 22.028 539.294 22.806 539.294 23.854C539.294 24.906 539.416 25.684 539.66 26.188C539.904 26.688 540.294 26.938 540.83 26.938C541.386 26.938 541.78 26.684 542.012 26.176C542.248 25.668 542.366 24.892 542.366 23.848ZM558.305 25.618C558.305 26.122 558.175 26.566 557.915 26.95C557.659 27.334 557.289 27.636 556.805 27.856C556.321 28.072 555.735 28.18 555.047 28.18C554.327 28.18 553.709 28.074 553.193 27.862C552.677 27.646 552.245 27.37 551.897 27.034L552.761 26.068C553.061 26.336 553.397 26.546 553.769 26.698C554.141 26.85 554.559 26.926 555.023 26.926C555.319 26.926 555.585 26.88 555.821 26.788C556.061 26.696 556.249 26.562 556.385 26.386C556.525 26.206 556.595 25.986 556.595 25.726C556.595 25.498 556.547 25.306 556.451 25.15C556.355 24.994 556.189 24.854 555.953 24.73C555.721 24.606 555.397 24.482 554.981 24.358C554.369 24.17 553.865 23.964 553.469 23.74C553.073 23.512 552.779 23.244 552.587 22.936C552.395 22.624 552.299 22.256 552.299 21.832C552.299 21.356 552.431 20.946 552.695 20.602C552.959 20.254 553.315 19.988 553.763 19.804C554.215 19.616 554.719 19.522 555.275 19.522C555.891 19.522 556.433 19.612 556.901 19.792C557.369 19.968 557.781 20.22 558.137 20.548L557.315 21.478C557.031 21.234 556.723 21.054 556.391 20.938C556.063 20.822 555.729 20.764 555.389 20.764C555.121 20.764 554.881 20.8 554.669 20.872C554.461 20.944 554.297 21.05 554.177 21.19C554.057 21.33 553.997 21.508 553.997 21.724C553.997 21.92 554.051 22.088 554.159 22.228C554.271 22.364 554.461 22.492 554.729 22.612C554.997 22.728 555.365 22.86 555.833 23.008C556.325 23.156 556.755 23.334 557.123 23.542C557.495 23.75 557.785 24.02 557.993 24.352C558.201 24.68 558.305 25.102 558.305 25.618ZM563.22 20.992V28H561.582V20.992H559.158V19.702H565.716L565.548 20.992H563.22ZM572.84 23.848C572.84 24.712 572.718 25.47 572.474 26.122C572.234 26.77 571.874 27.276 571.394 27.64C570.914 28 570.32 28.18 569.612 28.18C568.908 28.18 568.314 28.004 567.83 27.652C567.35 27.296 566.988 26.796 566.744 26.152C566.504 25.504 566.384 24.738 566.384 23.854C566.384 22.99 566.504 22.234 566.744 21.586C566.988 20.934 567.35 20.428 567.83 20.068C568.314 19.704 568.908 19.522 569.612 19.522C570.32 19.522 570.914 19.698 571.394 20.05C571.874 20.402 572.234 20.902 572.474 21.55C572.718 22.198 572.84 22.964 572.84 23.848ZM571.148 23.848C571.148 22.8 571.028 22.024 570.788 21.52C570.552 21.012 570.16 20.758 569.612 20.758C569.064 20.758 568.67 21.012 568.43 21.52C568.194 22.028 568.076 22.806 568.076 23.854C568.076 24.906 568.198 25.684 568.442 26.188C568.686 26.688 569.076 26.938 569.612 26.938C570.168 26.938 570.562 26.684 570.794 26.176C571.03 25.668 571.148 24.892 571.148 23.848ZM579.843 22.156C579.843 22.556 579.763 22.906 579.603 23.206C579.447 23.506 579.233 23.758 578.961 23.962C578.693 24.166 578.391 24.324 578.055 24.436L580.329 28H578.445L576.483 24.694H575.727V28H574.089V19.702H576.531C577.623 19.702 578.447 19.904 579.003 20.308C579.563 20.712 579.843 21.328 579.843 22.156ZM578.139 22.156C578.139 21.708 578.009 21.386 577.749 21.19C577.489 20.99 577.097 20.89 576.573 20.89H575.727V23.53H576.627C577.111 23.53 577.483 23.422 577.743 23.206C578.007 22.99 578.139 22.64 578.139 22.156ZM585.346 26.098H582.616L582.1 28H580.402L583 19.702H585.016L587.608 28H585.862L585.346 26.098ZM582.91 24.868H585.04L583.978 20.932L582.91 24.868ZM591.456 28.18C590.716 28.18 590.086 28.016 589.566 27.688C589.046 27.36 588.648 26.874 588.372 26.23C588.1 25.586 587.964 24.788 587.964 23.836C587.964 23.128 588.062 22.506 588.258 21.97C588.454 21.43 588.722 20.98 589.062 20.62C589.406 20.256 589.802 19.982 590.25 19.798C590.702 19.614 591.18 19.522 591.684 19.522C592.268 19.522 592.758 19.61 593.154 19.786C593.55 19.962 593.91 20.202 594.234 20.506L593.34 21.424C593.088 21.196 592.838 21.028 592.59 20.92C592.342 20.812 592.062 20.758 591.75 20.758C591.462 20.758 591.192 20.814 590.94 20.926C590.692 21.038 590.472 21.216 590.28 21.46C590.092 21.704 589.944 22.022 589.836 22.414C589.728 22.806 589.674 23.284 589.674 23.848C589.674 24.596 589.74 25.198 589.872 25.654C590.008 26.106 590.21 26.434 590.478 26.638C590.75 26.838 591.09 26.938 591.498 26.938C591.726 26.938 591.94 26.912 592.14 26.86C592.344 26.804 592.538 26.73 592.722 26.638V24.52H591.474L591.306 23.32H594.288V27.382C593.888 27.618 593.458 27.81 592.998 27.958C592.542 28.106 592.028 28.18 591.456 28.18ZM597.691 20.914V23.188H600.631V24.382H597.691V26.794H601.261V28H596.047V19.702H601.219L601.051 20.914H597.691ZM615.868 25.618C615.868 26.122 615.738 26.566 615.478 26.95C615.222 27.334 614.852 27.636 614.368 27.856C613.884 28.072 613.298 28.18 612.61 28.18C611.89 28.18 611.272 28.074 610.756 27.862C610.24 27.646 609.808 27.37 609.46 27.034L610.324 26.068C610.624 26.336 610.96 26.546 611.332 26.698C611.704 26.85 612.122 26.926 612.586 26.926C612.882 26.926 613.148 26.88 613.384 26.788C613.624 26.696 613.812 26.562 613.948 26.386C614.088 26.206 614.158 25.986 614.158 25.726C614.158 25.498 614.11 25.306 614.014 25.15C613.918 24.994 613.752 24.854 613.516 24.73C613.284 24.606 612.96 24.482 612.544 24.358C611.932 24.17 611.428 23.964 611.032 23.74C610.636 23.512 610.342 23.244 610.15 22.936C609.958 22.624 609.862 22.256 609.862 21.832C609.862 21.356 609.994 20.946 610.258 20.602C610.522 20.254 610.878 19.988 611.326 19.804C611.778 19.616 612.282 19.522 612.838 19.522C613.454 19.522 613.996 19.612 614.464 19.792C614.932 19.968 615.344 20.22 615.7 20.548L614.878 21.478C614.594 21.234 614.286 21.054 613.954 20.938C613.626 20.822 613.292 20.764 612.952 20.764C612.684 20.764 612.444 20.8 612.232 20.872C612.024 20.944 611.86 21.05 611.74 21.19C611.62 21.33 611.56 21.508 611.56 21.724C611.56 21.92 611.614 22.088 611.722 22.228C611.834 22.364 612.024 22.492 612.292 22.612C612.56 22.728 612.928 22.86 613.396 23.008C613.888 23.156 614.318 23.334 614.686 23.542C615.058 23.75 615.348 24.02 615.556 24.352C615.764 24.68 615.868 25.102 615.868 25.618ZM619.277 20.914V23.188H622.217V24.382H619.277V26.794H622.847V28H617.633V19.702H622.805L622.637 20.914H619.277ZM630.21 22.156C630.21 22.556 630.13 22.906 629.97 23.206C629.814 23.506 629.6 23.758 629.328 23.962C629.06 24.166 628.758 24.324 628.422 24.436L630.696 28H628.812L626.85 24.694H626.094V28H624.456V19.702H626.898C627.99 19.702 628.814 19.904 629.37 20.308C629.93 20.712 630.21 21.328 630.21 22.156ZM628.506 22.156C628.506 21.708 628.376 21.386 628.116 21.19C627.856 20.99 627.464 20.89 626.94 20.89H626.094V23.53H626.994C627.478 23.53 627.85 23.422 628.11 23.206C628.374 22.99 628.506 22.64 628.506 22.156ZM634.4 26.59L636.2 19.702H637.88L635.348 28H633.392L630.872 19.702H632.618L634.4 26.59ZM644.145 19.702V20.932H642.387V26.77H644.145V28H638.985V26.77H640.743V20.932H638.985V19.702H644.145ZM649.456 19.522C650.032 19.522 650.52 19.598 650.92 19.75C651.32 19.898 651.69 20.112 652.03 20.392L651.196 21.382C650.96 21.182 650.7 21.03 650.416 20.926C650.136 20.822 649.836 20.77 649.516 20.77C649.132 20.77 648.778 20.872 648.454 21.076C648.134 21.28 647.876 21.608 647.68 22.06C647.488 22.508 647.392 23.1 647.392 23.836C647.392 24.56 647.484 25.146 647.668 25.594C647.856 26.042 648.11 26.37 648.43 26.578C648.754 26.782 649.12 26.884 649.528 26.884C649.96 26.884 650.318 26.808 650.602 26.656C650.886 26.504 651.142 26.338 651.37 26.158L652.144 27.136C651.852 27.424 651.486 27.67 651.046 27.874C650.61 28.078 650.08 28.18 649.456 28.18C648.732 28.18 648.086 28.014 647.518 27.682C646.95 27.35 646.504 26.862 646.18 26.218C645.856 25.574 645.694 24.78 645.694 23.836C645.694 22.908 645.86 22.124 646.192 21.484C646.528 20.84 646.98 20.352 647.548 20.02C648.12 19.688 648.756 19.522 649.456 19.522ZM655.253 20.914V23.188H658.193V24.382H655.253V26.794H658.823V28H653.609V19.702H658.781L658.613 20.914H655.253Z" fill="black"/>
<path d="M482.17 19.44L491 24.55L499.77 19.47M491 33.61V24.54" stroke="#3F3F3F" stroke-width="1.5" stroke-linecap="round" stroke-linejoin="round"/>
<path d="M488.93 14.48L483.59 17.44C482.38 18.11 481.39 19.79 481.39 21.17V26.82C481.39 28.2 482.38 29.88 483.59 30.55L488.93 33.52C490.07 34.15 491.94 34.15 493.08 33.52L498.42 30.55C499.63 29.88 500.62 28.2 500.62 26.82V21.17C500.62 19.79 499.63 18.11 498.42 17.44L493.08 14.47C491.93 13.84 490.07 13.84 488.93 14.48Z" stroke="#3F3F3F" stroke-width="1.5" stroke-linecap="round" stroke-linejoin="round"/>
<path d="M275.844 24C275.844 27.2509 275.165 30.1693 274.092 32.2566C273.005 34.3699 271.592 35.5 270.172 35.5C268.752 35.5 267.339 34.3699 266.252 32.2566C265.179 30.1693 264.5 27.2509 264.5 24C264.5 20.7491 265.179 17.8307 266.252 15.7434C267.339 13.6301 268.752 12.5 270.172 12.5C271.592 12.5 273.005 13.6301 274.092 15.7434C275.165 17.8307 275.844 20.7491 275.844 24Z" fill="#FF495F" stroke="#FFAFAF"/>
<mask id="path-10-inside-1_8_104" fill="white">
<path d="M270.172 12H339.828V36H270.172V12Z"/>
</mask>
<path d="M270.172 12H339.828V36H270.172V12Z" fill="#FF495F"/>
<path d="M270.172 13H339.828V11H270.172V13ZM339.828 35H270.172V37H339.828V35Z" fill="#FFAFAF" mask="url(#path-10-inside-1_8_104)"/>
<path d="M345.5 24C345.5 27.2509 344.821 30.1693 343.748 32.2566C342.661 34.3699 341.248 35.5 339.828 35.5C338.408 35.5 336.995 34.3699 335.908 32.2566C334.835 30.1693 334.156 27.2509 334.156 24C334.156 20.7491 334.835 17.8307 335.908 15.7434C336.995 13.6301 338.408 12.5 339.828 12.5C341.248 12.5 342.661 13.6301 343.748 15.7434C344.821 17.8307 345.5 20.7491 345.5 24Z" fill="white" stroke="#FFAFAF"/>
<path d="M257.125 54.446V43.154H260.575V44.378H258.619V53.234H260.575V54.446H257.125ZM264.878 46.646V51.05C264.878 51.394 264.946 51.636 265.082 51.776C265.218 51.916 265.416 51.986 265.676 51.986C265.924 51.986 266.166 51.912 266.402 51.764C266.638 51.612 266.83 51.42 266.978 51.188V46.646H268.562V53H267.182L267.098 52.22C266.87 52.532 266.578 52.77 266.222 52.934C265.866 53.098 265.498 53.18 265.118 53.18C264.506 53.18 264.048 53.008 263.744 52.664C263.444 52.316 263.294 51.842 263.294 51.242V46.646H264.878ZM273.771 46.466C274.331 46.466 274.779 46.604 275.115 46.88C275.455 47.152 275.701 47.538 275.853 48.038C276.009 48.538 276.087 49.128 276.087 49.808C276.087 50.46 275.993 51.04 275.805 51.548C275.617 52.056 275.341 52.456 274.977 52.748C274.617 53.036 274.173 53.18 273.645 53.18C272.997 53.18 272.473 52.95 272.073 52.49V55.448L270.489 55.616V46.646H271.881L271.965 47.42C272.217 47.092 272.499 46.852 272.811 46.7C273.123 46.544 273.443 46.466 273.771 46.466ZM273.309 47.654C273.041 47.654 272.805 47.734 272.601 47.894C272.401 48.054 272.225 48.252 272.073 48.488V51.332C272.217 51.548 272.381 51.71 272.565 51.818C272.749 51.926 272.957 51.98 273.189 51.98C273.593 51.98 273.901 51.812 274.113 51.476C274.329 51.136 274.437 50.586 274.437 49.826C274.437 49.29 274.393 48.864 274.305 48.548C274.221 48.228 274.095 48 273.927 47.864C273.759 47.724 273.553 47.654 273.309 47.654ZM280.709 44.108V51.152C280.709 51.428 280.789 51.624 280.949 51.74C281.113 51.856 281.333 51.914 281.609 51.914C281.781 51.914 281.947 51.896 282.107 51.86C282.267 51.82 282.419 51.772 282.563 51.716L282.953 52.796C282.753 52.896 282.509 52.984 282.221 53.06C281.937 53.14 281.607 53.18 281.231 53.18C280.539 53.18 280.015 52.982 279.659 52.586C279.303 52.19 279.125 51.656 279.125 50.984V45.23H277.223V44.108H280.709ZM287.52 46.466C288.152 46.466 288.688 46.604 289.128 46.88C289.568 47.156 289.902 47.546 290.13 48.05C290.362 48.55 290.478 49.136 290.478 49.808C290.478 50.496 290.362 51.092 290.13 51.596C289.898 52.1 289.562 52.49 289.122 52.766C288.682 53.042 288.146 53.18 287.514 53.18C286.886 53.18 286.35 53.046 285.906 52.778C285.466 52.506 285.13 52.12 284.898 51.62C284.666 51.116 284.55 50.516 284.55 49.82C284.55 49.156 284.666 48.572 284.898 48.068C285.13 47.564 285.468 47.172 285.912 46.892C286.356 46.608 286.892 46.466 287.52 46.466ZM287.52 47.66C287.076 47.66 286.744 47.834 286.524 48.182C286.308 48.53 286.2 49.076 286.2 49.82C286.2 50.572 286.308 51.122 286.524 51.47C286.74 51.814 287.07 51.986 287.514 51.986C287.958 51.986 288.288 51.814 288.504 51.47C288.72 51.122 288.828 50.568 288.828 49.808C288.828 49.068 288.72 48.526 288.504 48.182C288.288 47.834 287.96 47.66 287.52 47.66ZM297.145 51.326C297.145 51.57 297.181 51.748 297.253 51.86C297.325 51.968 297.441 52.05 297.601 52.106L297.259 53.168C296.919 53.132 296.629 53.048 296.389 52.916C296.153 52.78 295.971 52.578 295.843 52.31C295.603 52.602 295.299 52.82 294.931 52.964C294.567 53.108 294.185 53.18 293.785 53.18C293.137 53.18 292.623 52.996 292.243 52.628C291.863 52.26 291.673 51.782 291.673 51.194C291.673 50.518 291.937 49.998 292.465 49.634C292.997 49.266 293.749 49.082 294.721 49.082H295.609V48.74C295.609 48.364 295.493 48.092 295.261 47.924C295.029 47.752 294.695 47.666 294.259 47.666C294.055 47.666 293.799 47.694 293.491 47.75C293.187 47.802 292.873 47.884 292.549 47.996L292.171 46.91C292.575 46.758 292.981 46.646 293.389 46.574C293.801 46.502 294.175 46.466 294.511 46.466C295.403 46.466 296.065 46.656 296.497 47.036C296.929 47.412 297.145 47.946 297.145 48.638V51.326ZM294.301 52.034C294.541 52.034 294.783 51.966 295.027 51.83C295.275 51.694 295.469 51.504 295.609 51.26V50.024H294.985C294.397 50.024 293.971 50.118 293.707 50.306C293.447 50.494 293.317 50.76 293.317 51.104C293.317 51.4 293.401 51.63 293.569 51.794C293.737 51.954 293.981 52.034 294.301 52.034ZM302.955 43.94L304.539 44.108V53H303.135L303.039 52.25C302.843 52.53 302.597 52.756 302.301 52.928C302.005 53.096 301.661 53.18 301.269 53.18C300.733 53.18 300.289 53.04 299.937 52.76C299.589 52.48 299.329 52.088 299.157 51.584C298.989 51.076 298.905 50.486 298.905 49.814C298.905 49.166 299.005 48.59 299.205 48.086C299.405 47.582 299.693 47.186 300.069 46.898C300.449 46.61 300.899 46.466 301.419 46.466C301.731 46.466 302.015 46.52 302.271 46.628C302.527 46.736 302.755 46.896 302.955 47.108V43.94ZM301.845 47.648C301.445 47.648 301.129 47.822 300.897 48.17C300.669 48.514 300.555 49.064 300.555 49.82C300.555 50.352 300.603 50.778 300.699 51.098C300.795 51.414 300.931 51.642 301.107 51.782C301.283 51.922 301.491 51.992 301.731 51.992C301.995 51.992 302.227 51.914 302.427 51.758C302.631 51.598 302.807 51.4 302.955 51.164V48.272C302.807 48.076 302.641 47.924 302.457 47.816C302.277 47.704 302.073 47.648 301.845 47.648ZM306.568 50.354V49.094H311.632V50.354H306.568ZM319.415 46.646L317.231 53H315.371L313.175 46.646H314.879L316.325 51.734L317.801 46.646H319.415ZM324.511 46.646V51.878H326.185V53H321.067V51.878H322.927V47.768H321.127V46.646H324.511ZM323.485 43.442C323.777 43.442 324.013 43.532 324.193 43.712C324.377 43.892 324.469 44.116 324.469 44.384C324.469 44.652 324.377 44.878 324.193 45.062C324.013 45.242 323.777 45.332 323.485 45.332C323.193 45.332 322.955 45.242 322.771 45.062C322.587 44.878 322.495 44.652 322.495 44.384C322.495 44.116 322.587 43.892 322.771 43.712C322.955 43.532 323.193 43.442 323.485 43.442ZM331.736 43.94L333.32 44.108V53H331.916L331.82 52.25C331.624 52.53 331.378 52.756 331.082 52.928C330.786 53.096 330.442 53.18 330.05 53.18C329.514 53.18 329.07 53.04 328.718 52.76C328.37 52.48 328.11 52.088 327.938 51.584C327.77 51.076 327.686 50.486 327.686 49.814C327.686 49.166 327.786 48.59 327.986 48.086C328.186 47.582 328.474 47.186 328.85 46.898C329.23 46.61 329.68 46.466 330.2 46.466C330.512 46.466 330.796 46.52 331.052 46.628C331.308 46.736 331.536 46.896 331.736 47.108V43.94ZM330.626 47.648C330.226 47.648 329.91 47.822 329.678 48.17C329.45 48.514 329.336 49.064 329.336 49.82C329.336 50.352 329.384 50.778 329.48 51.098C329.576 51.414 329.712 51.642 329.888 51.782C330.064 51.922 330.272 51.992 330.512 51.992C330.776 51.992 331.008 51.914 331.208 51.758C331.412 51.598 331.588 51.4 331.736 51.164V48.272C331.588 48.076 331.422 47.924 331.238 47.816C331.058 47.704 330.854 47.648 330.626 47.648ZM336.597 50.306C336.629 50.702 336.719 51.024 336.867 51.272C337.019 51.52 337.213 51.702 337.449 51.818C337.685 51.934 337.947 51.992 338.235 51.992C338.539 51.992 338.825 51.944 339.093 51.848C339.361 51.752 339.625 51.618 339.885 51.446L340.545 52.352C340.249 52.6 339.895 52.8 339.483 52.952C339.075 53.104 338.625 53.18 338.133 53.18C337.445 53.18 336.865 53.038 336.393 52.754C335.925 52.47 335.571 52.076 335.331 51.572C335.091 51.068 334.971 50.488 334.971 49.832C334.971 49.2 335.089 48.63 335.325 48.122C335.561 47.614 335.901 47.212 336.345 46.916C336.789 46.616 337.325 46.466 337.953 46.466C338.537 46.466 339.041 46.594 339.465 46.85C339.889 47.106 340.217 47.474 340.449 47.954C340.681 48.43 340.797 49.004 340.797 49.676C340.797 49.784 340.793 49.894 340.785 50.006C340.781 50.118 340.775 50.218 340.767 50.306H336.597ZM337.959 47.582C337.575 47.582 337.259 47.72 337.011 47.996C336.767 48.268 336.623 48.7 336.579 49.292H339.255C339.247 48.756 339.135 48.338 338.919 48.038C338.707 47.734 338.387 47.582 337.959 47.582ZM345.083 46.466C345.715 46.466 346.251 46.604 346.691 46.88C347.131 47.156 347.465 47.546 347.693 48.05C347.925 48.55 348.041 49.136 348.041 49.808C348.041 50.496 347.925 51.092 347.693 51.596C347.461 52.1 347.125 52.49 346.685 52.766C346.245 53.042 345.709 53.18 345.077 53.18C344.449 53.18 343.913 53.046 343.469 52.778C343.029 52.506 342.693 52.12 342.461 51.62C342.229 51.116 342.113 50.516 342.113 49.82C342.113 49.156 342.229 48.572 342.461 48.068C342.693 47.564 343.031 47.172 343.475 46.892C343.919 46.608 344.455 46.466 345.083 46.466ZM345.083 47.66C344.639 47.66 344.307 47.834 344.087 48.182C343.871 48.53 343.763 49.076 343.763 49.82C343.763 50.572 343.871 51.122 344.087 51.47C344.303 51.814 344.633 51.986 345.077 51.986C345.521 51.986 345.851 51.814 346.067 51.47C346.283 51.122 346.391 50.568 346.391 49.808C346.391 49.068 346.283 48.526 346.067 48.182C345.851 47.834 345.523 47.66 345.083 47.66ZM353.88 43.154V54.446H350.43V53.228H352.386V44.378H350.43V43.154H353.88Z" fill="black"/>
<path d="M275.844 144C275.844 147.251 275.165 150.169 274.092 152.257C273.005 154.37 271.592 155.5 270.172 155.5C268.752 155.5 267.339 154.37 266.252 152.257C265.179 150.169 264.5 147.251 264.5 144C264.5 140.749 265.179 137.831 266.252 135.743C267.339 133.63 268.752 132.5 270.172 132.5C271.592 132.5 273.005 133.63 274.092 135.743C275.165 137.831 275.844 140.749 275.844 144Z" fill="#FF495F" stroke="#FFAFAF"/>
<mask id="path-15-inside-2_8_104" fill="white">
<path d="M270.172 132H339.828V156H270.172V132Z"/>
</mask>
<path d="M270.172 132H339.828V156H270.172V132Z" fill="#FF495F"/>
<path d="M270.172 133H339.828V131H270.172V133ZM339.828 155H270.172V157H339.828V155Z" fill="#FFAFAF" mask="url(#path-15-inside-2_8_104)"/>
<path d="M345.5 144C345.5 147.251 344.821 150.169 343.748 152.257C342.661 154.37 341.248 155.5 339.828 155.5C338.408 155.5 336.995 154.37 335.908 152.257C334.835 150.169 334.156 147.251 334.156 144C334.156 140.749 334.835 137.831 335.908 135.743C336.995 133.63 338.408 132.5 339.828 132.5C341.248 132.5 342.661 133.63 343.748 135.743C344.821 137.831 345.5 140.749 345.5 144Z" fill="white" stroke="#FFAFAF"/>
<path d="M249.43 174.446V163.154H252.88V164.378H250.924V173.234H252.88V174.446H249.43ZM261.353 166.646L259.169 173H257.309L255.113 166.646H256.817L258.263 171.734L259.739 166.646H261.353ZM266.448 166.646V171.878H268.122V173H263.004V171.878H264.864V167.768H263.064V166.646H266.448ZM265.422 163.442C265.714 163.442 265.95 163.532 266.13 163.712C266.314 163.892 266.406 164.116 266.406 164.384C266.406 164.652 266.314 164.878 266.13 165.062C265.95 165.242 265.714 165.332 265.422 165.332C265.13 165.332 264.892 165.242 264.708 165.062C264.524 164.878 264.432 164.652 264.432 164.384C264.432 164.116 264.524 163.892 264.708 163.712C264.892 163.532 265.13 163.442 265.422 163.442ZM273.673 163.94L275.257 164.108V173H273.853L273.757 172.25C273.561 172.53 273.315 172.756 273.019 172.928C272.723 173.096 272.379 173.18 271.987 173.18C271.451 173.18 271.007 173.04 270.655 172.76C270.307 172.48 270.047 172.088 269.875 171.584C269.707 171.076 269.623 170.486 269.623 169.814C269.623 169.166 269.723 168.59 269.923 168.086C270.123 167.582 270.411 167.186 270.787 166.898C271.167 166.61 271.617 166.466 272.137 166.466C272.449 166.466 272.733 166.52 272.989 166.628C273.245 166.736 273.473 166.896 273.673 167.108V163.94ZM272.563 167.648C272.163 167.648 271.847 167.822 271.615 168.17C271.387 168.514 271.273 169.064 271.273 169.82C271.273 170.352 271.321 170.778 271.417 171.098C271.513 171.414 271.649 171.642 271.825 171.782C272.001 171.922 272.209 171.992 272.449 171.992C272.713 171.992 272.945 171.914 273.145 171.758C273.349 171.598 273.525 171.4 273.673 171.164V168.272C273.525 168.076 273.359 167.924 273.175 167.816C272.995 167.704 272.791 167.648 272.563 167.648ZM278.535 170.306C278.567 170.702 278.657 171.024 278.805 171.272C278.957 171.52 279.151 171.702 279.387 171.818C279.623 171.934 279.885 171.992 280.173 171.992C280.477 171.992 280.763 171.944 281.031 171.848C281.299 171.752 281.563 171.618 281.823 171.446L282.483 172.352C282.187 172.6 281.833 172.8 281.421 172.952C281.013 173.104 280.563 173.18 280.071 173.18C279.383 173.18 278.803 173.038 278.331 172.754C277.863 172.47 277.509 172.076 277.269 171.572C277.029 171.068 276.909 170.488 276.909 169.832C276.909 169.2 277.027 168.63 277.263 168.122C277.499 167.614 277.839 167.212 278.283 166.916C278.727 166.616 279.263 166.466 279.891 166.466C280.475 166.466 280.979 166.594 281.403 166.85C281.827 167.106 282.155 167.474 282.387 167.954C282.619 168.43 282.735 169.004 282.735 169.676C282.735 169.784 282.731 169.894 282.723 170.006C282.719 170.118 282.713 170.218 282.705 170.306H278.535ZM279.897 167.582C279.513 167.582 279.197 167.72 278.949 167.996C278.705 168.268 278.561 168.7 278.517 169.292H281.193C281.185 168.756 281.073 168.338 280.857 168.038C280.645 167.734 280.325 167.582 279.897 167.582ZM287.02 166.466C287.652 166.466 288.188 166.604 288.628 166.88C289.068 167.156 289.402 167.546 289.63 168.05C289.862 168.55 289.978 169.136 289.978 169.808C289.978 170.496 289.862 171.092 289.63 171.596C289.398 172.1 289.062 172.49 288.622 172.766C288.182 173.042 287.646 173.18 287.014 173.18C286.386 173.18 285.85 173.046 285.406 172.778C284.966 172.506 284.63 172.12 284.398 171.62C284.166 171.116 284.05 170.516 284.05 169.82C284.05 169.156 284.166 168.572 284.398 168.068C284.63 167.564 284.968 167.172 285.412 166.892C285.856 166.608 286.392 166.466 287.02 166.466ZM287.02 167.66C286.576 167.66 286.244 167.834 286.024 168.182C285.808 168.53 285.7 169.076 285.7 169.82C285.7 170.572 285.808 171.122 286.024 171.47C286.24 171.814 286.57 171.986 287.014 171.986C287.458 171.986 287.788 171.814 288.004 171.47C288.22 171.122 288.328 170.568 288.328 169.808C288.328 169.068 288.22 168.526 288.004 168.182C287.788 167.834 287.46 167.66 287.02 167.66ZM291.677 170.354V169.094H296.741V170.354H291.677ZM300.355 166.646V171.05C300.355 171.394 300.423 171.636 300.559 171.776C300.695 171.916 300.893 171.986 301.153 171.986C301.401 171.986 301.643 171.912 301.879 171.764C302.115 171.612 302.307 171.42 302.455 171.188V166.646H304.039V173H302.659L302.575 172.22C302.347 172.532 302.055 172.77 301.699 172.934C301.343 173.098 300.975 173.18 300.595 173.18C299.983 173.18 299.525 173.008 299.221 172.664C298.921 172.316 298.771 171.842 298.771 171.242V166.646H300.355ZM309.248 166.466C309.808 166.466 310.256 166.604 310.592 166.88C310.932 167.152 311.178 167.538 311.33 168.038C311.486 168.538 311.564 169.128 311.564 169.808C311.564 170.46 311.47 171.04 311.282 171.548C311.094 172.056 310.818 172.456 310.454 172.748C310.094 173.036 309.65 173.18 309.122 173.18C308.474 173.18 307.95 172.95 307.55 172.49V175.448L305.966 175.616V166.646H307.358L307.442 167.42C307.694 167.092 307.976 166.852 308.288 166.7C308.6 166.544 308.92 166.466 309.248 166.466ZM308.786 167.654C308.518 167.654 308.282 167.734 308.078 167.894C307.878 168.054 307.702 168.252 307.55 168.488V171.332C307.694 171.548 307.858 171.71 308.042 171.818C308.226 171.926 308.434 171.98 308.666 171.98C309.07 171.98 309.378 171.812 309.59 171.476C309.806 171.136 309.914 170.586 309.914 169.826C309.914 169.29 309.87 168.864 309.782 168.548C309.698 168.228 309.572 168 309.404 167.864C309.236 167.724 309.03 167.654 308.786 167.654ZM316.185 164.108V171.152C316.185 171.428 316.265 171.624 316.425 171.74C316.589 171.856 316.809 171.914 317.085 171.914C317.257 171.914 317.423 171.896 317.583 171.86C317.743 171.82 317.895 171.772 318.039 171.716L318.429 172.796C318.229 172.896 317.985 172.984 317.697 173.06C317.413 173.14 317.083 173.18 316.707 173.18C316.015 173.18 315.491 172.982 315.135 172.586C314.779 172.19 314.601 171.656 314.601 170.984V165.23H312.699V164.108H316.185ZM322.997 166.466C323.629 166.466 324.165 166.604 324.605 166.88C325.045 167.156 325.379 167.546 325.607 168.05C325.839 168.55 325.955 169.136 325.955 169.808C325.955 170.496 325.839 171.092 325.607 171.596C325.375 172.1 325.039 172.49 324.599 172.766C324.159 173.042 323.623 173.18 322.991 173.18C322.363 173.18 321.827 173.046 321.383 172.778C320.943 172.506 320.607 172.12 320.375 171.62C320.143 171.116 320.027 170.516 320.027 169.82C320.027 169.156 320.143 168.572 320.375 168.068C320.607 167.564 320.945 167.172 321.389 166.892C321.833 166.608 322.369 166.466 322.997 166.466ZM322.997 167.66C322.553 167.66 322.221 167.834 322.001 168.182C321.785 168.53 321.677 169.076 321.677 169.82C321.677 170.572 321.785 171.122 322.001 171.47C322.217 171.814 322.547 171.986 322.991 171.986C323.435 171.986 323.765 171.814 323.981 171.47C324.197 171.122 324.305 170.568 324.305 169.808C324.305 169.068 324.197 168.526 323.981 168.182C323.765 167.834 323.437 167.66 322.997 167.66ZM332.622 171.326C332.622 171.57 332.658 171.748 332.73 171.86C332.802 171.968 332.918 172.05 333.078 172.106L332.736 173.168C332.396 173.132 332.106 173.048 331.866 172.916C331.63 172.78 331.448 172.578 331.32 172.31C331.08 172.602 330.776 172.82 330.408 172.964C330.044 173.108 329.662 173.18 329.262 173.18C328.614 173.18 328.1 172.996 327.72 172.628C327.34 172.26 327.15 171.782 327.15 171.194C327.15 170.518 327.414 169.998 327.942 169.634C328.474 169.266 329.226 169.082 330.198 169.082H331.086V168.74C331.086 168.364 330.97 168.092 330.738 167.924C330.506 167.752 330.172 167.666 329.736 167.666C329.532 167.666 329.276 167.694 328.968 167.75C328.664 167.802 328.35 167.884 328.026 167.996L327.648 166.91C328.052 166.758 328.458 166.646 328.866 166.574C329.278 166.502 329.652 166.466 329.988 166.466C330.88 166.466 331.542 166.656 331.974 167.036C332.406 167.412 332.622 167.946 332.622 168.638V171.326ZM329.778 172.034C330.018 172.034 330.26 171.966 330.504 171.83C330.752 171.694 330.946 171.504 331.086 171.26V170.024H330.462C329.874 170.024 329.448 170.118 329.184 170.306C328.924 170.494 328.794 170.76 328.794 171.104C328.794 171.4 328.878 171.63 329.046 171.794C329.214 171.954 329.458 172.034 329.778 172.034ZM338.431 163.94L340.015 164.108V173H338.611L338.515 172.25C338.319 172.53 338.073 172.756 337.777 172.928C337.481 173.096 337.137 173.18 336.745 173.18C336.209 173.18 335.765 173.04 335.413 172.76C335.065 172.48 334.805 172.088 334.633 171.584C334.465 171.076 334.381 170.486 334.381 169.814C334.381 169.166 334.481 168.59 334.681 168.086C334.881 167.582 335.169 167.186 335.545 166.898C335.925 166.61 336.375 166.466 336.895 166.466C337.207 166.466 337.491 166.52 337.747 166.628C338.003 166.736 338.231 166.896 338.431 167.108V163.94ZM337.321 167.648C336.921 167.648 336.605 167.822 336.373 168.17C336.145 168.514 336.031 169.064 336.031 169.82C336.031 170.352 336.079 170.778 336.175 171.098C336.271 171.414 336.407 171.642 336.583 171.782C336.759 171.922 336.967 171.992 337.207 171.992C337.471 171.992 337.703 171.914 337.903 171.758C338.107 171.598 338.283 171.4 338.431 171.164V168.272C338.283 168.076 338.117 167.924 337.933 167.816C337.753 167.704 337.549 167.648 337.321 167.648ZM343.293 170.306C343.325 170.702 343.415 171.024 343.563 171.272C343.715 171.52 343.909 171.702 344.145 171.818C344.381 171.934 344.643 171.992 344.931 171.992C345.235 171.992 345.521 171.944 345.789 171.848C346.057 171.752 346.321 171.618 346.581 171.446L347.241 172.352C346.945 172.6 346.591 172.8 346.179 172.952C345.771 173.104 345.321 173.18 344.829 173.18C344.141 173.18 343.561 173.038 343.089 172.754C342.621 172.47 342.267 172.076 342.027 171.572C341.787 171.068 341.667 170.488 341.667 169.832C341.667 169.2 341.785 168.63 342.021 168.122C342.257 167.614 342.597 167.212 343.041 166.916C343.485 166.616 344.021 166.466 344.649 166.466C345.233 166.466 345.737 166.594 346.161 166.85C346.585 167.106 346.913 167.474 347.145 167.954C347.377 168.43 347.493 169.004 347.493 169.676C347.493 169.784 347.489 169.894 347.481 170.006C347.477 170.118 347.471 170.218 347.463 170.306H343.293ZM344.655 167.582C344.271 167.582 343.955 167.72 343.707 167.996C343.463 168.268 343.319 168.7 343.275 169.292H345.951C345.943 168.756 345.831 168.338 345.615 168.038C345.403 167.734 345.083 167.582 344.655 167.582ZM352.822 163.94L354.406 164.108V173H353.002L352.906 172.25C352.71 172.53 352.464 172.756 352.168 172.928C351.872 173.096 351.528 173.18 351.136 173.18C350.6 173.18 350.156 173.04 349.804 172.76C349.456 172.48 349.196 172.088 349.024 171.584C348.856 171.076 348.772 170.486 348.772 169.814C348.772 169.166 348.872 168.59 349.072 168.086C349.272 167.582 349.56 167.186 349.936 166.898C350.316 166.61 350.766 166.466 351.286 166.466C351.598 166.466 351.882 166.52 352.138 166.628C352.394 166.736 352.622 166.896 352.822 167.108V163.94ZM351.712 167.648C351.312 167.648 350.996 167.822 350.764 168.17C350.536 168.514 350.422 169.064 350.422 169.82C350.422 170.352 350.47 170.778 350.566 171.098C350.662 171.414 350.798 171.642 350.974 171.782C351.15 171.922 351.358 171.992 351.598 171.992C351.862 171.992 352.094 171.914 352.294 171.758C352.498 171.598 352.674 171.4 352.822 171.164V168.272C352.674 168.076 352.508 167.924 352.324 167.816C352.144 167.704 351.94 167.648 351.712 167.648ZM360.575 163.154V174.446H357.125V173.228H359.081V164.378H357.125V163.154H360.575Z" fill="black"/>
<path d="M23.3355 267.914V270.188H26.2755V271.382H23.3355V273.794H26.9055V275H21.6915V266.702H26.8635L26.6955 267.914H23.3355ZM31.2628 273.59L33.0628 266.702H34.7428L32.2108 275H30.2548L27.7348 266.702H29.4808L31.2628 273.59ZM37.7261 267.914V270.188H40.6661V271.382H37.7261V273.794H41.2961V275H36.0821V266.702H41.2541L41.0861 267.914H37.7261ZM46.4034 275L43.9614 268.106C43.9814 268.258 44.0054 268.454 44.0334 268.694C44.0614 268.934 44.0874 269.206 44.1114 269.51C44.1394 269.814 44.1614 270.136 44.1774 270.476C44.1974 270.816 44.2074 271.16 44.2074 271.508V275H42.7794V266.702H44.8674L47.2854 273.584C47.2534 273.38 47.2174 273.11 47.1774 272.774C47.1414 272.438 47.1094 272.052 47.0814 271.616C47.0534 271.18 47.0394 270.716 47.0394 270.224V266.702H48.4674V275H46.4034ZM53.6228 267.992V275H51.9848V267.992H49.5608V266.702H56.1188L55.9508 267.992H53.6228ZM68.6974 270.812C68.6974 270.196 68.6394 269.698 68.5234 269.318C68.4114 268.938 68.2574 268.648 68.0614 268.448C67.8654 268.244 67.6434 268.106 67.3954 268.034C67.1474 267.962 66.8894 267.926 66.6214 267.926H66.0094V273.782H66.6274C66.9074 273.782 67.1714 273.738 67.4194 273.65C67.6714 273.562 67.8934 273.41 68.0854 273.194C68.2774 272.974 68.4274 272.672 68.5354 272.288C68.6434 271.9 68.6974 271.408 68.6974 270.812ZM70.4134 270.812C70.4134 271.492 70.3394 272.074 70.1914 272.558C70.0474 273.042 69.8474 273.444 69.5914 273.764C69.3354 274.08 69.0394 274.328 68.7034 274.508C68.3714 274.688 68.0154 274.816 67.6354 274.892C67.2594 274.964 66.8774 275 66.4894 275H64.3654V266.702H66.3454C66.8614 266.702 67.3614 266.758 67.8454 266.87C68.3294 266.978 68.7634 267.178 69.1474 267.47C69.5354 267.762 69.8434 268.178 70.0714 268.718C70.2994 269.254 70.4134 269.952 70.4134 270.812ZM76.9847 266.702V267.932H75.2267V273.77H76.9847V275H71.8247V273.77H73.5827V267.932H71.8247V266.702H76.9847ZM84.684 272.618C84.684 273.122 84.554 273.566 84.294 273.95C84.038 274.334 83.668 274.636 83.184 274.856C82.7 275.072 82.114 275.18 81.426 275.18C80.706 275.18 80.088 275.074 79.572 274.862C79.056 274.646 78.624 274.37 78.276 274.034L79.14 273.068C79.44 273.336 79.776 273.546 80.148 273.698C80.52 273.85 80.938 273.926 81.402 273.926C81.698 273.926 81.964 273.88 82.2 273.788C82.44 273.696 82.628 273.562 82.764 273.386C82.904 273.206 82.974 272.986 82.974 272.726C82.974 272.498 82.926 272.306 82.83 272.15C82.734 271.994 82.568 271.854 82.332 271.73C82.1 271.606 81.776 271.482 81.36 271.358C80.748 271.17 80.244 270.964 79.848 270.74C79.452 270.512 79.158 270.244 78.966 269.936C78.774 269.624 78.678 269.256 78.678 268.832C78.678 268.356 78.81 267.946 79.074 267.602C79.338 267.254 79.694 266.988 80.142 266.804C80.594 266.616 81.098 266.522 81.654 266.522C82.27 266.522 82.812 266.612 83.28 266.792C83.748 266.968 84.16 267.22 84.516 267.548L83.694 268.478C83.41 268.234 83.102 268.054 82.77 267.938C82.442 267.822 82.108 267.764 81.768 267.764C81.5 267.764 81.26 267.8 81.048 267.872C80.84 267.944 80.676 268.05 80.556 268.19C80.436 268.33 80.376 268.508 80.376 268.724C80.376 268.92 80.43 269.088 80.538 269.228C80.65 269.364 80.84 269.492 81.108 269.612C81.376 269.728 81.744 269.86 82.212 270.008C82.704 270.156 83.134 270.334 83.502 270.542C83.874 270.75 84.164 271.02 84.372 271.352C84.58 271.68 84.684 272.102 84.684 272.618ZM90.1393 273.098H87.4093L86.8933 275H85.1953L87.7933 266.702H89.8093L92.4013 275H90.6553L90.1393 273.098ZM87.7033 271.868H89.8333L88.7713 267.932L87.7033 271.868ZM97.5206 269.36C97.5206 269.016 97.4546 268.738 97.3226 268.526C97.1946 268.31 97.0066 268.152 96.7586 268.052C96.5106 267.952 96.2126 267.902 95.8646 267.902H95.0066V270.908H95.9126C96.2406 270.908 96.5226 270.858 96.7586 270.758C96.9986 270.654 97.1846 270.488 97.3166 270.26C97.4526 270.032 97.5206 269.732 97.5206 269.36ZM99.2246 269.348C99.2246 269.992 99.0866 270.52 98.8106 270.932C98.5386 271.34 98.1566 271.642 97.6646 271.838C97.1726 272.03 96.6046 272.126 95.9606 272.126H95.0066V275H93.3626V266.702H95.8046C96.8806 266.702 97.7186 266.92 98.3186 267.356C98.9226 267.792 99.2246 268.456 99.2246 269.348ZM104.716 269.36C104.716 269.016 104.65 268.738 104.518 268.526C104.39 268.31 104.202 268.152 103.954 268.052C103.706 267.952 103.408 267.902 103.06 267.902H102.202V270.908H103.108C103.436 270.908 103.718 270.858 103.954 270.758C104.194 270.654 104.38 270.488 104.512 270.26C104.648 270.032 104.716 269.732 104.716 269.36ZM106.42 269.348C106.42 269.992 106.282 270.52 106.006 270.932C105.734 271.34 105.352 271.642 104.86 271.838C104.368 272.03 103.8 272.126 103.156 272.126H102.202V275H100.558V266.702H103C104.076 266.702 104.914 266.92 105.514 267.356C106.118 267.792 106.42 268.456 106.42 269.348ZM109.679 267.914V270.188H112.619V271.382H109.679V273.794H113.249V275H108.035V266.702H113.207L113.039 267.914H109.679ZM118.921 273.098H116.191L115.675 275H113.977L116.575 266.702H118.591L121.183 275H119.437L118.921 273.098ZM116.485 271.868H118.615L117.553 267.932L116.485 271.868ZM127.808 269.156C127.808 269.556 127.728 269.906 127.568 270.206C127.412 270.506 127.198 270.758 126.926 270.962C126.658 271.166 126.356 271.324 126.02 271.436L128.294 275H126.41L124.448 271.694H123.692V275H122.054V266.702H124.496C125.588 266.702 126.412 266.904 126.968 267.308C127.528 267.712 127.808 268.328 127.808 269.156ZM126.104 269.156C126.104 268.708 125.974 268.386 125.714 268.19C125.454 267.99 125.062 267.89 124.538 267.89H123.692V270.53H124.592C125.076 270.53 125.448 270.422 125.708 270.206C125.972 269.99 126.104 269.64 126.104 269.156ZM135.051 272.618C135.051 273.122 134.921 273.566 134.661 273.95C134.405 274.334 134.035 274.636 133.551 274.856C133.067 275.072 132.481 275.18 131.793 275.18C131.073 275.18 130.455 275.074 129.939 274.862C129.423 274.646 128.991 274.37 128.643 274.034L129.507 273.068C129.807 273.336 130.143 273.546 130.515 273.698C130.887 273.85 131.305 273.926 131.769 273.926C132.065 273.926 132.331 273.88 132.567 273.788C132.807 273.696 132.995 273.562 133.131 273.386C133.271 273.206 133.341 272.986 133.341 272.726C133.341 272.498 133.293 272.306 133.197 272.15C133.101 271.994 132.935 271.854 132.699 271.73C132.467 271.606 132.143 271.482 131.727 271.358C131.115 271.17 130.611 270.964 130.215 270.74C129.819 270.512 129.525 270.244 129.333 269.936C129.141 269.624 129.045 269.256 129.045 268.832C129.045 268.356 129.177 267.946 129.441 267.602C129.705 267.254 130.061 266.988 130.509 266.804C130.961 266.616 131.465 266.522 132.021 266.522C132.637 266.522 133.179 266.612 133.647 266.792C134.115 266.968 134.527 267.22 134.883 267.548L134.061 268.478C133.777 268.234 133.469 268.054 133.137 267.938C132.809 267.822 132.475 267.764 132.135 267.764C131.867 267.764 131.627 267.8 131.415 267.872C131.207 267.944 131.043 268.05 130.923 268.19C130.803 268.33 130.743 268.508 130.743 268.724C130.743 268.92 130.797 269.088 130.905 269.228C131.017 269.364 131.207 269.492 131.475 269.612C131.743 269.728 132.111 269.86 132.579 270.008C133.071 270.156 133.501 270.334 133.869 270.542C134.241 270.75 134.531 271.02 134.739 271.352C134.947 271.68 135.051 272.102 135.051 272.618Z" fill="black"/>
<path d="M462 24.0249L447 15.3641L447 32.6846L462 24.0249ZM356 25.5208L448.5 25.5244L448.5 22.5244L356 22.5208L356 25.5208Z" fill="#464646"/>
<path d="M79.8801 243L85.6134 237.28C85.8645 237.029 86.0056 236.688 86.0056 236.333C86.0056 235.978 85.8645 235.638 85.6134 235.387C85.3624 235.136 85.0218 234.995 84.6668 234.995C84.3117 234.995 83.9712 235.136 83.7201 235.387L78.0001 241.12L72.2801 235.387C72.029 235.136 71.6885 234.995 71.3334 234.995C70.9784 234.995 70.6378 235.136 70.3868 235.387C70.1357 235.638 69.9946 235.978 69.9946 236.333C69.9946 236.688 70.1357 237.029 70.3868 237.28L76.1201 243L70.3868 248.72C70.2618 248.844 70.1626 248.991 70.0949 249.154C70.0272 249.316 69.9924 249.491 69.9924 249.667C69.9924 249.843 70.0272 250.017 70.0949 250.179C70.1626 250.342 70.2618 250.489 70.3868 250.613C70.5107 250.738 70.6582 250.838 70.8207 250.905C70.9831 250.973 71.1574 251.008 71.3334 251.008C71.5095 251.008 71.6837 250.973 71.8462 250.905C72.0087 250.838 72.1562 250.738 72.2801 250.613L78.0001 244.88L83.7201 250.613C83.8441 250.738 83.9915 250.838 84.154 250.905C84.3165 250.973 84.4908 251.008 84.6668 251.008C84.8428 251.008 85.0171 250.973 85.1795 250.905C85.342 250.838 85.4895 250.738 85.6134 250.613C85.7384 250.489 85.8376 250.342 85.9053 250.179C85.973 250.017 86.0078 249.843 86.0078 249.667C86.0078 249.491 85.973 249.316 85.9053 249.154C85.8376 248.991 85.7384 248.844 85.6134 248.72L79.8801 243Z" fill="#FF5580"/>
<rect width="121" height="48" rx="4" fill="#F3F3F3"/>
<rect x="0.5" y="0.5" width="120" height="47" rx="3.5" stroke="#161616" stroke-opacity="0.24"/>
<path d="M40.1321 12.4892H45.4244V13.7508H43.6213V19.7385H45.4244V21H40.1321V19.7385H41.9352V13.7508H40.1321V12.4892ZM48.4564 13.9292C48.6246 15.2092 48.7087 16.3723 48.7087 17.4185V21H47.2441V12.4892H49.3857L51.8657 19.5477C51.6975 18.4031 51.6134 17.2544 51.6134 16.1015V12.4892H53.078V21H50.9611L48.4564 13.9292ZM54.8977 12.4892H60.19V13.7508H58.3869V19.7385H60.19V21H54.8977V19.7385H56.7008V13.7508H54.8977V12.4892ZM68.139 13.8123H65.7513V21H64.0713V13.8123H61.5851V12.4892H68.3113L68.139 13.8123ZM69.6633 12.4892H74.9556V13.7508H73.1526V19.7385H74.9556V21H69.6633V19.7385H71.4664V13.7508H69.6633V12.4892ZM81.6 21L81.0708 19.0492H78.2708L77.7415 21H76L78.6646 12.4892H80.7323L83.3908 21H81.6ZM79.6677 13.7508L78.5723 17.7877H80.7569L79.6677 13.7508ZM90.2874 13.8123H87.8997V21H86.2197V13.8123H83.7336V12.4892H90.4597L90.2874 13.8123ZM91.8118 12.4892H97.1041V13.7508H95.301V19.7385H97.1041V21H91.8118V19.7385H93.6149V13.7508H91.8118V12.4892ZM100.136 13.9292C100.304 15.2092 100.388 16.3723 100.388 17.4185V21H98.9238V12.4892H101.065L103.545 19.5477C103.377 18.4031 103.293 17.2544 103.293 16.1015V12.4892H104.758V21H102.641L100.136 13.9292ZM109.488 21.1846C108.725 21.1846 108.077 21.0164 107.544 20.68C107.01 20.3436 106.604 19.8431 106.325 19.1785C106.046 18.5138 105.907 17.6974 105.907 16.7292C105.907 15.7938 106.077 14.9938 106.417 14.3292C106.758 13.6605 107.217 13.1559 107.796 12.8154C108.374 12.4749 109.016 12.3046 109.722 12.3046C110.292 12.3046 110.78 12.3908 111.187 12.5631C111.597 12.7313 111.98 12.9815 112.337 13.3138L111.42 14.2554C111.158 14.0215 110.897 13.8492 110.639 13.7385C110.385 13.6277 110.102 13.5723 109.79 13.5723C109.379 13.5723 109.014 13.681 108.694 13.8985C108.378 14.1118 108.126 14.4544 107.937 14.9262C107.753 15.3979 107.66 16.0031 107.66 16.7415C107.66 17.5046 107.728 18.12 107.864 18.5877C107.999 19.0513 108.204 19.3877 108.479 19.5969C108.754 19.8062 109.105 19.9108 109.531 19.9108C109.983 19.9108 110.401 19.8082 110.787 19.6031V17.4308H109.507L109.334 16.2H112.393V20.3662C111.954 20.6287 111.498 20.8318 111.027 20.9754C110.559 21.1149 110.046 21.1846 109.488 21.1846ZM67.6528 28.7323H64.2067V31.0646H67.2221V32.2892H64.2067V34.7631H67.8682V36H62.5205V27.4892H67.8251L67.6528 28.7323ZM70.5126 27.4892L72.3403 34.5538L74.1864 27.4892H75.9095L73.3126 36H71.3064L68.7218 27.4892H70.5126ZM82.4185 28.7323H78.9723V31.0646H81.9877V32.2892H78.9723V34.7631H82.6338V36H77.2862V27.4892H82.5908L82.4185 28.7323ZM85.3705 28.9292C85.5387 30.2092 85.6228 31.3723 85.6228 32.4185V36H84.1582V27.4892H86.2997L88.7797 34.5477C88.6115 33.4031 88.5274 32.2544 88.5274 31.1015V27.4892H89.992V36H87.8751L85.3705 28.9292ZM97.6702 28.8123H95.2825V36H93.6025V28.8123H91.1164V27.4892H97.8425L97.6702 28.8123Z" fill="black"/>
<path d="M9 12V15.4286H33V12H9ZM15 18.8571V22.2857H33V18.8571H15ZM9 25.7143V29.1429H33V25.7143H9ZM15 32.5714V36H33V32.5714H15Z" fill="black"/>
</svg>
