<svg version="1.1" xmlns="http://www.w3.org/2000/svg" viewBox="0 0 634.4693335171794 595.6262312406445" width="1268.9386670343588" height="1191.252462481289" filter="invert(93%) hue-rotate(180deg)">
  <!-- svg-source:excalidraw -->
  
  <defs>
    <style class="style-fonts">
      @font-face {
        font-family: "Virgil";
        src: url("https://excalidraw.com/Virgil.woff2");
      }
      @font-face {
        font-family: "Cascadia";
        src: url("https://excalidraw.com/Cascadia.woff2");
      }
    </style>
  </defs>
  <rect x="0" y="0" width="634.4693335171794" height="595.6262312406445" fill="#ffffff"></rect><g stroke-opacity="0.2" fill-opacity="0.2" stroke-linecap="round" transform="translate(10 10) rotate(0 307.2346667585897 287.81311562032226)"><path d="M0.14 -0.02 C198.73 2.07, 397.59 1.21, 614.34 0.03 M614.16 -0.03 C615.96 132.43, 615.44 264.89, 614.81 575.34 M614.48 575.67 C442.53 575.91, 269.51 576.29, 0.57 575.36 M-0.02 575.3 C-1.34 367.64, -1.07 160.06, 0.06 0.26" stroke="#000000" stroke-width="1.5" fill="none" stroke-dasharray="8 9"></path></g><g stroke-linecap="round" transform="translate(486.1255954833737 116.74030674021401) rotate(0 46.92544770835718 46.023035252427235)"><path d="M0.44 -0.28 L93.93 0.29 L92.69 93.55 L0.43 93.14" stroke="none" stroke-width="0" fill="#eeeeee"></path><path d="M-0.05 0.52 C34.52 1.18, 65.19 -0.49, 93.91 -1.39 M-0.04 0.93 C31.06 0.64, 62.16 0.8, 93.49 -0.19 M93.97 1.18 C93.1 25.25, 94.03 52.63, 93.19 93.27 M93.45 -0.16 C93.83 32.64, 94.42 65.01, 94.18 91.64 M94.11 91.85 C72.52 90.64, 48.31 92.41, 0.27 90.29 M92.95 91.33 C74 92.64, 53.22 92.29, 0.78 92 M-0.3 93.07 C2.49 58.46, 2.51 25.08, -1.51 0.14 M0.33 91.53 C0.13 57.83, -0.37 24.03, -0.18 0.87" stroke="#000000" stroke-width="1" fill="none"></path></g><g transform="translate(501.39850755331054 143.2722930979487) rotate(0 30.5 17.5)"><text x="30.5" y="14.5" font-family="Cascadia, Segoe UI Emoji" font-size="14.53640502362555px" fill="#000000" text-anchor="middle" style="white-space: pre;" direction="ltr">ORDER</text><text x="30.5" y="32" font-family="Cascadia, Segoe UI Emoji" font-size="14.53640502362555px" fill="#000000" text-anchor="middle" style="white-space: pre;" direction="ltr">SERVICE</text></g><g stroke-linecap="round" transform="translate(476.419363847172 194.5131934051758) rotate(0 15.075640493638616 22.876446739244784)"><path d="M0.08 0.29 L28.99 1.51 L30.58 46.85 L-0.76 43.95" stroke="none" stroke-width="0" fill="#fff"></path><path d="M1.69 1.35 C9.13 -0.4, 19.24 -1.47, 30.81 -1.17 M-0.16 0.27 C7.57 0.15, 15.37 -0.47, 29.93 0.28 M29.14 -0.35 C30.1 15.2, 29.52 28.78, 31.21 45.55 M30.22 0.17 C30.63 13.71, 30.3 26.84, 29.5 46.23 M30.88 44.41 C19.88 46.15, 12.72 43.97, -1.75 47.47 M30.22 46.09 C19.49 45.52, 11.19 45.49, 0.58 44.78 M1.6 45.12 C1.69 32.97, -1.45 22.43, 1.41 0.22 M0.23 45.63 C-0.42 28.08, -0.33 10.94, 0.22 -0.14" stroke="#000000" stroke-width="2" fill="none"></path></g><g stroke-linecap="round" transform="translate(473.19965043517504 191.51844333324084) rotate(0 15.075640493638616 22.876446739244784)"><path d="M0.29 -1.16 L31.66 0.43 L31.25 45 L-1.8 47.46" stroke="none" stroke-width="0" fill="#fff"></path><path d="M1.35 -0.46 C8.64 -0.19, 16.54 0.4, 28.98 -0.78 M0.27 -0.29 C9.35 -0.31, 17.65 -0.17, 30.43 0.01 M29.8 -0.08 C31.84 13.33, 31.65 29.03, 29.95 45.71 M30.33 0.66 C30.16 12.22, 29.67 23.12, 30.63 45.69 M28.81 44.33 C21.14 46.14, 9.52 44.11, 1.71 46.3 M30.49 44.96 C23.81 46.56, 17.46 46.36, -0.97 45.32 M-0.63 47.37 C-1.29 31.19, -0.09 21.06, 0.22 1.8 M-0.12 45.48 C0.4 30.35, 1.11 15.52, -0.14 0.04" stroke="#000000" stroke-width="2" fill="none"></path></g><g stroke-linecap="round" transform="translate(469.19173213540444 187.99735046249384) rotate(0 15.075640493638616 22.876446739244784)"><path d="M-1.16 1.51 L30.58 1.1 L29.39 43.95 L1.7 46.76" stroke="none" stroke-width="0" fill="#fff"></path><path d="M-0.46 -0.32 C9.89 -1.6, 20.31 -1.38, 29.37 -0.08 M-0.29 0.43 C11.48 -0.28, 23.46 0.2, 30.16 0.06 M30.07 1.42 C29.26 17.65, 30.97 32.65, 30.11 44.95 M30.81 0.08 C30.51 12.61, 29.53 26.51, 30.09 45.88 M28.73 46.18 C21.67 43.8, 10.9 47.26, 0.55 43.95 M29.36 45.74 C24.05 45.81, 16.98 44.88, -0.44 45.6 M1.62 44.7 C-1.88 29.82, 1.04 13.83, 1.8 0.65 M-0.27 45.92 C-0.29 35.28, 0.12 22.93, 0.04 0.15" stroke="#000000" stroke-width="2" fill="none"></path></g><g stroke-linecap="round"><g transform="translate(474.3051075388271 208.79278278716288) rotate(0 9.994270907286705 -0.8467642608599135)"><path d="M-0.27 -0.19 C2.44 -0.46, 13.86 -0.46, 17.28 -0.77 C20.71 -1.07, 19.91 -1.92, 20.26 -2.02 M1.78 -1.34 C4.25 -1.55, 13.37 0.28, 16.36 0.33 C19.34 0.37, 19.2 -0.97, 19.7 -1.08" stroke="#000000" stroke-width="1" fill="none"></path></g></g><mask></mask><g stroke-linecap="round"><g transform="translate(475.0965528534266 195.3697809467992) rotate(0 9.75138182639023 -1.1421510190012896)"><path d="M-0.19 0.04 C0.73 -0.05, 3.19 -0.7, 6.34 -0.8 C9.5 -0.91, 16.56 -0.91, 18.73 -0.61 M-1.76 -0.99 C-0.53 -1.42, 4.78 -2.96, 8.62 -2.72 C12.45 -2.48, 19.43 0.17, 21.26 0.46" stroke="#000000" stroke-width="1" fill="none"></path></g></g><mask></mask><g stroke-linecap="round"><g transform="translate(475.06387571816276 224.12002883964283) rotate(0 10.16568986926552 0.6006198033677492)"><path d="M0.04 -0.84 C2.03 -0.94, 9.07 -1.11, 11.66 -0.81 C14.25 -0.52, 13.9 0.98, 15.58 0.94 C17.26 0.9, 20.84 -0.68, 21.73 -1.03 M-1.4 1.34 C0.49 1.4, 8.26 0.21, 10.92 0.35 C13.58 0.5, 13.24 2.3, 14.57 2.23 C15.9 2.17, 18.06 0.51, 18.9 -0.03" stroke="#000000" stroke-width="1" fill="none"></path></g></g><mask></mask><g stroke-linecap="round"><g transform="translate(473.7055702696348 228.9163238914723) rotate(0 12.013426746515847 0.426964794741707)"><path d="M-0.84 0.39 C-0.2 0.22, 2.35 -1.03, 3.63 -0.97 C4.91 -0.91, 4.18 0.49, 6.83 0.75 C9.48 1.01, 16.87 0.79, 19.54 0.59 C22.21 0.39, 22.32 -0.16, 22.86 -0.46 M0.93 -0.45 C1.97 -0.45, 5.12 0.42, 5.97 0.32 C6.83 0.23, 3.76 -1.26, 6.04 -1.01 C8.33 -0.75, 16.55 1.67, 19.69 1.87 C22.82 2.07, 24.15 0.91, 24.86 0.2" stroke="#000000" stroke-width="1" fill="none"></path></g></g><mask></mask><g stroke-linecap="round"><g transform="translate(473.8270834366717 201.79459062504634) rotate(0 10.135400996342469 0.5610485256571565)"><path d="M0.39 -0.7 C1.6 -0.61, 3.83 -0.52, 7.29 -0.3 C10.75 -0.08, 18.96 0.48, 21.13 0.61 M-0.86 1.54 C0.15 1.9, 2.46 1.16, 6.1 1.21 C9.73 1.26, 18.5 1.8, 20.95 1.83" stroke="#000000" stroke-width="1" fill="none"></path></g></g><mask></mask><g stroke-linecap="round"><g transform="translate(473.87293759465365 216.50508046465507) rotate(0 9.513365569668053 -0.022343868594361993)"><path d="M-0.7 -0.47 C0 -0.25, 2.03 1.63, 3.4 1.72 C4.78 1.81, 4.86 0.14, 7.57 0.08 C10.28 0.01, 17.67 1.24, 19.67 1.32 M1.13 -1.76 C1.74 -1.88, 1.5 -0.37, 2.43 0.18 C3.36 0.74, 3.82 1.76, 6.7 1.57 C9.58 1.38, 17.26 -0.84, 19.73 -0.96" stroke="#000000" stroke-width="1" fill="none"></path></g></g><mask></mask><g stroke-linecap="round"><g transform="translate(291.1124829505875 75.88695031049315) rotate(89.99999999999994 16.659308486153577 41.20732411779795)" fill-rule="evenodd"><path d="M1.21 -2.93 C1.21 -2.93, 1.21 -2.93, 1.21 -2.93 M1.21 -2.93 C1.21 -2.93, 1.21 -2.93, 1.21 -2.93 M2.36 2.86 C4.05 -0.3, 5.42 -1.59, 8.55 -5.42 M2.19 1.98 C4.11 -0.47, 6.27 -2.2, 9.09 -5.78 M3.56 8.84 C5.86 3.15, 6.46 1.14, 13.85 -5.41 M2.6 8.1 C7.24 2.67, 10.03 -0.38, 14.38 -6.24 M2.46 12.93 C9.63 7.77, 15.77 0.72, 18.31 -6.2 M2.78 13.02 C6.47 10.47, 9.91 5.83, 18.02 -4.5 M3.66 20.97 C10.98 10.56, 18.46 3.4, 23.32 -3.32 M2.74 20.3 C5.51 15.74, 10.57 10.32, 23.8 -3.85 M3.19 25.52 C11.64 18.06, 19.37 7.27, 27.14 -5.66 M3.24 26.87 C10.29 16.94, 18.69 7.8, 28.08 -4.47 M2.84 32.43 C14.02 19.01, 24.37 8.95, 30.67 -3.08 M3.25 32.79 C11.95 21.55, 20.65 10.19, 32.41 -2.24 M0.82 36.29 C8.9 31.7, 17.73 23.15, 34.17 -0.88 M2.98 37.93 C15.4 24.56, 26.75 10.98, 35.6 1.03 M1.95 46.08 C11.11 35.63, 15.02 28.98, 34.84 7.39 M3.39 43.76 C11.11 33.64, 19.65 24.42, 35.64 5.85 M4.35 48.67 C14.43 37.5, 26.79 22.95, 34.02 13.31 M3.28 49.99 C12.87 39.04, 21.68 28.28, 34.28 12.63 M1.65 58.43 C13.7 41.17, 27.5 26.64, 34.85 16.8 M2.75 56.35 C12.08 47.82, 18.71 36.84, 34.98 18.05 M1.63 60.75 C14.66 47.18, 26.54 32.87, 34.95 24.13 M2.28 61.27 C14.95 49.35, 27.76 33.94, 34.99 25.24 M4.45 69.64 C12.9 56.81, 26.02 42.49, 36.54 32.24 M2.24 67.62 C13.63 55.74, 24.61 43.41, 35.75 31.18 M0.67 76.03 C13.86 64.76, 22.68 53.32, 36.54 38.29 M3.28 74.17 C11.95 65.72, 20.3 55.58, 34.38 36.53 M4.72 81.54 C14.61 64.11, 26.86 52.6, 36.67 43.98 M3.12 81.55 C15.71 65.61, 26.7 52.52, 34.12 43 M2.34 86.39 C10.04 76.42, 20.21 65.2, 36.87 49.38 M2.38 87.24 C8.33 79.39, 15.37 72.65, 35.09 49.35 M5.93 87.83 C16.76 79.21, 26.07 66.37, 34.8 56.71 M5.23 88.24 C16.73 77.55, 26.85 63.95, 34.1 56.4 M9.55 90.35 C18.12 81.62, 26.06 70.31, 33.85 60.67 M10.75 90.41 C16.91 82.39, 22.65 75.12, 36.07 61.45 M13.45 90.13 C21.59 84.69, 25.73 76.11, 35.36 68.01 M14.8 91.03 C18.61 86.36, 25.16 81.33, 34.52 67 M20.29 90.66 C23.7 87.09, 25.09 83.3, 34.6 75.83 M18.59 91.63 C23.76 87.69, 27.05 82.66, 34.97 73.26 M26.48 89.81 C30.52 84.67, 31.88 83.31, 35.91 79.52 M27.01 88.25 C29.04 86.63, 31.56 84.49, 34.97 79.33" stroke="#40c057" stroke-width="0.5" fill="none"></path><path d="M-0.47 -0.05 C-0.33 12.4, 1.09 60.24, 1.22 73.96 C1.36 87.67, 0.17 80.27, 0.33 82.24 C0.5 84.22, 1.05 84.67, 2.23 85.81 C3.41 86.95, 4.78 88.32, 7.42 89.07 C10.05 89.82, 14.7 90.24, 18.02 90.3 C21.34 90.37, 25.05 90.37, 27.34 89.46 C29.63 88.56, 30.82 85.97, 31.76 84.87 C32.71 83.77, 32.87 84.33, 33.04 82.84 C33.21 81.35, 32.68 88.72, 32.79 75.93 C32.91 63.14, 33.72 18.88, 33.74 6.1 C33.76 -6.69, 33.43 0.88, 32.91 -0.78 C32.38 -2.44, 31.68 -3.1, 30.61 -3.85 C29.55 -4.6, 28.93 -4.66, 26.52 -5.26 C24.11 -5.85, 19.36 -7.05, 16.17 -7.43 C12.98 -7.81, 9.74 -8.24, 7.38 -7.54 C5.02 -6.85, 3.2 -4.48, 2 -3.25 C0.79 -2.02, 0.4 -0.57, 0.14 -0.16 C-0.12 0.25, 0.6 -0.87, 0.44 -0.8 M1.48 -1.12 C1.53 11.57, 1.15 61.31, 0.86 75.39 C0.57 89.48, -0.57 81.49, -0.26 83.38 C0.06 85.26, 1.73 85.69, 2.75 86.68 C3.76 87.68, 3.62 88.89, 5.82 89.32 C8.02 89.75, 12.25 89.41, 15.95 89.27 C19.65 89.13, 25 89.3, 28.02 88.49 C31.04 87.68, 33.53 85.52, 34.08 84.42 C34.63 83.32, 31.47 83.33, 31.35 81.91 C31.22 80.48, 32.84 88.35, 33.35 75.87 C33.86 63.38, 34.71 19.91, 34.4 7.02 C34.08 -5.87, 32.09 0.49, 31.48 -1.46 C30.87 -3.4, 31.67 -4.03, 30.75 -4.63 C29.82 -5.23, 28.29 -4.51, 25.92 -5.03 C23.56 -5.56, 19.52 -7.5, 16.55 -7.78 C13.59 -8.05, 10.74 -7.57, 8.16 -6.7 C5.57 -5.83, 2.58 -3.69, 1.05 -2.55 C-0.49 -1.4, -0.77 -0.12, -1.06 0.14 C-1.36 0.41, -0.76 -0.72, -0.72 -0.97" stroke="#087f5b" stroke-width="1" fill="none"></path></g></g><mask></mask><g stroke-linecap="round"><g transform="translate(275.54386132896025 113.40345488384196) rotate(89.99999999999994 15.68705459988496 4.047088602531062)"><path d="M-0.05 1.11 C0.18 1.78, -0.05 2.66, 0.65 3.54 C1.36 4.43, 2.77 5.8, 4.15 6.43 C5.54 7.05, 6.84 7.04, 8.94 7.31 C11.04 7.57, 13.91 8.13, 16.74 8.03 C19.56 7.93, 23.4 7.68, 25.91 6.72 C28.42 5.76, 30.79 3.45, 31.8 2.26 C32.81 1.07, 31.77 0.09, 31.98 -0.42 M-1.53 0.65 C-1.42 0.98, -1.18 0.97, -0.39 1.59 C0.39 2.21, 1.65 3.24, 3.2 4.35 C4.76 5.47, 6.36 7.58, 8.96 8.29 C11.56 9, 15.73 9.02, 18.79 8.59 C21.85 8.17, 24.99 6.44, 27.33 5.71 C29.67 4.99, 32.23 5.34, 32.81 4.26 C33.4 3.18, 31.01 -0.29, 30.84 -0.78" stroke="#087f5b" stroke-width="1" fill="none"></path></g></g><mask></mask><g stroke-linecap="round"><g transform="translate(304.37759415716437 113.61868706374275) rotate(89.99999999999994 16.067490466973936 2.7509300651194053)"><path d="M1.11 -0.19 C1.39 0.19, 0.53 1.47, 1.17 2.22 C1.82 2.97, 3.69 3.71, 5.01 4.3 C6.33 4.9, 7.07 5.47, 9.11 5.78 C11.16 6.1, 14.49 6.13, 17.29 6.18 C20.08 6.22, 23.71 6.72, 25.89 6.04 C28.08 5.36, 29.37 3, 30.4 2.09 C31.42 1.17, 31.84 0.83, 32.05 0.56 M0.24 -1.34 C0.42 -0.78, -0.31 2.45, 0.4 3.58 C1.11 4.7, 3.04 4.86, 4.52 5.39 C5.99 5.92, 7.32 6.55, 9.24 6.75 C11.15 6.95, 12.98 6.8, 15.99 6.58 C19.01 6.35, 24.88 6.36, 27.34 5.37 C29.79 4.38, 30.11 1.41, 30.72 0.63 C31.33 -0.15, 30.54 0.86, 31 0.66" stroke="#087f5b" stroke-width="1" fill="none"></path></g></g><mask></mask><g stroke-linecap="round" transform="translate(333.95968483424576 109.9034072577108) rotate(89.99999999999994 16.274237016333245 7.235175596323074)"><path d="M12.75 0.36 C16.17 -0.07, 21.08 0.33, 24.04 1 C27 1.68, 29.19 3.1, 30.5 4.4 C31.8 5.7, 32.66 7.4, 31.88 8.83 C31.09 10.26, 28.47 12, 25.78 12.98 C23.09 13.95, 19.27 14.76, 15.74 14.66 C12.22 14.57, 7.23 13.62, 4.64 12.39 C2.05 11.17, 0.37 8.81, 0.21 7.29 C0.05 5.78, 1.1 4.58, 3.69 3.31 C6.27 2.03, 13.43 0.01, 15.72 -0.36 C18 -0.74, 17.38 0.74, 17.39 1.05 M17.56 -0.55 C20.56 -0.05, 24.67 2.14, 27.22 3.29 C29.76 4.44, 32.71 4.8, 32.83 6.33 C32.95 7.87, 30.15 10.92, 27.94 12.49 C25.73 14.07, 22.97 15.68, 19.56 15.77 C16.14 15.87, 10.28 14.19, 7.44 13.06 C4.6 11.92, 3.51 10.06, 2.51 8.96 C1.51 7.86, 0.45 7.73, 1.45 6.48 C2.44 5.23, 5.68 2.66, 8.49 1.45 C11.3 0.25, 16.56 -0.68, 18.3 -0.75 C20.04 -0.81, 18.89 0.63, 18.94 1.07" stroke="none" stroke-width="0" fill="#fff"></path><path d="M13.71 -0.14 C16.93 -0.39, 22.08 0.14, 25.09 1.08 C28.1 2.03, 30.81 4.1, 31.78 5.54 C32.74 6.98, 32.2 8.26, 30.9 9.72 C29.6 11.18, 27.01 13.44, 23.97 14.31 C20.93 15.18, 15.99 15.38, 12.67 14.94 C9.35 14.49, 6.16 13.01, 4.04 11.63 C1.93 10.24, 0 8.15, -0.02 6.63 C-0.03 5.11, 1.18 3.5, 3.95 2.5 C6.73 1.51, 14.12 0.98, 16.63 0.66 C19.15 0.34, 19.14 0.67, 19.04 0.57 M19.99 0.75 C23.11 0.8, 26.25 0.69, 28.39 1.89 C30.53 3.08, 33.11 6.41, 32.83 7.91 C32.56 9.42, 28.97 9.77, 26.72 10.92 C24.47 12.08, 22.81 14.63, 19.33 14.84 C15.86 15.05, 8.98 13.02, 5.88 12.17 C2.79 11.33, 1.71 11.08, 0.76 9.77 C-0.19 8.45, -1.39 5.81, 0.19 4.3 C1.77 2.78, 6.77 1.61, 10.24 0.68 C13.71 -0.24, 19.48 -1.15, 21.01 -1.25 C22.54 -1.34, 19.49 -0.43, 19.41 0.13" stroke="#087f5b" stroke-width="1" fill="none"></path></g><g transform="translate(245.48530071301911 145.09612789496737) rotate(0 61.5 10)"><text x="61.5" y="16" font-family="Cascadia, Segoe UI Emoji" font-size="16px" fill="#000000" text-anchor="middle" style="white-space: pre;" direction="ltr">[place-order]</text></g><g stroke-linecap="round"><g transform="translate(368.582142719727 120.3892117011685) rotate(0 52.40123842642049 10.431525453352378)"><path d="M0.86 -0.72 C29.18 5.66, 59.65 11.91, 104.09 21.58 M0.71 -0.33 C26.52 5.66, 51.75 10.2, 103.57 20.25" stroke="#000000" stroke-width="1" fill="none"></path></g><g transform="translate(368.582142719727 120.3892117011685) rotate(0 52.40123842642049 10.431525453352378)"><path d="M102.66 19.44 L87.76 25.23 L91.83 10.76 L101.78 21.46" stroke="none" stroke-width="0" fill="#000000" fill-rule="evenodd"></path><path d="M104.22 19.71 C99.16 20.92, 95.75 22.3, 89.11 24.79 M104.11 20 C100.4 21.55, 96.23 22.05, 88.72 23.79 M89.13 24.32 C89.22 19.24, 91.09 16.15, 91.59 11.33 M89.16 23.99 C89.36 19.17, 91.27 15.72, 90.85 11 M91.4 12.62 C95.13 15.12, 97.47 16.3, 103.35 21.02 M91.03 10.88 C96.06 15.22, 100.71 18.71, 103.82 19.86 M103.57 20.25 C103.57 20.25, 103.57 20.25, 103.57 20.25 M103.57 20.25 C103.57 20.25, 103.57 20.25, 103.57 20.25" stroke="#000000" stroke-width="1" fill="none"></path></g></g><mask></mask><g stroke-linecap="round"><g transform="translate(289.948077851202 231.27308341345156) rotate(89.99999999999994 16.39160258529796 41.29275463603017)" fill-rule="evenodd"><path d="M1.21 -2.93 C1.21 -2.93, 1.21 -2.93, 1.21 -2.93 M1.21 -2.93 C1.21 -2.93, 1.21 -2.93, 1.21 -2.93 M1.98 2.12 C3.68 0.97, 5.71 -1.91, 8.85 -5.44 M2.53 1.77 C3.34 0.55, 5.63 -1.32, 8.94 -5.28 M0.73 9.69 C5.11 4.68, 5.57 3.54, 14.6 -4.75 M1.26 8.85 C5.62 5.92, 7.57 2.17, 14.58 -6.25 M1.91 12.66 C6.87 6.68, 13.84 1.14, 16.83 -4.46 M1.62 14.37 C9.46 6.18, 15.69 0.12, 19.07 -4.51 M1.67 21.58 C6.11 14.6, 13.53 7.66, 23.59 -6.09 M2.15 21.06 C9.43 11.8, 15.94 4.53, 23.52 -4.26 M0.9 24.53 C12.76 15.06, 22.74 4.25, 30.43 -4.51 M1.84 25.71 C11.35 16.12, 20.04 7.16, 28.76 -3.6 M1.15 30.88 C9.92 22.71, 15.28 17.25, 32.48 -1.44 M2.89 31.72 C9.75 23.44, 18.47 13.01, 30.89 -1.83 M1.37 36.86 C15.91 23.64, 27.48 10.38, 35.15 2 M2.79 38.77 C12.29 26.01, 23.08 13.38, 36.26 1.23 M2.04 45.12 C10.42 36.01, 18.63 27.41, 33.76 6.49 M2.83 43.58 C11.58 35.36, 18.51 26.28, 34.47 6.56 M1.88 50.29 C14.53 36.93, 24.43 24.2, 34.67 13.93 M2.14 49.61 C12.87 38.87, 22.25 28.44, 35.89 12.58 M2.04 54.53 C9.43 45.86, 18.27 38.97, 34.99 20.61 M2.18 55.79 C16.22 41.37, 28.47 27.11, 34.62 18.35 M2.81 61.11 C13.17 52.74, 18.5 41.42, 33.28 25.23 M2.85 62.22 C15.07 48.5, 25.96 35.37, 35.61 24.91 M3.74 69.97 C13.35 57.15, 23.08 44, 33.58 31.22 M2.95 68.92 C11.24 59.43, 20.21 47.97, 36 31.62 M3.74 76.02 C14.14 58.52, 26.61 47.67, 33.62 38.3 M1.58 74.27 C15.13 61.4, 26.79 48.35, 35.67 36.93 M4.52 80.97 C11.15 72.09, 16.46 65.89, 36.82 44.79 M1.98 79.98 C9.53 73.57, 15.71 65.11, 34.64 42.87 M4.07 87.12 C10.26 75.78, 21.57 64.8, 35.8 47.44 M2.29 87.09 C12.79 76.17, 23.15 63.97, 34.82 49.99 M5.93 89.92 C17.81 75.2, 28 62.69, 33.82 55.21 M5.23 89.61 C18.09 76.74, 28.4 63.26, 34.88 55.32 M8.26 90.1 C18.61 78.55, 29.03 71.13, 34.8 61.61 M10.49 90.88 C16.06 83.31, 22.07 76.56, 34.61 61.86 M14.36 92.16 C19.22 83.75, 24.92 79.02, 33.55 66.26 M13.53 91.15 C19.55 84.85, 26.93 77.53, 34.43 68.32 M18.85 93.94 C22.06 87.4, 28.03 82.44, 33.77 75.19 M19.23 91.37 C24.49 87.36, 29.89 80.11, 35.79 74.51 M28.04 88.58 C28.59 87.58, 30.86 83.99, 34.24 79.09 M27.1 88.39 C29.78 85.34, 32.31 83.14, 35.71 79.54" stroke="#40c057" stroke-width="0.5" fill="none"></path><path d="M0.52 -0.43 C0.44 11.94, -0.09 60.05, -0.12 73.89 C-0.15 87.73, 0.03 80.43, 0.34 82.61 C0.66 84.78, 0.66 85.86, 1.78 86.95 C2.9 88.03, 4.4 88.42, 7.04 89.12 C9.69 89.81, 14.33 91.08, 17.64 91.14 C20.94 91.21, 24.32 90.52, 26.88 89.49 C29.44 88.46, 31.97 86.29, 33 84.96 C34.03 83.63, 33.06 83.12, 33.06 81.51 C33.06 79.89, 32.96 87.7, 33 75.28 C33.05 62.86, 33.32 19.54, 33.32 7.01 C33.32 -5.52, 33.53 2.05, 33.03 0.1 C32.53 -1.86, 31.33 -3.68, 30.31 -4.72 C29.28 -5.76, 29.23 -5.59, 26.89 -6.13 C24.54 -6.66, 19.33 -7.7, 16.23 -7.94 C13.14 -8.18, 10.92 -8.4, 8.31 -7.57 C5.7 -6.73, 1.93 -4, 0.57 -2.92 C-0.8 -1.84, 0.42 -1.75, 0.15 -1.1 C-0.12 -0.44, -1.08 1.03, -1.05 1.03 M-0.67 -1.71 C-0.95 10.88, -1.26 61.02, -1.19 75.29 C-1.12 89.56, -0.79 82.35, -0.25 83.93 C0.3 85.51, 0.54 83.85, 2.06 84.76 C3.59 85.67, 6.09 88.43, 8.91 89.39 C11.74 90.36, 15.96 90.7, 19.03 90.55 C22.09 90.41, 25.1 89.53, 27.31 88.53 C29.53 87.53, 31.63 85.39, 32.31 84.56 C32.99 83.72, 31.15 85.14, 31.38 83.53 C31.6 81.92, 33.28 88, 33.67 74.87 C34.07 61.74, 34.09 17.25, 33.75 4.75 C33.42 -7.75, 32.25 1.06, 31.67 -0.12 C31.09 -1.29, 31.14 -1.25, 30.28 -2.29 C29.41 -3.33, 28.76 -5.31, 26.48 -6.36 C24.21 -7.4, 19.46 -8.49, 16.65 -8.56 C13.83 -8.62, 11.93 -7.83, 9.57 -6.74 C7.22 -5.65, 4.29 -2.94, 2.52 -2.04 C0.75 -1.13, -0.74 -1.93, -1.05 -1.28 C-1.36 -0.64, 0.33 1.57, 0.67 1.82" stroke="#087f5b" stroke-width="1" fill="none"></path></g></g><mask></mask><g stroke-linecap="round"><g transform="translate(274.37945622957477 268.78958798680037) rotate(89.99999999999994 16.264306506103708 3.384817669292147)"><path d="M-0.43 -0.23 C-0.28 0.27, -0.24 2.52, 0.59 3.55 C1.41 4.59, 2.94 5.41, 4.52 5.98 C6.1 6.54, 8.04 6.66, 10.08 6.93 C12.13 7.21, 14.01 7.76, 16.79 7.64 C19.56 7.53, 24.24 6.94, 26.75 6.25 C29.26 5.56, 30.94 4.61, 31.83 3.5 C32.72 2.39, 32.09 0.28, 32.07 -0.4 M1.54 -1.4 C1.55 -1.32, -0.87 0.15, -0.5 1.6 C-0.13 3.06, 1.89 6.31, 3.76 7.33 C5.63 8.35, 8.79 7.61, 10.7 7.72 C12.61 7.83, 12.83 8.46, 15.2 8.01 C17.58 7.56, 22.01 5.92, 24.95 5 C27.89 4.08, 31.85 3.45, 32.86 2.49 C33.86 1.53, 30.88 0, 30.98 -0.75" stroke="#087f5b" stroke-width="1" fill="none"></path></g></g><mask></mask><g stroke-linecap="round"><g transform="translate(303.2131890577789 269.00482016670117) rotate(89.99999999999994 15.46476736417992 3.233894624799177)"><path d="M-0.23 -0.26 C-0.12 0.24, 0.38 1.64, 1.18 2.59 C1.98 3.54, 3.3 4.9, 4.56 5.44 C5.82 5.98, 6.68 5.57, 8.74 5.83 C10.8 6.09, 14.12 6.98, 16.9 7.02 C19.68 7.06, 22.97 6.87, 25.42 6.07 C27.88 5.26, 30.53 3.32, 31.64 2.18 C32.74 1.04, 32.03 -0.38, 32.07 -0.78 M-1.81 -1.45 C-1.88 -0.7, -0.53 3.31, 0.41 4.13 C1.35 4.95, 2.46 3.02, 3.83 3.47 C5.21 3.92, 6.74 6.09, 8.67 6.82 C10.6 7.55, 12.41 8.09, 15.41 7.86 C18.4 7.62, 23.76 6.6, 26.63 5.41 C29.5 4.23, 31.88 1.9, 32.61 0.77 C33.35 -0.36, 30.84 -0.99, 31.03 -1.37" stroke="#087f5b" stroke-width="1" fill="none"></path></g></g><mask></mask><g stroke-linecap="round" transform="translate(332.7952797348603 265.2895403606692) rotate(89.99999999999994 16.274237016333245 7.235175596323074)"><path d="M18.81 -0.17 C22.22 -0.09, 26.36 1.08, 28.79 2.34 C31.23 3.6, 33.43 5.79, 33.42 7.38 C33.41 8.96, 31.05 10.8, 28.71 11.86 C26.38 12.93, 22.7 13.45, 19.42 13.77 C16.14 14.08, 12.01 14.48, 9.04 13.75 C6.07 13.03, 3.1 10.75, 1.59 9.4 C0.09 8.06, -1.13 6.95, 0.02 5.69 C1.17 4.42, 4.66 2.54, 8.49 1.79 C12.32 1.05, 20.23 1.32, 22.98 1.21 C25.73 1.11, 25.2 1.24, 24.98 1.14 M20.23 1.3 C23.32 2.03, 28.06 3.93, 29.84 5 C31.61 6.07, 31.17 6.64, 30.89 7.74 C30.61 8.84, 30.43 10.24, 28.16 11.59 C25.89 12.94, 20.8 15.57, 17.3 15.82 C13.79 16.08, 9.94 14.48, 7.12 13.14 C4.3 11.81, 1.08 9.24, 0.35 7.81 C-0.37 6.39, 1 5.64, 2.78 4.6 C4.55 3.57, 7.91 2.46, 10.98 1.59 C14.05 0.72, 19.64 -0.38, 21.22 -0.61 C22.8 -0.84, 20.53 -0.18, 20.47 0.2" stroke="none" stroke-width="0" fill="#fff"></path><path d="M15.86 -0.18 C19.16 -0.24, 24.08 1.3, 26.76 2.43 C29.45 3.57, 31.31 5.24, 31.99 6.63 C32.67 8.03, 32.56 9.62, 30.85 10.79 C29.14 11.95, 25.13 13.09, 21.73 13.65 C18.34 14.2, 13.71 14.45, 10.47 14.09 C7.23 13.73, 4 12.78, 2.31 11.48 C0.62 10.17, -0.18 8.01, 0.34 6.27 C0.87 4.53, 2.3 2.06, 5.47 1.02 C8.64 -0.02, 16.7 0.13, 19.35 0.03 C21.99 -0.08, 21.4 0.38, 21.34 0.39 M9.28 -0.86 C12.47 -1.43, 19.73 0.27, 23.01 0.83 C26.29 1.39, 27.38 1.14, 28.95 2.49 C30.52 3.85, 32.98 7.24, 32.43 8.94 C31.88 10.65, 28.12 11.81, 25.64 12.72 C23.16 13.63, 20.71 14.63, 17.57 14.41 C14.42 14.18, 9.77 12.37, 6.78 11.36 C3.78 10.34, 0.26 9.4, -0.38 8.32 C-1.03 7.24, 1.14 5.97, 2.89 4.86 C4.64 3.75, 8.95 2.57, 10.12 1.67 C11.29 0.77, 9.73 -0.63, 9.92 -0.55" stroke="#087f5b" stroke-width="1" fill="none"></path></g><g transform="translate(234.82089561363364 300.48226099792623) rotate(0 71 10)"><text x="71" y="16" font-family="Cascadia, Segoe UI Emoji" font-size="16px" fill="#000000" text-anchor="middle" style="white-space: pre;" direction="ltr">[order-created]</text></g><g stroke-linecap="round"><g transform="translate(453.7772176952403 222.88933726173832) rotate(0 -45.89249014624693 28.040404166851886)"><path d="M0.11 1.18 C-26.23 14.96, -50.68 32.04, -91.9 56.24 M-0.4 -0.16 C-32.17 19.56, -63.76 38.87, -90.91 54.6" stroke="#000000" stroke-width="1" fill="none"></path></g><g transform="translate(453.7772176952403 222.88933726173832) rotate(0 -45.89249014624693 28.040404166851886)"><path d="M-92.7 55.81 L-82.94 44.22 L-77.92 52.32 L-89.29 53.12" stroke="none" stroke-width="0" fill="#000000" fill-rule="evenodd"></path><path d="M-90.82 55.48 C-89.34 50.89, -86.28 48.78, -82.91 43.15 M-91.21 54.48 C-87.85 50.37, -84.41 45.94, -82.17 41.92 M-82.25 42.11 C-80.39 43.95, -80.24 47.64, -75.81 52.04 M-82.99 41.78 C-80.91 44.75, -80.09 46.84, -75.48 53.13 M-76.2 53.92 C-80.14 53.13, -85.47 53.33, -92.04 54.7 M-75.73 52.77 C-81.34 53.73, -87.24 54.48, -91.04 55.25 M-90.91 54.6 C-90.91 54.6, -90.91 54.6, -90.91 54.6 M-90.91 54.6 C-90.91 54.6, -90.91 54.6, -90.91 54.6" stroke="#000000" stroke-width="1" fill="none"></path></g></g><mask></mask><g stroke-linecap="round" transform="translate(92.89617056396082 84.22930362509328) rotate(0 20.79956829072114 31.56218910916232)"><path d="M1.21 -0.52 L43.59 -1.94 L40.76 64.74 L-1.48 64.11" stroke="none" stroke-width="0" fill="#fff"></path><path d="M1.18 -1.01 C13.29 -0.1, 28.72 -0.69, 42.83 1.05 M-0.16 0.07 C12.23 0.83, 24.19 0.5, 41.19 -0.65 M41.4 0.73 C40.22 20.54, 41.99 44.2, 39.85 61.37 M40.88 0.07 C42.11 23.55, 41.76 49.47, 41.56 63.7 M42.62 64.72 C32.52 64.68, 23.66 61.55, 0.14 64.53 M41.08 63.35 C28.55 62.99, 15.9 63.08, 0.87 63.34 M-1.16 64.63 C0.41 46.17, -0.78 25.21, 1.7 1.01 M-0.98 62.67 C-0.56 38.61, 0.51 15.56, -0.34 -0.89" stroke="#000000" stroke-width="2" fill="none"></path></g><g stroke-linecap="round" transform="translate(88.45399452390166 80.0975051345988) rotate(0 20.79956829072114 31.56218910916232)"><path d="M-0.52 1.99 L39.65 -0.84 L43.22 61.65 L0.99 64.93" stroke="none" stroke-width="0" fill="#fff"></path><path d="M-1.01 -0.35 C12.45 1.18, 24.39 0.98, 42.65 -0.2 M0.07 0.17 C13.05 0.15, 25.11 -0.35, 40.95 0.48 M42.33 -1.34 C40.26 18.96, 41.95 35.3, 39.84 64.84 M41.67 0.34 C40.24 20.65, 41.81 41.3, 42.18 62.15 M43.19 62.49 C32.55 62.29, 18.75 63.48, 1.41 63.34 M41.83 63 C25.11 63.07, 8.98 63.78, 0.22 62.98 M1.51 63.55 C1.01 43.19, -1.89 26.47, 1.01 1.57 M-0.46 62.72 C-1.03 43.32, -0.19 21.84, -0.89 0.61" stroke="#000000" stroke-width="2" fill="none"></path></g><g stroke-linecap="round" transform="translate(82.92434751388691 75.23952171067936) rotate(0 20.79956829072114 31.56218910916232)"><path d="M1.99 -1.94 L40.76 1.62 L40.12 64.11 L1.81 64.58" stroke="none" stroke-width="0" fill="#fff"></path><path d="M-0.35 -0.08 C14.14 -0.45, 26.66 1.26, 41.4 -0.04 M0.17 0.66 C10.89 0.3, 21.2 -0.68, 42.08 -0.06 M40.26 -1.43 C41.96 20.04, 39.78 37.77, 43.31 63.67 M41.94 -0.79 C41.13 14.02, 41.1 27.06, 40.63 62.69 M40.97 64.75 C28.69 61.94, 18.01 64.86, 0.22 64.92 M41.48 62.85 C27.92 63.04, 14.79 63.44, -0.14 63.16 M0.43 64.22 C-0.39 41.46, 2.07 24.41, 1.57 0.49 M-0.4 62.49 C1.28 40.48, 0.28 16.53, 0.61 -0.26" stroke="#000000" stroke-width="2" fill="none"></path></g><g stroke-linecap="round"><g transform="translate(89.9791722123432 103.930575663215) rotate(0 13.18441749650367 -1.068280972069715)"><path d="M-0.21 -0.05 C3.78 0, 19.92 -0.11, 24.65 -0.3 C29.37 -0.49, 27.71 -0.93, 28.15 -1.19 M-1.78 -1.12 C2.06 -0.84, 19.22 1.37, 24.15 1.02 C29.07 0.68, 27.22 -2.9, 27.77 -3.2" stroke="#000000" stroke-width="1" fill="none"></path></g></g><mask></mask><g stroke-linecap="round"><g transform="translate(91.07111393623518 85.41112081398774) rotate(0 12.960649980285439 -0.8569415513887861)"><path d="M-0.05 0.85 C1.64 0.74, 4.93 -0.72, 9.51 -0.91 C14.09 -1.11, 24.57 -0.35, 27.45 -0.32 M-1.53 0.26 C0.02 -0.18, 3.6 -2.76, 8.35 -2.65 C13.11 -2.53, 23.91 0.47, 27.02 0.94" stroke="#000000" stroke-width="1" fill="none"></path></g></g><mask></mask><g stroke-linecap="round"><g transform="translate(91.02602992758102 125.0772792551295) rotate(0 13.90517605713967 0.3988300313611717)"><path d="M0.85 -0.4 C3.6 -0.31, 12.75 0.19, 16.28 0.48 C19.81 0.77, 20.07 1.64, 22.02 1.34 C23.97 1.03, 26.88 -0.96, 27.97 -1.34 M-0.16 -1.65 C2.52 -1.91, 12.16 -2.02, 15.72 -1.31 C19.28 -0.59, 19.15 2.48, 21.19 2.64 C23.23 2.8, 26.97 0.18, 27.96 -0.34" stroke="#000000" stroke-width="1" fill="none"></path></g></g><mask></mask><g stroke-linecap="round"><g transform="translate(89.15200229019956 131.69463435291595) rotate(0 15.917259967623067 0.2525229195466636)"><path d="M-0.4 0.74 C0.71 0.46, 4.97 -0.52, 6.62 -0.81 C8.26 -1.09, 6.06 -1.19, 9.47 -0.98 C12.87 -0.77, 23.25 0.38, 27.04 0.45 C30.84 0.52, 31.39 -0.33, 32.23 -0.56 M1.6 0.08 C2.61 -0.08, 4.82 0.66, 6 0.66 C7.18 0.67, 5.16 -0.07, 8.69 0.09 C12.22 0.24, 23.49 1.57, 27.19 1.6 C30.89 1.62, 29.81 0.81, 30.87 0.24" stroke="#000000" stroke-width="1" fill="none"></path></g></g><mask></mask><g stroke-linecap="round"><g transform="translate(89.31965164593157 94.27530590210904) rotate(0 13.40162734793114 0.8834440605030522)"><path d="M0.74 0.63 C2.36 0.64, 6.19 -0.42, 10.59 -0.37 C14.99 -0.33, 24.28 0.64, 27.14 0.92 M-0.34 -0.08 C1.04 0.16, 5.16 0.78, 9.57 1.15 C13.98 1.52, 23.05 1.91, 26.12 2.14" stroke="#000000" stroke-width="1" fill="none"></path></g></g><mask></mask><g stroke-linecap="round"><g transform="translate(89.38291573681727 114.57108292982525) rotate(0 13.846221854077612 0.33330074863749815)"><path d="M0.63 -0.12 C1.49 -0.19, 3.09 0.38, 4.74 0.36 C6.39 0.33, 6.67 -0.52, 10.52 -0.26 C14.37 0, 24.96 1.6, 27.83 1.9 M-0.49 -1.23 C0.24 -1.2, 2.08 1.25, 3.78 1.64 C5.47 2.03, 5.59 1.42, 9.66 1.1 C13.73 0.79, 25.41 -0.41, 28.19 -0.24" stroke="#000000" stroke-width="1" fill="none"></path></g></g><mask></mask><g stroke-linecap="round"><g transform="translate(142.22264769984713 117.08198051861177) rotate(0 53.268541961156416 0.5900464394965184)"><path d="M-0.04 -0.8 C38.15 0.71, 77.26 2.34, 106.55 1.92 M-0.06 0.13 C27.44 0.18, 54.41 -0.57, 106.6 1.4" stroke="#000000" stroke-width="1" fill="none"></path></g><g transform="translate(142.22264769984713 117.08198051861177) rotate(0 53.268541961156416 0.5900464394965184)"><path d="M108.06 1.78 L92.91 6.29 L94.17 -4.15 L107.32 2.88" stroke="none" stroke-width="0" fill="#000000" fill-rule="evenodd"></path><path d="M106.57 0.79 C101.43 3.64, 96.95 6.68, 92.96 7.85 M106.55 1.49 C102.93 3.28, 98.93 4.01, 93 7.46 M93.19 6.21 C92.11 4.76, 93.52 0.97, 93.17 -4.33 M92.56 7.26 C93.19 4.12, 92.77 0.38, 92.85 -5.8 M94.54 -4.83 C96.57 -2.93, 101.29 -1.62, 106.85 1.12 M93.22 -5.21 C97.96 -2.13, 103.75 0.31, 106.32 0.72 M106.6 1.4 C106.6 1.4, 106.6 1.4, 106.6 1.4 M106.6 1.4 C106.6 1.4, 106.6 1.4, 106.6 1.4" stroke="#000000" stroke-width="1" fill="none"></path></g></g><mask></mask><g stroke-linecap="round"><g transform="translate(309.45689785239165 333.3357072290012) rotate(0 -0.3785654343708984 41.525811744356815)"><path d="M-0.8 -0.31 C-0.33 30.04, 0.46 59.55, -0.43 83.36 M0.13 -0.1 C0.51 19.11, -0.82 39.78, -0.96 83.31" stroke="#000000" stroke-width="1" fill="none"></path></g><g transform="translate(309.45689785239165 333.3357072290012) rotate(0 -0.3785654343708984 41.525811744356815)"><path d="M-0.58 83.38 L-8.21 70.62 L6.7 70.5 L0.53 82.83" stroke="none" stroke-width="0" fill="#000000" fill-rule="evenodd"></path><path d="M-1.56 83.07 C-3.02 78.75, -4.32 73.79, -6.65 69.03 M-0.86 83.23 C-2.2 79.59, -4.47 77.04, -7.04 68.99 M-8.29 68.73 C-4.36 70.07, -2.77 69.65, 6.52 69.73 M-7.24 69.97 C-2.1 69.55, 2.44 69.46, 5.05 69.83 M6.02 69 C3.49 74.67, 0.33 80.1, -1.23 84.61 M5.64 69.35 C3.99 74.3, 1.75 78.21, -1.63 83.95 M-0.96 83.31 C-0.96 83.31, -0.96 83.31, -0.96 83.31 M-0.96 83.31 C-0.96 83.31, -0.96 83.31, -0.96 83.31" stroke="#000000" stroke-width="1" fill="none"></path></g></g><mask></mask><g stroke-linecap="round" transform="translate(261.51715956628186 428.05155341834393) rotate(0 46.92544770835718 46.023035252427235)"><path d="M0.46 -0.84 L93.89 0.92 L92.97 92.42 L-1.68 93.88" stroke="none" stroke-width="0" fill="#eeeeee"></path><path d="M-1.73 0.89 C30.17 1.15, 59.23 0.95, 93.92 -1.17 M-0.85 -0.09 C20.41 -0.54, 40.66 -0.33, 93.63 -0.92 M93.39 0.86 C95.12 25.95, 92.25 48.66, 93.39 91.2 M94.53 -0.12 C93.83 30.9, 93.98 62.2, 94.58 92.74 M93.29 92.88 C60.34 91.83, 27.28 91.5, -1.71 91.72 M93.82 91.53 C62.3 91.72, 31.59 92.4, 0.24 92.61 M-1.08 92.78 C-1.26 60.92, 0.67 30.58, 0.76 -0.81 M0.22 92.93 C-1.44 59.59, -0.12 27.56, -0.6 0.05" stroke="#000000" stroke-width="1" fill="none"></path></g><g transform="translate(276.7900716362187 454.67735016538836) rotate(0 30.5 17.5)"><text x="30.5" y="14.5" font-family="Cascadia, Segoe UI Emoji" font-size="14.53640502362555px" fill="#000000" text-anchor="middle" style="white-space: pre;" direction="ltr">EMAIL</text><text x="30.5" y="32" font-family="Cascadia, Segoe UI Emoji" font-size="14.53640502362555px" fill="#000000" text-anchor="middle" style="white-space: pre;" direction="ltr">SERVICE</text></g></svg>
