<svg width="690" height="359" viewBox="0 0 690 359" fill="none" xmlns="http://www.w3.org/2000/svg">
<rect x="246.5" y="28.5" width="165" height="330" stroke="black" stroke-dasharray="8 8"/>
<path d="M299.844 81C299.844 84.2509 299.165 87.1693 298.092 89.2566C297.005 91.3699 295.592 92.5 294.172 92.5C292.752 92.5 291.339 91.3699 290.252 89.2566C289.179 87.1693 288.5 84.2509 288.5 81C288.5 77.7491 289.179 74.8307 290.252 72.7434C291.339 70.6301 292.752 69.5 294.172 69.5C295.592 69.5 297.005 70.6301 298.092 72.7434C299.165 74.8307 299.844 77.7491 299.844 81Z" fill="#FF495F" stroke="#FFAFAF"/>
<mask id="path-3-inside-1_8_50" fill="white">
<path d="M294.172 69H363.828V93H294.172V69Z"/>
</mask>
<path d="M294.172 69H363.828V93H294.172V69Z" fill="#FF495F"/>
<path d="M294.172 70H363.828V68H294.172V70ZM363.828 92H294.172V94H363.828V92Z" fill="#FFAFAF" mask="url(#path-3-inside-1_8_50)"/>
<path d="M369.5 81C369.5 84.2509 368.821 87.1693 367.748 89.2566C366.661 91.3699 365.248 92.5 363.828 92.5C362.408 92.5 360.995 91.3699 359.908 89.2566C358.835 87.1693 358.156 84.2509 358.156 81C358.156 77.7491 358.835 74.8307 359.908 72.7434C360.995 70.6301 362.408 69.5 363.828 69.5C365.248 69.5 366.661 70.6301 367.748 72.7434C368.821 74.8307 369.5 77.7491 369.5 81Z" fill="white" stroke="#FFAFAF"/>
<path d="M285.128 102.914V105.188H288.068V106.382H285.128V108.794H288.698V110H283.484V101.702H288.656L288.488 102.914H285.128ZM293.056 108.59L294.856 101.702H296.536L294.004 110H292.048L289.528 101.702H291.274L293.056 108.59ZM299.519 102.914V105.188H302.459V106.382H299.519V108.794H303.089V110H297.875V101.702H303.047L302.879 102.914H299.519ZM308.196 110L305.754 103.106C305.774 103.258 305.798 103.454 305.826 103.694C305.854 103.934 305.88 104.206 305.904 104.51C305.932 104.814 305.954 105.136 305.97 105.476C305.99 105.816 306 106.16 306 106.508V110H304.572V101.702H306.66L309.078 108.584C309.046 108.38 309.01 108.11 308.97 107.774C308.934 107.438 308.902 107.052 308.874 106.616C308.846 106.18 308.832 105.716 308.832 105.224V101.702H310.26V110H308.196ZM315.416 102.992V110H313.778V102.992H311.354V101.702H317.912L317.744 102.992H315.416ZM329.698 101.522C330.274 101.522 330.762 101.598 331.162 101.75C331.562 101.898 331.932 102.112 332.272 102.392L331.438 103.382C331.202 103.182 330.942 103.03 330.658 102.926C330.378 102.822 330.078 102.77 329.758 102.77C329.374 102.77 329.02 102.872 328.696 103.076C328.376 103.28 328.118 103.608 327.922 104.06C327.73 104.508 327.634 105.1 327.634 105.836C327.634 106.56 327.726 107.146 327.91 107.594C328.098 108.042 328.352 108.37 328.672 108.578C328.996 108.782 329.362 108.884 329.77 108.884C330.202 108.884 330.56 108.808 330.844 108.656C331.128 108.504 331.384 108.338 331.612 108.158L332.386 109.136C332.094 109.424 331.728 109.67 331.288 109.874C330.852 110.078 330.322 110.18 329.698 110.18C328.974 110.18 328.328 110.014 327.76 109.682C327.192 109.35 326.746 108.862 326.422 108.218C326.098 107.574 325.936 106.78 325.936 105.836C325.936 104.908 326.102 104.124 326.434 103.484C326.77 102.84 327.222 102.352 327.79 102.02C328.362 101.688 328.998 101.522 329.698 101.522ZM337.398 110V106.352H334.998V110H333.354V101.702H334.998V105.002H337.398V101.702H339.042V110H337.398ZM344.737 108.098H342.007L341.491 110H339.793L342.391 101.702H344.407L346.999 110H345.253L344.737 108.098ZM342.301 106.868H344.431L343.369 102.932L342.301 106.868ZM351.368 110L348.926 103.106C348.946 103.258 348.97 103.454 348.998 103.694C349.026 103.934 349.052 104.206 349.076 104.51C349.104 104.814 349.126 105.136 349.142 105.476C349.162 105.816 349.172 106.16 349.172 106.508V110H347.744V101.702H349.832L352.25 108.584C352.218 108.38 352.182 108.11 352.142 107.774C352.106 107.438 352.074 107.052 352.046 106.616C352.018 106.18 352.004 105.716 352.004 105.224V101.702H353.432V110H351.368ZM358.564 110L356.122 103.106C356.142 103.258 356.166 103.454 356.194 103.694C356.222 103.934 356.248 104.206 356.272 104.51C356.3 104.814 356.322 105.136 356.338 105.476C356.358 105.816 356.368 106.16 356.368 106.508V110H354.94V101.702H357.028L359.446 108.584C359.414 108.38 359.378 108.11 359.338 107.774C359.302 107.438 359.27 107.052 359.242 106.616C359.214 106.18 359.2 105.716 359.2 105.224V101.702H360.628V110H358.564ZM364.277 102.914V105.188H367.217V106.382H364.277V108.794H367.847V110H362.633V101.702H367.805L367.637 102.914H364.277ZM369.87 110V101.702H371.514V108.668H375.174L375 110H369.87Z" fill="black"/>
<path d="M299.844 183C299.844 186.251 299.165 189.169 298.092 191.257C297.005 193.37 295.592 194.5 294.172 194.5C292.752 194.5 291.339 193.37 290.252 191.257C289.179 189.169 288.5 186.251 288.5 183C288.5 179.749 289.179 176.831 290.252 174.743C291.339 172.63 292.752 171.5 294.172 171.5C295.592 171.5 297.005 172.63 298.092 174.743C299.165 176.831 299.844 179.749 299.844 183Z" fill="#FF495F" stroke="#FFAFAF"/>
<mask id="path-8-inside-2_8_50" fill="white">
<path d="M294.172 171H363.828V195H294.172V171Z"/>
</mask>
<path d="M294.172 171H363.828V195H294.172V171Z" fill="#FF495F"/>
<path d="M294.172 172H363.828V170H294.172V172ZM363.828 194H294.172V196H363.828V194Z" fill="#FFAFAF" mask="url(#path-8-inside-2_8_50)"/>
<path d="M369.5 183C369.5 186.251 368.821 189.169 367.748 191.257C366.661 193.37 365.248 194.5 363.828 194.5C362.408 194.5 360.995 193.37 359.908 191.257C358.835 189.169 358.156 186.251 358.156 183C358.156 179.749 358.835 176.831 359.908 174.743C360.995 172.63 362.408 171.5 363.828 171.5C365.248 171.5 366.661 172.63 367.748 174.743C368.821 176.831 369.5 179.749 369.5 183Z" fill="white" stroke="#FFAFAF"/>
<path d="M285.128 204.914V207.188H288.068V208.382H285.128V210.794H288.698V212H283.484V203.702H288.656L288.488 204.914H285.128ZM293.056 210.59L294.856 203.702H296.536L294.004 212H292.048L289.528 203.702H291.274L293.056 210.59ZM299.519 204.914V207.188H302.459V208.382H299.519V210.794H303.089V212H297.875V203.702H303.047L302.879 204.914H299.519ZM308.196 212L305.754 205.106C305.774 205.258 305.798 205.454 305.826 205.694C305.854 205.934 305.88 206.206 305.904 206.51C305.932 206.814 305.954 207.136 305.97 207.476C305.99 207.816 306 208.16 306 208.508V212H304.572V203.702H306.66L309.078 210.584C309.046 210.38 309.01 210.11 308.97 209.774C308.934 209.438 308.902 209.052 308.874 208.616C308.846 208.18 308.832 207.716 308.832 207.224V203.702H310.26V212H308.196ZM315.416 204.992V212H313.778V204.992H311.354V203.702H317.912L317.744 204.992H315.416ZM329.698 203.522C330.274 203.522 330.762 203.598 331.162 203.75C331.562 203.898 331.932 204.112 332.272 204.392L331.438 205.382C331.202 205.182 330.942 205.03 330.658 204.926C330.378 204.822 330.078 204.77 329.758 204.77C329.374 204.77 329.02 204.872 328.696 205.076C328.376 205.28 328.118 205.608 327.922 206.06C327.73 206.508 327.634 207.1 327.634 207.836C327.634 208.56 327.726 209.146 327.91 209.594C328.098 210.042 328.352 210.37 328.672 210.578C328.996 210.782 329.362 210.884 329.77 210.884C330.202 210.884 330.56 210.808 330.844 210.656C331.128 210.504 331.384 210.338 331.612 210.158L332.386 211.136C332.094 211.424 331.728 211.67 331.288 211.874C330.852 212.078 330.322 212.18 329.698 212.18C328.974 212.18 328.328 212.014 327.76 211.682C327.192 211.35 326.746 210.862 326.422 210.218C326.098 209.574 325.936 208.78 325.936 207.836C325.936 206.908 326.102 206.124 326.434 205.484C326.77 204.84 327.222 204.352 327.79 204.02C328.362 203.688 328.998 203.522 329.698 203.522ZM337.398 212V208.352H334.998V212H333.354V203.702H334.998V207.002H337.398V203.702H339.042V212H337.398ZM344.737 210.098H342.007L341.491 212H339.793L342.391 203.702H344.407L346.999 212H345.253L344.737 210.098ZM342.301 208.868H344.431L343.369 204.932L342.301 208.868ZM351.368 212L348.926 205.106C348.946 205.258 348.97 205.454 348.998 205.694C349.026 205.934 349.052 206.206 349.076 206.51C349.104 206.814 349.126 207.136 349.142 207.476C349.162 207.816 349.172 208.16 349.172 208.508V212H347.744V203.702H349.832L352.25 210.584C352.218 210.38 352.182 210.11 352.142 209.774C352.106 209.438 352.074 209.052 352.046 208.616C352.018 208.18 352.004 207.716 352.004 207.224V203.702H353.432V212H351.368ZM358.564 212L356.122 205.106C356.142 205.258 356.166 205.454 356.194 205.694C356.222 205.934 356.248 206.206 356.272 206.51C356.3 206.814 356.322 207.136 356.338 207.476C356.358 207.816 356.368 208.16 356.368 208.508V212H354.94V203.702H357.028L359.446 210.584C359.414 210.38 359.378 210.11 359.338 209.774C359.302 209.438 359.27 209.052 359.242 208.616C359.214 208.18 359.2 207.716 359.2 207.224V203.702H360.628V212H358.564ZM364.277 204.914V207.188H367.217V208.382H364.277V210.794H367.847V212H362.633V203.702H367.805L367.637 204.914H364.277ZM369.87 212V203.702H371.514V210.668H375.174L375 212H369.87Z" fill="black"/>
<path d="M299.844 285C299.844 288.251 299.165 291.169 298.092 293.257C297.005 295.37 295.592 296.5 294.172 296.5C292.752 296.5 291.339 295.37 290.252 293.257C289.179 291.169 288.5 288.251 288.5 285C288.5 281.749 289.179 278.831 290.252 276.743C291.339 274.63 292.752 273.5 294.172 273.5C295.592 273.5 297.005 274.63 298.092 276.743C299.165 278.831 299.844 281.749 299.844 285Z" fill="#FF495F" stroke="#FFAFAF"/>
<mask id="path-13-inside-3_8_50" fill="white">
<path d="M294.172 273H363.828V297H294.172V273Z"/>
</mask>
<path d="M294.172 273H363.828V297H294.172V273Z" fill="#FF495F"/>
<path d="M294.172 274H363.828V272H294.172V274ZM363.828 296H294.172V298H363.828V296Z" fill="#FFAFAF" mask="url(#path-13-inside-3_8_50)"/>
<path d="M369.5 285C369.5 288.251 368.821 291.169 367.748 293.257C366.661 295.37 365.248 296.5 363.828 296.5C362.408 296.5 360.995 295.37 359.908 293.257C358.835 291.169 358.156 288.251 358.156 285C358.156 281.749 358.835 278.831 359.908 276.743C360.995 274.63 362.408 273.5 363.828 273.5C365.248 273.5 366.661 274.63 367.748 276.743C368.821 278.831 369.5 281.749 369.5 285Z" fill="white" stroke="#FFAFAF"/>
<path d="M285.128 306.914V309.188H288.068V310.382H285.128V312.794H288.698V314H283.484V305.702H288.656L288.488 306.914H285.128ZM293.056 312.59L294.856 305.702H296.536L294.004 314H292.048L289.528 305.702H291.274L293.056 312.59ZM299.519 306.914V309.188H302.459V310.382H299.519V312.794H303.089V314H297.875V305.702H303.047L302.879 306.914H299.519ZM308.196 314L305.754 307.106C305.774 307.258 305.798 307.454 305.826 307.694C305.854 307.934 305.88 308.206 305.904 308.51C305.932 308.814 305.954 309.136 305.97 309.476C305.99 309.816 306 310.16 306 310.508V314H304.572V305.702H306.66L309.078 312.584C309.046 312.38 309.01 312.11 308.97 311.774C308.934 311.438 308.902 311.052 308.874 310.616C308.846 310.18 308.832 309.716 308.832 309.224V305.702H310.26V314H308.196ZM315.416 306.992V314H313.778V306.992H311.354V305.702H317.912L317.744 306.992H315.416ZM329.698 305.522C330.274 305.522 330.762 305.598 331.162 305.75C331.562 305.898 331.932 306.112 332.272 306.392L331.438 307.382C331.202 307.182 330.942 307.03 330.658 306.926C330.378 306.822 330.078 306.77 329.758 306.77C329.374 306.77 329.02 306.872 328.696 307.076C328.376 307.28 328.118 307.608 327.922 308.06C327.73 308.508 327.634 309.1 327.634 309.836C327.634 310.56 327.726 311.146 327.91 311.594C328.098 312.042 328.352 312.37 328.672 312.578C328.996 312.782 329.362 312.884 329.77 312.884C330.202 312.884 330.56 312.808 330.844 312.656C331.128 312.504 331.384 312.338 331.612 312.158L332.386 313.136C332.094 313.424 331.728 313.67 331.288 313.874C330.852 314.078 330.322 314.18 329.698 314.18C328.974 314.18 328.328 314.014 327.76 313.682C327.192 313.35 326.746 312.862 326.422 312.218C326.098 311.574 325.936 310.78 325.936 309.836C325.936 308.908 326.102 308.124 326.434 307.484C326.77 306.84 327.222 306.352 327.79 306.02C328.362 305.688 328.998 305.522 329.698 305.522ZM337.398 314V310.352H334.998V314H333.354V305.702H334.998V309.002H337.398V305.702H339.042V314H337.398ZM344.737 312.098H342.007L341.491 314H339.793L342.391 305.702H344.407L346.999 314H345.253L344.737 312.098ZM342.301 310.868H344.431L343.369 306.932L342.301 310.868ZM351.368 314L348.926 307.106C348.946 307.258 348.97 307.454 348.998 307.694C349.026 307.934 349.052 308.206 349.076 308.51C349.104 308.814 349.126 309.136 349.142 309.476C349.162 309.816 349.172 310.16 349.172 310.508V314H347.744V305.702H349.832L352.25 312.584C352.218 312.38 352.182 312.11 352.142 311.774C352.106 311.438 352.074 311.052 352.046 310.616C352.018 310.18 352.004 309.716 352.004 309.224V305.702H353.432V314H351.368ZM358.564 314L356.122 307.106C356.142 307.258 356.166 307.454 356.194 307.694C356.222 307.934 356.248 308.206 356.272 308.51C356.3 308.814 356.322 309.136 356.338 309.476C356.358 309.816 356.368 310.16 356.368 310.508V314H354.94V305.702H357.028L359.446 312.584C359.414 312.38 359.378 312.11 359.338 311.774C359.302 311.438 359.27 311.052 359.242 310.616C359.214 310.18 359.2 309.716 359.2 309.224V305.702H360.628V314H358.564ZM364.277 306.914V309.188H367.217V310.382H364.277V312.794H367.847V314H362.633V305.702H367.805L367.637 306.914H364.277ZM369.87 314V305.702H371.514V312.668H375.174L375 314H369.87Z" fill="black"/>
<path d="M276.393 80.9823L261.393 72.322L261.393 89.6425L276.393 80.9823ZM147 82.482L262.893 82.4823L262.893 79.4823L147 79.482L147 82.482Z" fill="#464646"/>
<path d="M163 183.018L178.001 191.676L177.999 174.355L163 183.018ZM176.5 184.516L275 184.5L274.999 181.5L176.5 181.516L176.5 184.516Z" fill="#464646"/>
<path d="M521 80.9963L505.999 72.3385L506.001 89.659L521 80.9963ZM386 82.518L507.5 82.4985L507.5 79.4985L386 79.518L386 82.518Z" fill="#464646"/>
<path d="M383 185L398 193.66V176.34L383 185ZM614 185V186.5H615.5V185H614ZM396.5 186.5H614V183.5H396.5V186.5ZM615.5 185V98H612.5V185H615.5Z" fill="#545454"/>
<path d="M276 285L261 293.66V276.34L276 285ZM80 285V286.5H78.5V285H80ZM262.5 286.5H80V283.5H262.5V286.5ZM78.5 285V200H81.5V285H78.5Z" fill="#545454"/>
<path d="M465.5 285V286.5H467V285H465.5ZM465.5 255V253.5H464V255H465.5ZM528 255L513 246.34V263.66L528 255ZM380 286.5H465.5V283.5H380V286.5ZM465.5 256.5H514.5V253.5H465.5V256.5ZM467 285V270H464V285H467ZM467 270V255H464V270H467Z" fill="#545454"/>
<path d="M465.5 284V282.5H467V284H465.5ZM465.5 314V315.5H464V314H465.5ZM528 314L513 322.66V305.34L528 314ZM380 282.5H465.5V285.5H380V282.5ZM465.5 312.5H514.5V315.5H465.5V312.5ZM467 284V299H464V284H467ZM467 299V314H464V299H467Z" fill="#545454"/>
<rect x="494" y="172" width="58" height="26" rx="4" fill="#F3F3F3"/>
<rect x="494.5" y="172.5" width="57" height="25" rx="3.5" stroke="#161616" stroke-opacity="0.24"/>
<path d="M517.764 182.095V183.99H520.214V184.985H517.764V186.995H520.739V188H516.394V181.085H520.704L520.564 182.095H517.764ZM524.37 186.825L525.87 181.085H527.27L525.16 188H523.53L521.43 181.085H522.885L524.37 186.825ZM529.756 182.095V183.99H532.206V184.985H529.756V186.995H532.731V188H528.386V181.085H532.696L532.556 182.095H529.756ZM536.987 188L534.952 182.255C534.969 182.382 534.989 182.545 535.012 182.745C535.035 182.945 535.057 183.172 535.077 183.425C535.1 183.678 535.119 183.947 535.132 184.23C535.149 184.513 535.157 184.8 535.157 185.09V188H533.967V181.085H535.707L537.722 186.82C537.695 186.65 537.665 186.425 537.632 186.145C537.602 185.865 537.575 185.543 537.552 185.18C537.529 184.817 537.517 184.43 537.517 184.02V181.085H538.707V188H536.987ZM543.003 182.16V188H541.638V182.16H539.618V181.085H545.083L544.943 182.16H543.003Z" fill="black"/>
<path d="M498.835 178.661V180.503H511.727V178.661H498.835ZM502.058 182.345V184.187H511.727V182.345H502.058ZM498.835 186.028V187.87H511.727V186.028H498.835ZM502.058 189.712V191.554H511.727V189.712H502.058Z" fill="black"/>
<rect x="143" y="271" width="58" height="26" rx="4" fill="#F3F3F3"/>
<rect x="143.5" y="271.5" width="57" height="25" rx="3.5" stroke="#161616" stroke-opacity="0.24"/>
<path d="M166.764 281.095V282.99H169.214V283.985H166.764V285.995H169.739V287H165.394V280.085H169.704L169.564 281.095H166.764ZM173.37 285.825L174.87 280.085H176.27L174.16 287H172.53L170.43 280.085H171.885L173.37 285.825ZM178.756 281.095V282.99H181.206V283.985H178.756V285.995H181.731V287H177.386V280.085H181.696L181.556 281.095H178.756ZM185.987 287L183.952 281.255C183.969 281.382 183.989 281.545 184.012 281.745C184.035 281.945 184.057 282.172 184.077 282.425C184.1 282.678 184.119 282.947 184.132 283.23C184.149 283.513 184.157 283.8 184.157 284.09V287H182.967V280.085H184.707L186.722 285.82C186.695 285.65 186.665 285.425 186.632 285.145C186.602 284.865 186.575 284.543 186.552 284.18C186.529 283.817 186.517 283.43 186.517 283.02V280.085H187.707V287H185.987ZM192.003 281.16V287H190.638V281.16H188.618V280.085H194.083L193.943 281.16H192.003Z" fill="black"/>
<path d="M147.835 277.661V279.503H160.727V277.661H147.835ZM151.058 281.345V283.187H160.727V281.345H151.058ZM147.835 285.028V286.87H160.727V285.028H147.835ZM151.058 288.712V290.554H160.727V288.712H151.058Z" fill="black"/>
<rect x="533" y="63" width="154" height="36" rx="4" fill="#F3F3F3"/>
<rect x="533.5" y="63.5" width="153" height="35" rx="3.5" stroke="#7343DA" stroke-opacity="0.24"/>
<path d="M573.933 77.914V80.188H576.873V81.382H573.933V83.794H577.503V85H572.289V76.702H577.461L577.293 77.914H573.933ZM581.86 83.59L583.66 76.702H585.34L582.808 85H580.852L578.332 76.702H580.078L581.86 83.59ZM588.324 77.914V80.188H591.264V81.382H588.324V83.794H591.894V85H586.68V76.702H591.852L591.684 77.914H588.324ZM597.001 85L594.559 78.106C594.579 78.258 594.603 78.454 594.631 78.694C594.659 78.934 594.685 79.206 594.709 79.51C594.737 79.814 594.759 80.136 594.775 80.476C594.795 80.816 594.805 81.16 594.805 81.508V85H593.377V76.702H595.465L597.883 83.584C597.851 83.38 597.815 83.11 597.775 82.774C597.739 82.438 597.707 82.052 597.679 81.616C597.651 81.18 597.637 80.716 597.637 80.224V76.702H599.065V85H597.001ZM604.22 77.992V85H602.582V77.992H600.158V76.702H606.716L606.548 77.992H604.22ZM619.337 79.36C619.337 79.016 619.271 78.738 619.139 78.526C619.011 78.31 618.823 78.152 618.575 78.052C618.327 77.952 618.029 77.902 617.681 77.902H616.823V80.908H617.729C618.057 80.908 618.339 80.858 618.575 80.758C618.815 80.654 619.001 80.488 619.133 80.26C619.269 80.032 619.337 79.732 619.337 79.36ZM621.041 79.348C621.041 79.992 620.903 80.52 620.627 80.932C620.355 81.34 619.973 81.642 619.481 81.838C618.989 82.03 618.421 82.126 617.777 82.126H616.823V85H615.179V76.702H617.621C618.697 76.702 619.535 76.92 620.135 77.356C620.739 77.792 621.041 78.456 621.041 79.348ZM628.038 79.156C628.038 79.556 627.958 79.906 627.798 80.206C627.642 80.506 627.428 80.758 627.156 80.962C626.888 81.166 626.586 81.324 626.25 81.436L628.524 85H626.64L624.678 81.694H623.922V85H622.284V76.702H624.726C625.818 76.702 626.642 76.904 627.198 77.308C627.758 77.712 628.038 78.328 628.038 79.156ZM626.334 79.156C626.334 78.708 626.204 78.386 625.944 78.19C625.684 77.99 625.292 77.89 624.768 77.89H623.922V80.53H624.822C625.306 80.53 625.678 80.422 625.938 80.206C626.202 79.99 626.334 79.64 626.334 79.156ZM635.426 80.848C635.426 81.712 635.304 82.47 635.06 83.122C634.82 83.77 634.46 84.276 633.98 84.64C633.5 85 632.906 85.18 632.198 85.18C631.494 85.18 630.9 85.004 630.416 84.652C629.936 84.296 629.574 83.796 629.33 83.152C629.09 82.504 628.97 81.738 628.97 80.854C628.97 79.99 629.09 79.234 629.33 78.586C629.574 77.934 629.936 77.428 630.416 77.068C630.9 76.704 631.494 76.522 632.198 76.522C632.906 76.522 633.5 76.698 633.98 77.05C634.46 77.402 634.82 77.902 635.06 78.55C635.304 79.198 635.426 79.964 635.426 80.848ZM633.734 80.848C633.734 79.8 633.614 79.024 633.374 78.52C633.138 78.012 632.746 77.758 632.198 77.758C631.65 77.758 631.256 78.012 631.016 78.52C630.78 79.028 630.662 79.806 630.662 80.854C630.662 81.906 630.784 82.684 631.028 83.188C631.272 83.688 631.662 83.938 632.198 83.938C632.754 83.938 633.148 83.684 633.38 83.176C633.616 82.668 633.734 81.892 633.734 80.848ZM640.089 76.522C640.665 76.522 641.153 76.598 641.553 76.75C641.953 76.898 642.323 77.112 642.663 77.392L641.829 78.382C641.593 78.182 641.333 78.03 641.049 77.926C640.769 77.822 640.469 77.77 640.149 77.77C639.765 77.77 639.411 77.872 639.087 78.076C638.767 78.28 638.509 78.608 638.313 79.06C638.121 79.508 638.025 80.1 638.025 80.836C638.025 81.56 638.117 82.146 638.301 82.594C638.489 83.042 638.743 83.37 639.063 83.578C639.387 83.782 639.753 83.884 640.161 83.884C640.593 83.884 640.951 83.808 641.235 83.656C641.519 83.504 641.775 83.338 642.003 83.158L642.777 84.136C642.485 84.424 642.119 84.67 641.679 84.874C641.243 85.078 640.713 85.18 640.089 85.18C639.365 85.18 638.719 85.014 638.151 84.682C637.583 84.35 637.137 83.862 636.813 83.218C636.489 82.574 636.327 81.78 636.327 80.836C636.327 79.908 636.493 79.124 636.825 78.484C637.161 77.84 637.613 77.352 638.181 77.02C638.753 76.688 639.389 76.522 640.089 76.522ZM645.886 77.914V80.188H648.826V81.382H645.886V83.794H649.456V85H644.242V76.702H649.414L649.246 77.914H645.886ZM656.868 82.618C656.868 83.122 656.738 83.566 656.478 83.95C656.222 84.334 655.852 84.636 655.368 84.856C654.884 85.072 654.298 85.18 653.61 85.18C652.89 85.18 652.272 85.074 651.756 84.862C651.24 84.646 650.808 84.37 650.46 84.034L651.324 83.068C651.624 83.336 651.96 83.546 652.332 83.698C652.704 83.85 653.122 83.926 653.586 83.926C653.882 83.926 654.148 83.88 654.384 83.788C654.624 83.696 654.812 83.562 654.948 83.386C655.088 83.206 655.158 82.986 655.158 82.726C655.158 82.498 655.11 82.306 655.014 82.15C654.918 81.994 654.752 81.854 654.516 81.73C654.284 81.606 653.96 81.482 653.544 81.358C652.932 81.17 652.428 80.964 652.032 80.74C651.636 80.512 651.342 80.244 651.15 79.936C650.958 79.624 650.862 79.256 650.862 78.832C650.862 78.356 650.994 77.946 651.258 77.602C651.522 77.254 651.878 76.988 652.326 76.804C652.778 76.616 653.282 76.522 653.838 76.522C654.454 76.522 654.996 76.612 655.464 76.792C655.932 76.968 656.344 77.22 656.7 77.548L655.878 78.478C655.594 78.234 655.286 78.054 654.954 77.938C654.626 77.822 654.292 77.764 653.952 77.764C653.684 77.764 653.444 77.8 653.232 77.872C653.024 77.944 652.86 78.05 652.74 78.19C652.62 78.33 652.56 78.508 652.56 78.724C652.56 78.92 652.614 79.088 652.722 79.228C652.834 79.364 653.024 79.492 653.292 79.612C653.56 79.728 653.928 79.86 654.396 80.008C654.888 80.156 655.318 80.334 655.686 80.542C656.058 80.75 656.348 81.02 656.556 81.352C656.764 81.68 656.868 82.102 656.868 82.618ZM664.063 82.618C664.063 83.122 663.933 83.566 663.673 83.95C663.417 84.334 663.047 84.636 662.563 84.856C662.079 85.072 661.493 85.18 660.805 85.18C660.085 85.18 659.467 85.074 658.951 84.862C658.435 84.646 658.003 84.37 657.655 84.034L658.519 83.068C658.819 83.336 659.155 83.546 659.527 83.698C659.899 83.85 660.317 83.926 660.781 83.926C661.077 83.926 661.343 83.88 661.579 83.788C661.819 83.696 662.007 83.562 662.143 83.386C662.283 83.206 662.353 82.986 662.353 82.726C662.353 82.498 662.305 82.306 662.209 82.15C662.113 81.994 661.947 81.854 661.711 81.73C661.479 81.606 661.155 81.482 660.739 81.358C660.127 81.17 659.623 80.964 659.227 80.74C658.831 80.512 658.537 80.244 658.345 79.936C658.153 79.624 658.057 79.256 658.057 78.832C658.057 78.356 658.189 77.946 658.453 77.602C658.717 77.254 659.073 76.988 659.521 76.804C659.973 76.616 660.477 76.522 661.033 76.522C661.649 76.522 662.191 76.612 662.659 76.792C663.127 76.968 663.539 77.22 663.895 77.548L663.073 78.478C662.789 78.234 662.481 78.054 662.149 77.938C661.821 77.822 661.487 77.764 661.147 77.764C660.879 77.764 660.639 77.8 660.427 77.872C660.219 77.944 660.055 78.05 659.935 78.19C659.815 78.33 659.755 78.508 659.755 78.724C659.755 78.92 659.809 79.088 659.917 79.228C660.029 79.364 660.219 79.492 660.487 79.612C660.755 79.728 661.123 79.86 661.591 80.008C662.083 80.156 662.513 80.334 662.881 80.542C663.253 80.75 663.543 81.02 663.751 81.352C663.959 81.68 664.063 82.102 664.063 82.618ZM671.402 80.848C671.402 81.712 671.28 82.47 671.036 83.122C670.796 83.77 670.436 84.276 669.956 84.64C669.476 85 668.882 85.18 668.174 85.18C667.47 85.18 666.876 85.004 666.392 84.652C665.912 84.296 665.55 83.796 665.306 83.152C665.066 82.504 664.946 81.738 664.946 80.854C664.946 79.99 665.066 79.234 665.306 78.586C665.55 77.934 665.912 77.428 666.392 77.068C666.876 76.704 667.47 76.522 668.174 76.522C668.882 76.522 669.476 76.698 669.956 77.05C670.436 77.402 670.796 77.902 671.036 78.55C671.28 79.198 671.402 79.964 671.402 80.848ZM669.71 80.848C669.71 79.8 669.59 79.024 669.35 78.52C669.114 78.012 668.722 77.758 668.174 77.758C667.626 77.758 667.232 78.012 666.992 78.52C666.756 79.028 666.638 79.806 666.638 80.854C666.638 81.906 666.76 82.684 667.004 83.188C667.248 83.688 667.638 83.938 668.174 83.938C668.73 83.938 669.124 83.684 669.356 83.176C669.592 82.668 669.71 81.892 669.71 80.848ZM678.406 79.156C678.406 79.556 678.326 79.906 678.166 80.206C678.01 80.506 677.796 80.758 677.524 80.962C677.256 81.166 676.954 81.324 676.618 81.436L678.892 85H677.008L675.046 81.694H674.29V85H672.652V76.702H675.094C676.186 76.702 677.01 76.904 677.566 77.308C678.126 77.712 678.406 78.328 678.406 79.156ZM676.702 79.156C676.702 78.708 676.572 78.386 676.312 78.19C676.052 77.99 675.66 77.89 675.136 77.89H674.29V80.53H675.19C675.674 80.53 676.046 80.422 676.306 80.206C676.57 79.99 676.702 79.64 676.702 79.156Z" fill="black"/>
<path d="M543.17 76.44L552 81.55L560.77 76.47M552 90.61V81.54" stroke="#3F3F3F" stroke-width="1.5" stroke-linecap="round" stroke-linejoin="round"/>
<path d="M549.93 71.48L544.59 74.44C543.38 75.11 542.39 76.79 542.39 78.17V83.82C542.39 85.2 543.38 86.88 544.59 87.55L549.93 90.52C551.07 91.15 552.94 91.15 554.08 90.52L559.42 87.55C560.63 86.88 561.62 85.2 561.62 83.82V78.17C561.62 76.79 560.63 75.11 559.42 74.44L554.08 71.47C552.93 70.84 551.07 70.84 549.93 71.48Z" stroke="#3F3F3F" stroke-width="1.5" stroke-linecap="round" stroke-linejoin="round"/>
<rect y="165" width="154" height="36" rx="4" fill="#F3F3F3"/>
<rect x="0.5" y="165.5" width="153" height="35" rx="3.5" stroke="#7343DA" stroke-opacity="0.24"/>
<path d="M40.9332 179.914V182.188H43.8732V183.382H40.9332V185.794H44.5032V187H39.2892V178.702H44.4612L44.2932 179.914H40.9332ZM48.8605 185.59L50.6605 178.702H52.3405L49.8085 187H47.8525L45.3325 178.702H47.0785L48.8605 185.59ZM55.3238 179.914V182.188H58.2638V183.382H55.3238V185.794H58.8938V187H53.6798V178.702H58.8518L58.6838 179.914H55.3238ZM64.0011 187L61.5591 180.106C61.5791 180.258 61.6031 180.454 61.6311 180.694C61.6591 180.934 61.6851 181.206 61.7091 181.51C61.7371 181.814 61.7591 182.136 61.7751 182.476C61.7951 182.816 61.8051 183.16 61.8051 183.508V187H60.3771V178.702H62.4651L64.8831 185.584C64.8511 185.38 64.8151 185.11 64.7751 184.774C64.7391 184.438 64.7071 184.052 64.6791 183.616C64.6511 183.18 64.6371 182.716 64.6371 182.224V178.702H66.0651V187H64.0011ZM71.2204 179.992V187H69.5824V179.992H67.1584V178.702H73.7164L73.5484 179.992H71.2204ZM86.337 181.36C86.337 181.016 86.271 180.738 86.139 180.526C86.011 180.31 85.823 180.152 85.575 180.052C85.327 179.952 85.029 179.902 84.681 179.902H83.823V182.908H84.729C85.057 182.908 85.339 182.858 85.575 182.758C85.815 182.654 86.001 182.488 86.133 182.26C86.269 182.032 86.337 181.732 86.337 181.36ZM88.041 181.348C88.041 181.992 87.903 182.52 87.627 182.932C87.355 183.34 86.973 183.642 86.481 183.838C85.989 184.03 85.421 184.126 84.777 184.126H83.823V187H82.179V178.702H84.621C85.697 178.702 86.535 178.92 87.135 179.356C87.739 179.792 88.041 180.456 88.041 181.348ZM95.0383 181.156C95.0383 181.556 94.9583 181.906 94.7983 182.206C94.6423 182.506 94.4283 182.758 94.1563 182.962C93.8883 183.166 93.5863 183.324 93.2503 183.436L95.5243 187H93.6403L91.6783 183.694H90.9223V187H89.2843V178.702H91.7263C92.8183 178.702 93.6423 178.904 94.1983 179.308C94.7583 179.712 95.0383 180.328 95.0383 181.156ZM93.3343 181.156C93.3343 180.708 93.2043 180.386 92.9443 180.19C92.6843 179.99 92.2923 179.89 91.7683 179.89H90.9223V182.53H91.8223C92.3063 182.53 92.6783 182.422 92.9383 182.206C93.2023 181.99 93.3343 181.64 93.3343 181.156ZM102.426 182.848C102.426 183.712 102.304 184.47 102.06 185.122C101.82 185.77 101.46 186.276 100.98 186.64C100.5 187 99.9057 187.18 99.1977 187.18C98.4937 187.18 97.8997 187.004 97.4157 186.652C96.9357 186.296 96.5737 185.796 96.3297 185.152C96.0897 184.504 95.9697 183.738 95.9697 182.854C95.9697 181.99 96.0897 181.234 96.3297 180.586C96.5737 179.934 96.9357 179.428 97.4157 179.068C97.8997 178.704 98.4937 178.522 99.1977 178.522C99.9057 178.522 100.5 178.698 100.98 179.05C101.46 179.402 101.82 179.902 102.06 180.55C102.304 181.198 102.426 181.964 102.426 182.848ZM100.734 182.848C100.734 181.8 100.614 181.024 100.374 180.52C100.138 180.012 99.7457 179.758 99.1977 179.758C98.6497 179.758 98.2557 180.012 98.0157 180.52C97.7797 181.028 97.6617 181.806 97.6617 182.854C97.6617 183.906 97.7837 184.684 98.0277 185.188C98.2717 185.688 98.6617 185.938 99.1977 185.938C99.7537 185.938 100.148 185.684 100.38 185.176C100.616 184.668 100.734 183.892 100.734 182.848ZM107.089 178.522C107.665 178.522 108.153 178.598 108.553 178.75C108.953 178.898 109.323 179.112 109.663 179.392L108.829 180.382C108.593 180.182 108.333 180.03 108.049 179.926C107.769 179.822 107.469 179.77 107.149 179.77C106.765 179.77 106.411 179.872 106.087 180.076C105.767 180.28 105.509 180.608 105.313 181.06C105.121 181.508 105.025 182.1 105.025 182.836C105.025 183.56 105.117 184.146 105.301 184.594C105.489 185.042 105.743 185.37 106.063 185.578C106.387 185.782 106.753 185.884 107.161 185.884C107.593 185.884 107.951 185.808 108.235 185.656C108.519 185.504 108.775 185.338 109.003 185.158L109.777 186.136C109.485 186.424 109.119 186.67 108.679 186.874C108.243 187.078 107.713 187.18 107.089 187.18C106.365 187.18 105.719 187.014 105.151 186.682C104.583 186.35 104.137 185.862 103.813 185.218C103.489 184.574 103.327 183.78 103.327 182.836C103.327 181.908 103.493 181.124 103.825 180.484C104.161 179.84 104.613 179.352 105.181 179.02C105.753 178.688 106.389 178.522 107.089 178.522ZM112.886 179.914V182.188H115.826V183.382H112.886V185.794H116.456V187H111.242V178.702H116.414L116.246 179.914H112.886ZM123.868 184.618C123.868 185.122 123.738 185.566 123.478 185.95C123.222 186.334 122.852 186.636 122.368 186.856C121.884 187.072 121.298 187.18 120.61 187.18C119.89 187.18 119.272 187.074 118.756 186.862C118.24 186.646 117.808 186.37 117.46 186.034L118.324 185.068C118.624 185.336 118.96 185.546 119.332 185.698C119.704 185.85 120.122 185.926 120.586 185.926C120.882 185.926 121.148 185.88 121.384 185.788C121.624 185.696 121.812 185.562 121.948 185.386C122.088 185.206 122.158 184.986 122.158 184.726C122.158 184.498 122.11 184.306 122.014 184.15C121.918 183.994 121.752 183.854 121.516 183.73C121.284 183.606 120.96 183.482 120.544 183.358C119.932 183.17 119.428 182.964 119.032 182.74C118.636 182.512 118.342 182.244 118.15 181.936C117.958 181.624 117.862 181.256 117.862 180.832C117.862 180.356 117.994 179.946 118.258 179.602C118.522 179.254 118.878 178.988 119.326 178.804C119.778 178.616 120.282 178.522 120.838 178.522C121.454 178.522 121.996 178.612 122.464 178.792C122.932 178.968 123.344 179.22 123.7 179.548L122.878 180.478C122.594 180.234 122.286 180.054 121.954 179.938C121.626 179.822 121.292 179.764 120.952 179.764C120.684 179.764 120.444 179.8 120.232 179.872C120.024 179.944 119.86 180.05 119.74 180.19C119.62 180.33 119.56 180.508 119.56 180.724C119.56 180.92 119.614 181.088 119.722 181.228C119.834 181.364 120.024 181.492 120.292 181.612C120.56 181.728 120.928 181.86 121.396 182.008C121.888 182.156 122.318 182.334 122.686 182.542C123.058 182.75 123.348 183.02 123.556 183.352C123.764 183.68 123.868 184.102 123.868 184.618ZM131.063 184.618C131.063 185.122 130.933 185.566 130.673 185.95C130.417 186.334 130.047 186.636 129.563 186.856C129.079 187.072 128.493 187.18 127.805 187.18C127.085 187.18 126.467 187.074 125.951 186.862C125.435 186.646 125.003 186.37 124.655 186.034L125.519 185.068C125.819 185.336 126.155 185.546 126.527 185.698C126.899 185.85 127.317 185.926 127.781 185.926C128.077 185.926 128.343 185.88 128.579 185.788C128.819 185.696 129.007 185.562 129.143 185.386C129.283 185.206 129.353 184.986 129.353 184.726C129.353 184.498 129.305 184.306 129.209 184.15C129.113 183.994 128.947 183.854 128.711 183.73C128.479 183.606 128.155 183.482 127.739 183.358C127.127 183.17 126.623 182.964 126.227 182.74C125.831 182.512 125.537 182.244 125.345 181.936C125.153 181.624 125.057 181.256 125.057 180.832C125.057 180.356 125.189 179.946 125.453 179.602C125.717 179.254 126.073 178.988 126.521 178.804C126.973 178.616 127.477 178.522 128.033 178.522C128.649 178.522 129.191 178.612 129.659 178.792C130.127 178.968 130.539 179.22 130.895 179.548L130.073 180.478C129.789 180.234 129.481 180.054 129.149 179.938C128.821 179.822 128.487 179.764 128.147 179.764C127.879 179.764 127.639 179.8 127.427 179.872C127.219 179.944 127.055 180.05 126.935 180.19C126.815 180.33 126.755 180.508 126.755 180.724C126.755 180.92 126.809 181.088 126.917 181.228C127.029 181.364 127.219 181.492 127.487 181.612C127.755 181.728 128.123 181.86 128.591 182.008C129.083 182.156 129.513 182.334 129.881 182.542C130.253 182.75 130.543 183.02 130.751 183.352C130.959 183.68 131.063 184.102 131.063 184.618ZM138.402 182.848C138.402 183.712 138.28 184.47 138.036 185.122C137.796 185.77 137.436 186.276 136.956 186.64C136.476 187 135.882 187.18 135.174 187.18C134.47 187.18 133.876 187.004 133.392 186.652C132.912 186.296 132.55 185.796 132.306 185.152C132.066 184.504 131.946 183.738 131.946 182.854C131.946 181.99 132.066 181.234 132.306 180.586C132.55 179.934 132.912 179.428 133.392 179.068C133.876 178.704 134.47 178.522 135.174 178.522C135.882 178.522 136.476 178.698 136.956 179.05C137.436 179.402 137.796 179.902 138.036 180.55C138.28 181.198 138.402 181.964 138.402 182.848ZM136.71 182.848C136.71 181.8 136.59 181.024 136.35 180.52C136.114 180.012 135.722 179.758 135.174 179.758C134.626 179.758 134.232 180.012 133.992 180.52C133.756 181.028 133.638 181.806 133.638 182.854C133.638 183.906 133.76 184.684 134.004 185.188C134.248 185.688 134.638 185.938 135.174 185.938C135.73 185.938 136.124 185.684 136.356 185.176C136.592 184.668 136.71 183.892 136.71 182.848ZM145.406 181.156C145.406 181.556 145.326 181.906 145.166 182.206C145.01 182.506 144.796 182.758 144.524 182.962C144.256 183.166 143.954 183.324 143.618 183.436L145.892 187H144.008L142.046 183.694H141.29V187H139.652V178.702H142.094C143.186 178.702 144.01 178.904 144.566 179.308C145.126 179.712 145.406 180.328 145.406 181.156ZM143.702 181.156C143.702 180.708 143.572 180.386 143.312 180.19C143.052 179.99 142.66 179.89 142.136 179.89H141.29V182.53H142.19C142.674 182.53 143.046 182.422 143.306 182.206C143.57 181.99 143.702 181.64 143.702 181.156Z" fill="black"/>
<path d="M10.17 178.44L19 183.55L27.77 178.47M19 192.61V183.54" stroke="#3F3F3F" stroke-width="1.5" stroke-linecap="round" stroke-linejoin="round"/>
<path d="M16.93 173.48L11.59 176.44C10.38 177.11 9.39001 178.79 9.39001 180.17V185.82C9.39001 187.2 10.38 188.88 11.59 189.55L16.93 192.52C18.07 193.15 19.94 193.15 21.08 192.52L26.42 189.55C27.63 188.88 28.62 187.2 28.62 185.82V180.17C28.62 178.79 27.63 177.11 26.42 176.44L21.08 173.47C19.93 172.84 18.07 172.84 16.93 173.48Z" stroke="#3F3F3F" stroke-width="1.5" stroke-linecap="round" stroke-linejoin="round"/>
<rect x="536" y="237" width="154" height="36" rx="4" fill="#F3F3F3"/>
<rect x="536.5" y="237.5" width="153" height="35" rx="3.5" stroke="#7343DA" stroke-opacity="0.24"/>
<path d="M576.933 251.914V254.188H579.873V255.382H576.933V257.794H580.503V259H575.289V250.702H580.461L580.293 251.914H576.933ZM584.86 257.59L586.66 250.702H588.34L585.808 259H583.852L581.332 250.702H583.078L584.86 257.59ZM591.324 251.914V254.188H594.264V255.382H591.324V257.794H594.894V259H589.68V250.702H594.852L594.684 251.914H591.324ZM600.001 259L597.559 252.106C597.579 252.258 597.603 252.454 597.631 252.694C597.659 252.934 597.685 253.206 597.709 253.51C597.737 253.814 597.759 254.136 597.775 254.476C597.795 254.816 597.805 255.16 597.805 255.508V259H596.377V250.702H598.465L600.883 257.584C600.851 257.38 600.815 257.11 600.775 256.774C600.739 256.438 600.707 256.052 600.679 255.616C600.651 255.18 600.637 254.716 600.637 254.224V250.702H602.065V259H600.001ZM607.22 251.992V259H605.582V251.992H603.158V250.702H609.716L609.548 251.992H607.22ZM622.337 253.36C622.337 253.016 622.271 252.738 622.139 252.526C622.011 252.31 621.823 252.152 621.575 252.052C621.327 251.952 621.029 251.902 620.681 251.902H619.823V254.908H620.729C621.057 254.908 621.339 254.858 621.575 254.758C621.815 254.654 622.001 254.488 622.133 254.26C622.269 254.032 622.337 253.732 622.337 253.36ZM624.041 253.348C624.041 253.992 623.903 254.52 623.627 254.932C623.355 255.34 622.973 255.642 622.481 255.838C621.989 256.03 621.421 256.126 620.777 256.126H619.823V259H618.179V250.702H620.621C621.697 250.702 622.535 250.92 623.135 251.356C623.739 251.792 624.041 252.456 624.041 253.348ZM631.038 253.156C631.038 253.556 630.958 253.906 630.798 254.206C630.642 254.506 630.428 254.758 630.156 254.962C629.888 255.166 629.586 255.324 629.25 255.436L631.524 259H629.64L627.678 255.694H626.922V259H625.284V250.702H627.726C628.818 250.702 629.642 250.904 630.198 251.308C630.758 251.712 631.038 252.328 631.038 253.156ZM629.334 253.156C629.334 252.708 629.204 252.386 628.944 252.19C628.684 251.99 628.292 251.89 627.768 251.89H626.922V254.53H627.822C628.306 254.53 628.678 254.422 628.938 254.206C629.202 253.99 629.334 253.64 629.334 253.156ZM638.426 254.848C638.426 255.712 638.304 256.47 638.06 257.122C637.82 257.77 637.46 258.276 636.98 258.64C636.5 259 635.906 259.18 635.198 259.18C634.494 259.18 633.9 259.004 633.416 258.652C632.936 258.296 632.574 257.796 632.33 257.152C632.09 256.504 631.97 255.738 631.97 254.854C631.97 253.99 632.09 253.234 632.33 252.586C632.574 251.934 632.936 251.428 633.416 251.068C633.9 250.704 634.494 250.522 635.198 250.522C635.906 250.522 636.5 250.698 636.98 251.05C637.46 251.402 637.82 251.902 638.06 252.55C638.304 253.198 638.426 253.964 638.426 254.848ZM636.734 254.848C636.734 253.8 636.614 253.024 636.374 252.52C636.138 252.012 635.746 251.758 635.198 251.758C634.65 251.758 634.256 252.012 634.016 252.52C633.78 253.028 633.662 253.806 633.662 254.854C633.662 255.906 633.784 256.684 634.028 257.188C634.272 257.688 634.662 257.938 635.198 257.938C635.754 257.938 636.148 257.684 636.38 257.176C636.616 256.668 636.734 255.892 636.734 254.848ZM643.089 250.522C643.665 250.522 644.153 250.598 644.553 250.75C644.953 250.898 645.323 251.112 645.663 251.392L644.829 252.382C644.593 252.182 644.333 252.03 644.049 251.926C643.769 251.822 643.469 251.77 643.149 251.77C642.765 251.77 642.411 251.872 642.087 252.076C641.767 252.28 641.509 252.608 641.313 253.06C641.121 253.508 641.025 254.1 641.025 254.836C641.025 255.56 641.117 256.146 641.301 256.594C641.489 257.042 641.743 257.37 642.063 257.578C642.387 257.782 642.753 257.884 643.161 257.884C643.593 257.884 643.951 257.808 644.235 257.656C644.519 257.504 644.775 257.338 645.003 257.158L645.777 258.136C645.485 258.424 645.119 258.67 644.679 258.874C644.243 259.078 643.713 259.18 643.089 259.18C642.365 259.18 641.719 259.014 641.151 258.682C640.583 258.35 640.137 257.862 639.813 257.218C639.489 256.574 639.327 255.78 639.327 254.836C639.327 253.908 639.493 253.124 639.825 252.484C640.161 251.84 640.613 251.352 641.181 251.02C641.753 250.688 642.389 250.522 643.089 250.522ZM648.886 251.914V254.188H651.826V255.382H648.886V257.794H652.456V259H647.242V250.702H652.414L652.246 251.914H648.886ZM659.868 256.618C659.868 257.122 659.738 257.566 659.478 257.95C659.222 258.334 658.852 258.636 658.368 258.856C657.884 259.072 657.298 259.18 656.61 259.18C655.89 259.18 655.272 259.074 654.756 258.862C654.24 258.646 653.808 258.37 653.46 258.034L654.324 257.068C654.624 257.336 654.96 257.546 655.332 257.698C655.704 257.85 656.122 257.926 656.586 257.926C656.882 257.926 657.148 257.88 657.384 257.788C657.624 257.696 657.812 257.562 657.948 257.386C658.088 257.206 658.158 256.986 658.158 256.726C658.158 256.498 658.11 256.306 658.014 256.15C657.918 255.994 657.752 255.854 657.516 255.73C657.284 255.606 656.96 255.482 656.544 255.358C655.932 255.17 655.428 254.964 655.032 254.74C654.636 254.512 654.342 254.244 654.15 253.936C653.958 253.624 653.862 253.256 653.862 252.832C653.862 252.356 653.994 251.946 654.258 251.602C654.522 251.254 654.878 250.988 655.326 250.804C655.778 250.616 656.282 250.522 656.838 250.522C657.454 250.522 657.996 250.612 658.464 250.792C658.932 250.968 659.344 251.22 659.7 251.548L658.878 252.478C658.594 252.234 658.286 252.054 657.954 251.938C657.626 251.822 657.292 251.764 656.952 251.764C656.684 251.764 656.444 251.8 656.232 251.872C656.024 251.944 655.86 252.05 655.74 252.19C655.62 252.33 655.56 252.508 655.56 252.724C655.56 252.92 655.614 253.088 655.722 253.228C655.834 253.364 656.024 253.492 656.292 253.612C656.56 253.728 656.928 253.86 657.396 254.008C657.888 254.156 658.318 254.334 658.686 254.542C659.058 254.75 659.348 255.02 659.556 255.352C659.764 255.68 659.868 256.102 659.868 256.618ZM667.063 256.618C667.063 257.122 666.933 257.566 666.673 257.95C666.417 258.334 666.047 258.636 665.563 258.856C665.079 259.072 664.493 259.18 663.805 259.18C663.085 259.18 662.467 259.074 661.951 258.862C661.435 258.646 661.003 258.37 660.655 258.034L661.519 257.068C661.819 257.336 662.155 257.546 662.527 257.698C662.899 257.85 663.317 257.926 663.781 257.926C664.077 257.926 664.343 257.88 664.579 257.788C664.819 257.696 665.007 257.562 665.143 257.386C665.283 257.206 665.353 256.986 665.353 256.726C665.353 256.498 665.305 256.306 665.209 256.15C665.113 255.994 664.947 255.854 664.711 255.73C664.479 255.606 664.155 255.482 663.739 255.358C663.127 255.17 662.623 254.964 662.227 254.74C661.831 254.512 661.537 254.244 661.345 253.936C661.153 253.624 661.057 253.256 661.057 252.832C661.057 252.356 661.189 251.946 661.453 251.602C661.717 251.254 662.073 250.988 662.521 250.804C662.973 250.616 663.477 250.522 664.033 250.522C664.649 250.522 665.191 250.612 665.659 250.792C666.127 250.968 666.539 251.22 666.895 251.548L666.073 252.478C665.789 252.234 665.481 252.054 665.149 251.938C664.821 251.822 664.487 251.764 664.147 251.764C663.879 251.764 663.639 251.8 663.427 251.872C663.219 251.944 663.055 252.05 662.935 252.19C662.815 252.33 662.755 252.508 662.755 252.724C662.755 252.92 662.809 253.088 662.917 253.228C663.029 253.364 663.219 253.492 663.487 253.612C663.755 253.728 664.123 253.86 664.591 254.008C665.083 254.156 665.513 254.334 665.881 254.542C666.253 254.75 666.543 255.02 666.751 255.352C666.959 255.68 667.063 256.102 667.063 256.618ZM674.402 254.848C674.402 255.712 674.28 256.47 674.036 257.122C673.796 257.77 673.436 258.276 672.956 258.64C672.476 259 671.882 259.18 671.174 259.18C670.47 259.18 669.876 259.004 669.392 258.652C668.912 258.296 668.55 257.796 668.306 257.152C668.066 256.504 667.946 255.738 667.946 254.854C667.946 253.99 668.066 253.234 668.306 252.586C668.55 251.934 668.912 251.428 669.392 251.068C669.876 250.704 670.47 250.522 671.174 250.522C671.882 250.522 672.476 250.698 672.956 251.05C673.436 251.402 673.796 251.902 674.036 252.55C674.28 253.198 674.402 253.964 674.402 254.848ZM672.71 254.848C672.71 253.8 672.59 253.024 672.35 252.52C672.114 252.012 671.722 251.758 671.174 251.758C670.626 251.758 670.232 252.012 669.992 252.52C669.756 253.028 669.638 253.806 669.638 254.854C669.638 255.906 669.76 256.684 670.004 257.188C670.248 257.688 670.638 257.938 671.174 257.938C671.73 257.938 672.124 257.684 672.356 257.176C672.592 256.668 672.71 255.892 672.71 254.848ZM681.406 253.156C681.406 253.556 681.326 253.906 681.166 254.206C681.01 254.506 680.796 254.758 680.524 254.962C680.256 255.166 679.954 255.324 679.618 255.436L681.892 259H680.008L678.046 255.694H677.29V259H675.652V250.702H678.094C679.186 250.702 680.01 250.904 680.566 251.308C681.126 251.712 681.406 252.328 681.406 253.156ZM679.702 253.156C679.702 252.708 679.572 252.386 679.312 252.19C679.052 251.99 678.66 251.89 678.136 251.89H677.29V254.53H678.19C678.674 254.53 679.046 254.422 679.306 254.206C679.57 253.99 679.702 253.64 679.702 253.156Z" fill="black"/>
<path d="M546.17 250.44L555 255.55L563.77 250.47M555 264.61V255.54" stroke="#3F3F3F" stroke-width="1.5" stroke-linecap="round" stroke-linejoin="round"/>
<path d="M552.93 245.48L547.59 248.44C546.38 249.11 545.39 250.79 545.39 252.17V257.82C545.39 259.2 546.38 260.88 547.59 261.55L552.93 264.52C554.07 265.15 555.94 265.15 557.08 264.52L562.42 261.55C563.63 260.88 564.62 259.2 564.62 257.82V252.17C564.62 250.79 563.63 249.11 562.42 248.44L557.08 245.47C555.93 244.84 554.07 244.84 552.93 245.48Z" stroke="#3F3F3F" stroke-width="1.5" stroke-linecap="round" stroke-linejoin="round"/>
<rect x="536" y="297" width="154" height="36" rx="4" fill="#F3F3F3"/>
<rect x="536.5" y="297.5" width="153" height="35" rx="3.5" stroke="#7343DA" stroke-opacity="0.24"/>
<path d="M576.933 311.914V314.188H579.873V315.382H576.933V317.794H580.503V319H575.289V310.702H580.461L580.293 311.914H576.933ZM584.86 317.59L586.66 310.702H588.34L585.808 319H583.852L581.332 310.702H583.078L584.86 317.59ZM591.324 311.914V314.188H594.264V315.382H591.324V317.794H594.894V319H589.68V310.702H594.852L594.684 311.914H591.324ZM600.001 319L597.559 312.106C597.579 312.258 597.603 312.454 597.631 312.694C597.659 312.934 597.685 313.206 597.709 313.51C597.737 313.814 597.759 314.136 597.775 314.476C597.795 314.816 597.805 315.16 597.805 315.508V319H596.377V310.702H598.465L600.883 317.584C600.851 317.38 600.815 317.11 600.775 316.774C600.739 316.438 600.707 316.052 600.679 315.616C600.651 315.18 600.637 314.716 600.637 314.224V310.702H602.065V319H600.001ZM607.22 311.992V319H605.582V311.992H603.158V310.702H609.716L609.548 311.992H607.22ZM622.337 313.36C622.337 313.016 622.271 312.738 622.139 312.526C622.011 312.31 621.823 312.152 621.575 312.052C621.327 311.952 621.029 311.902 620.681 311.902H619.823V314.908H620.729C621.057 314.908 621.339 314.858 621.575 314.758C621.815 314.654 622.001 314.488 622.133 314.26C622.269 314.032 622.337 313.732 622.337 313.36ZM624.041 313.348C624.041 313.992 623.903 314.52 623.627 314.932C623.355 315.34 622.973 315.642 622.481 315.838C621.989 316.03 621.421 316.126 620.777 316.126H619.823V319H618.179V310.702H620.621C621.697 310.702 622.535 310.92 623.135 311.356C623.739 311.792 624.041 312.456 624.041 313.348ZM631.038 313.156C631.038 313.556 630.958 313.906 630.798 314.206C630.642 314.506 630.428 314.758 630.156 314.962C629.888 315.166 629.586 315.324 629.25 315.436L631.524 319H629.64L627.678 315.694H626.922V319H625.284V310.702H627.726C628.818 310.702 629.642 310.904 630.198 311.308C630.758 311.712 631.038 312.328 631.038 313.156ZM629.334 313.156C629.334 312.708 629.204 312.386 628.944 312.19C628.684 311.99 628.292 311.89 627.768 311.89H626.922V314.53H627.822C628.306 314.53 628.678 314.422 628.938 314.206C629.202 313.99 629.334 313.64 629.334 313.156ZM638.426 314.848C638.426 315.712 638.304 316.47 638.06 317.122C637.82 317.77 637.46 318.276 636.98 318.64C636.5 319 635.906 319.18 635.198 319.18C634.494 319.18 633.9 319.004 633.416 318.652C632.936 318.296 632.574 317.796 632.33 317.152C632.09 316.504 631.97 315.738 631.97 314.854C631.97 313.99 632.09 313.234 632.33 312.586C632.574 311.934 632.936 311.428 633.416 311.068C633.9 310.704 634.494 310.522 635.198 310.522C635.906 310.522 636.5 310.698 636.98 311.05C637.46 311.402 637.82 311.902 638.06 312.55C638.304 313.198 638.426 313.964 638.426 314.848ZM636.734 314.848C636.734 313.8 636.614 313.024 636.374 312.52C636.138 312.012 635.746 311.758 635.198 311.758C634.65 311.758 634.256 312.012 634.016 312.52C633.78 313.028 633.662 313.806 633.662 314.854C633.662 315.906 633.784 316.684 634.028 317.188C634.272 317.688 634.662 317.938 635.198 317.938C635.754 317.938 636.148 317.684 636.38 317.176C636.616 316.668 636.734 315.892 636.734 314.848ZM643.089 310.522C643.665 310.522 644.153 310.598 644.553 310.75C644.953 310.898 645.323 311.112 645.663 311.392L644.829 312.382C644.593 312.182 644.333 312.03 644.049 311.926C643.769 311.822 643.469 311.77 643.149 311.77C642.765 311.77 642.411 311.872 642.087 312.076C641.767 312.28 641.509 312.608 641.313 313.06C641.121 313.508 641.025 314.1 641.025 314.836C641.025 315.56 641.117 316.146 641.301 316.594C641.489 317.042 641.743 317.37 642.063 317.578C642.387 317.782 642.753 317.884 643.161 317.884C643.593 317.884 643.951 317.808 644.235 317.656C644.519 317.504 644.775 317.338 645.003 317.158L645.777 318.136C645.485 318.424 645.119 318.67 644.679 318.874C644.243 319.078 643.713 319.18 643.089 319.18C642.365 319.18 641.719 319.014 641.151 318.682C640.583 318.35 640.137 317.862 639.813 317.218C639.489 316.574 639.327 315.78 639.327 314.836C639.327 313.908 639.493 313.124 639.825 312.484C640.161 311.84 640.613 311.352 641.181 311.02C641.753 310.688 642.389 310.522 643.089 310.522ZM648.886 311.914V314.188H651.826V315.382H648.886V317.794H652.456V319H647.242V310.702H652.414L652.246 311.914H648.886ZM659.868 316.618C659.868 317.122 659.738 317.566 659.478 317.95C659.222 318.334 658.852 318.636 658.368 318.856C657.884 319.072 657.298 319.18 656.61 319.18C655.89 319.18 655.272 319.074 654.756 318.862C654.24 318.646 653.808 318.37 653.46 318.034L654.324 317.068C654.624 317.336 654.96 317.546 655.332 317.698C655.704 317.85 656.122 317.926 656.586 317.926C656.882 317.926 657.148 317.88 657.384 317.788C657.624 317.696 657.812 317.562 657.948 317.386C658.088 317.206 658.158 316.986 658.158 316.726C658.158 316.498 658.11 316.306 658.014 316.15C657.918 315.994 657.752 315.854 657.516 315.73C657.284 315.606 656.96 315.482 656.544 315.358C655.932 315.17 655.428 314.964 655.032 314.74C654.636 314.512 654.342 314.244 654.15 313.936C653.958 313.624 653.862 313.256 653.862 312.832C653.862 312.356 653.994 311.946 654.258 311.602C654.522 311.254 654.878 310.988 655.326 310.804C655.778 310.616 656.282 310.522 656.838 310.522C657.454 310.522 657.996 310.612 658.464 310.792C658.932 310.968 659.344 311.22 659.7 311.548L658.878 312.478C658.594 312.234 658.286 312.054 657.954 311.938C657.626 311.822 657.292 311.764 656.952 311.764C656.684 311.764 656.444 311.8 656.232 311.872C656.024 311.944 655.86 312.05 655.74 312.19C655.62 312.33 655.56 312.508 655.56 312.724C655.56 312.92 655.614 313.088 655.722 313.228C655.834 313.364 656.024 313.492 656.292 313.612C656.56 313.728 656.928 313.86 657.396 314.008C657.888 314.156 658.318 314.334 658.686 314.542C659.058 314.75 659.348 315.02 659.556 315.352C659.764 315.68 659.868 316.102 659.868 316.618ZM667.063 316.618C667.063 317.122 666.933 317.566 666.673 317.95C666.417 318.334 666.047 318.636 665.563 318.856C665.079 319.072 664.493 319.18 663.805 319.18C663.085 319.18 662.467 319.074 661.951 318.862C661.435 318.646 661.003 318.37 660.655 318.034L661.519 317.068C661.819 317.336 662.155 317.546 662.527 317.698C662.899 317.85 663.317 317.926 663.781 317.926C664.077 317.926 664.343 317.88 664.579 317.788C664.819 317.696 665.007 317.562 665.143 317.386C665.283 317.206 665.353 316.986 665.353 316.726C665.353 316.498 665.305 316.306 665.209 316.15C665.113 315.994 664.947 315.854 664.711 315.73C664.479 315.606 664.155 315.482 663.739 315.358C663.127 315.17 662.623 314.964 662.227 314.74C661.831 314.512 661.537 314.244 661.345 313.936C661.153 313.624 661.057 313.256 661.057 312.832C661.057 312.356 661.189 311.946 661.453 311.602C661.717 311.254 662.073 310.988 662.521 310.804C662.973 310.616 663.477 310.522 664.033 310.522C664.649 310.522 665.191 310.612 665.659 310.792C666.127 310.968 666.539 311.22 666.895 311.548L666.073 312.478C665.789 312.234 665.481 312.054 665.149 311.938C664.821 311.822 664.487 311.764 664.147 311.764C663.879 311.764 663.639 311.8 663.427 311.872C663.219 311.944 663.055 312.05 662.935 312.19C662.815 312.33 662.755 312.508 662.755 312.724C662.755 312.92 662.809 313.088 662.917 313.228C663.029 313.364 663.219 313.492 663.487 313.612C663.755 313.728 664.123 313.86 664.591 314.008C665.083 314.156 665.513 314.334 665.881 314.542C666.253 314.75 666.543 315.02 666.751 315.352C666.959 315.68 667.063 316.102 667.063 316.618ZM674.402 314.848C674.402 315.712 674.28 316.47 674.036 317.122C673.796 317.77 673.436 318.276 672.956 318.64C672.476 319 671.882 319.18 671.174 319.18C670.47 319.18 669.876 319.004 669.392 318.652C668.912 318.296 668.55 317.796 668.306 317.152C668.066 316.504 667.946 315.738 667.946 314.854C667.946 313.99 668.066 313.234 668.306 312.586C668.55 311.934 668.912 311.428 669.392 311.068C669.876 310.704 670.47 310.522 671.174 310.522C671.882 310.522 672.476 310.698 672.956 311.05C673.436 311.402 673.796 311.902 674.036 312.55C674.28 313.198 674.402 313.964 674.402 314.848ZM672.71 314.848C672.71 313.8 672.59 313.024 672.35 312.52C672.114 312.012 671.722 311.758 671.174 311.758C670.626 311.758 670.232 312.012 669.992 312.52C669.756 313.028 669.638 313.806 669.638 314.854C669.638 315.906 669.76 316.684 670.004 317.188C670.248 317.688 670.638 317.938 671.174 317.938C671.73 317.938 672.124 317.684 672.356 317.176C672.592 316.668 672.71 315.892 672.71 314.848ZM681.406 313.156C681.406 313.556 681.326 313.906 681.166 314.206C681.01 314.506 680.796 314.758 680.524 314.962C680.256 315.166 679.954 315.324 679.618 315.436L681.892 319H680.008L678.046 315.694H677.29V319H675.652V310.702H678.094C679.186 310.702 680.01 310.904 680.566 311.308C681.126 311.712 681.406 312.328 681.406 313.156ZM679.702 313.156C679.702 312.708 679.572 312.386 679.312 312.19C679.052 311.99 678.66 311.89 678.136 311.89H677.29V314.53H678.19C678.674 314.53 679.046 314.422 679.306 314.206C679.57 313.99 679.702 313.64 679.702 313.156Z" fill="black"/>
<path d="M546.17 310.44L555 315.55L563.77 310.47M555 324.61V315.54" stroke="#3F3F3F" stroke-width="1.5" stroke-linecap="round" stroke-linejoin="round"/>
<path d="M552.93 305.48L547.59 308.44C546.38 309.11 545.39 310.79 545.39 312.17V317.82C545.39 319.2 546.38 320.88 547.59 321.55L552.93 324.52C554.07 325.15 555.94 325.15 557.08 324.52L562.42 321.55C563.63 320.88 564.62 319.2 564.62 317.82V312.17C564.62 310.79 563.63 309.11 562.42 308.44L557.08 305.47C555.93 304.84 554.07 304.84 552.93 305.48Z" stroke="#3F3F3F" stroke-width="1.5" stroke-linecap="round" stroke-linejoin="round"/>
<path d="M296.383 15.92C296.383 15.36 296.273 14.9233 296.053 14.61C295.84 14.2967 295.543 14.0767 295.163 13.95C294.783 13.8167 294.35 13.75 293.863 13.75H292.163V17.95H293.743C294.07 17.95 294.39 17.9233 294.703 17.87C295.017 17.8167 295.3 17.72 295.553 17.58C295.813 17.4333 296.017 17.2267 296.163 16.96C296.31 16.6933 296.383 16.3467 296.383 15.92ZM295.853 9.93C295.853 9.30333 295.657 8.85333 295.263 8.58C294.877 8.30667 294.303 8.17 293.543 8.17H292.163V11.82H293.663C294.41 11.82 294.96 11.6733 295.313 11.38C295.673 11.08 295.853 10.5967 295.853 9.93ZM299.223 15.99C299.223 16.77 299.07 17.42 298.763 17.94C298.463 18.46 298.053 18.87 297.533 19.17C297.013 19.47 296.423 19.6833 295.763 19.81C295.11 19.9367 294.427 20 293.713 20H289.423V6.17H293.463C294.143 6.17 294.79 6.22667 295.403 6.34C296.017 6.45333 296.563 6.64667 297.043 6.92C297.53 7.18667 297.913 7.54667 298.193 8C298.48 8.45333 298.623 9.01667 298.623 9.69C298.623 10.2567 298.503 10.7433 298.263 11.15C298.03 11.5567 297.717 11.8867 297.323 12.14C296.937 12.3867 296.52 12.5667 296.073 12.68C296.573 12.76 297.063 12.9167 297.543 13.15C298.03 13.3767 298.43 13.72 298.743 14.18C299.063 14.6333 299.223 15.2367 299.223 15.99ZM311.076 10.26C311.076 10.9267 310.942 11.51 310.676 12.01C310.416 12.51 310.059 12.93 309.606 13.27C309.159 13.61 308.656 13.8733 308.096 14.06L311.886 20H308.746L305.476 14.49H304.216V20H301.486V6.17H305.556C307.376 6.17 308.749 6.50667 309.676 7.18C310.609 7.85333 311.076 8.88 311.076 10.26ZM308.236 10.26C308.236 9.51333 308.019 8.97667 307.586 8.65C307.152 8.31667 306.499 8.15 305.626 8.15H304.216V12.55H305.716C306.522 12.55 307.142 12.37 307.576 12.01C308.016 11.65 308.236 11.0667 308.236 10.26ZM323.388 13.08C323.388 14.52 323.184 15.7833 322.778 16.87C322.378 17.95 321.778 18.7933 320.978 19.4C320.178 20 319.188 20.3 318.008 20.3C316.834 20.3 315.844 20.0067 315.038 19.42C314.238 18.8267 313.634 17.9933 313.228 16.92C312.828 15.84 312.628 14.5633 312.628 13.09C312.628 11.65 312.828 10.39 313.228 9.31C313.634 8.22333 314.238 7.38 315.038 6.78C315.844 6.17333 316.834 5.87 318.008 5.87C319.188 5.87 320.178 6.16333 320.978 6.75C321.778 7.33667 322.378 8.17 322.778 9.25C323.184 10.33 323.388 11.6067 323.388 13.08ZM320.568 13.08C320.568 11.3333 320.368 10.04 319.968 9.2C319.574 8.35333 318.921 7.93 318.008 7.93C317.094 7.93 316.438 8.35333 316.038 9.2C315.644 10.0467 315.448 11.3433 315.448 13.09C315.448 14.8433 315.651 16.14 316.058 16.98C316.464 17.8133 317.114 18.23 318.008 18.23C318.934 18.23 319.591 17.8067 319.978 16.96C320.371 16.1133 320.568 14.82 320.568 13.08ZM328.24 20H325.5V6.17H328.24V20ZM328.34 12.62L332.7 6.17H335.64L331.2 12.42L336.02 20H332.79L328.34 12.62ZM340.822 8.19V11.98H345.722V13.97H340.822V17.99H346.772V20H338.082V6.17H346.702L346.422 8.19H340.822ZM359.044 10.26C359.044 10.9267 358.911 11.51 358.644 12.01C358.384 12.51 358.028 12.93 357.574 13.27C357.128 13.61 356.624 13.8733 356.064 14.06L359.854 20H356.714L353.444 14.49H352.184V20H349.454V6.17H353.524C355.344 6.17 356.718 6.50667 357.644 7.18C358.578 7.85333 359.044 8.88 359.044 10.26ZM356.204 10.26C356.204 9.51333 355.988 8.97667 355.554 8.65C355.121 8.31667 354.468 8.15 353.594 8.15H352.184V12.55H353.684C354.491 12.55 355.111 12.37 355.544 12.01C355.984 11.65 356.204 11.0667 356.204 10.26Z" fill="black"/>
<rect x="28" y="57" width="121" height="48" rx="4" fill="#F3F3F3"/>
<rect x="28.5" y="57.5" width="120" height="47" rx="3.5" stroke="#161616" stroke-opacity="0.24"/>
<path d="M68.1321 69.4892H73.4244V70.7508H71.6213V76.7385H73.4244V78H68.1321V76.7385H69.9352V70.7508H68.1321V69.4892ZM76.4564 70.9292C76.6246 72.2092 76.7087 73.3723 76.7087 74.4185V78H75.2441V69.4892H77.3857L79.8657 76.5477C79.6975 75.4031 79.6134 74.2544 79.6134 73.1015V69.4892H81.078V78H78.9611L76.4564 70.9292ZM82.8977 69.4892H88.19V70.7508H86.3869V76.7385H88.19V78H82.8977V76.7385H84.7008V70.7508H82.8977V69.4892ZM96.139 70.8123H93.7513V78H92.0713V70.8123H89.5851V69.4892H96.3113L96.139 70.8123ZM97.6633 69.4892H102.956V70.7508H101.153V76.7385H102.956V78H97.6633V76.7385H99.4664V70.7508H97.6633V69.4892ZM109.6 78L109.071 76.0492H106.271L105.742 78H104L106.665 69.4892H108.732L111.391 78H109.6ZM107.668 70.7508L106.572 74.7877H108.757L107.668 70.7508ZM118.287 70.8123H115.9V78H114.22V70.8123H111.734V69.4892H118.46L118.287 70.8123ZM119.812 69.4892H125.104V70.7508H123.301V76.7385H125.104V78H119.812V76.7385H121.615V70.7508H119.812V69.4892ZM128.136 70.9292C128.304 72.2092 128.388 73.3723 128.388 74.4185V78H126.924V69.4892H129.065L131.545 76.5477C131.377 75.4031 131.293 74.2544 131.293 73.1015V69.4892H132.758V78H130.641L128.136 70.9292ZM137.488 78.1846C136.725 78.1846 136.077 78.0164 135.544 77.68C135.01 77.3436 134.604 76.8431 134.325 76.1785C134.046 75.5138 133.907 74.6974 133.907 73.7292C133.907 72.7938 134.077 71.9938 134.417 71.3292C134.758 70.6605 135.217 70.1559 135.796 69.8154C136.374 69.4749 137.016 69.3046 137.722 69.3046C138.292 69.3046 138.78 69.3908 139.187 69.5631C139.597 69.7313 139.98 69.9815 140.337 70.3138L139.42 71.2554C139.158 71.0215 138.897 70.8492 138.639 70.7385C138.385 70.6277 138.102 70.5723 137.79 70.5723C137.379 70.5723 137.014 70.681 136.694 70.8985C136.378 71.1118 136.126 71.4544 135.937 71.9262C135.753 72.3979 135.66 73.0031 135.66 73.7415C135.66 74.5046 135.728 75.12 135.864 75.5877C135.999 76.0513 136.204 76.3877 136.479 76.5969C136.754 76.8062 137.105 76.9108 137.531 76.9108C137.983 76.9108 138.401 76.8082 138.787 76.6031V74.4308H137.507L137.334 73.2H140.393V77.3662C139.954 77.6287 139.498 77.8318 139.027 77.9754C138.559 78.1149 138.046 78.1846 137.488 78.1846ZM95.6528 85.7323H92.2067V88.0646H95.2221V89.2892H92.2067V91.7631H95.8682V93H90.5205V84.4892H95.8251L95.6528 85.7323ZM98.5126 84.4892L100.34 91.5538L102.186 84.4892H103.909L101.313 93H99.3064L96.7218 84.4892H98.5126ZM110.418 85.7323H106.972V88.0646H109.988V89.2892H106.972V91.7631H110.634V93H105.286V84.4892H110.591L110.418 85.7323ZM113.371 85.9292C113.539 87.2092 113.623 88.3723 113.623 89.4185V93H112.158V84.4892H114.3L116.78 91.5477C116.612 90.4031 116.527 89.2544 116.527 88.1015V84.4892H117.992V93H115.875L113.371 85.9292ZM125.67 85.8123H123.283V93H121.603V85.8123H119.116V84.4892H125.843L125.67 85.8123Z" fill="black"/>
<path d="M37 69V72.4286H61V69H37ZM43 75.8571V79.2857H61V75.8571H43ZM37 82.7143V86.1429H61V82.7143H37ZM43 89.5714V93H61V89.5714H43Z" fill="black"/>
</svg>
