<svg width="683" height="231" viewBox="0 0 683 231" fill="none" xmlns="http://www.w3.org/2000/svg">
<path d="M299.393 24.0212L284.393 15.361L284.393 32.6815L299.393 24.0212ZM155 25.5211L285.893 25.5212L285.893 22.5212L155 22.5211L155 25.5211Z" fill="#464646"/>
<path d="M170 144.021L185 152.681L185 135.361L170 144.021ZM183.5 145.521L299.393 145.521L299.393 142.521L183.5 142.521L183.5 145.521Z" fill="#464646"/>
<path d="M531.393 24.0211L516.393 15.3609L516.393 32.6814L531.393 24.0211ZM402 25.5208L517.893 25.5211L517.893 22.5211L402 22.5208L402 25.5208Z" fill="#464646"/>
<rect x="39" width="121" height="48" rx="4" fill="#F3F3F3"/>
<rect x="39.5" y="0.5" width="120" height="47" rx="3.5" stroke="#161616" stroke-opacity="0.24"/>
<path d="M79.1321 12.4892H84.4244V13.7508H82.6213V19.7385H84.4244V21H79.1321V19.7385H80.9352V13.7508H79.1321V12.4892ZM87.4564 13.9292C87.6246 15.2092 87.7087 16.3723 87.7087 17.4185V21H86.2441V12.4892H88.3857L90.8657 19.5477C90.6975 18.4031 90.6134 17.2544 90.6134 16.1015V12.4892H92.078V21H89.9611L87.4564 13.9292ZM93.8977 12.4892H99.19V13.7508H97.3869V19.7385H99.19V21H93.8977V19.7385H95.7008V13.7508H93.8977V12.4892ZM107.139 13.8123H104.751V21H103.071V13.8123H100.585V12.4892H107.311L107.139 13.8123ZM108.663 12.4892H113.956V13.7508H112.153V19.7385H113.956V21H108.663V19.7385H110.466V13.7508H108.663V12.4892ZM120.6 21L120.071 19.0492H117.271L116.742 21H115L117.665 12.4892H119.732L122.391 21H120.6ZM118.668 13.7508L117.572 17.7877H119.757L118.668 13.7508ZM129.287 13.8123H126.9V21H125.22V13.8123H122.734V12.4892H129.46L129.287 13.8123ZM130.812 12.4892H136.104V13.7508H134.301V19.7385H136.104V21H130.812V19.7385H132.615V13.7508H130.812V12.4892ZM139.136 13.9292C139.304 15.2092 139.388 16.3723 139.388 17.4185V21H137.924V12.4892H140.065L142.545 19.5477C142.377 18.4031 142.293 17.2544 142.293 16.1015V12.4892H143.758V21H141.641L139.136 13.9292ZM148.488 21.1846C147.725 21.1846 147.077 21.0164 146.544 20.68C146.01 20.3436 145.604 19.8431 145.325 19.1785C145.046 18.5138 144.907 17.6974 144.907 16.7292C144.907 15.7938 145.077 14.9938 145.417 14.3292C145.758 13.6605 146.217 13.1559 146.796 12.8154C147.374 12.4749 148.016 12.3046 148.722 12.3046C149.292 12.3046 149.78 12.3908 150.187 12.5631C150.597 12.7313 150.98 12.9815 151.337 13.3138L150.42 14.2554C150.158 14.0215 149.897 13.8492 149.639 13.7385C149.385 13.6277 149.102 13.5723 148.79 13.5723C148.379 13.5723 148.014 13.681 147.694 13.8985C147.378 14.1118 147.126 14.4544 146.937 14.9262C146.753 15.3979 146.66 16.0031 146.66 16.7415C146.66 17.5046 146.728 18.12 146.864 18.5877C146.999 19.0513 147.204 19.3877 147.479 19.5969C147.754 19.8062 148.105 19.9108 148.531 19.9108C148.983 19.9108 149.401 19.8082 149.787 19.6031V17.4308H148.507L148.334 16.2H151.393V20.3662C150.954 20.6287 150.498 20.8318 150.027 20.9754C149.559 21.1149 149.046 21.1846 148.488 21.1846ZM106.653 28.7323H103.207V31.0646H106.222V32.2892H103.207V34.7631H106.868V36H101.521V27.4892H106.825L106.653 28.7323ZM109.513 27.4892L111.34 34.5538L113.186 27.4892H114.909L112.313 36H110.306L107.722 27.4892H109.513ZM121.418 28.7323H117.972V31.0646H120.988V32.2892H117.972V34.7631H121.634V36H116.286V27.4892H121.591L121.418 28.7323ZM124.371 28.9292C124.539 30.2092 124.623 31.3723 124.623 32.4185V36H123.158V27.4892H125.3L127.78 34.5477C127.612 33.4031 127.527 32.2544 127.527 31.1015V27.4892H128.992V36H126.875L124.371 28.9292ZM136.67 28.8123H134.283V36H132.603V28.8123H130.116V27.4892H136.843L136.67 28.8123Z" fill="black"/>
<path d="M48 12V15.4286H72V12H48ZM54 18.8571V22.2857H72V18.8571H54ZM48 25.7143V29.1429H72V25.7143H48ZM54 32.5714V36H72V32.5714H54Z" fill="black"/>
<path d="M319.844 24C319.844 27.2509 319.165 30.1693 318.092 32.2566C317.005 34.3699 315.592 35.5 314.172 35.5C312.752 35.5 311.339 34.3699 310.252 32.2566C309.179 30.1693 308.5 27.2509 308.5 24C308.5 20.7491 309.179 17.8307 310.252 15.7434C311.339 13.6301 312.752 12.5 314.172 12.5C315.592 12.5 317.005 13.6301 318.092 15.7434C319.165 17.8307 319.844 20.7491 319.844 24Z" fill="#FF495F" stroke="#FFAFAF"/>
<mask id="path-9-inside-1_22_103" fill="white">
<path d="M314.172 12H383.828V36H314.172V12Z"/>
</mask>
<path d="M314.172 12H383.828V36H314.172V12Z" fill="#FF495F"/>
<path d="M314.172 13H383.828V11H314.172V13ZM383.828 35H314.172V37H383.828V35Z" fill="#FFAFAF" mask="url(#path-9-inside-1_22_103)"/>
<path d="M389.5 24C389.5 27.2509 388.821 30.1693 387.748 32.2566C386.661 34.3699 385.248 35.5 383.828 35.5C382.408 35.5 380.995 34.3699 379.908 32.2566C378.835 30.1693 378.156 27.2509 378.156 24C378.156 20.7491 378.835 17.8307 379.908 15.7434C380.995 13.6301 382.408 12.5 383.828 12.5C385.248 12.5 386.661 13.6301 387.748 15.7434C388.821 17.8307 389.5 20.7491 389.5 24Z" fill="white" stroke="#FFAFAF"/>
<path d="M302.902 53.4831H299.363V41.9015H302.902V43.1569H300.896V52.24H302.902V53.4831ZM308.974 50.88C309.245 50.88 309.503 50.8308 309.749 50.7323C310 50.6338 310.254 50.4944 310.512 50.3138L311.251 51.3538C310.955 51.6082 310.603 51.8113 310.192 51.9631C309.782 52.1108 309.353 52.1846 308.906 52.1846C308.233 52.1846 307.651 52.0431 307.159 51.76C306.67 51.4769 306.295 51.079 306.032 50.5662C305.774 50.0533 305.645 49.4585 305.645 48.7815C305.645 48.1087 305.776 47.5097 306.039 46.9846C306.305 46.4554 306.687 46.0431 307.183 45.7477C307.68 45.4482 308.262 45.2985 308.931 45.2985C309.394 45.2985 309.815 45.3641 310.192 45.4954C310.574 45.6267 310.925 45.8256 311.245 46.0923L310.525 47.0892C310.02 46.7446 309.505 46.5723 308.98 46.5723C308.475 46.5723 308.077 46.7528 307.786 47.1138C307.499 47.4749 307.355 48.0308 307.355 48.7815C307.355 49.5159 307.499 50.0492 307.786 50.3815C308.077 50.7138 308.473 50.88 308.974 50.88ZM317.852 45.3046C318.049 45.3046 318.227 45.321 318.387 45.3538C318.552 45.3826 318.714 45.4256 318.874 45.4831L318.584 48.0246H317.501V46.7508C317.087 46.7836 316.724 46.9703 316.412 47.3108C316.104 47.6513 315.86 48.1128 315.68 48.6954V50.8738H316.978V52H313.138V50.8738H314.055V46.6031H313.138V45.4831H315.292L315.594 46.9785C315.836 46.4164 316.137 45.9979 316.498 45.7231C316.863 45.4441 317.315 45.3046 317.852 45.3046ZM321.844 49.2369C321.889 49.8236 322.062 50.2585 322.361 50.5415C322.665 50.8246 323.052 50.9662 323.524 50.9662C323.824 50.9662 324.111 50.919 324.386 50.8246C324.661 50.7303 324.937 50.5908 325.216 50.4062L325.893 51.3354C325.577 51.6021 325.208 51.8113 324.786 51.9631C324.363 52.1108 323.908 52.1846 323.42 52.1846C322.726 52.1846 322.135 52.041 321.647 51.7538C321.163 51.4667 320.796 51.0646 320.546 50.5477C320.3 50.0308 320.176 49.4318 320.176 48.7508C320.176 48.0985 320.297 47.5118 320.54 46.9908C320.786 46.4656 321.138 46.0533 321.598 45.7538C322.062 45.4503 322.607 45.2985 323.235 45.2985C323.826 45.2985 324.341 45.4297 324.78 45.6923C325.218 45.9549 325.557 46.3344 325.795 46.8308C326.033 47.3231 326.152 47.9097 326.152 48.5908C326.152 48.8246 326.142 49.04 326.121 49.2369H321.844ZM323.241 46.4431C322.835 46.4431 322.507 46.5887 322.256 46.88C322.01 47.1672 321.867 47.6062 321.826 48.1969H324.57C324.562 47.6349 324.445 47.2021 324.22 46.8985C323.998 46.5949 323.672 46.4431 323.241 46.4431ZM333.042 50.2831C333.042 50.5251 333.077 50.7056 333.147 50.8246C333.221 50.9395 333.342 51.0256 333.51 51.0831L333.159 52.1723C332.798 52.1354 332.497 52.0472 332.255 51.9077C332.017 51.7641 331.834 51.559 331.707 51.2923C331.469 51.5836 331.163 51.8051 330.79 51.9569C330.417 52.1087 330.019 52.1846 329.596 52.1846C329.161 52.1846 328.78 52.1005 328.452 51.9323C328.123 51.76 327.871 51.52 327.695 51.2123C327.518 50.9046 327.43 50.5497 327.43 50.1477C327.43 49.6882 327.551 49.2964 327.793 48.9723C328.035 48.6482 328.39 48.4021 328.858 48.2338C329.325 48.0656 329.892 47.9815 330.556 47.9815H331.467V47.6308C331.467 47.2533 331.35 46.9764 331.116 46.8C330.882 46.6195 330.538 46.5292 330.082 46.5292C329.861 46.5292 329.592 46.56 329.276 46.6215C328.96 46.679 328.644 46.761 328.328 46.8677L327.941 45.7538C328.339 45.6062 328.747 45.4933 329.165 45.4154C329.588 45.3374 329.98 45.2985 330.341 45.2985C331.239 45.2985 331.914 45.4913 332.365 45.8769C332.817 46.2585 333.042 46.8082 333.042 47.5262V50.2831ZM330.125 51.0092C330.38 51.0092 330.63 50.9395 330.876 50.8C331.126 50.6564 331.323 50.4615 331.467 50.2154V48.9477H330.827C330.236 48.9477 329.803 49.0421 329.528 49.2308C329.254 49.4154 329.116 49.6903 329.116 50.0554C329.116 50.3631 329.202 50.599 329.375 50.7631C329.547 50.9272 329.797 51.0092 330.125 51.0092ZM340.85 51.6369C340.595 51.8051 340.294 51.9385 339.945 52.0369C339.601 52.1354 339.235 52.1846 338.85 52.1846C338.329 52.1846 337.888 52.0923 337.527 51.9077C337.17 51.7231 336.901 51.4626 336.721 51.1262C336.54 50.7856 336.45 50.3836 336.45 49.92V46.6338H335.034V45.4831H336.45V44.0492L338.074 43.8523V45.4831H340.228L340.062 46.6338H338.074V49.9138C338.074 50.2544 338.156 50.5026 338.321 50.6585C338.485 50.8103 338.749 50.8862 339.114 50.8862C339.533 50.8862 339.925 50.7877 340.29 50.5908L340.85 51.6369ZM343.993 49.2369C344.038 49.8236 344.21 50.2585 344.509 50.5415C344.813 50.8246 345.201 50.9662 345.673 50.9662C345.972 50.9662 346.259 50.919 346.534 50.8246C346.809 50.7303 347.086 50.5908 347.365 50.4062L348.042 51.3354C347.726 51.6021 347.357 51.8113 346.934 51.9631C346.512 52.1108 346.056 52.1846 345.568 52.1846C344.875 52.1846 344.284 52.041 343.796 51.7538C343.312 51.4667 342.944 51.0646 342.694 50.5477C342.448 50.0308 342.325 49.4318 342.325 48.7508C342.325 48.0985 342.446 47.5118 342.688 46.9908C342.934 46.4656 343.287 46.0533 343.746 45.7538C344.21 45.4503 344.756 45.2985 345.383 45.2985C345.974 45.2985 346.489 45.4297 346.928 45.6923C347.367 45.9549 347.705 46.3344 347.943 46.8308C348.181 47.3231 348.3 47.9097 348.3 48.5908C348.3 48.8246 348.29 49.04 348.269 49.2369H343.993ZM345.389 46.4431C344.983 46.4431 344.655 46.5887 344.405 46.88C344.159 47.1672 344.015 47.6062 343.974 48.1969H346.719C346.711 47.6349 346.594 47.2021 346.368 46.8985C346.146 46.5949 345.82 46.4431 345.389 46.4431ZM355.289 49.2862H350.095V47.9938H355.289V49.2862ZM360.081 45.2985C360.721 45.2985 361.269 45.44 361.724 45.7231C362.18 46.0021 362.524 46.4 362.758 46.9169C362.996 47.4297 363.115 48.0328 363.115 48.7262C363.115 49.4318 362.996 50.0451 362.758 50.5662C362.52 51.0831 362.172 51.4831 361.712 51.7662C361.257 52.0451 360.711 52.1846 360.075 52.1846C359.435 52.1846 358.887 52.0472 358.432 51.7723C357.977 51.4974 357.63 51.1015 357.392 50.5846C357.154 50.0677 357.035 49.4523 357.035 48.7385C357.035 48.0574 357.154 47.4585 357.392 46.9415C357.634 46.4205 357.983 46.0164 358.438 45.7292C358.898 45.4421 359.445 45.2985 360.081 45.2985ZM360.081 46.5231C359.622 46.5231 359.281 46.7036 359.06 47.0646C358.838 47.4215 358.727 47.9795 358.727 48.7385C358.727 49.5056 358.838 50.0677 359.06 50.4246C359.281 50.7815 359.62 50.96 360.075 50.96C360.531 50.96 360.869 50.7815 361.091 50.4246C361.312 50.0636 361.423 49.4974 361.423 48.7262C361.423 47.9754 361.312 47.4215 361.091 47.0646C360.869 46.7036 360.533 46.5231 360.081 46.5231ZM369.532 45.3046C369.729 45.3046 369.907 45.321 370.067 45.3538C370.231 45.3826 370.393 45.4256 370.553 45.4831L370.264 48.0246H369.181V46.7508C368.767 46.7836 368.404 46.9703 368.092 47.3108C367.784 47.6513 367.54 48.1128 367.359 48.6954V50.8738H368.658V52H364.818V50.8738H365.735V46.6031H364.818V45.4831H366.972L367.273 46.9785C367.515 46.4164 367.817 45.9979 368.178 45.7231C368.543 45.4441 368.994 45.3046 369.532 45.3046ZM375.918 42.7077L377.542 42.88V52H376.102L376.004 51.2308C375.79 51.5303 375.53 51.7641 375.222 51.9323C374.919 52.1005 374.574 52.1846 374.188 52.1846C373.388 52.1846 372.783 51.8769 372.373 51.2615C371.967 50.6462 371.764 49.8031 371.764 48.7323C371.764 48.0677 371.866 47.4769 372.072 46.96C372.281 46.439 372.58 46.0328 372.97 45.7415C373.36 45.4462 373.817 45.2985 374.342 45.2985C374.974 45.2985 375.499 45.5179 375.918 45.9569V42.7077ZM374.779 46.5108C374.357 46.5108 374.03 46.6933 373.801 47.0585C373.571 47.4236 373.456 47.9836 373.456 48.7385C373.456 49.5262 373.559 50.0944 373.764 50.4431C373.973 50.7918 374.273 50.9662 374.662 50.9662C375.142 50.9662 375.561 50.6831 375.918 50.1169V47.1508C375.602 46.7241 375.222 46.5108 374.779 46.5108ZM380.907 49.2369C380.952 49.8236 381.124 50.2585 381.424 50.5415C381.727 50.8246 382.115 50.9662 382.587 50.9662C382.886 50.9662 383.173 50.919 383.448 50.8246C383.723 50.7303 384 50.5908 384.279 50.4062L384.956 51.3354C384.64 51.6021 384.271 51.8113 383.848 51.9631C383.426 52.1108 382.97 52.1846 382.482 52.1846C381.789 52.1846 381.198 52.041 380.71 51.7538C380.226 51.4667 379.858 51.0646 379.608 50.5477C379.362 50.0308 379.239 49.4318 379.239 48.7508C379.239 48.0985 379.36 47.5118 379.602 46.9908C379.848 46.4656 380.201 46.0533 380.66 45.7538C381.124 45.4503 381.67 45.2985 382.297 45.2985C382.888 45.2985 383.403 45.4297 383.842 45.6923C384.281 45.9549 384.619 46.3344 384.857 46.8308C385.095 47.3231 385.214 47.9097 385.214 48.5908C385.214 48.8246 385.204 49.04 385.184 49.2369H380.907ZM382.304 46.4431C381.897 46.4431 381.569 46.5887 381.319 46.88C381.073 47.1672 380.929 47.6062 380.888 48.1969H383.633C383.625 47.6349 383.508 47.2021 383.282 46.8985C383.06 46.5949 382.734 46.4431 382.304 46.4431ZM391.68 45.3046C391.877 45.3046 392.056 45.321 392.216 45.3538C392.38 45.3826 392.542 45.4256 392.702 45.4831L392.413 48.0246H391.329V46.7508C390.915 46.7836 390.552 46.9703 390.24 47.3108C389.933 47.6513 389.688 48.1128 389.508 48.6954V50.8738H390.806V52H386.966V50.8738H387.883V46.6031H386.966V45.4831H389.12L389.422 46.9785C389.664 46.4164 389.965 45.9979 390.326 45.7231C390.691 45.4441 391.143 45.3046 391.68 45.3046ZM395.1 41.9015H398.638V53.4831H395.1V52.2338H397.106V43.1569H395.1V41.9015Z" fill="black"/>
<path d="M319.844 144C319.844 147.251 319.165 150.169 318.092 152.257C317.005 154.37 315.592 155.5 314.172 155.5C312.752 155.5 311.339 154.37 310.252 152.257C309.179 150.169 308.5 147.251 308.5 144C308.5 140.749 309.179 137.831 310.252 135.743C311.339 133.63 312.752 132.5 314.172 132.5C315.592 132.5 317.005 133.63 318.092 135.743C319.165 137.831 319.844 140.749 319.844 144Z" fill="#FF495F" stroke="#FFAFAF"/>
<mask id="path-14-inside-2_22_103" fill="white">
<path d="M314.172 132H383.828V156H314.172V132Z"/>
</mask>
<path d="M314.172 132H383.828V156H314.172V132Z" fill="#FF495F"/>
<path d="M314.172 133H383.828V131H314.172V133ZM383.828 155H314.172V157H383.828V155Z" fill="#FFAFAF" mask="url(#path-14-inside-2_22_103)"/>
<path d="M389.5 144C389.5 147.251 388.821 150.169 387.748 152.257C386.661 154.37 385.248 155.5 383.828 155.5C382.408 155.5 380.995 154.37 379.908 152.257C378.835 150.169 378.156 147.251 378.156 144C378.156 140.749 378.835 137.831 379.908 135.743C380.995 133.63 382.408 132.5 383.828 132.5C385.248 132.5 386.661 133.63 387.748 135.743C388.821 137.831 389.5 140.749 389.5 144Z" fill="white" stroke="#FFAFAF"/>
<path d="M299.71 173.483H296.172V161.902H299.71V163.157H297.704V172.24H299.71V173.483ZM305.21 165.298C305.85 165.298 306.398 165.44 306.853 165.723C307.309 166.002 307.653 166.4 307.887 166.917C308.125 167.43 308.244 168.033 308.244 168.726C308.244 169.432 308.125 170.045 307.887 170.566C307.649 171.083 307.3 171.483 306.841 171.766C306.386 172.045 305.84 172.185 305.204 172.185C304.564 172.185 304.016 172.047 303.561 171.772C303.106 171.497 302.759 171.102 302.521 170.585C302.283 170.068 302.164 169.452 302.164 168.738C302.164 168.057 302.283 167.458 302.521 166.942C302.763 166.421 303.112 166.016 303.567 165.729C304.027 165.442 304.574 165.298 305.21 165.298ZM305.21 166.523C304.751 166.523 304.41 166.704 304.189 167.065C303.967 167.422 303.856 167.979 303.856 168.738C303.856 169.506 303.967 170.068 304.189 170.425C304.41 170.782 304.749 170.96 305.204 170.96C305.659 170.96 305.998 170.782 306.219 170.425C306.441 170.064 306.552 169.497 306.552 168.726C306.552 167.975 306.441 167.422 306.219 167.065C305.998 166.704 305.661 166.523 305.21 166.523ZM314.661 165.305C314.858 165.305 315.036 165.321 315.196 165.354C315.36 165.383 315.522 165.426 315.682 165.483L315.393 168.025H314.31V166.751C313.896 166.784 313.532 166.97 313.221 167.311C312.913 167.651 312.669 168.113 312.488 168.695V170.874H313.787V172H309.947V170.874H310.864V166.603H309.947V165.483H312.101L312.402 166.978C312.644 166.416 312.946 165.998 313.307 165.723C313.672 165.444 314.123 165.305 314.661 165.305ZM321.047 162.708L322.671 162.88V172H321.231L321.133 171.231C320.919 171.53 320.659 171.764 320.351 171.932C320.048 172.101 319.703 172.185 319.317 172.185C318.517 172.185 317.912 171.877 317.502 171.262C317.096 170.646 316.893 169.803 316.893 168.732C316.893 168.068 316.995 167.477 317.2 166.96C317.41 166.439 317.709 166.033 318.099 165.742C318.489 165.446 318.946 165.298 319.471 165.298C320.103 165.298 320.628 165.518 321.047 165.957V162.708ZM319.908 166.511C319.486 166.511 319.159 166.693 318.93 167.058C318.7 167.424 318.585 167.984 318.585 168.738C318.585 169.526 318.688 170.094 318.893 170.443C319.102 170.792 319.401 170.966 319.791 170.966C320.271 170.966 320.69 170.683 321.047 170.117V167.151C320.731 166.724 320.351 166.511 319.908 166.511ZM326.036 169.237C326.081 169.824 326.253 170.258 326.552 170.542C326.856 170.825 327.244 170.966 327.716 170.966C328.015 170.966 328.302 170.919 328.577 170.825C328.852 170.73 329.129 170.591 329.408 170.406L330.085 171.335C329.769 171.602 329.4 171.811 328.977 171.963C328.555 172.111 328.099 172.185 327.611 172.185C326.918 172.185 326.327 172.041 325.839 171.754C325.355 171.467 324.987 171.065 324.737 170.548C324.491 170.031 324.368 169.432 324.368 168.751C324.368 168.098 324.489 167.512 324.731 166.991C324.977 166.466 325.33 166.053 325.789 165.754C326.253 165.45 326.799 165.298 327.426 165.298C328.017 165.298 328.532 165.43 328.971 165.692C329.41 165.955 329.748 166.334 329.986 166.831C330.224 167.323 330.343 167.91 330.343 168.591C330.343 168.825 330.333 169.04 330.312 169.237H326.036ZM327.432 166.443C327.026 166.443 326.698 166.589 326.448 166.88C326.202 167.167 326.058 167.606 326.017 168.197H328.762C328.753 167.635 328.637 167.202 328.411 166.898C328.189 166.595 327.863 166.443 327.432 166.443ZM336.809 165.305C337.006 165.305 337.185 165.321 337.345 165.354C337.509 165.383 337.671 165.426 337.831 165.483L337.541 168.025H336.458V166.751C336.044 166.784 335.681 166.97 335.369 167.311C335.061 167.651 334.817 168.113 334.637 168.695V170.874H335.935V172H332.095V170.874H333.012V166.603H332.095V165.483H334.249L334.551 166.978C334.793 166.416 335.094 165.998 335.455 165.723C335.82 165.444 336.272 165.305 336.809 165.305ZM344.715 169.286H339.521V167.994H344.715V169.286ZM350.079 170.88C350.35 170.88 350.609 170.831 350.855 170.732C351.105 170.634 351.359 170.494 351.618 170.314L352.356 171.354C352.061 171.608 351.708 171.811 351.298 171.963C350.888 172.111 350.459 172.185 350.012 172.185C349.339 172.185 348.756 172.043 348.264 171.76C347.776 171.477 347.4 171.079 347.138 170.566C346.879 170.053 346.75 169.458 346.75 168.782C346.75 168.109 346.881 167.51 347.144 166.985C347.411 166.455 347.792 166.043 348.289 165.748C348.785 165.448 349.368 165.298 350.036 165.298C350.5 165.298 350.92 165.364 351.298 165.495C351.679 165.627 352.03 165.826 352.35 166.092L351.63 167.089C351.126 166.745 350.611 166.572 350.086 166.572C349.581 166.572 349.183 166.753 348.892 167.114C348.604 167.475 348.461 168.031 348.461 168.782C348.461 169.516 348.604 170.049 348.892 170.382C349.183 170.714 349.579 170.88 350.079 170.88ZM358.958 165.305C359.154 165.305 359.333 165.321 359.493 165.354C359.657 165.383 359.819 165.426 359.979 165.483L359.69 168.025H358.607V166.751C358.192 166.784 357.829 166.97 357.518 167.311C357.21 167.651 356.966 168.113 356.785 168.695V170.874H358.084V172H354.244V170.874H355.161V166.603H354.244V165.483H356.398L356.699 166.978C356.941 166.416 357.243 165.998 357.604 165.723C357.969 165.444 358.42 165.305 358.958 165.305ZM362.95 169.237C362.995 169.824 363.167 170.258 363.467 170.542C363.77 170.825 364.158 170.966 364.63 170.966C364.929 170.966 365.216 170.919 365.491 170.825C365.766 170.73 366.043 170.591 366.322 170.406L366.999 171.335C366.683 171.602 366.314 171.811 365.891 171.963C365.469 172.111 365.013 172.185 364.525 172.185C363.832 172.185 363.241 172.041 362.753 171.754C362.269 171.467 361.901 171.065 361.651 170.548C361.405 170.031 361.282 169.432 361.282 168.751C361.282 168.098 361.403 167.512 361.645 166.991C361.891 166.466 362.244 166.053 362.703 165.754C363.167 165.45 363.713 165.298 364.34 165.298C364.931 165.298 365.446 165.43 365.885 165.692C366.324 165.955 366.662 166.334 366.9 166.831C367.138 167.323 367.257 167.91 367.257 168.591C367.257 168.825 367.247 169.04 367.227 169.237H362.95ZM364.347 166.443C363.94 166.443 363.612 166.589 363.362 166.88C363.116 167.167 362.972 167.606 362.931 168.197H365.676C365.668 167.635 365.551 167.202 365.325 166.898C365.103 166.595 364.777 166.443 364.347 166.443ZM374.148 170.283C374.148 170.525 374.183 170.706 374.252 170.825C374.326 170.939 374.447 171.026 374.615 171.083L374.265 172.172C373.904 172.135 373.602 172.047 373.36 171.908C373.122 171.764 372.94 171.559 372.812 171.292C372.574 171.584 372.269 171.805 371.895 171.957C371.522 172.109 371.124 172.185 370.702 172.185C370.267 172.185 369.885 172.101 369.557 171.932C369.229 171.76 368.977 171.52 368.8 171.212C368.624 170.905 368.535 170.55 368.535 170.148C368.535 169.688 368.657 169.296 368.899 168.972C369.141 168.648 369.495 168.402 369.963 168.234C370.431 168.066 370.997 167.982 371.662 167.982H372.572V167.631C372.572 167.253 372.455 166.976 372.222 166.8C371.988 166.619 371.643 166.529 371.188 166.529C370.966 166.529 370.698 166.56 370.382 166.622C370.066 166.679 369.75 166.761 369.434 166.868L369.046 165.754C369.444 165.606 369.852 165.493 370.271 165.415C370.693 165.337 371.085 165.298 371.446 165.298C372.345 165.298 373.02 165.491 373.471 165.877C373.922 166.258 374.148 166.808 374.148 167.526V170.283ZM371.231 171.009C371.485 171.009 371.735 170.939 371.982 170.8C372.232 170.656 372.429 170.462 372.572 170.215V168.948H371.932C371.342 168.948 370.909 169.042 370.634 169.231C370.359 169.415 370.222 169.69 370.222 170.055C370.222 170.363 370.308 170.599 370.48 170.763C370.652 170.927 370.903 171.009 371.231 171.009ZM381.955 171.637C381.701 171.805 381.399 171.938 381.051 172.037C380.706 172.135 380.341 172.185 379.955 172.185C379.434 172.185 378.993 172.092 378.632 171.908C378.275 171.723 378.007 171.463 377.826 171.126C377.645 170.786 377.555 170.384 377.555 169.92V166.634H376.14V165.483H377.555V164.049L379.18 163.852V165.483H381.334L381.168 166.634H379.18V169.914C379.18 170.254 379.262 170.503 379.426 170.658C379.59 170.81 379.855 170.886 380.22 170.886C380.638 170.886 381.03 170.788 381.395 170.591L381.955 171.637ZM385.098 169.237C385.143 169.824 385.315 170.258 385.615 170.542C385.919 170.825 386.306 170.966 386.778 170.966C387.078 170.966 387.365 170.919 387.64 170.825C387.914 170.73 388.191 170.591 388.47 170.406L389.147 171.335C388.831 171.602 388.462 171.811 388.04 171.963C387.617 172.111 387.162 172.185 386.673 172.185C385.98 172.185 385.389 172.041 384.901 171.754C384.417 171.467 384.05 171.065 383.8 170.548C383.553 170.031 383.43 169.432 383.43 168.751C383.43 168.098 383.551 167.512 383.793 166.991C384.04 166.466 384.392 166.053 384.852 165.754C385.315 165.45 385.861 165.298 386.489 165.298C387.08 165.298 387.594 165.43 388.033 165.692C388.472 165.955 388.811 166.334 389.049 166.831C389.287 167.323 389.406 167.91 389.406 168.591C389.406 168.825 389.395 169.04 389.375 169.237H385.098ZM386.495 166.443C386.089 166.443 385.761 166.589 385.51 166.88C385.264 167.167 385.121 167.606 385.08 168.197H387.824C387.816 167.635 387.699 167.202 387.473 166.898C387.252 166.595 386.926 166.443 386.495 166.443ZM394.875 162.708L396.499 162.88V172H395.059L394.961 171.231C394.748 171.53 394.487 171.764 394.179 171.932C393.876 172.101 393.531 172.185 393.145 172.185C392.345 172.185 391.74 171.877 391.33 171.262C390.924 170.646 390.721 169.803 390.721 168.732C390.721 168.068 390.823 167.477 391.029 166.96C391.238 166.439 391.537 166.033 391.927 165.742C392.317 165.446 392.774 165.298 393.299 165.298C393.931 165.298 394.456 165.518 394.875 165.957V162.708ZM393.736 166.511C393.314 166.511 392.988 166.693 392.758 167.058C392.528 167.424 392.413 167.984 392.413 168.738C392.413 169.526 392.516 170.094 392.721 170.443C392.93 170.792 393.23 170.966 393.619 170.966C394.099 170.966 394.518 170.683 394.875 170.117V167.151C394.559 166.724 394.179 166.511 393.736 166.511ZM399.291 161.902H402.83V173.483H399.291V172.234H401.298V163.157H399.291V161.902Z" fill="black"/>
<rect x="545" y="6" width="138" height="36" rx="4" fill="#F3F3F3"/>
<rect x="545.5" y="6.5" width="137" height="35" rx="3.5" stroke="#7343DA" stroke-opacity="0.24"/>
<path d="M587.015 23.7415C587.015 24.6359 586.888 25.4174 586.633 26.0862C586.383 26.7508 586.01 27.2677 585.513 27.6369C585.017 28.0021 584.414 28.1846 583.704 28.1846C582.99 28.1846 582.385 28.0062 581.889 27.6492C581.396 27.2882 581.023 26.7754 580.769 26.1108C580.518 25.4462 580.393 24.6585 580.393 23.7477C580.393 22.8574 580.518 22.0779 580.769 21.4092C581.023 20.7405 581.398 20.2236 581.895 19.8585C582.391 19.4892 582.994 19.3046 583.704 19.3046C584.418 19.3046 585.021 19.4851 585.513 19.8462C586.01 20.2031 586.383 20.7159 586.633 21.3846C586.888 22.0492 587.015 22.8349 587.015 23.7415ZM585.279 23.7415C585.279 23.0113 585.226 22.4144 585.119 21.9508C585.013 21.4872 584.842 21.1426 584.609 20.9169C584.379 20.6872 584.077 20.5723 583.704 20.5723C583.331 20.5723 583.027 20.6872 582.793 20.9169C582.564 21.1467 582.395 21.4954 582.289 21.9631C582.182 22.4267 582.129 23.0215 582.129 23.7477C582.129 24.8308 582.254 25.6287 582.504 26.1415C582.758 26.6544 583.158 26.9108 583.704 26.9108C584.081 26.9108 584.385 26.7959 584.615 26.5662C584.849 26.3364 585.017 25.9897 585.119 25.5262C585.226 25.0626 585.279 24.4677 585.279 23.7415ZM594.201 22.0062C594.201 22.5969 594.032 23.0892 593.696 23.4831C593.364 23.8728 592.921 24.16 592.367 24.3446L594.699 28H592.767L590.755 24.6092H589.979V28H588.299V19.4892H590.804C593.068 19.4892 594.201 20.3282 594.201 22.0062ZM592.453 22.0062C592.453 21.5549 592.32 21.2267 592.053 21.0215C591.79 20.8123 591.388 20.7077 590.847 20.7077H589.979V23.4154H590.902C591.415 23.4154 591.801 23.3026 592.059 23.0769C592.322 22.8513 592.453 22.4944 592.453 22.0062ZM601.756 23.7046C601.756 25.3005 601.378 26.4164 600.623 27.0523C599.873 27.6841 598.909 28 597.731 28H595.553V19.4892H597.583C598.383 19.4892 599.087 19.6041 599.694 19.8338C600.306 20.0636 600.802 20.4903 601.183 21.1138C601.565 21.7333 601.756 22.5969 601.756 23.7046ZM599.996 23.7046C599.996 22.9087 599.899 22.2933 599.707 21.8585C599.518 21.4236 599.268 21.1303 598.956 20.9785C598.648 20.8226 598.285 20.7446 597.867 20.7446H597.239V26.7508H597.873C598.525 26.7508 599.042 26.5272 599.423 26.08C599.805 25.6287 599.996 24.8369 599.996 23.7046ZM608.579 20.7323H605.132V23.0646H608.148V24.2892H605.132V26.7631H608.794V28H603.446V19.4892H608.751L608.579 20.7323ZM616.349 22.0062C616.349 22.5969 616.181 23.0892 615.845 23.4831C615.512 23.8728 615.069 24.16 614.515 24.3446L616.848 28H614.915L612.903 24.6092H612.128V28H610.448V19.4892H612.952C615.217 19.4892 616.349 20.3282 616.349 22.0062ZM614.601 22.0062C614.601 21.5549 614.468 21.2267 614.201 21.0215C613.939 20.8123 613.537 20.7077 612.995 20.7077H612.128V23.4154H613.051C613.563 23.4154 613.949 23.3026 614.208 23.0769C614.47 22.8513 614.601 22.4944 614.601 22.0062ZM631.164 25.5569C631.164 26.0738 631.031 26.5313 630.764 26.9292C630.497 27.3231 630.112 27.6308 629.607 27.8523C629.107 28.0738 628.512 28.1846 627.822 28.1846C626.473 28.1846 625.396 27.7928 624.592 27.0092L625.478 26.0185C626.13 26.6051 626.903 26.8985 627.798 26.8985C628.27 26.8985 628.655 26.7918 628.955 26.5785C629.258 26.361 629.41 26.0574 629.41 25.6677C629.41 25.4297 629.361 25.2328 629.262 25.0769C629.164 24.9169 628.996 24.7754 628.758 24.6523C628.524 24.5251 628.19 24.3959 627.755 24.2646C627.111 24.0677 626.588 23.8544 626.186 23.6246C625.788 23.3908 625.49 23.1159 625.293 22.8C625.1 22.4841 625.004 22.1087 625.004 21.6738C625.004 21.1979 625.137 20.7815 625.404 20.4246C625.671 20.0636 626.036 19.7867 626.499 19.5938C626.963 19.401 627.482 19.3046 628.056 19.3046C628.672 19.3046 629.219 19.3949 629.699 19.5754C630.183 19.7518 630.614 20.0123 630.992 20.3569L630.149 21.3108C629.861 21.0646 629.55 20.8821 629.213 20.7631C628.877 20.64 628.53 20.5785 628.173 20.5785C627.747 20.5785 627.402 20.6646 627.139 20.8369C626.877 21.0051 626.746 21.2472 626.746 21.5631C626.746 21.7682 626.801 21.9405 626.912 22.08C627.027 22.2195 627.215 22.3487 627.478 22.4677C627.74 22.5867 628.124 22.7241 628.629 22.88C629.178 23.0482 629.636 23.239 630.001 23.4523C630.366 23.6656 630.651 23.9426 630.856 24.2831C631.061 24.6236 631.164 25.0482 631.164 25.5569ZM638.11 20.7323H634.664V23.0646H637.679V24.2892H634.664V26.7631H638.325V28H632.978V19.4892H638.282L638.11 20.7323ZM645.88 22.0062C645.88 22.5969 645.712 23.0892 645.376 23.4831C645.043 23.8728 644.6 24.16 644.047 24.3446L646.379 28H644.447L642.434 24.6092H641.659V28H639.979V19.4892H642.483C644.748 19.4892 645.88 20.3282 645.88 22.0062ZM644.133 22.0062C644.133 21.5549 643.999 21.2267 643.733 21.0215C643.47 20.8123 643.068 20.7077 642.527 20.7077H641.659V23.4154H642.582C643.095 23.4154 643.48 23.3026 643.739 23.0769C644.001 22.8513 644.133 22.4944 644.133 22.0062ZM648.352 19.4892L650.18 26.5538L652.026 19.4892H653.749L651.152 28H649.146L646.562 19.4892H648.352ZM654.886 19.4892H660.178V20.7508H658.375V26.7385H660.178V28H654.886V26.7385H656.689V20.7508H654.886V19.4892ZM665.629 19.3046C666.195 19.3046 666.683 19.3785 667.093 19.5262C667.508 19.6738 667.9 19.8974 668.269 20.1969L667.413 21.2123C666.905 20.7938 666.33 20.5846 665.69 20.5846C665.276 20.5846 664.905 20.6933 664.577 20.9108C664.252 21.1282 663.994 21.4708 663.801 21.9385C663.608 22.4062 663.512 23.0031 663.512 23.7292C663.512 24.7918 663.709 25.5795 664.103 26.0923C664.501 26.601 665.034 26.8554 665.703 26.8554C666.101 26.8554 666.443 26.7897 666.73 26.6585C667.018 26.5272 667.305 26.3446 667.592 26.1108L668.386 27.1138C667.664 27.8277 666.745 28.1846 665.629 28.1846C664.874 28.1846 664.205 28.0144 663.623 27.6738C663.044 27.3292 662.591 26.8226 662.263 26.1538C661.934 25.481 661.77 24.6728 661.77 23.7292C661.77 22.8062 661.939 22.0123 662.275 21.3477C662.615 20.679 663.077 20.1723 663.66 19.8277C664.246 19.479 664.903 19.3046 665.629 19.3046ZM675.024 20.7323H671.578V23.0646H674.593V24.2892H671.578V26.7631H675.239V28H669.892V19.4892H675.196L675.024 20.7323Z" fill="black"/>
<path d="M555.17 19.44L564 24.55L572.77 19.47M564 33.61V24.54" stroke="#3F3F3F" stroke-width="1.5" stroke-linecap="round" stroke-linejoin="round"/>
<path d="M561.93 14.48L556.59 17.44C555.38 18.11 554.39 19.79 554.39 21.17V26.82C554.39 28.2 555.38 29.88 556.59 30.55L561.93 33.52C563.07 34.15 564.94 34.15 566.08 33.52L571.42 30.55C572.63 29.88 573.62 28.2 573.62 26.82V21.17C573.62 19.79 572.63 18.11 571.42 17.44L566.08 14.47C564.93 13.84 563.07 13.84 561.93 14.48Z" stroke="#3F3F3F" stroke-width="1.5" stroke-linecap="round" stroke-linejoin="round"/>
<rect y="126" width="152" height="36" rx="4" fill="#F3F3F3"/>
<rect x="0.5" y="126.5" width="151" height="35" rx="3.5" stroke="#7343DA" stroke-opacity="0.24"/>
<rect y="126" width="160" height="36" rx="4" fill="#F3F3F3"/>
<rect x="0.5" y="126.5" width="159" height="35" rx="3.5" stroke="#7343DA" stroke-opacity="0.24"/>
<path d="M43.1381 142.203C43.1381 143.159 42.8386 143.873 42.2397 144.345C41.6407 144.816 40.8243 145.052 39.7904 145.052H38.812V148H37.1258V139.489H39.6304C40.7545 139.489 41.6202 139.717 42.2274 140.172C42.8345 140.624 43.1381 141.301 43.1381 142.203ZM41.3904 142.215C41.3904 141.218 40.8243 140.72 39.692 140.72H38.812V143.803H39.7412C40.8407 143.803 41.3904 143.274 41.3904 142.215ZM49.1117 148L48.5825 146.049H45.7825L45.2533 148H43.5117L46.1763 139.489H48.244L50.9025 148H49.1117ZM47.1794 140.751L46.084 144.788H48.2686L47.1794 140.751ZM58.2422 139.489L55.4299 144.775V148H53.7438V144.788L50.9315 139.489H52.7776L54.6176 143.366L56.4761 139.489H58.2422ZM64.9112 139.489L65.3912 148H63.8897L63.7297 144.08C63.7132 143.686 63.705 143.28 63.705 142.862C63.705 142.209 63.7276 141.571 63.7727 140.948L62.6466 146.523H61.2804L60.0743 140.948C60.1276 141.633 60.1543 142.357 60.1543 143.12C60.1543 143.543 60.1502 143.867 60.142 144.092L60.025 148H58.5481L59.0281 139.489H60.8989L61.9943 145.108L63.0404 139.489H64.9112ZM72.0786 140.732H68.6325V143.065H71.6478V144.289H68.6325V146.763H72.294V148H66.9463V139.489H72.2509L72.0786 140.732ZM75.0307 140.929C75.1989 142.209 75.283 143.372 75.283 144.418V148H73.8184V139.489H75.9599L78.4399 146.548C78.2717 145.403 78.1876 144.254 78.1876 143.102V139.489H79.6522V148H77.5353L75.0307 140.929ZM87.3304 140.812H84.9427V148H83.2627V140.812H80.7766V139.489H87.5027L87.3304 140.812ZM102.047 145.557C102.047 146.074 101.913 146.531 101.647 146.929C101.38 147.323 100.994 147.631 100.49 147.852C99.9894 148.074 99.3945 148.185 98.7053 148.185C97.3555 148.185 96.2786 147.793 95.4745 147.009L96.3606 146.018C97.0129 146.605 97.7863 146.898 98.6806 146.898C99.1524 146.898 99.5381 146.792 99.8376 146.578C100.141 146.361 100.293 146.057 100.293 145.668C100.293 145.43 100.244 145.233 100.145 145.077C100.047 144.917 99.8786 144.775 99.6406 144.652C99.4068 144.525 99.0724 144.396 98.6376 144.265C97.9935 144.068 97.4704 143.854 97.0683 143.625C96.6704 143.391 96.3729 143.116 96.176 142.8C95.9832 142.484 95.8868 142.109 95.8868 141.674C95.8868 141.198 96.0201 140.782 96.2868 140.425C96.5535 140.064 96.9186 139.787 97.3822 139.594C97.8458 139.401 98.3647 139.305 98.9391 139.305C99.5545 139.305 100.102 139.395 100.582 139.575C101.066 139.752 101.497 140.012 101.874 140.357L101.031 141.311C100.744 141.065 100.432 140.882 100.096 140.763C99.7596 140.64 99.4129 140.578 99.056 140.578C98.6294 140.578 98.2847 140.665 98.0222 140.837C97.7596 141.005 97.6283 141.247 97.6283 141.563C97.6283 141.768 97.6837 141.941 97.7945 142.08C97.9094 142.219 98.0981 142.349 98.3606 142.468C98.6232 142.587 99.0068 142.724 99.5114 142.88C100.061 143.048 100.519 143.239 100.884 143.452C101.249 143.666 101.534 143.943 101.739 144.283C101.944 144.624 102.047 145.048 102.047 145.557ZM108.993 140.732H105.547V143.065H108.562V144.289H105.547V146.763H109.208V148H103.86V139.489H109.165L108.993 140.732ZM116.763 142.006C116.763 142.597 116.595 143.089 116.259 143.483C115.926 143.873 115.483 144.16 114.929 144.345L117.262 148H115.329L113.317 144.609H112.542V148H110.862V139.489H113.366C115.631 139.489 116.763 140.328 116.763 142.006ZM115.015 142.006C115.015 141.555 114.882 141.227 114.615 141.022C114.353 140.812 113.951 140.708 113.409 140.708H112.542V143.415H113.465C113.978 143.415 114.363 143.303 114.622 143.077C114.884 142.851 115.015 142.494 115.015 142.006ZM119.235 139.489L121.063 146.554L122.909 139.489H124.632L122.035 148H120.029L117.444 139.489H119.235ZM125.769 139.489H131.061V140.751H129.258V146.738H131.061V148H125.769V146.738H127.572V140.751H125.769V139.489ZM136.512 139.305C137.078 139.305 137.566 139.378 137.976 139.526C138.391 139.674 138.782 139.897 139.152 140.197L138.296 141.212C137.788 140.794 137.213 140.585 136.573 140.585C136.159 140.585 135.788 140.693 135.459 140.911C135.135 141.128 134.877 141.471 134.684 141.938C134.491 142.406 134.395 143.003 134.395 143.729C134.395 144.792 134.592 145.579 134.985 146.092C135.383 146.601 135.917 146.855 136.585 146.855C136.983 146.855 137.326 146.79 137.613 146.658C137.9 146.527 138.188 146.345 138.475 146.111L139.269 147.114C138.546 147.828 137.628 148.185 136.512 148.185C135.757 148.185 135.088 148.014 134.505 147.674C133.927 147.329 133.474 146.823 133.145 146.154C132.817 145.481 132.653 144.673 132.653 143.729C132.653 142.806 132.821 142.012 133.158 141.348C133.498 140.679 133.96 140.172 134.542 139.828C135.129 139.479 135.785 139.305 136.512 139.305ZM145.907 140.732H142.461V143.065H145.476V144.289H142.461V146.763H146.122V148H140.774V139.489H146.079L145.907 140.732Z" fill="black"/>
<path d="M10.17 139.44L19 144.55L27.77 139.47M19 153.61V144.54" stroke="#3F3F3F" stroke-width="1.5" stroke-linecap="round" stroke-linejoin="round"/>
<path d="M16.93 134.48L11.59 137.44C10.38 138.11 9.39001 139.79 9.39001 141.17V146.82C9.39001 148.2 10.38 149.88 11.59 150.55L16.93 153.52C18.07 154.15 19.94 154.15 21.08 153.52L26.42 150.55C27.63 149.88 28.62 148.2 28.62 146.82V141.17C28.62 139.79 27.63 138.11 26.42 137.44L21.08 134.47C19.93 133.84 18.07 133.84 16.93 134.48Z" stroke="#3F3F3F" stroke-width="1.5" stroke-linecap="round" stroke-linejoin="round"/>
<rect y="195" width="152" height="36" rx="4" fill="#474747"/>
<rect x="0.5" y="195.5" width="151" height="35" rx="3.5" stroke="black" stroke-opacity="0.24"/>
<rect y="195" width="160" height="36" rx="4" fill="#474747"/>
<rect x="0.5" y="195.5" width="159" height="35" rx="3.5" stroke="black" stroke-opacity="0.24"/>
<path d="M41.2929 214.557C41.2929 215.074 41.1596 215.531 40.8929 215.929C40.6262 216.323 40.2406 216.631 39.736 216.852C39.2354 217.074 38.6406 217.185 37.9513 217.185C36.6016 217.185 35.5247 216.793 34.7206 216.009L35.6067 215.018C36.259 215.605 37.0324 215.898 37.9267 215.898C38.3985 215.898 38.7842 215.792 39.0837 215.578C39.3872 215.361 39.539 215.057 39.539 214.668C39.539 214.43 39.4898 214.233 39.3913 214.077C39.2929 213.917 39.1247 213.775 38.8867 213.652C38.6529 213.525 38.3185 213.396 37.8837 213.265C37.2396 213.068 36.7165 212.854 36.3144 212.625C35.9165 212.391 35.619 212.116 35.4221 211.8C35.2293 211.484 35.1329 211.109 35.1329 210.674C35.1329 210.198 35.2662 209.782 35.5329 209.425C35.7996 209.064 36.1647 208.787 36.6283 208.594C37.0919 208.401 37.6108 208.305 38.1852 208.305C38.8006 208.305 39.3483 208.395 39.8283 208.575C40.3124 208.752 40.7431 209.012 41.1206 209.357L40.2775 210.311C39.9903 210.065 39.6785 209.882 39.3421 209.763C39.0057 209.64 38.659 209.578 38.3021 209.578C37.8754 209.578 37.5308 209.665 37.2683 209.837C37.0057 210.005 36.8744 210.247 36.8744 210.563C36.8744 210.768 36.9298 210.941 37.0406 211.08C37.1554 211.219 37.3442 211.349 37.6067 211.468C37.8693 211.587 38.2529 211.724 38.7575 211.88C39.3072 212.048 39.7647 212.239 40.1298 212.452C40.4949 212.666 40.7801 212.943 40.9852 213.283C41.1903 213.624 41.2929 214.048 41.2929 214.557ZM48.4295 217H46.7434V213.258H44.2819V217H42.5957V208.489H44.2819V211.874H46.7434V208.489H48.4295V217ZM50.2493 208.489H55.5416V209.751H53.7385V215.738H55.5416V217H50.2493V215.738H52.0524V209.751H50.2493V208.489ZM63.5952 211.203C63.5952 212.159 63.2957 212.873 62.6967 213.345C62.0977 213.816 61.2813 214.052 60.2475 214.052H59.269V217H57.5829V208.489H60.0875C61.2116 208.489 62.0772 208.717 62.6844 209.172C63.2916 209.624 63.5952 210.301 63.5952 211.203ZM61.8475 211.215C61.8475 210.218 61.2813 209.72 60.149 209.72H59.269V212.803H60.1982C61.2977 212.803 61.8475 212.274 61.8475 211.215ZM70.978 211.203C70.978 212.159 70.6785 212.873 70.0795 213.345C69.4805 213.816 68.6641 214.052 67.6303 214.052H66.6518V217H64.9657V208.489H67.4703C68.5944 208.489 69.46 208.717 70.0672 209.172C70.6744 209.624 70.978 210.301 70.978 211.203ZM69.2303 211.215C69.2303 210.218 68.6641 209.72 67.5318 209.72H66.6518V212.803H67.5811C68.6805 212.803 69.2303 212.274 69.2303 211.215ZM72.3977 208.489H77.69V209.751H75.8869V215.738H77.69V217H72.3977V215.738H74.2008V209.751H72.3977V208.489ZM80.7221 209.929C80.8903 211.209 80.9744 212.372 80.9744 213.418V217H79.5098V208.489H81.6513L84.1313 215.548C83.9631 214.403 83.879 213.254 83.879 212.102V208.489H85.3436V217H83.2267L80.7221 209.929ZM90.0741 217.185C89.311 217.185 88.6628 217.016 88.1295 216.68C87.5962 216.344 87.19 215.843 86.911 215.178C86.6321 214.514 86.4926 213.697 86.4926 212.729C86.4926 211.794 86.6628 210.994 87.0033 210.329C87.3439 209.661 87.8033 209.156 88.3818 208.815C88.9603 208.475 89.6023 208.305 90.308 208.305C90.8782 208.305 91.3664 208.391 91.7726 208.563C92.1828 208.731 92.5664 208.982 92.9233 209.314L92.0064 210.255C91.7439 210.022 91.4833 209.849 91.2249 209.738C90.9705 209.628 90.6874 209.572 90.3756 209.572C89.9654 209.572 89.6003 209.681 89.2803 209.898C88.9644 210.112 88.7121 210.454 88.5233 210.926C88.3387 211.398 88.2464 212.003 88.2464 212.742C88.2464 213.505 88.3141 214.12 88.4495 214.588C88.5849 215.051 88.79 215.388 89.0649 215.597C89.3398 215.806 89.6905 215.911 90.1172 215.911C90.5685 215.911 90.9869 215.808 91.3726 215.603V213.431H90.0926L89.9203 212.2H92.9787V216.366C92.5398 216.629 92.0844 216.832 91.6126 216.975C91.1449 217.115 90.6321 217.185 90.0741 217.185ZM107.738 214.557C107.738 215.074 107.605 215.531 107.338 215.929C107.072 216.323 106.686 216.631 106.181 216.852C105.681 217.074 105.086 217.185 104.397 217.185C103.047 217.185 101.97 216.793 101.166 216.009L102.052 215.018C102.704 215.605 103.478 215.898 104.372 215.898C104.844 215.898 105.229 215.792 105.529 215.578C105.833 215.361 105.984 215.057 105.984 214.668C105.984 214.43 105.935 214.233 105.837 214.077C105.738 213.917 105.57 213.775 105.332 213.652C105.098 213.525 104.764 213.396 104.329 213.265C103.685 213.068 103.162 212.854 102.76 212.625C102.362 212.391 102.064 212.116 101.867 211.8C101.675 211.484 101.578 211.109 101.578 210.674C101.578 210.198 101.712 209.782 101.978 209.425C102.245 209.064 102.61 208.787 103.074 208.594C103.537 208.401 104.056 208.305 104.631 208.305C105.246 208.305 105.794 208.395 106.274 208.575C106.758 208.752 107.188 209.012 107.566 209.357L106.723 210.311C106.436 210.065 106.124 209.882 105.787 209.763C105.451 209.64 105.104 209.578 104.747 209.578C104.321 209.578 103.976 209.665 103.714 209.837C103.451 210.005 103.32 210.247 103.32 210.563C103.32 210.768 103.375 210.941 103.486 211.08C103.601 211.219 103.789 211.349 104.052 211.468C104.315 211.587 104.698 211.724 105.203 211.88C105.753 212.048 106.21 212.239 106.575 212.452C106.94 212.666 107.225 212.943 107.431 213.283C107.636 213.624 107.738 214.048 107.738 214.557ZM114.684 209.732H111.238V212.065H114.253V213.289H111.238V215.763H114.899V217H109.552V208.489H114.856L114.684 209.732ZM122.455 211.006C122.455 211.597 122.286 212.089 121.95 212.483C121.618 212.873 121.175 213.16 120.621 213.345L122.953 217H121.021L119.008 213.609H118.233V217H116.553V208.489H119.058C121.322 208.489 122.455 209.328 122.455 211.006ZM120.707 211.006C120.707 210.555 120.574 210.227 120.307 210.022C120.044 209.812 119.642 209.708 119.101 209.708H118.233V212.415H119.156C119.669 212.415 120.055 212.303 120.313 212.077C120.576 211.851 120.707 211.494 120.707 211.006ZM124.927 208.489L126.754 215.554L128.6 208.489H130.324L127.727 217H125.72L123.136 208.489H124.927ZM131.46 208.489H136.753V209.751H134.949V215.738H136.753V217H131.46V215.738H133.263V209.751H131.46V208.489ZM142.203 208.305C142.769 208.305 143.257 208.378 143.668 208.526C144.082 208.674 144.474 208.897 144.843 209.197L143.988 210.212C143.479 209.794 142.905 209.585 142.265 209.585C141.85 209.585 141.479 209.693 141.151 209.911C140.827 210.128 140.568 210.471 140.375 210.938C140.183 211.406 140.086 212.003 140.086 212.729C140.086 213.792 140.283 214.579 140.677 215.092C141.075 215.601 141.608 215.855 142.277 215.855C142.675 215.855 143.017 215.79 143.305 215.658C143.592 215.527 143.879 215.345 144.166 215.111L144.96 216.114C144.238 216.828 143.319 217.185 142.203 217.185C141.448 217.185 140.779 217.014 140.197 216.674C139.618 216.329 139.165 215.823 138.837 215.154C138.509 214.481 138.345 213.673 138.345 212.729C138.345 211.806 138.513 211.012 138.849 210.348C139.19 209.679 139.651 209.172 140.234 208.828C140.82 208.479 141.477 208.305 142.203 208.305ZM151.598 209.732H148.152V212.065H151.167V213.289H148.152V215.763H151.814V217H146.466V208.489H151.77L151.598 209.732Z" fill="white"/>
<path d="M405 144L420 152.66V135.34L405 144ZM619 144V145.5H620.5V144H619ZM418.5 145.5H619V142.5H418.5V145.5ZM620.5 144V42H617.5V144H620.5Z" fill="#545454"/>
<path d="M170 213L185 221.66V204.34L170 213ZM349 213V214.5H350.5V213H349ZM183.5 214.5H349V211.5H183.5V214.5ZM350.5 213V191H347.5V213H350.5Z" fill="#545454"/>
<path d="M19 209.13V213.96M17.75 203.45C18.45 202.86 19.58 202.86 20.26 203.45L21.84 204.8C22.14 205.05 22.71 205.26 23.11 205.26H24.81C25.87 205.26 26.74 206.13 26.74 207.19V208.89C26.74 209.29 26.95 209.85 27.2 210.15L28.55 211.73C29.14 212.43 29.14 213.56 28.55 214.24L27.2 215.82C26.95 216.12 26.74 216.68 26.74 217.08V218.78C26.74 219.84 25.87 220.71 24.81 220.71H23.11C22.71 220.71 22.15 220.92 21.85 221.17L20.27 222.52C19.57 223.11 18.44 223.11 17.76 222.52L16.18 221.17C15.88 220.92 15.31 220.71 14.92 220.71H13.17C12.11 220.71 11.24 219.84 11.24 218.78V217.07C11.24 216.68 11.04 216.11 10.79 215.82L9.44 214.23C8.86 213.54 8.86 212.42 9.44 211.73L10.79 210.14C11.04 209.84 11.24 209.28 11.24 208.89V207.2C11.24 206.14 12.11 205.27 13.17 205.27H14.9C15.3 205.27 15.86 205.06 16.16 204.81L17.75 203.45Z" stroke="white" stroke-width="1.5" stroke-linecap="round" stroke-linejoin="round"/>
<path d="M18.995 217H19.004" stroke="white" stroke-width="2" stroke-linecap="round" stroke-linejoin="round"/>
</svg>
