<svg version="1.1" xmlns="http://www.w3.org/2000/svg" viewBox="0 0 634.4693335171792 540.2812958774915" width="1268.9386670343583" height="1080.562591754983" filter="invert(93%) hue-rotate(180deg)">
  <!-- svg-source:excalidraw -->
  
  <defs>
    <style class="style-fonts">
      @font-face {
        font-family: "Virgil";
        src: url("https://excalidraw.com/Virgil.woff2");
      }
      @font-face {
        font-family: "Cascadia";
        src: url("https://excalidraw.com/Cascadia.woff2");
      }
    </style>
  </defs>
  <rect x="0" y="0" width="634.4693335171792" height="540.2812958774915" fill="#ffffff"></rect><g stroke-opacity="0.2" fill-opacity="0.2" stroke-linecap="round" transform="translate(10 10) rotate(0 307.2346667585896 260.14064793874576)"><path d="M-0.59 0.09 C142.47 -2.9, 285.53 -2.78, 614.23 0.4 M613.7 -0.22 C615.03 208.19, 614.34 414.85, 614.97 520.49 M614.72 520.92 C397.15 519.72, 180.3 520.75, 0.22 520.45 M0.15 520.07 C0.6 344.45, -0.55 168.98, 0.08 -0.58" stroke="#000000" stroke-width="1.5" fill="none" stroke-dasharray="8 9"></path></g><g stroke-linecap="round" transform="translate(485.96079020117986 117.00467207717213) rotate(0 46.92544770835718 46.02303525242718)"><path d="M0.76 1.53 L93.07 0.54 L93.35 92.75 L-1.99 93.42" stroke="none" stroke-width="0" fill="#eeeeee"></path><path d="M0.58 0.51 C22.85 0.17, 42.12 2.11, 93.15 -1.11 M-0.07 0.56 C31.4 -0.45, 61.61 1.17, 93 0.92 M94.32 -1.18 C92.99 21.63, 91.42 45.52, 93.3 93.96 M93.06 0.78 C93.18 37.04, 92.29 72.43, 93.99 91.44 M92.74 92.94 C71.55 92.64, 48.17 90.43, -0.6 90.4 M94.15 92.56 C63.59 93.66, 33.24 93.5, -0.73 92.97 M-1.51 92.57 C-0.39 70.09, -0.53 45.41, -1.11 1.26 M-0.38 92.42 C1.16 60.36, 0.86 30.37, -0.92 0.13" stroke="#000000" stroke-width="1" fill="none"></path></g><g transform="translate(501.2337022711165 143.53665843490705) rotate(0 30.5 17.5)"><text x="30.5" y="14.5" font-family="Cascadia, Segoe UI Emoji" font-size="14.53640502362555px" fill="#000000" text-anchor="middle" style="white-space: pre;" direction="ltr">ORDER</text><text x="30.5" y="32" font-family="Cascadia, Segoe UI Emoji" font-size="14.53640502362555px" fill="#000000" text-anchor="middle" style="white-space: pre;" direction="ltr">SERVICE</text></g><g stroke-linecap="round" transform="translate(476.2545585649782 194.77755874213392) rotate(0 15.075640493638616 22.876446739244784)"><path d="M-0.78 0.54 L29.65 0.7 L28.16 47.13 L-0.71 44.95" stroke="none" stroke-width="0" fill="#fff"></path><path d="M1.04 -0.77 C4.56 1.1, 11.4 -1.19, 30.71 0.2 M0.64 -0.65 C8.5 0.8, 15.97 0.75, 29.68 -0.95 M30.16 -1.64 C28.71 15.61, 29.71 35.16, 32.12 43.96 M30.31 0.36 C29.05 11.72, 29.93 24.71, 29.67 46.17 M31.45 47.18 C25.32 45.11, 16.84 44.24, 0.51 47.05 M30.42 46.71 C19.43 46.7, 7.09 46.83, -0.41 45.78 M-0.36 47.68 C-0.16 35.34, -0.77 23.94, 0.81 -1.61 M0.42 45.4 C0.29 29.15, -0.74 10.68, 0.38 0.76" stroke="#000000" stroke-width="2" fill="none"></path></g><g stroke-linecap="round" transform="translate(473.03484515298123 191.78280867019896) rotate(0 15.075640493638616 22.876446739244784)"><path d="M0.54 -0.5 L30.85 -1.99 L31.53 45.04 L-0.8 45.46" stroke="none" stroke-width="0" fill="#fff"></path><path d="M-0.77 -1.49 C11.1 -0.86, 18.74 0.4, 30.35 -0.42 M-0.65 0.09 C9.81 -1.04, 18.59 -0.67, 29.2 0.63 M28.51 -1.55 C28.87 14.24, 31.8 31.55, 28.36 45.29 M30.51 -0.74 C29.57 10.26, 29.9 19.75, 30.57 44.86 M31.58 47.27 C22 45.35, 13.77 46.46, 1.3 47.16 M31.1 46.2 C21 45.11, 11.19 45.43, 0.03 45.27 M1.93 45.25 C1.01 34.36, 1.14 26, -1.61 1.69 M-0.35 45.87 C0.82 32.86, -0.04 22.19, 0.76 -0.39" stroke="#000000" stroke-width="2" fill="none"></path></g><g stroke-linecap="round" transform="translate(469.0269268532106 188.2617157994522) rotate(0 15.075640493638616 22.876446739244784)"><path d="M-0.5 0.7 L28.16 1.38 L29.44 44.95 L-0.3 45.15" stroke="none" stroke-width="0" fill="#fff"></path><path d="M-1.49 1.17 C9.11 -0.99, 20.18 0.31, 29.73 -0.14 M0.09 0.97 C9.88 1.11, 21 -0.76, 30.78 0.23 M28.6 -1.02 C29.61 12.94, 32.13 20.26, 29.69 44.18 M29.41 -0.94 C30.36 16.71, 29.74 35.05, 29.26 45.2 M31.67 44.98 C19.17 44.32, 9.88 47.27, 1.41 46.35 M30.6 46.54 C18.84 46.96, 8.57 46.07, -0.48 45 M-0.51 46.88 C-1.03 32.09, 0.89 14.29, 1.69 -0.77 M0.11 46.75 C-1.11 30.43, 0.19 15.6, -0.39 0.27" stroke="#000000" stroke-width="2" fill="none"></path></g><g stroke-linecap="round"><g transform="translate(474.1403022566328 209.057148124121) rotate(0 9.653512709532151 -0.2482186594914424)"><path d="M-0.9 0.7 C1.8 0.68, 13.31 -0.28, 16.82 -0.6 C20.34 -0.92, 19.74 -1.07, 20.2 -1.2 M0.83 0.03 C3.28 0.19, 12.52 0.56, 15.65 0.59 C18.78 0.61, 18.93 0.33, 19.61 0.18" stroke="#000000" stroke-width="1" fill="none"></path></g></g><mask></mask><g stroke-linecap="round"><g transform="translate(474.9317475712328 195.63414628375733) rotate(0 9.586328715187165 -1.0514843323566083)"><path d="M0.7 -0.42 C1.87 -0.42, 3.37 -0.87, 6.51 -0.86 C9.66 -0.86, 17.42 -0.63, 19.56 -0.39 M-0.38 -1.69 C1.21 -1.98, 5.67 -3.23, 8.88 -2.81 C12.08 -2.4, 17.07 0.6, 18.85 0.79" stroke="#000000" stroke-width="1" fill="none"></path></g></g><mask></mask><g stroke-linecap="round"><g transform="translate(474.8990704359685 224.38439417660095) rotate(0 10.734574776155341 0.0773761841318219)"><path d="M-0.42 -0.67 C1.66 -0.78, 8.9 -0.25, 11.6 0.01 C14.3 0.27, 14.18 0.92, 15.8 0.9 C17.41 0.89, 20.62 0.2, 21.29 -0.07 M1.56 1.6 C3.59 1.64, 8.6 1.51, 10.83 1.61 C13.05 1.71, 13.05 2.82, 14.9 2.18 C16.74 1.54, 20.77 -1.81, 21.89 -2.22" stroke="#000000" stroke-width="1" fill="none"></path></g></g><mask></mask><g stroke-linecap="round"><g transform="translate(473.540764987441 229.18068922843042) rotate(0 11.32748181926479 -0.8998273218436452)"><path d="M-0.67 0.33 C-0.04 0.28, 3.21 -0.75, 4.45 -0.75 C5.7 -0.75, 4.12 0.27, 6.8 0.31 C9.47 0.35, 17.75 -0.49, 20.5 -0.52 C23.26 -0.54, 23.04 0.08, 23.32 0.18 M1.18 -0.54 C1.6 -0.37, 2.77 0.84, 3.57 0.65 C4.37 0.46, 3.06 -1.6, 5.99 -1.68 C8.92 -1.76, 18.5 0.31, 21.16 0.18 C23.81 0.05, 21.59 -2.39, 21.91 -2.47" stroke="#000000" stroke-width="1" fill="none"></path></g></g><mask></mask><g stroke-linecap="round"><g transform="translate(473.6622781544779 202.05895596200446) rotate(0 9.869894352214715 0.3541908891142498)"><path d="M0.33 0.12 C1.65 0.17, 4.12 -0.58, 7.51 -0.34 C10.9 -0.09, 18.74 1.37, 20.69 1.57 M-0.95 -0.87 C0.23 -0.56, 2.89 1.07, 6.43 1.16 C9.97 1.24, 18.17 -0.52, 20.28 -0.36" stroke="#000000" stroke-width="1" fill="none"></path></g></g><mask></mask><g stroke-linecap="round"><g transform="translate(473.7081323124594 216.7694458016132) rotate(0 9.578592572290631 0.25217885748526214)"><path d="M0.12 -0.25 C0.79 -0.09, 1.97 1.41, 3.37 1.28 C4.77 1.15, 5.74 -1.14, 8.53 -1.03 C11.33 -0.91, 18.39 1.48, 20.13 1.97 M-1.28 -1.43 C-0.71 -1.65, 0.8 -0.71, 2.38 -0.49 C3.95 -0.27, 5.16 -0.21, 8.17 -0.12 C11.18 -0.03, 18.36 0.13, 20.44 0.02" stroke="#000000" stroke-width="1" fill="none"></path></g></g><mask></mask><g stroke-linecap="round"><g transform="translate(290.9476776683932 76.15131564745116) rotate(89.99999999999994 16.112410836634353 41.23885986989677)" fill-rule="evenodd"><path d="M1.21 -2.93 C1.21 -2.93, 1.21 -2.93, 1.21 -2.93 M1.21 -2.93 C1.21 -2.93, 1.21 -2.93, 1.21 -2.93 M2.63 1.24 C3.95 0.91, 5.74 -1.1, 8.86 -5.52 M2.31 1.81 C4.31 0.27, 5.88 -2.03, 8.73 -5.72 M2.7 6.57 C6.37 3.66, 10.29 1.68, 13.91 -7.18 M1.68 8.27 C5.37 6.04, 7.56 2.59, 15.06 -7.68 M1.95 13.2 C8.71 7.49, 12.1 3.1, 20.15 -5.68 M2.54 14.8 C6.87 9.87, 10.09 4.28, 18.77 -5.24 M2.55 20.96 C7.3 13.58, 14.02 4.55, 22.82 -6.5 M1.14 20.77 C9.86 11.74, 18.23 2.37, 23.26 -5.4 M4.33 25.85 C11.86 15.75, 22.3 4.76, 29.39 -3.69 M2.3 25.47 C11.09 16.23, 19 8.72, 29.22 -3.16 M3.49 30.83 C14.07 21.89, 20.11 9.73, 33.68 -1.68 M2 31.74 C13.37 19.55, 24.17 8.28, 31.92 -2.22 M3.36 39.19 C15.75 23.03, 25.45 13.15, 36.75 0.1 M3.29 38.74 C12.73 25.55, 22.11 14.94, 36.14 0.83 M0.8 46.08 C14.6 31.06, 25.61 16.5, 36.56 8.27 M2.78 43.76 C10.21 36.99, 17.02 28.09, 35.11 6.83 M0.91 51.81 C10.44 42.29, 16.45 34.59, 35.36 14.82 M2.59 50.98 C15.22 37.09, 25.43 22.6, 33.95 13.75 M3.42 57.45 C13.98 43.38, 27.55 25.11, 33.4 18.13 M2.87 57.27 C10.28 45.77, 19.63 35.89, 34.58 19.03 M1.49 62.13 C8.16 53.49, 14.65 45.77, 33.82 26.89 M3.7 62.93 C11.74 51.86, 21.06 41.41, 34.79 25.86 M3.97 70.55 C13.49 52.63, 28.65 41.5, 36.8 30.27 M3.61 69.52 C11.14 59.41, 19.32 49.74, 35.48 30.69 M1.63 75.16 C10.87 61.88, 20.11 52.2, 33.87 37.37 M2.88 75.37 C13.9 62.61, 23.63 49, 35.2 37.05 M4.7 79.81 C11.39 70.71, 20.42 62.35, 34.06 43.42 M3.27 81.6 C14.76 65.38, 28.68 50.63, 35.42 43.01 M2.49 85.51 C7.67 80.58, 15.07 72.7, 33.53 49.43 M2.79 87.17 C12.8 76.48, 22.22 64.72, 36.29 49.29 M6.81 90.74 C13.54 80.55, 20.56 71.68, 35.12 55.92 M5.3 89.63 C14.54 80.65, 21.98 71.83, 35.42 56.25 M11.11 91.58 C19.16 82.62, 25.85 70.83, 36.51 63.06 M10.76 90.48 C20.16 79.86, 30.94 67.04, 36.12 60.4 M15.17 91.95 C20.95 82.99, 28 74.64, 34.58 68.17 M14.12 91.86 C22.76 83.6, 30.24 74.04, 34.95 67.24 M17.4 93.2 C23.89 86.91, 28.36 79.35, 33.51 73.86 M18.73 91.36 C26.21 86.24, 30.28 79.21, 33.98 73.75 M26.39 88.12 C31.41 86.71, 32.27 83.47, 35.97 80.92 M27.43 88.37 C30.63 85.49, 32.92 82.79, 35.47 79.55" stroke="#40c057" stroke-width="0.5" fill="none"></path><path d="M0.32 -0.47 C0.38 11.86, 0.66 60.02, 0.73 73.81 C0.8 87.6, 0.74 80.34, 0.73 82.26 C0.72 84.18, -0.56 84.2, 0.66 85.31 C1.88 86.42, 5.25 88.25, 8.07 88.91 C10.9 89.56, 14.5 89.2, 17.6 89.24 C20.7 89.27, 24.14 89.97, 26.68 89.12 C29.22 88.28, 31.73 85.53, 32.84 84.18 C33.95 82.83, 33.18 82.63, 33.37 81.03 C33.55 79.43, 34.03 87.19, 33.96 74.6 C33.9 62.02, 33.04 17.81, 32.97 5.51 C32.9 -6.79, 33.89 2.25, 33.53 0.79 C33.16 -0.67, 31.89 -2.19, 30.77 -3.23 C29.65 -4.26, 29.42 -4.66, 26.81 -5.43 C24.2 -6.2, 18.15 -7.71, 15.11 -7.83 C12.06 -7.96, 10.76 -6.85, 8.55 -6.19 C6.35 -5.53, 3.38 -4.71, 1.9 -3.88 C0.42 -3.05, 0.09 -1.9, -0.3 -1.2 C-0.69 -0.51, -0.6 0.21, -0.45 0.31 M-0.98 -1.77 C-1.05 10.76, -0.12 60.97, 0.1 75.16 C0.32 89.36, 0.31 81.61, 0.35 83.4 C0.39 85.2, -0.72 84.98, 0.35 85.93 C1.43 86.87, 3.72 88.18, 6.82 89.08 C9.92 89.97, 15.6 91.49, 18.97 91.3 C22.33 91.12, 24.83 89.29, 27.01 87.97 C29.19 86.65, 31.26 84.22, 32.06 83.36 C32.87 82.5, 31.94 84.39, 31.84 82.8 C31.74 81.22, 31.25 86.62, 31.48 73.84 C31.71 61.06, 33.06 18.28, 33.22 6.12 C33.37 -6.03, 32.8 2.57, 32.42 0.94 C32.05 -0.7, 31.99 -2.64, 30.98 -3.68 C29.97 -4.72, 29.05 -4.51, 26.37 -5.3 C23.7 -6.09, 18.27 -7.9, 14.93 -8.4 C11.58 -8.9, 8.63 -9.11, 6.29 -8.3 C3.95 -7.48, 2.23 -4.64, 0.9 -3.5 C-0.44 -2.36, -1.85 -2.15, -1.74 -1.44 C-1.62 -0.74, 1.07 0.33, 1.59 0.72" stroke="#087f5b" stroke-width="1" fill="none"></path></g></g><mask></mask><g stroke-linecap="round"><g transform="translate(275.379056046766 113.66782022079997) rotate(89.99999999999994 16.396300905229282 4.5319310512870175)"><path d="M-0.47 0.62 C-0.35 1.22, -0.27 3.23, 0.5 3.94 C1.28 4.65, 2.85 4.19, 4.17 4.86 C5.5 5.53, 6.38 7.51, 8.44 7.96 C10.51 8.42, 13.84 7.92, 16.58 7.6 C19.31 7.29, 22.36 6.77, 24.84 6.05 C27.32 5.34, 30.39 4.36, 31.46 3.34 C32.53 2.31, 31.32 0.4, 31.29 -0.09 M1.48 -0.1 C1.43 0.13, -0.92 1.25, -0.63 2.2 C-0.33 3.15, 1.76 4.44, 3.23 5.62 C4.71 6.81, 5.65 8.9, 8.2 9.29 C10.75 9.68, 15.63 8.11, 18.54 7.95 C21.46 7.8, 23.41 9.31, 25.7 8.36 C27.99 7.41, 31.01 3.68, 32.3 2.24 C33.59 0.8, 33.37 0.18, 33.44 -0.29" stroke="#087f5b" stroke-width="1" fill="none"></path></g></g><mask></mask><g stroke-linecap="round"><g transform="translate(304.21278887497056 113.88305240070076) rotate(89.99999999999994 16.049133309666672 2.203255062763617)"><path d="M0.62 -0.35 C0.83 0.11, 1.1 1.55, 1.57 2.24 C2.04 2.94, 2.08 3.24, 3.44 3.81 C4.81 4.37, 7.53 5.41, 9.77 5.62 C12.01 5.84, 14.29 5.1, 16.86 5.11 C19.44 5.12, 22.79 6.32, 25.23 5.7 C27.66 5.08, 30.28 2.55, 31.47 1.39 C32.66 0.23, 32.15 -0.88, 32.38 -1.26 M-0.52 -1.57 C-0.43 -0.9, -0.04 2.57, 1.01 3.61 C2.06 4.64, 4.25 4.15, 5.78 4.63 C7.32 5.12, 8.64 6.45, 10.24 6.51 C11.83 6.56, 12.67 5.22, 15.35 4.95 C18.03 4.67, 23.49 5.14, 26.33 4.85 C29.16 4.57, 31.5 4.39, 32.36 3.23 C33.22 2.07, 31.62 -1.74, 31.5 -2.1" stroke="#087f5b" stroke-width="1" fill="none"></path></g></g><mask></mask><g stroke-linecap="round" transform="translate(333.79487955205195 110.1677725946688) rotate(89.99999999999994 16.274237016333245 7.235175596323074)"><path d="M16.02 0.38 C19.3 0.44, 23.24 0.74, 26.1 1.7 C28.95 2.66, 32.33 4.6, 33.15 6.14 C33.97 7.68, 32.92 9.64, 31.03 10.93 C29.14 12.22, 25.15 13.49, 21.8 13.88 C18.46 14.28, 14.23 13.86, 10.97 13.3 C7.71 12.74, 3.94 11.61, 2.23 10.51 C0.52 9.41, 0.12 8.12, 0.71 6.72 C1.3 5.32, 2.7 3.28, 5.77 2.13 C8.83 0.99, 16.49 0.03, 19.09 -0.15 C21.68 -0.32, 21.53 0.86, 21.35 1.08 M10.69 1.15 C13.28 0.51, 16.52 -0.57, 19.41 -0.1 C22.29 0.36, 25.85 2.69, 28 3.93 C30.15 5.16, 32.35 5.71, 32.31 7.32 C32.27 8.92, 30.01 12.26, 27.78 13.55 C25.54 14.84, 22.28 15.12, 18.9 15.04 C15.52 14.97, 10.76 14.13, 7.48 13.12 C4.19 12.11, 0.02 10.43, -0.82 8.96 C-1.65 7.49, 0.84 5.79, 2.47 4.31 C4.09 2.84, 7.53 0.83, 8.9 0.11 C10.28 -0.61, 10.47 -0.2, 10.7 -0.01" stroke="none" stroke-width="0" fill="#fff"></path><path d="M14.39 -0.28 C17.77 -0.59, 22.03 -0.71, 24.85 0.23 C27.66 1.16, 30.11 3.82, 31.26 5.32 C32.41 6.81, 32.94 7.95, 31.75 9.2 C30.56 10.45, 27.16 12.06, 24.13 12.83 C21.09 13.6, 16.98 14.11, 13.51 13.82 C10.04 13.53, 5.49 12.08, 3.32 11.09 C1.15 10.1, 0.36 9.23, 0.5 7.88 C0.65 6.53, 1.36 4.21, 4.17 2.98 C6.98 1.75, 14.89 0.96, 17.36 0.52 C19.82 0.07, 18.93 0.19, 18.94 0.3 M18.04 -0.42 C21.54 -0.03, 27.09 2.39, 29.38 3.47 C31.66 4.54, 31.8 4.62, 31.77 6.03 C31.75 7.44, 31.59 10.5, 29.22 11.92 C26.84 13.35, 21.19 14.12, 17.54 14.59 C13.88 15.07, 9.9 15.54, 7.3 14.79 C4.69 14.03, 2.95 11.51, 1.9 10.05 C0.85 8.59, -0.22 7.44, 0.99 6.02 C2.21 4.59, 5.87 2.68, 9.19 1.51 C12.5 0.33, 19.15 -0.65, 20.89 -1.04 C22.63 -1.43, 20.17 -1.04, 19.64 -0.84" stroke="#087f5b" stroke-width="1" fill="none"></path></g><g transform="translate(245.32049543082485 145.3604932319256) rotate(0 61.5 10)"><text x="61.5" y="16" font-family="Cascadia, Segoe UI Emoji" font-size="16px" fill="#000000" text-anchor="middle" style="white-space: pre;" direction="ltr">[place-order]</text></g><g stroke-linecap="round"><g transform="translate(368.417337437533 120.65357703812685) rotate(0 52.95764217045496 10.791957367104487)"><path d="M1.39 -0.37 C25.67 5.49, 52.2 10.78, 105.25 22.17 M0.67 -0.59 C36.6 7.08, 72.85 14.12, 103.39 21.13" stroke="#000000" stroke-width="1" fill="none"></path></g><g transform="translate(368.417337437533 120.65357703812685) rotate(0 52.95764217045496 10.791957367104487)"><path d="M101.63 21.26 L88.9 26.34 L92.47 10.91 L104.96 19.42" stroke="none" stroke-width="0" fill="#000000" fill-rule="evenodd"></path><path d="M104.43 20.86 C99.94 22.08, 97.24 23.12, 89.71 25.74 M103.89 20.69 C98.69 21.76, 93.78 22.87, 88.31 24.96 M88.29 23.5 C88.87 21.57, 89.77 17.72, 91.21 11.13 M88.87 24.76 C89.52 20.91, 90.05 15.77, 91.04 12.65 M91.9 10.58 C94.33 13.96, 99.88 18.73, 103.52 22.36 M91.99 12.03 C94.71 13.9, 97.78 17.39, 104.05 20.77 M103.39 21.13 C103.39 21.13, 103.39 21.13, 103.39 21.13 M103.39 21.13 C103.39 21.13, 103.39 21.13, 103.39 21.13" stroke="#000000" stroke-width="1" fill="none"></path></g></g><mask></mask><g stroke-linecap="round"><g transform="translate(289.783272569008 231.53744875040968) rotate(89.99999999999994 16.764805224745942 41.34708017719163)" fill-rule="evenodd"><path d="M1.21 -2.93 C1.21 -2.93, 1.21 -2.93, 1.21 -2.93 M1.21 -2.93 C1.21 -2.93, 1.21 -2.93, 1.21 -2.93 M2.6 1.63 C5.1 0.63, 7.05 -1.71, 8.01 -4.66 M2.39 1.99 C4 0.08, 5.2 -1.45, 8.67 -5.6 M3.36 8.07 C5.78 5.97, 11.44 -0.23, 15.01 -8.59 M2.24 8.46 C5.13 4.37, 8.03 1.57, 15.38 -6.42 M3.1 15.9 C7.63 6.91, 15.05 -1.45, 18.55 -4.09 M2.21 13.7 C6.28 9.38, 9.88 4.17, 18.05 -4.77 M1.89 18.51 C7.2 12.55, 11.1 8.34, 22 -3.42 M1.31 21.2 C9.33 11.96, 16.93 4.84, 24.7 -4.17 M1.81 27.47 C7.62 19.5, 14.93 10.5, 27 -4.8 M3.19 25.23 C12.45 14.57, 21.08 4.62, 29.43 -4.83 M3.51 31.77 C10.94 22.68, 18.73 12.67, 32.63 -1.24 M2.82 31.6 C11.68 22.37, 21.24 11.33, 31.61 -1.19 M2.87 39.38 C11.79 26.19, 22.32 18.23, 34.12 -0.98 M2.49 37.33 C13.62 25.75, 23.21 14.59, 34.99 0.71 M3.2 44.82 C15.89 29.12, 27.94 13.48, 34.47 5.64 M2.36 45.45 C14.88 30.45, 28.35 15.6, 34.59 6.6 M3.92 50.68 C13.82 41.02, 23.21 26.34, 33.65 13.63 M2.48 50.62 C14.63 36.18, 25.94 22.72, 34.27 12.52 M0.77 55.26 C10.38 43.69, 23.78 32.97, 36.2 20.51 M3.32 55.94 C9 48.78, 16.28 40.84, 35.7 18.16 M2.45 62.06 C12.77 49.04, 24.9 37.37, 34 26.37 M3.82 62.62 C13.68 50.48, 22.48 39.89, 35.42 26.09 M2.87 67.38 C11.9 57.26, 24.98 45.56, 34.3 32.1 M1.92 68.7 C12.85 55.21, 22.72 43.82, 36.28 30.13 M1.12 74.63 C14.49 62.48, 28.73 46.72, 35.9 39.06 M1.89 75.55 C12.86 63.76, 22.15 52.31, 35.9 38.17 M1 82.11 C12.31 71.76, 17.14 62.72, 33.16 43.29 M2.21 80.79 C15.22 66.16, 28.14 52.07, 34.1 44.58 M4.42 88.89 C11.4 76.24, 18.4 68.78, 35.54 47.4 M2.32 86.3 C10.43 78.94, 16.78 70.68, 34.66 49.17 M4.79 87.26 C15.63 79.36, 24.65 69.46, 36.99 54.35 M6.35 87.89 C16.62 76.18, 27.04 65.24, 34.18 55.23 M7.93 90.95 C18.48 78.39, 27.13 70.14, 34.01 59.76 M9.36 91.61 C16.93 82.84, 24.15 74.73, 36.45 60.92 M14.73 93.56 C21.06 86.74, 25.48 81.11, 35.86 69.49 M14.36 91.38 C19.49 86.1, 25.83 78.95, 35.94 67.02 M19.25 94.17 C24.52 84.8, 29.39 80.91, 34.55 75.92 M19.74 92.74 C24.3 87.26, 28.52 81.65, 34.22 74.4 M26.29 87.81 C28.82 85.74, 31.62 83.02, 34.74 79.78 M28.04 88.21 C28.76 86.14, 30.49 84.41, 34.99 79.91" stroke="#40c057" stroke-width="0.5" fill="none"></path><path d="M-0.71 -1.02 C-0.71 11.48, -1.21 59.85, -0.92 73.92 C-0.63 87.98, 0.52 81.4, 1.02 83.36 C1.52 85.33, 0.86 84.63, 2.07 85.7 C3.29 86.77, 5.57 89.1, 8.3 89.8 C11.03 90.5, 15.37 90.04, 18.45 89.91 C21.53 89.78, 24.63 89.87, 26.78 89.01 C28.92 88.15, 30.35 85.81, 31.33 84.76 C32.31 83.7, 32.17 84.2, 32.65 82.68 C33.14 81.16, 34.18 88.45, 34.24 75.64 C34.3 62.82, 33.24 18.34, 33.03 5.78 C32.81 -6.78, 33.25 1.84, 32.94 0.26 C32.62 -1.31, 32.09 -2.65, 31.14 -3.69 C30.18 -4.74, 29.71 -5.45, 27.22 -5.98 C24.72 -6.51, 19.32 -6.62, 16.18 -6.88 C13.04 -7.15, 10.99 -8.28, 8.39 -7.56 C5.8 -6.83, 1.91 -3.73, 0.6 -2.54 C-0.72 -1.34, 0.69 -0.9, 0.49 -0.42 C0.29 0.07, -0.34 0.15, -0.59 0.35 M1.12 1.05 C1.57 13.83, 1.31 61.94, 1.25 75.33 C1.2 88.73, 0.57 79.56, 0.78 81.42 C0.99 83.29, 1.45 85.02, 2.51 86.52 C3.58 88.02, 4.82 90.08, 7.17 90.44 C9.51 90.8, 13.27 89.11, 16.6 88.67 C19.93 88.23, 24.36 88.54, 27.16 87.8 C29.96 87.06, 32.21 85.27, 33.42 84.25 C34.63 83.22, 34.66 83.13, 34.41 81.66 C34.16 80.19, 32.08 87.94, 31.9 75.42 C31.71 62.89, 33.36 19.08, 33.3 6.53 C33.24 -6.01, 31.82 1.96, 31.53 0.14 C31.24 -1.69, 32.3 -3.35, 31.54 -4.39 C30.79 -5.44, 29.49 -5.71, 26.99 -6.14 C24.49 -6.56, 19.44 -6.85, 16.56 -6.95 C13.68 -7.05, 12.03 -7.64, 9.7 -6.72 C7.37 -5.81, 4.27 -2.53, 2.57 -1.45 C0.86 -0.37, -0.33 -0.62, -0.53 -0.24 C-0.72 0.13, 1.46 0.85, 1.38 0.8" stroke="#087f5b" stroke-width="1" fill="none"></path></g></g><mask></mask><g stroke-linecap="round"><g transform="translate(274.21465094738073 269.0539533237585) rotate(89.99999999999994 15.617546315628033 3.937593783198963)"><path d="M-1.02 -1.03 C-0.74 -0.21, -0.44 3.01, 0.61 4.22 C1.66 5.44, 3.91 5.61, 5.28 6.27 C6.65 6.93, 6.8 7.83, 8.83 8.19 C10.86 8.55, 14.69 8.79, 17.47 8.45 C20.25 8.11, 23.2 7.26, 25.52 6.15 C27.83 5.05, 30.29 2.99, 31.35 1.83 C32.41 0.67, 31.61 -0.62, 31.87 -0.81 M0.64 1.05 C0.84 1.61, -1.17 2.12, -0.46 2.63 C0.25 3.15, 3.37 3.56, 4.91 4.12 C6.46 4.68, 6.9 5.12, 8.79 5.97 C10.68 6.83, 13.26 9.43, 16.25 9.24 C19.24 9.06, 24.08 5.79, 26.73 4.85 C29.38 3.91, 31.47 4.64, 32.13 3.6 C32.78 2.56, 30.76 -0.75, 30.67 -1.38" stroke="#087f5b" stroke-width="1" fill="none"></path></g></g><mask></mask><g stroke-linecap="round"><g transform="translate(303.04838377558485 269.2691855036593) rotate(89.99999999999994 15.317376339327097 3.237349304990971)"><path d="M-1.03 -0.23 C-0.6 0.49, 0.88 2.61, 1.86 3.35 C2.84 4.08, 3.5 3.67, 4.86 4.19 C6.21 4.72, 7.85 6.25, 9.99 6.52 C12.14 6.78, 15.16 5.94, 17.71 5.79 C20.27 5.63, 23.28 6.22, 25.32 5.59 C27.37 4.95, 28.91 2.84, 29.97 1.97 C31.02 1.11, 31.13 0.7, 31.66 0.39 M0.63 -1.4 C1.05 -0.92, 0.83 0.52, 1.44 1.63 C2.05 2.73, 2.76 4.19, 4.28 5.23 C5.81 6.27, 8.52 7.75, 10.58 7.87 C12.64 8, 13.99 6.51, 16.64 5.98 C19.29 5.45, 24.24 4.99, 26.47 4.68 C28.71 4.37, 29.41 4.83, 30.06 4.12 C30.72 3.41, 30.08 1.27, 30.41 0.42" stroke="#087f5b" stroke-width="1" fill="none"></path></g></g><mask></mask><g stroke-linecap="round" transform="translate(332.63047445266625 265.55390569762733) rotate(89.99999999999994 16.274237016333245 7.235175596323074)"><path d="M21.02 0.7 C24.2 1.25, 27.71 2.9, 29.75 4.32 C31.78 5.73, 33.55 7.95, 33.24 9.2 C32.93 10.45, 30.45 11.04, 27.88 11.8 C25.3 12.57, 21.33 13.49, 17.76 13.81 C14.2 14.12, 9.34 14.52, 6.48 13.69 C3.62 12.85, 1.31 10.47, 0.62 8.8 C-0.06 7.14, 0.8 5.02, 2.36 3.7 C3.92 2.38, 6.53 1.38, 9.97 0.88 C13.4 0.37, 20.47 0.76, 22.95 0.67 C25.43 0.59, 25.01 0.14, 24.84 0.37 M16.28 0.21 C19.58 -0.47, 23.31 -0.89, 25.74 -0.02 C28.18 0.86, 30.21 3.66, 30.87 5.46 C31.53 7.26, 31.02 9.32, 29.72 10.77 C28.41 12.23, 26.24 13.57, 23.07 14.21 C19.89 14.84, 14.1 14.99, 10.67 14.57 C7.23 14.15, 4.12 12.82, 2.44 11.69 C0.75 10.55, 0.22 9.63, 0.55 7.78 C0.89 5.92, 1.92 1.61, 4.44 0.55 C6.95 -0.5, 14.01 1.51, 15.65 1.44 C17.29 1.38, 14.35 0.43, 14.27 0.18" stroke="none" stroke-width="0" fill="#fff"></path><path d="M21.94 0.76 C25.21 1.16, 29.1 1.84, 30.77 3.13 C32.44 4.42, 32.72 6.96, 31.96 8.5 C31.2 10.04, 28.82 11.28, 26.22 12.37 C23.62 13.46, 19.57 14.89, 16.37 15.04 C13.18 15.19, 9.73 14.4, 7.05 13.28 C4.36 12.16, 1.11 9.83, 0.26 8.33 C-0.58 6.82, 0.24 5.53, 1.96 4.26 C3.68 2.99, 6.68 1.25, 10.56 0.71 C14.44 0.18, 22.5 0.7, 25.25 1.05 C28.01 1.39, 27.29 2.79, 27.1 2.77 M10.32 -0.31 C13.31 -1.2, 18.85 -1.62, 22.36 -0.76 C25.88 0.1, 29.85 3.5, 31.4 4.87 C32.95 6.24, 32.2 5.89, 31.65 7.45 C31.11 9, 30.82 12.93, 28.13 14.18 C25.44 15.42, 19.38 15.14, 15.53 14.93 C11.68 14.72, 7.54 14.01, 5.02 12.92 C2.49 11.84, 0.76 9.89, 0.38 8.4 C0 6.91, 0.83 5.55, 2.74 3.98 C4.65 2.41, 10.56 -0.4, 11.85 -1.02 C13.14 -1.64, 10.65 -0.18, 10.46 0.26" stroke="#087f5b" stroke-width="1" fill="none"></path></g><g transform="translate(234.6560903314396 300.74662633488435) rotate(0 71 10)"><text x="71" y="16" font-family="Cascadia, Segoe UI Emoji" font-size="16px" fill="#000000" text-anchor="middle" style="white-space: pre;" direction="ltr">[order-created]</text></g><g stroke-linecap="round"><g transform="translate(453.6124124130463 223.15370259869644) rotate(0 -45.923106747244674 27.813989856571652)"><path d="M-1.04 0.13 C-29.94 18.69, -61.35 34.67, -91.66 54.82 M-0.1 0.1 C-35.31 21.16, -69.67 42.62, -91.75 55.53" stroke="#000000" stroke-width="1" fill="none"></path></g><g transform="translate(453.6124124130463 223.15370259869644) rotate(0 -45.923106747244674 27.813989856571652)"><path d="M-90.81 56.65 L-83.38 41.35 L-78.67 53.77 L-91.96 54.34" stroke="none" stroke-width="0" fill="#000000" fill-rule="evenodd"></path><path d="M-92.53 55.63 C-88.7 51.59, -86.99 45.92, -83.65 42.97 M-91.82 55.6 C-89.18 50.42, -85.9 46.22, -83.72 43.5 M-83.04 43.95 C-80.79 45.63, -80.51 47.73, -75.81 53.44 M-83.53 43.25 C-81.7 46.63, -78.93 49.33, -77.16 53.81 M-76.66 54.13 C-81.15 53.34, -88.42 55.57, -91.25 56.95 M-77.19 53.24 C-81.36 55.11, -86.73 55.47, -92.16 55.86 M-91.75 55.53 C-91.75 55.53, -91.75 55.53, -91.75 55.53 M-91.75 55.53 C-91.75 55.53, -91.75 55.53, -91.75 55.53" stroke="#000000" stroke-width="1" fill="none"></path></g></g><mask></mask><g stroke-linecap="round" transform="translate(92.73136528176656 84.49366896205129) rotate(0 20.79956829072114 31.562189109162375)"><path d="M0.31 0.56 L40.73 -1.33 L39.69 61.9 L-0.15 62.85" stroke="none" stroke-width="0" fill="#fff"></path><path d="M-0.26 -1.75 C11.66 0.04, 22.43 1.28, 40.75 -0.71 M-0.89 -0.63 C15.83 0.25, 31.61 0.29, 41.43 -0.39 M41.21 -1.17 C41.17 14.47, 39.9 24.27, 42.93 63.48 M40.61 0.54 C42.1 13.73, 41.04 26.45, 42.51 63.82 M41.78 61.17 C30.43 63.6, 18.81 62.44, 1.5 64.31 M41.32 63.88 C28.05 62.69, 15.65 63.77, -0.89 62.97 M0.85 63.39 C-0.45 47.75, 0.24 34.97, -0.51 1.87 M0.52 63.57 C-0.05 48.28, 0.08 35.01, -0.38 -0.78" stroke="#000000" stroke-width="2" fill="none"></path></g><g stroke-linecap="round" transform="translate(88.28918924170762 80.36187047155681) rotate(0 20.79956829072114 31.562189109162375)"><path d="M0.56 -0.87 L40.27 -1.91 L40.38 62.97 L-0.27 61.79" stroke="none" stroke-width="0" fill="#fff"></path><path d="M-1.75 -0.41 C11.59 -1.64, 24.71 -0.8, 40.89 1.37 M-0.63 0.5 C10.06 1.32, 19.51 0.2, 41.21 -0.97 M40.43 -0.2 C43.63 15.17, 40.61 34.6, 41.95 61.34 M42.13 0.42 C41.83 19.12, 41.24 40.44, 42.3 63.03 M39.65 64.03 C32.64 64.53, 21.85 64.66, 1.18 63.44 M42.36 62.71 C24.97 63.32, 10.18 62.12, -0.16 62.26 M0.27 62.2 C-1.35 48.7, -0.64 34.22, 1.87 -1.59 M0.44 63.24 C-0.93 42.83, -0.28 21.69, -0.78 0.15" stroke="#000000" stroke-width="2" fill="none"></path></g><g stroke-linecap="round" transform="translate(82.75954223169265 75.50388704763748) rotate(0 20.79956829072114 31.562189109162375)"><path d="M-0.87 -1.33 L39.69 -1.22 L41.45 62.85 L-1.33 61.98" stroke="none" stroke-width="0" fill="#fff"></path><path d="M-0.41 -0.29 C7.45 1.31, 17.44 -0.34, 42.97 -1.47 M0.5 0.63 C17.24 0.93, 32.43 -0.13, 40.63 -0.36 M41.4 1.65 C40.01 21.37, 42.8 45.83, 39.82 63.39 M42.02 0.41 C40.33 16.96, 41.89 34.98, 41.5 62.44 M42.51 63.8 C32.46 62.23, 22.08 63.9, 0.31 64.75 M41.18 62.36 C26.15 63.76, 9.19 63.28, -0.86 62.37 M-0.93 61.23 C-0.5 48.45, -0.78 38.01, -1.59 0.5 M0.11 62.2 C-0.1 43.8, -0.71 24.24, 0.15 0.28" stroke="#000000" stroke-width="2" fill="none"></path></g><g stroke-linecap="round"><g transform="translate(89.81436693014916 104.194941000173) rotate(0 13.330966399724957 -0.7534236399486076)"><path d="M-0.24 -0.18 C3.58 0.11, 18.25 1.01, 22.77 0.66 C27.3 0.32, 25.99 -1.68, 26.91 -2.24 M1.83 -1.31 C6.03 -1.29, 20.94 -1.19, 24.95 -1.16 C28.96 -1.14, 25.21 -1, 25.87 -1.15" stroke="#000000" stroke-width="1" fill="none"></path></g></g><mask></mask><g stroke-linecap="round"><g transform="translate(90.90630865404091 85.67548615094586) rotate(0 12.333813464741525 -0.5715225333731837)"><path d="M-0.18 -1.02 C1.74 -1.34, 6.05 -2.43, 10.47 -2.16 C14.9 -1.89, 23.82 0.12, 26.39 0.63 M-1.73 1.06 C0.18 0.92, 5.3 -0.5, 9.82 -0.89 C14.35 -1.28, 22.76 -1.25, 25.41 -1.28" stroke="#000000" stroke-width="1" fill="none"></path></g></g><mask></mask><g stroke-linecap="round"><g transform="translate(90.86122464538721 125.34164459208773) rotate(0 14.266143248383287 -0.3868539699665803)"><path d="M-1.02 0.57 C1.53 0.5, 11.04 -0.56, 15.04 -0.57 C19.03 -0.59, 20.55 0.76, 22.96 0.48 C25.38 0.21, 28.76 -2.05, 29.55 -2.23 M0.65 -0.18 C3.01 -0.06, 10.16 0.49, 13.82 0.74 C17.48 0.99, 20.48 1.74, 22.63 1.34 C24.78 0.93, 25.57 -1.49, 26.72 -1.68" stroke="#000000" stroke-width="1" fill="none"></path></g></g><mask></mask><g stroke-linecap="round"><g transform="translate(88.98719700800552 131.9589996898742) rotate(0 16.011420753661355 -0.6061611205100235)"><path d="M0.57 -0.51 C1.52 -0.32, 4.22 -0.05, 5.56 0.14 C6.9 0.32, 5.18 0.7, 8.61 0.61 C12.05 0.52, 22.16 -0.2, 26.16 -0.4 C30.16 -0.6, 31.45 -0.57, 32.62 -0.59 M-0.59 -1.82 C0.18 -1.88, 2.45 -1.67, 4.39 -1.55 C6.33 -1.44, 7.47 -1.47, 11.04 -1.16 C14.62 -0.85, 22.44 0.08, 25.84 0.31 C29.24 0.53, 30.51 0.45, 31.46 0.2" stroke="#000000" stroke-width="1" fill="none"></path></g></g><mask></mask><g stroke-linecap="round"><g transform="translate(89.15484636373776 94.53967123906705) rotate(0 14.106061813631868 -0.45914134677252605)"><path d="M-0.51 -0.42 C1.58 -0.72, 6.66 -1.31, 11.53 -1.23 C16.4 -1.15, 26.17 -0.45, 28.72 0.04 M1.42 -1.69 C3.52 -1.92, 6.5 -0.57, 11.02 -0.16 C15.53 0.26, 25.92 0.86, 28.53 0.79" stroke="#000000" stroke-width="1" fill="none"></path></g></g><mask></mask><g stroke-linecap="round"><g transform="translate(89.21811045462323 114.83544826678349) rotate(0 14.174615623071645 0.4479854671097314)"><path d="M-0.42 0.82 C0.13 1.23, 2.2 2.26, 3.88 1.94 C5.56 1.62, 5.58 -1.1, 9.64 -1.11 C13.69 -1.12, 25.03 1.37, 28.22 1.87 M1.55 0.21 C2.43 0.35, 4.39 0.46, 6.13 0.4 C7.87 0.33, 8.2 -0.07, 11.97 -0.19 C15.74 -0.3, 26.12 -0.77, 28.77 -0.29" stroke="#000000" stroke-width="1" fill="none"></path></g></g><mask></mask><g stroke-linecap="round"><g transform="translate(142.05784241765286 117.34634585556978) rotate(0 53.65363255300804 1.4715133343349862)"><path d="M0.41 0.84 C33.26 1.67, 72.24 0.11, 107.3 2.56 M0.01 0.38 C43.3 1.51, 84.77 2.59, 106.97 1.83" stroke="#000000" stroke-width="1" fill="none"></path></g><g transform="translate(142.05784241765286 117.34634585556978) rotate(0 53.65363255300804 1.4715133343349862)"><path d="M108.49 3.05 L95.2 9.12 L92.16 -2.53 L108.95 -0.09" stroke="none" stroke-width="0" fill="#000000" fill-rule="evenodd"></path><path d="M107.28 2.46 C101.07 4.62, 99.4 5.28, 94.12 9.27 M106.97 2.12 C102.17 4.33, 96.03 7.34, 93.87 8.72 M92.28 8.66 C93.72 4.01, 93.66 0.89, 93.44 -4.31 M93.8 8.09 C93.18 4.84, 93.94 0.65, 93.85 -4.54 M93.23 -4.22 C98.06 -3.87, 100.48 -1.48, 106.82 3.02 M92.58 -4.72 C97.27 -2.69, 103.05 0.48, 106.34 1.17 M106.97 1.83 C106.97 1.83, 106.97 1.83, 106.97 1.83 M106.97 1.83 C106.97 1.83, 106.97 1.83, 106.97 1.83" stroke="#000000" stroke-width="1" fill="none"></path></g></g><mask></mask><g stroke-linecap="round"><g transform="translate(309.38559660572946 333.6000725659593) rotate(0 -0.5442078787513083 48.758890078664194)"><path d="M-0.09 -0.71 C1.63 32.47, 0.13 67.35, -0.77 98.23 M-0.91 0.64 C0.12 21.36, -0.64 42.64, -1.79 97.36" stroke="#000000" stroke-width="1" fill="none"></path></g><g transform="translate(309.38559660572946 333.6000725659593) rotate(0 -0.5442078787513083 48.758890078664194)"><path d="M-0.97 96.25 L-7.72 83.26 L6.33 84.36 L-3.26 98.78" stroke="none" stroke-width="0" fill="#000000" fill-rule="evenodd"></path><path d="M-1.85 96.83 C-3.02 91.15, -5.93 86.78, -7.45 83.82 M-2.47 97.84 C-2.55 94.23, -4.24 91.04, -8.21 83.17 M-8.16 83.38 C-4.84 84.47, 0.75 83.43, 3.81 83.21 M-8.1 84.04 C-3.45 84.03, 2.35 83.21, 5.2 84.13 M5.72 85.33 C3.25 89.44, -0.42 92.37, -1.8 95.97 M4.15 83.3 C1.8 88.72, -0.3 94.59, -2.27 96.89 M-1.79 97.36 C-1.79 97.36, -1.79 97.36, -1.79 97.36 M-1.79 97.36 C-1.79 97.36, -1.79 97.36, -1.79 97.36" stroke="#000000" stroke-width="1" fill="none"></path></g></g><mask></mask><g transform="translate(186.4577633519457 441.16790013305797) rotate(0 129 8)"><text x="129" y="13" font-family="Cascadia, Segoe UI Emoji" font-size="13.689300334693757px" fill="#000000" text-anchor="middle" style="white-space: pre;" direction="ltr">no one is subscribed, disappears</text></g></svg>