<svg width="687" height="269" viewBox="0 0 687 269" fill="none" xmlns="http://www.w3.org/2000/svg">
<path d="M376 144L391 152.66V135.34L376 144ZM590 144V145.5H591.5V144H590ZM389.5 145.5H590V142.5H389.5V145.5ZM591.5 144V42H588.5V144H591.5Z" fill="#545454"/>
<path d="M98 144V142.5H96.5V144H98ZM98 219L106.66 204H89.3397L98 219ZM270 142.5H98V145.5H270V142.5ZM96.5 144V205.5H99.5V144H96.5Z" fill="#545454"/>
<path d="M270.393 24.0211L255.393 15.3609L255.393 32.6814L270.393 24.0211ZM141 25.5208L256.893 25.5211L256.893 22.5211L141 22.5208L141 25.5208Z" fill="#464646"/>
<rect x="492" y="6" width="195" height="36" rx="4" fill="#F3F3F3"/>
<rect x="492.5" y="6.5" width="194" height="35" rx="3.5" stroke="#7343DA" stroke-opacity="0.24"/>
<path d="M528.376 18.4892L530.204 25.5538L532.05 18.4892H533.773L531.176 27H529.17L526.585 18.4892H528.376ZM534.909 18.4892H540.202V19.7508H538.399V25.7385H540.202V27H534.909V25.7385H536.713V19.7508H534.909V18.4892ZM548.225 22.7046C548.225 24.3005 547.847 25.4164 547.092 26.0523C546.341 26.6841 545.377 27 544.2 27H542.021V18.4892H544.052C544.852 18.4892 545.556 18.6041 546.163 18.8338C546.774 19.0636 547.271 19.4903 547.652 20.1138C548.034 20.7333 548.225 21.5969 548.225 22.7046ZM546.465 22.7046C546.465 21.9087 546.368 21.2933 546.175 20.8585C545.987 20.4236 545.736 20.1303 545.425 19.9785C545.117 19.8226 544.754 19.7446 544.335 19.7446H543.708V25.7508H544.341C544.994 25.7508 545.511 25.5272 545.892 25.08C546.274 24.6287 546.465 23.8369 546.465 22.7046ZM555.047 19.7323H551.601V22.0646H554.617V23.2892H551.601V25.7631H555.263V27H549.915V18.4892H555.22L555.047 19.7323ZM563.015 22.7415C563.015 23.6359 562.888 24.4174 562.633 25.0862C562.383 25.7508 562.01 26.2677 561.513 26.6369C561.017 27.0021 560.414 27.1846 559.704 27.1846C558.99 27.1846 558.385 27.0062 557.889 26.6492C557.396 26.2882 557.023 25.7754 556.769 25.1108C556.518 24.4462 556.393 23.6585 556.393 22.7477C556.393 21.8574 556.518 21.0779 556.769 20.4092C557.023 19.7405 557.398 19.2236 557.895 18.8585C558.391 18.4892 558.994 18.3046 559.704 18.3046C560.418 18.3046 561.021 18.4851 561.513 18.8462C562.01 19.2031 562.383 19.7159 562.633 20.3846C562.888 21.0492 563.015 21.8349 563.015 22.7415ZM561.279 22.7415C561.279 22.0113 561.226 21.4144 561.119 20.9508C561.013 20.4872 560.842 20.1426 560.609 19.9169C560.379 19.6872 560.077 19.5723 559.704 19.5723C559.331 19.5723 559.027 19.6872 558.793 19.9169C558.564 20.1467 558.395 20.4954 558.289 20.9631C558.182 21.4267 558.129 22.0215 558.129 22.7477C558.129 23.8308 558.254 24.6287 558.504 25.1415C558.758 25.6544 559.158 25.9108 559.704 25.9108C560.081 25.9108 560.385 25.7959 560.615 25.5662C560.849 25.3364 561.017 24.9897 561.119 24.5262C561.226 24.0626 561.279 23.4677 561.279 22.7415ZM577.633 24.5569C577.633 25.0738 577.499 25.5313 577.233 25.9292C576.966 26.3231 576.58 26.6308 576.076 26.8523C575.575 27.0738 574.98 27.1846 574.291 27.1846C572.941 27.1846 571.865 26.7928 571.06 26.0092L571.947 25.0185C572.599 25.6051 573.372 25.8985 574.267 25.8985C574.738 25.8985 575.124 25.7918 575.423 25.5785C575.727 25.361 575.879 25.0574 575.879 24.6677C575.879 24.4297 575.83 24.2328 575.731 24.0769C575.633 23.9169 575.465 23.7754 575.227 23.6523C574.993 23.5251 574.658 23.3959 574.223 23.2646C573.579 23.0677 573.056 22.8544 572.654 22.6246C572.256 22.3908 571.959 22.1159 571.762 21.8C571.569 21.4841 571.473 21.1087 571.473 20.6738C571.473 20.1979 571.606 19.7815 571.873 19.4246C572.139 19.0636 572.505 18.7867 572.968 18.5938C573.432 18.401 573.951 18.3046 574.525 18.3046C575.14 18.3046 575.688 18.3949 576.168 18.5754C576.652 18.7518 577.083 19.0123 577.46 19.3569L576.617 20.3108C576.33 20.0646 576.018 19.8821 575.682 19.7631C575.346 19.64 574.999 19.5785 574.642 19.5785C574.215 19.5785 573.871 19.6646 573.608 19.8369C573.346 20.0051 573.214 20.2472 573.214 20.5631C573.214 20.7682 573.27 20.9405 573.38 21.08C573.495 21.2195 573.684 21.3487 573.947 21.4677C574.209 21.5867 574.593 21.7241 575.097 21.88C575.647 22.0482 576.105 22.239 576.47 22.4523C576.835 22.6656 577.12 22.9426 577.325 23.2831C577.53 23.6236 577.633 24.0482 577.633 24.5569ZM585.065 19.8123H582.677V27H580.997V19.8123H578.511V18.4892H585.237L585.065 19.8123ZM592.546 22.7415C592.546 23.6359 592.419 24.4174 592.165 25.0862C591.914 25.7508 591.541 26.2677 591.045 26.6369C590.548 27.0021 589.945 27.1846 589.235 27.1846C588.521 27.1846 587.916 27.0062 587.42 26.6492C586.928 26.2882 586.554 25.7754 586.3 25.1108C586.05 24.4462 585.925 23.6585 585.925 22.7477C585.925 21.8574 586.05 21.0779 586.3 20.4092C586.554 19.7405 586.93 19.2236 587.426 18.8585C587.922 18.4892 588.526 18.3046 589.235 18.3046C589.949 18.3046 590.552 18.4851 591.045 18.8462C591.541 19.2031 591.914 19.7159 592.165 20.3846C592.419 21.0492 592.546 21.8349 592.546 22.7415ZM590.811 22.7415C590.811 22.0113 590.757 21.4144 590.651 20.9508C590.544 20.4872 590.374 20.1426 590.14 19.9169C589.91 19.6872 589.609 19.5723 589.235 19.5723C588.862 19.5723 588.558 19.6872 588.325 19.9169C588.095 20.1467 587.927 20.4954 587.82 20.9631C587.713 21.4267 587.66 22.0215 587.66 22.7477C587.66 23.8308 587.785 24.6287 588.035 25.1415C588.29 25.6544 588.69 25.9108 589.235 25.9108C589.613 25.9108 589.916 25.7959 590.146 25.5662C590.38 25.3364 590.548 24.9897 590.651 24.5262C590.757 24.0626 590.811 23.4677 590.811 22.7415ZM599.732 21.0062C599.732 21.5969 599.564 22.0892 599.227 22.4831C598.895 22.8728 598.452 23.16 597.898 23.3446L600.23 27H598.298L596.286 23.6092H595.51V27H593.83V18.4892H596.335C598.6 18.4892 599.732 19.3282 599.732 21.0062ZM597.984 21.0062C597.984 20.5549 597.851 20.2267 597.584 20.0215C597.322 19.8123 596.92 19.7077 596.378 19.7077H595.51V22.4154H596.433C596.946 22.4154 597.332 22.3026 597.59 22.0769C597.853 21.8513 597.984 21.4944 597.984 21.0062ZM605.909 27L605.379 25.0492H602.579L602.05 27H600.309L602.973 18.4892H605.041L607.699 27H605.909ZM603.976 19.7508L602.881 23.7877H605.066L603.976 19.7508ZM611.648 27.1846C610.885 27.1846 610.237 27.0164 609.704 26.68C609.17 26.3436 608.764 25.8431 608.485 25.1785C608.206 24.5138 608.067 23.6974 608.067 22.7292C608.067 21.7938 608.237 20.9938 608.578 20.3292C608.918 19.6605 609.378 19.1559 609.956 18.8154C610.534 18.4749 611.177 18.3046 611.882 18.3046C612.452 18.3046 612.941 18.3908 613.347 18.5631C613.757 18.7313 614.141 18.9815 614.498 19.3138L613.581 20.2554C613.318 20.0215 613.058 19.8492 612.799 19.7385C612.545 19.6277 612.262 19.5723 611.95 19.5723C611.54 19.5723 611.174 19.681 610.854 19.8985C610.539 20.1118 610.286 20.4544 610.098 20.9262C609.913 21.3979 609.821 22.0031 609.821 22.7415C609.821 23.5046 609.888 24.12 610.024 24.5877C610.159 25.0513 610.364 25.3877 610.639 25.5969C610.914 25.8062 611.265 25.9108 611.691 25.9108C612.143 25.9108 612.561 25.8082 612.947 25.6031V23.4308H611.667L611.494 22.2H614.553V26.3662C614.114 26.6287 613.659 26.8318 613.187 26.9754C612.719 27.1149 612.206 27.1846 611.648 27.1846ZM621.493 19.7323H618.047V22.0646H621.062V23.2892H618.047V25.7631H621.708V27H616.36V18.4892H621.665L621.493 19.7323ZM636.695 24.5569C636.695 25.0738 636.562 25.5313 636.295 25.9292C636.029 26.3231 635.643 26.6308 635.138 26.8523C634.638 27.0738 634.043 27.1846 633.354 27.1846C632.004 27.1846 630.927 26.7928 630.123 26.0092L631.009 25.0185C631.661 25.6051 632.435 25.8985 633.329 25.8985C633.801 25.8985 634.187 25.7918 634.486 25.5785C634.79 25.361 634.941 25.0574 634.941 24.6677C634.941 24.4297 634.892 24.2328 634.794 24.0769C634.695 23.9169 634.527 23.7754 634.289 23.6523C634.055 23.5251 633.721 23.3959 633.286 23.2646C632.642 23.0677 632.119 22.8544 631.717 22.6246C631.319 22.3908 631.021 22.1159 630.824 21.8C630.632 21.4841 630.535 21.1087 630.535 20.6738C630.535 20.1979 630.669 19.7815 630.935 19.4246C631.202 19.0636 631.567 18.7867 632.031 18.5938C632.494 18.401 633.013 18.3046 633.588 18.3046C634.203 18.3046 634.751 18.3949 635.231 18.5754C635.715 18.7518 636.145 19.0123 636.523 19.3569L635.68 20.3108C635.393 20.0646 635.081 19.8821 634.744 19.7631C634.408 19.64 634.061 19.5785 633.704 19.5785C633.278 19.5785 632.933 19.6646 632.671 19.8369C632.408 20.0051 632.277 20.2472 632.277 20.5631C632.277 20.7682 632.332 20.9405 632.443 21.08C632.558 21.2195 632.747 21.3487 633.009 21.4677C633.272 21.5867 633.655 21.7241 634.16 21.88C634.71 22.0482 635.167 22.239 635.532 22.4523C635.897 22.6656 636.182 22.9426 636.388 23.2831C636.593 23.6236 636.695 24.0482 636.695 24.5569ZM643.641 19.7323H640.195V22.0646H643.21V23.2892H640.195V25.7631H643.857V27H638.509V18.4892H643.813L643.641 19.7323ZM651.412 21.0062C651.412 21.5969 651.243 22.0892 650.907 22.4831C650.575 22.8728 650.132 23.16 649.578 23.3446L651.91 27H649.978L647.965 23.6092H647.19V27H645.51V18.4892H648.015C650.279 18.4892 651.412 19.3282 651.412 21.0062ZM649.664 21.0062C649.664 20.5549 649.531 20.2267 649.264 20.0215C649.001 19.8123 648.599 19.7077 648.058 19.7077H647.19V22.4154H648.113C648.626 22.4154 649.012 22.3026 649.27 22.0769C649.533 21.8513 649.664 21.4944 649.664 21.0062ZM653.884 18.4892L655.711 25.5538L657.558 18.4892H659.281L656.684 27H654.678L652.093 18.4892H653.884ZM660.417 18.4892H665.71V19.7508H663.906V25.7385H665.71V27H660.417V25.7385H662.22V19.7508H660.417V18.4892ZM671.16 18.3046C671.726 18.3046 672.214 18.3785 672.625 18.5262C673.039 18.6738 673.431 18.8974 673.8 19.1969L672.945 20.2123C672.436 19.7938 671.862 19.5846 671.222 19.5846C670.807 19.5846 670.436 19.6933 670.108 19.9108C669.784 20.1282 669.525 20.4708 669.332 20.9385C669.14 21.4062 669.043 22.0031 669.043 22.7292C669.043 23.7918 669.24 24.5795 669.634 25.0923C670.032 25.601 670.565 25.8554 671.234 25.8554C671.632 25.8554 671.974 25.7897 672.262 25.6585C672.549 25.5272 672.836 25.3446 673.123 25.1108L673.917 26.1138C673.195 26.8277 672.276 27.1846 671.16 27.1846C670.405 27.1846 669.736 27.0144 669.154 26.6738C668.575 26.3292 668.122 25.8226 667.794 25.1538C667.466 24.481 667.302 23.6728 667.302 22.7292C667.302 21.8062 667.47 21.0123 667.806 20.3477C668.147 19.679 668.608 19.1723 669.191 18.8277C669.777 18.479 670.434 18.3046 671.16 18.3046ZM680.555 19.7323H677.109V22.0646H680.124V23.2892H677.109V25.7631H680.771V27H675.423V18.4892H680.727L680.555 19.7323Z" fill="black"/>
<path d="M502.17 19.44L511 24.55L519.77 19.47M511 33.61V24.54" stroke="#3F3F3F" stroke-width="1.5" stroke-linecap="round" stroke-linejoin="round"/>
<path d="M508.93 14.48L503.59 17.44C502.38 18.11 501.39 19.79 501.39 21.17V26.82C501.39 28.2 502.38 29.88 503.59 30.55L508.93 33.52C510.07 34.15 511.94 34.15 513.08 33.52L518.42 30.55C519.63 29.88 520.62 28.2 520.62 26.82V21.17C520.62 19.79 519.63 18.11 518.42 17.44L513.08 14.47C511.93 13.84 510.07 13.84 508.93 14.48Z" stroke="#3F3F3F" stroke-width="1.5" stroke-linecap="round" stroke-linejoin="round"/>
<path d="M295.844 24C295.844 27.2509 295.165 30.1693 294.092 32.2566C293.005 34.3699 291.592 35.5 290.172 35.5C288.752 35.5 287.339 34.3699 286.252 32.2566C285.179 30.1693 284.5 27.2509 284.5 24C284.5 20.7491 285.179 17.8307 286.252 15.7434C287.339 13.6301 288.752 12.5 290.172 12.5C291.592 12.5 293.005 13.6301 294.092 15.7434C295.165 17.8307 295.844 20.7491 295.844 24Z" fill="#FF495F" stroke="#FFAFAF"/>
<mask id="path-10-inside-1_8_173" fill="white">
<path d="M290.172 12H359.828V36H290.172V12Z"/>
</mask>
<path d="M290.172 12H359.828V36H290.172V12Z" fill="#FF495F"/>
<path d="M290.172 13H359.828V11H290.172V13ZM359.828 35H290.172V37H359.828V35Z" fill="#FFAFAF" mask="url(#path-10-inside-1_8_173)"/>
<path d="M365.5 24C365.5 27.2509 364.821 30.1693 363.748 32.2566C362.661 34.3699 361.248 35.5 359.828 35.5C358.408 35.5 356.995 34.3699 355.908 32.2566C354.835 30.1693 354.156 27.2509 354.156 24C354.156 20.7491 354.835 17.8307 355.908 15.7434C356.995 13.6301 358.408 12.5 359.828 12.5C361.248 12.5 362.661 13.6301 363.748 15.7434C364.821 17.8307 365.5 20.7491 365.5 24Z" fill="white" stroke="#FFAFAF"/>
<path d="M277.125 54.446V43.154H280.575V44.378H278.619V53.234H280.575V54.446H277.125ZM284.878 46.646V51.05C284.878 51.394 284.946 51.636 285.082 51.776C285.218 51.916 285.416 51.986 285.676 51.986C285.924 51.986 286.166 51.912 286.402 51.764C286.638 51.612 286.83 51.42 286.978 51.188V46.646H288.562V53H287.182L287.098 52.22C286.87 52.532 286.578 52.77 286.222 52.934C285.866 53.098 285.498 53.18 285.118 53.18C284.506 53.18 284.048 53.008 283.744 52.664C283.444 52.316 283.294 51.842 283.294 51.242V46.646H284.878ZM293.771 46.466C294.331 46.466 294.779 46.604 295.115 46.88C295.455 47.152 295.701 47.538 295.853 48.038C296.009 48.538 296.087 49.128 296.087 49.808C296.087 50.46 295.993 51.04 295.805 51.548C295.617 52.056 295.341 52.456 294.977 52.748C294.617 53.036 294.173 53.18 293.645 53.18C292.997 53.18 292.473 52.95 292.073 52.49V55.448L290.489 55.616V46.646H291.881L291.965 47.42C292.217 47.092 292.499 46.852 292.811 46.7C293.123 46.544 293.443 46.466 293.771 46.466ZM293.309 47.654C293.041 47.654 292.805 47.734 292.601 47.894C292.401 48.054 292.225 48.252 292.073 48.488V51.332C292.217 51.548 292.381 51.71 292.565 51.818C292.749 51.926 292.957 51.98 293.189 51.98C293.593 51.98 293.901 51.812 294.113 51.476C294.329 51.136 294.437 50.586 294.437 49.826C294.437 49.29 294.393 48.864 294.305 48.548C294.221 48.228 294.095 48 293.927 47.864C293.759 47.724 293.553 47.654 293.309 47.654ZM300.709 44.108V51.152C300.709 51.428 300.789 51.624 300.949 51.74C301.113 51.856 301.333 51.914 301.609 51.914C301.781 51.914 301.947 51.896 302.107 51.86C302.267 51.82 302.419 51.772 302.563 51.716L302.953 52.796C302.753 52.896 302.509 52.984 302.221 53.06C301.937 53.14 301.607 53.18 301.231 53.18C300.539 53.18 300.015 52.982 299.659 52.586C299.303 52.19 299.125 51.656 299.125 50.984V45.23H297.223V44.108H300.709ZM307.52 46.466C308.152 46.466 308.688 46.604 309.128 46.88C309.568 47.156 309.902 47.546 310.13 48.05C310.362 48.55 310.478 49.136 310.478 49.808C310.478 50.496 310.362 51.092 310.13 51.596C309.898 52.1 309.562 52.49 309.122 52.766C308.682 53.042 308.146 53.18 307.514 53.18C306.886 53.18 306.35 53.046 305.906 52.778C305.466 52.506 305.13 52.12 304.898 51.62C304.666 51.116 304.55 50.516 304.55 49.82C304.55 49.156 304.666 48.572 304.898 48.068C305.13 47.564 305.468 47.172 305.912 46.892C306.356 46.608 306.892 46.466 307.52 46.466ZM307.52 47.66C307.076 47.66 306.744 47.834 306.524 48.182C306.308 48.53 306.2 49.076 306.2 49.82C306.2 50.572 306.308 51.122 306.524 51.47C306.74 51.814 307.07 51.986 307.514 51.986C307.958 51.986 308.288 51.814 308.504 51.47C308.72 51.122 308.828 50.568 308.828 49.808C308.828 49.068 308.72 48.526 308.504 48.182C308.288 47.834 307.96 47.66 307.52 47.66ZM317.145 51.326C317.145 51.57 317.181 51.748 317.253 51.86C317.325 51.968 317.441 52.05 317.601 52.106L317.259 53.168C316.919 53.132 316.629 53.048 316.389 52.916C316.153 52.78 315.971 52.578 315.843 52.31C315.603 52.602 315.299 52.82 314.931 52.964C314.567 53.108 314.185 53.18 313.785 53.18C313.137 53.18 312.623 52.996 312.243 52.628C311.863 52.26 311.673 51.782 311.673 51.194C311.673 50.518 311.937 49.998 312.465 49.634C312.997 49.266 313.749 49.082 314.721 49.082H315.609V48.74C315.609 48.364 315.493 48.092 315.261 47.924C315.029 47.752 314.695 47.666 314.259 47.666C314.055 47.666 313.799 47.694 313.491 47.75C313.187 47.802 312.873 47.884 312.549 47.996L312.171 46.91C312.575 46.758 312.981 46.646 313.389 46.574C313.801 46.502 314.175 46.466 314.511 46.466C315.403 46.466 316.065 46.656 316.497 47.036C316.929 47.412 317.145 47.946 317.145 48.638V51.326ZM314.301 52.034C314.541 52.034 314.783 51.966 315.027 51.83C315.275 51.694 315.469 51.504 315.609 51.26V50.024H314.985C314.397 50.024 313.971 50.118 313.707 50.306C313.447 50.494 313.317 50.76 313.317 51.104C313.317 51.4 313.401 51.63 313.569 51.794C313.737 51.954 313.981 52.034 314.301 52.034ZM322.955 43.94L324.539 44.108V53H323.135L323.039 52.25C322.843 52.53 322.597 52.756 322.301 52.928C322.005 53.096 321.661 53.18 321.269 53.18C320.733 53.18 320.289 53.04 319.937 52.76C319.589 52.48 319.329 52.088 319.157 51.584C318.989 51.076 318.905 50.486 318.905 49.814C318.905 49.166 319.005 48.59 319.205 48.086C319.405 47.582 319.693 47.186 320.069 46.898C320.449 46.61 320.899 46.466 321.419 46.466C321.731 46.466 322.015 46.52 322.271 46.628C322.527 46.736 322.755 46.896 322.955 47.108V43.94ZM321.845 47.648C321.445 47.648 321.129 47.822 320.897 48.17C320.669 48.514 320.555 49.064 320.555 49.82C320.555 50.352 320.603 50.778 320.699 51.098C320.795 51.414 320.931 51.642 321.107 51.782C321.283 51.922 321.491 51.992 321.731 51.992C321.995 51.992 322.227 51.914 322.427 51.758C322.631 51.598 322.807 51.4 322.955 51.164V48.272C322.807 48.076 322.641 47.924 322.457 47.816C322.277 47.704 322.073 47.648 321.845 47.648ZM326.568 50.354V49.094H331.632V50.354H326.568ZM339.415 46.646L337.231 53H335.371L333.175 46.646H334.879L336.325 51.734L337.801 46.646H339.415ZM344.511 46.646V51.878H346.185V53H341.067V51.878H342.927V47.768H341.127V46.646H344.511ZM343.485 43.442C343.777 43.442 344.013 43.532 344.193 43.712C344.377 43.892 344.469 44.116 344.469 44.384C344.469 44.652 344.377 44.878 344.193 45.062C344.013 45.242 343.777 45.332 343.485 45.332C343.193 45.332 342.955 45.242 342.771 45.062C342.587 44.878 342.495 44.652 342.495 44.384C342.495 44.116 342.587 43.892 342.771 43.712C342.955 43.532 343.193 43.442 343.485 43.442ZM351.736 43.94L353.32 44.108V53H351.916L351.82 52.25C351.624 52.53 351.378 52.756 351.082 52.928C350.786 53.096 350.442 53.18 350.05 53.18C349.514 53.18 349.07 53.04 348.718 52.76C348.37 52.48 348.11 52.088 347.938 51.584C347.77 51.076 347.686 50.486 347.686 49.814C347.686 49.166 347.786 48.59 347.986 48.086C348.186 47.582 348.474 47.186 348.85 46.898C349.23 46.61 349.68 46.466 350.2 46.466C350.512 46.466 350.796 46.52 351.052 46.628C351.308 46.736 351.536 46.896 351.736 47.108V43.94ZM350.626 47.648C350.226 47.648 349.91 47.822 349.678 48.17C349.45 48.514 349.336 49.064 349.336 49.82C349.336 50.352 349.384 50.778 349.48 51.098C349.576 51.414 349.712 51.642 349.888 51.782C350.064 51.922 350.272 51.992 350.512 51.992C350.776 51.992 351.008 51.914 351.208 51.758C351.412 51.598 351.588 51.4 351.736 51.164V48.272C351.588 48.076 351.422 47.924 351.238 47.816C351.058 47.704 350.854 47.648 350.626 47.648ZM356.597 50.306C356.629 50.702 356.719 51.024 356.867 51.272C357.019 51.52 357.213 51.702 357.449 51.818C357.685 51.934 357.947 51.992 358.235 51.992C358.539 51.992 358.825 51.944 359.093 51.848C359.361 51.752 359.625 51.618 359.885 51.446L360.545 52.352C360.249 52.6 359.895 52.8 359.483 52.952C359.075 53.104 358.625 53.18 358.133 53.18C357.445 53.18 356.865 53.038 356.393 52.754C355.925 52.47 355.571 52.076 355.331 51.572C355.091 51.068 354.971 50.488 354.971 49.832C354.971 49.2 355.089 48.63 355.325 48.122C355.561 47.614 355.901 47.212 356.345 46.916C356.789 46.616 357.325 46.466 357.953 46.466C358.537 46.466 359.041 46.594 359.465 46.85C359.889 47.106 360.217 47.474 360.449 47.954C360.681 48.43 360.797 49.004 360.797 49.676C360.797 49.784 360.793 49.894 360.785 50.006C360.781 50.118 360.775 50.218 360.767 50.306H356.597ZM357.959 47.582C357.575 47.582 357.259 47.72 357.011 47.996C356.767 48.268 356.623 48.7 356.579 49.292H359.255C359.247 48.756 359.135 48.338 358.919 48.038C358.707 47.734 358.387 47.582 357.959 47.582ZM365.083 46.466C365.715 46.466 366.251 46.604 366.691 46.88C367.131 47.156 367.465 47.546 367.693 48.05C367.925 48.55 368.041 49.136 368.041 49.808C368.041 50.496 367.925 51.092 367.693 51.596C367.461 52.1 367.125 52.49 366.685 52.766C366.245 53.042 365.709 53.18 365.077 53.18C364.449 53.18 363.913 53.046 363.469 52.778C363.029 52.506 362.693 52.12 362.461 51.62C362.229 51.116 362.113 50.516 362.113 49.82C362.113 49.156 362.229 48.572 362.461 48.068C362.693 47.564 363.031 47.172 363.475 46.892C363.919 46.608 364.455 46.466 365.083 46.466ZM365.083 47.66C364.639 47.66 364.307 47.834 364.087 48.182C363.871 48.53 363.763 49.076 363.763 49.82C363.763 50.572 363.871 51.122 364.087 51.47C364.303 51.814 364.633 51.986 365.077 51.986C365.521 51.986 365.851 51.814 366.067 51.47C366.283 51.122 366.391 50.568 366.391 49.808C366.391 49.068 366.283 48.526 366.067 48.182C365.851 47.834 365.523 47.66 365.083 47.66ZM373.88 43.154V54.446H370.43V53.228H372.386V44.378H370.43V43.154H373.88Z" fill="black"/>
<path d="M295.844 144C295.844 147.251 295.165 150.169 294.092 152.257C293.005 154.37 291.592 155.5 290.172 155.5C288.752 155.5 287.339 154.37 286.252 152.257C285.179 150.169 284.5 147.251 284.5 144C284.5 140.749 285.179 137.831 286.252 135.743C287.339 133.63 288.752 132.5 290.172 132.5C291.592 132.5 293.005 133.63 294.092 135.743C295.165 137.831 295.844 140.749 295.844 144Z" fill="#FF495F" stroke="#FFAFAF"/>
<mask id="path-15-inside-2_8_173" fill="white">
<path d="M290.172 132H359.828V156H290.172V132Z"/>
</mask>
<path d="M290.172 132H359.828V156H290.172V132Z" fill="#FF495F"/>
<path d="M290.172 133H359.828V131H290.172V133ZM359.828 155H290.172V157H359.828V155Z" fill="#FFAFAF" mask="url(#path-15-inside-2_8_173)"/>
<path d="M365.5 144C365.5 147.251 364.821 150.169 363.748 152.257C362.661 154.37 361.248 155.5 359.828 155.5C358.408 155.5 356.995 154.37 355.908 152.257C354.835 150.169 354.156 147.251 354.156 144C354.156 140.749 354.835 137.831 355.908 135.743C356.995 133.63 358.408 132.5 359.828 132.5C361.248 132.5 362.661 133.63 363.748 135.743C364.821 137.831 365.5 140.749 365.5 144Z" fill="white" stroke="#FFAFAF"/>
<path d="M269.43 174.446V163.154H272.88V164.378H270.924V173.234H272.88V174.446H269.43ZM281.353 166.646L279.169 173H277.309L275.113 166.646H276.817L278.263 171.734L279.739 166.646H281.353ZM286.448 166.646V171.878H288.122V173H283.004V171.878H284.864V167.768H283.064V166.646H286.448ZM285.422 163.442C285.714 163.442 285.95 163.532 286.13 163.712C286.314 163.892 286.406 164.116 286.406 164.384C286.406 164.652 286.314 164.878 286.13 165.062C285.95 165.242 285.714 165.332 285.422 165.332C285.13 165.332 284.892 165.242 284.708 165.062C284.524 164.878 284.432 164.652 284.432 164.384C284.432 164.116 284.524 163.892 284.708 163.712C284.892 163.532 285.13 163.442 285.422 163.442ZM293.673 163.94L295.257 164.108V173H293.853L293.757 172.25C293.561 172.53 293.315 172.756 293.019 172.928C292.723 173.096 292.379 173.18 291.987 173.18C291.451 173.18 291.007 173.04 290.655 172.76C290.307 172.48 290.047 172.088 289.875 171.584C289.707 171.076 289.623 170.486 289.623 169.814C289.623 169.166 289.723 168.59 289.923 168.086C290.123 167.582 290.411 167.186 290.787 166.898C291.167 166.61 291.617 166.466 292.137 166.466C292.449 166.466 292.733 166.52 292.989 166.628C293.245 166.736 293.473 166.896 293.673 167.108V163.94ZM292.563 167.648C292.163 167.648 291.847 167.822 291.615 168.17C291.387 168.514 291.273 169.064 291.273 169.82C291.273 170.352 291.321 170.778 291.417 171.098C291.513 171.414 291.649 171.642 291.825 171.782C292.001 171.922 292.209 171.992 292.449 171.992C292.713 171.992 292.945 171.914 293.145 171.758C293.349 171.598 293.525 171.4 293.673 171.164V168.272C293.525 168.076 293.359 167.924 293.175 167.816C292.995 167.704 292.791 167.648 292.563 167.648ZM298.535 170.306C298.567 170.702 298.657 171.024 298.805 171.272C298.957 171.52 299.151 171.702 299.387 171.818C299.623 171.934 299.885 171.992 300.173 171.992C300.477 171.992 300.763 171.944 301.031 171.848C301.299 171.752 301.563 171.618 301.823 171.446L302.483 172.352C302.187 172.6 301.833 172.8 301.421 172.952C301.013 173.104 300.563 173.18 300.071 173.18C299.383 173.18 298.803 173.038 298.331 172.754C297.863 172.47 297.509 172.076 297.269 171.572C297.029 171.068 296.909 170.488 296.909 169.832C296.909 169.2 297.027 168.63 297.263 168.122C297.499 167.614 297.839 167.212 298.283 166.916C298.727 166.616 299.263 166.466 299.891 166.466C300.475 166.466 300.979 166.594 301.403 166.85C301.827 167.106 302.155 167.474 302.387 167.954C302.619 168.43 302.735 169.004 302.735 169.676C302.735 169.784 302.731 169.894 302.723 170.006C302.719 170.118 302.713 170.218 302.705 170.306H298.535ZM299.897 167.582C299.513 167.582 299.197 167.72 298.949 167.996C298.705 168.268 298.561 168.7 298.517 169.292H301.193C301.185 168.756 301.073 168.338 300.857 168.038C300.645 167.734 300.325 167.582 299.897 167.582ZM307.02 166.466C307.652 166.466 308.188 166.604 308.628 166.88C309.068 167.156 309.402 167.546 309.63 168.05C309.862 168.55 309.978 169.136 309.978 169.808C309.978 170.496 309.862 171.092 309.63 171.596C309.398 172.1 309.062 172.49 308.622 172.766C308.182 173.042 307.646 173.18 307.014 173.18C306.386 173.18 305.85 173.046 305.406 172.778C304.966 172.506 304.63 172.12 304.398 171.62C304.166 171.116 304.05 170.516 304.05 169.82C304.05 169.156 304.166 168.572 304.398 168.068C304.63 167.564 304.968 167.172 305.412 166.892C305.856 166.608 306.392 166.466 307.02 166.466ZM307.02 167.66C306.576 167.66 306.244 167.834 306.024 168.182C305.808 168.53 305.7 169.076 305.7 169.82C305.7 170.572 305.808 171.122 306.024 171.47C306.24 171.814 306.57 171.986 307.014 171.986C307.458 171.986 307.788 171.814 308.004 171.47C308.22 171.122 308.328 170.568 308.328 169.808C308.328 169.068 308.22 168.526 308.004 168.182C307.788 167.834 307.46 167.66 307.02 167.66ZM311.677 170.354V169.094H316.741V170.354H311.677ZM320.355 166.646V171.05C320.355 171.394 320.423 171.636 320.559 171.776C320.695 171.916 320.893 171.986 321.153 171.986C321.401 171.986 321.643 171.912 321.879 171.764C322.115 171.612 322.307 171.42 322.455 171.188V166.646H324.039V173H322.659L322.575 172.22C322.347 172.532 322.055 172.77 321.699 172.934C321.343 173.098 320.975 173.18 320.595 173.18C319.983 173.18 319.525 173.008 319.221 172.664C318.921 172.316 318.771 171.842 318.771 171.242V166.646H320.355ZM329.248 166.466C329.808 166.466 330.256 166.604 330.592 166.88C330.932 167.152 331.178 167.538 331.33 168.038C331.486 168.538 331.564 169.128 331.564 169.808C331.564 170.46 331.47 171.04 331.282 171.548C331.094 172.056 330.818 172.456 330.454 172.748C330.094 173.036 329.65 173.18 329.122 173.18C328.474 173.18 327.95 172.95 327.55 172.49V175.448L325.966 175.616V166.646H327.358L327.442 167.42C327.694 167.092 327.976 166.852 328.288 166.7C328.6 166.544 328.92 166.466 329.248 166.466ZM328.786 167.654C328.518 167.654 328.282 167.734 328.078 167.894C327.878 168.054 327.702 168.252 327.55 168.488V171.332C327.694 171.548 327.858 171.71 328.042 171.818C328.226 171.926 328.434 171.98 328.666 171.98C329.07 171.98 329.378 171.812 329.59 171.476C329.806 171.136 329.914 170.586 329.914 169.826C329.914 169.29 329.87 168.864 329.782 168.548C329.698 168.228 329.572 168 329.404 167.864C329.236 167.724 329.03 167.654 328.786 167.654ZM336.185 164.108V171.152C336.185 171.428 336.265 171.624 336.425 171.74C336.589 171.856 336.809 171.914 337.085 171.914C337.257 171.914 337.423 171.896 337.583 171.86C337.743 171.82 337.895 171.772 338.039 171.716L338.429 172.796C338.229 172.896 337.985 172.984 337.697 173.06C337.413 173.14 337.083 173.18 336.707 173.18C336.015 173.18 335.491 172.982 335.135 172.586C334.779 172.19 334.601 171.656 334.601 170.984V165.23H332.699V164.108H336.185ZM342.997 166.466C343.629 166.466 344.165 166.604 344.605 166.88C345.045 167.156 345.379 167.546 345.607 168.05C345.839 168.55 345.955 169.136 345.955 169.808C345.955 170.496 345.839 171.092 345.607 171.596C345.375 172.1 345.039 172.49 344.599 172.766C344.159 173.042 343.623 173.18 342.991 173.18C342.363 173.18 341.827 173.046 341.383 172.778C340.943 172.506 340.607 172.12 340.375 171.62C340.143 171.116 340.027 170.516 340.027 169.82C340.027 169.156 340.143 168.572 340.375 168.068C340.607 167.564 340.945 167.172 341.389 166.892C341.833 166.608 342.369 166.466 342.997 166.466ZM342.997 167.66C342.553 167.66 342.221 167.834 342.001 168.182C341.785 168.53 341.677 169.076 341.677 169.82C341.677 170.572 341.785 171.122 342.001 171.47C342.217 171.814 342.547 171.986 342.991 171.986C343.435 171.986 343.765 171.814 343.981 171.47C344.197 171.122 344.305 170.568 344.305 169.808C344.305 169.068 344.197 168.526 343.981 168.182C343.765 167.834 343.437 167.66 342.997 167.66ZM352.622 171.326C352.622 171.57 352.658 171.748 352.73 171.86C352.802 171.968 352.918 172.05 353.078 172.106L352.736 173.168C352.396 173.132 352.106 173.048 351.866 172.916C351.63 172.78 351.448 172.578 351.32 172.31C351.08 172.602 350.776 172.82 350.408 172.964C350.044 173.108 349.662 173.18 349.262 173.18C348.614 173.18 348.1 172.996 347.72 172.628C347.34 172.26 347.15 171.782 347.15 171.194C347.15 170.518 347.414 169.998 347.942 169.634C348.474 169.266 349.226 169.082 350.198 169.082H351.086V168.74C351.086 168.364 350.97 168.092 350.738 167.924C350.506 167.752 350.172 167.666 349.736 167.666C349.532 167.666 349.276 167.694 348.968 167.75C348.664 167.802 348.35 167.884 348.026 167.996L347.648 166.91C348.052 166.758 348.458 166.646 348.866 166.574C349.278 166.502 349.652 166.466 349.988 166.466C350.88 166.466 351.542 166.656 351.974 167.036C352.406 167.412 352.622 167.946 352.622 168.638V171.326ZM349.778 172.034C350.018 172.034 350.26 171.966 350.504 171.83C350.752 171.694 350.946 171.504 351.086 171.26V170.024H350.462C349.874 170.024 349.448 170.118 349.184 170.306C348.924 170.494 348.794 170.76 348.794 171.104C348.794 171.4 348.878 171.63 349.046 171.794C349.214 171.954 349.458 172.034 349.778 172.034ZM358.431 163.94L360.015 164.108V173H358.611L358.515 172.25C358.319 172.53 358.073 172.756 357.777 172.928C357.481 173.096 357.137 173.18 356.745 173.18C356.209 173.18 355.765 173.04 355.413 172.76C355.065 172.48 354.805 172.088 354.633 171.584C354.465 171.076 354.381 170.486 354.381 169.814C354.381 169.166 354.481 168.59 354.681 168.086C354.881 167.582 355.169 167.186 355.545 166.898C355.925 166.61 356.375 166.466 356.895 166.466C357.207 166.466 357.491 166.52 357.747 166.628C358.003 166.736 358.231 166.896 358.431 167.108V163.94ZM357.321 167.648C356.921 167.648 356.605 167.822 356.373 168.17C356.145 168.514 356.031 169.064 356.031 169.82C356.031 170.352 356.079 170.778 356.175 171.098C356.271 171.414 356.407 171.642 356.583 171.782C356.759 171.922 356.967 171.992 357.207 171.992C357.471 171.992 357.703 171.914 357.903 171.758C358.107 171.598 358.283 171.4 358.431 171.164V168.272C358.283 168.076 358.117 167.924 357.933 167.816C357.753 167.704 357.549 167.648 357.321 167.648ZM363.293 170.306C363.325 170.702 363.415 171.024 363.563 171.272C363.715 171.52 363.909 171.702 364.145 171.818C364.381 171.934 364.643 171.992 364.931 171.992C365.235 171.992 365.521 171.944 365.789 171.848C366.057 171.752 366.321 171.618 366.581 171.446L367.241 172.352C366.945 172.6 366.591 172.8 366.179 172.952C365.771 173.104 365.321 173.18 364.829 173.18C364.141 173.18 363.561 173.038 363.089 172.754C362.621 172.47 362.267 172.076 362.027 171.572C361.787 171.068 361.667 170.488 361.667 169.832C361.667 169.2 361.785 168.63 362.021 168.122C362.257 167.614 362.597 167.212 363.041 166.916C363.485 166.616 364.021 166.466 364.649 166.466C365.233 166.466 365.737 166.594 366.161 166.85C366.585 167.106 366.913 167.474 367.145 167.954C367.377 168.43 367.493 169.004 367.493 169.676C367.493 169.784 367.489 169.894 367.481 170.006C367.477 170.118 367.471 170.218 367.463 170.306H363.293ZM364.655 167.582C364.271 167.582 363.955 167.72 363.707 167.996C363.463 168.268 363.319 168.7 363.275 169.292H365.951C365.943 168.756 365.831 168.338 365.615 168.038C365.403 167.734 365.083 167.582 364.655 167.582ZM372.822 163.94L374.406 164.108V173H373.002L372.906 172.25C372.71 172.53 372.464 172.756 372.168 172.928C371.872 173.096 371.528 173.18 371.136 173.18C370.6 173.18 370.156 173.04 369.804 172.76C369.456 172.48 369.196 172.088 369.024 171.584C368.856 171.076 368.772 170.486 368.772 169.814C368.772 169.166 368.872 168.59 369.072 168.086C369.272 167.582 369.56 167.186 369.936 166.898C370.316 166.61 370.766 166.466 371.286 166.466C371.598 166.466 371.882 166.52 372.138 166.628C372.394 166.736 372.622 166.896 372.822 167.108V163.94ZM371.712 167.648C371.312 167.648 370.996 167.822 370.764 168.17C370.536 168.514 370.422 169.064 370.422 169.82C370.422 170.352 370.47 170.778 370.566 171.098C370.662 171.414 370.798 171.642 370.974 171.782C371.15 171.922 371.358 171.992 371.598 171.992C371.862 171.992 372.094 171.914 372.294 171.758C372.498 171.598 372.674 171.4 372.822 171.164V168.272C372.674 168.076 372.508 167.924 372.324 167.816C372.144 167.704 371.94 167.648 371.712 167.648ZM380.575 163.154V174.446H377.125V173.228H379.081V164.378H377.125V163.154H380.575Z" fill="black"/>
<rect x="30" width="121" height="48" rx="4" fill="#F3F3F3"/>
<rect x="30.5" y="0.5" width="120" height="47" rx="3.5" stroke="#161616" stroke-opacity="0.24"/>
<path d="M70.1321 10.4892H75.4244V11.7508H73.6213V17.7385H75.4244V19H70.1321V17.7385H71.9352V11.7508H70.1321V10.4892ZM78.4564 11.9292C78.6246 13.2092 78.7087 14.3723 78.7087 15.4185V19H77.2441V10.4892H79.3857L81.8657 17.5477C81.6975 16.4031 81.6134 15.2544 81.6134 14.1015V10.4892H83.078V19H80.9611L78.4564 11.9292ZM84.8977 10.4892H90.19V11.7508H88.3869V17.7385H90.19V19H84.8977V17.7385H86.7008V11.7508H84.8977V10.4892ZM98.139 11.8123H95.7513V19H94.0713V11.8123H91.5851V10.4892H98.3113L98.139 11.8123ZM99.6633 10.4892H104.956V11.7508H103.153V17.7385H104.956V19H99.6633V17.7385H101.466V11.7508H99.6633V10.4892ZM111.6 19L111.071 17.0492H108.271L107.742 19H106L108.665 10.4892H110.732L113.391 19H111.6ZM109.668 11.7508L108.572 15.7877H110.757L109.668 11.7508ZM120.287 11.8123H117.9V19H116.22V11.8123H113.734V10.4892H120.46L120.287 11.8123ZM121.812 10.4892H127.104V11.7508H125.301V17.7385H127.104V19H121.812V17.7385H123.615V11.7508H121.812V10.4892ZM130.136 11.9292C130.304 13.2092 130.388 14.3723 130.388 15.4185V19H128.924V10.4892H131.065L133.545 17.5477C133.377 16.4031 133.293 15.2544 133.293 14.1015V10.4892H134.758V19H132.641L130.136 11.9292ZM139.488 19.1846C138.725 19.1846 138.077 19.0164 137.544 18.68C137.01 18.3436 136.604 17.8431 136.325 17.1785C136.046 16.5138 135.907 15.6974 135.907 14.7292C135.907 13.7938 136.077 12.9938 136.417 12.3292C136.758 11.6605 137.217 11.1559 137.796 10.8154C138.374 10.4749 139.016 10.3046 139.722 10.3046C140.292 10.3046 140.78 10.3908 141.187 10.5631C141.597 10.7313 141.98 10.9815 142.337 11.3138L141.42 12.2554C141.158 12.0215 140.897 11.8492 140.639 11.7385C140.385 11.6277 140.102 11.5723 139.79 11.5723C139.379 11.5723 139.014 11.681 138.694 11.8985C138.378 12.1118 138.126 12.4544 137.937 12.9262C137.753 13.3979 137.66 14.0031 137.66 14.7415C137.66 15.5046 137.728 16.12 137.864 16.5877C137.999 17.0513 138.204 17.3877 138.479 17.5969C138.754 17.8062 139.105 17.9108 139.531 17.9108C139.983 17.9108 140.401 17.8082 140.787 17.6031V15.4308H139.507L139.334 14.2H142.393V18.3662C141.954 18.6287 141.498 18.8318 141.027 18.9754C140.559 19.1149 140.046 19.1846 139.488 19.1846ZM97.6528 26.7323H94.2067V29.0646H97.2221V30.2892H94.2067V32.7631H97.8682V34H92.5205V25.4892H97.8251L97.6528 26.7323ZM100.513 25.4892L102.34 32.5538L104.186 25.4892H105.909L103.313 34H101.306L98.7218 25.4892H100.513ZM112.418 26.7323H108.972V29.0646H111.988V30.2892H108.972V32.7631H112.634V34H107.286V25.4892H112.591L112.418 26.7323ZM115.371 26.9292C115.539 28.2092 115.623 29.3723 115.623 30.4185V34H114.158V25.4892H116.3L118.78 32.5477C118.612 31.4031 118.527 30.2544 118.527 29.1015V25.4892H119.992V34H117.875L115.371 26.9292ZM127.67 26.8123H125.283V34H123.603V26.8123H121.116V25.4892H127.843L127.67 26.8123Z" fill="black"/>
<path d="M39 12V15.4286H63V12H39ZM45 18.8571V22.2857H63V18.8571H45ZM39 25.7143V29.1429H63V25.7143H39ZM45 32.5714V36H63V32.5714H45Z" fill="black"/>
<path d="M482 24.0249L467 15.3641L467 32.6846L482 24.0249ZM376 25.5208L468.5 25.5244L468.5 22.5244L376 22.5208L376 25.5208Z" fill="#464646"/>
<rect y="233" width="195" height="36" rx="4" fill="#F3F3F3"/>
<rect x="0.5" y="233.5" width="194" height="35" rx="3.5" stroke="#7343DA" stroke-opacity="0.24"/>
<path d="M40.1596 246.929C40.3278 248.209 40.4119 249.372 40.4119 250.418V254H38.9473V245.489H41.0888L43.5688 252.548C43.4006 251.403 43.3165 250.254 43.3165 249.102V245.489H44.7811V254H42.6642L40.1596 246.929ZM52.5578 249.742C52.5578 250.636 52.4306 251.417 52.1762 252.086C51.926 252.751 51.5526 253.268 51.0562 253.637C50.5598 254.002 49.9567 254.185 49.247 254.185C48.5331 254.185 47.928 254.006 47.4316 253.649C46.9393 253.288 46.566 252.775 46.3116 252.111C46.0614 251.446 45.9362 250.658 45.9362 249.748C45.9362 248.857 46.0614 248.078 46.3116 247.409C46.566 246.741 46.9414 246.224 47.4378 245.858C47.9342 245.489 48.5373 245.305 49.247 245.305C49.9608 245.305 50.5639 245.485 51.0562 245.846C51.5526 246.203 51.926 246.716 52.1762 247.385C52.4306 248.049 52.5578 248.835 52.5578 249.742ZM50.8224 249.742C50.8224 249.011 50.769 248.414 50.6624 247.951C50.5557 247.487 50.3855 247.143 50.1516 246.917C49.9219 246.687 49.6203 246.572 49.247 246.572C48.8737 246.572 48.5701 246.687 48.3362 246.917C48.1065 247.147 47.9383 247.495 47.8316 247.963C47.7249 248.427 47.6716 249.022 47.6716 249.748C47.6716 250.831 47.7967 251.629 48.047 252.142C48.3014 252.654 48.7014 252.911 49.247 252.911C49.6244 252.911 49.928 252.796 50.1578 252.566C50.3916 252.336 50.5598 251.99 50.6624 251.526C50.769 251.063 50.8224 250.468 50.8224 249.742ZM59.8421 246.812H57.4544V254H55.7744V246.812H53.2883V245.489H60.0144L59.8421 246.812ZM61.3665 245.489H66.6588V246.751H64.8557V252.738H66.6588V254H61.3665V252.738H63.1695V246.751H61.3665V245.489ZM74.3739 246.732H70.8477V249.237H73.9554V250.48H70.8477V254H69.1616V245.489H74.5524L74.3739 246.732ZM76.1321 245.489H81.4244V246.751H79.6213V252.738H81.4244V254H76.1321V252.738H77.9352V246.751H76.1321V245.489ZM86.8749 245.305C87.4411 245.305 87.9293 245.378 88.3395 245.526C88.7539 245.674 89.1457 245.897 89.5149 246.197L88.6595 247.212C88.1508 246.794 87.5764 246.585 86.9364 246.585C86.5221 246.585 86.1508 246.693 85.8226 246.911C85.4985 247.128 85.24 247.471 85.0472 247.938C84.8544 248.406 84.758 249.003 84.758 249.729C84.758 250.792 84.9549 251.579 85.3487 252.092C85.7467 252.601 86.28 252.855 86.9487 252.855C87.3467 252.855 87.6893 252.79 87.9764 252.658C88.2636 252.527 88.5508 252.345 88.838 252.111L89.6318 253.114C88.9098 253.828 87.9908 254.185 86.8749 254.185C86.12 254.185 85.4513 254.014 84.8687 253.674C84.2903 253.329 83.837 252.823 83.5087 252.154C83.1805 251.481 83.0164 250.673 83.0164 249.729C83.0164 248.806 83.1846 248.012 83.5211 247.348C83.8616 246.679 84.3231 246.172 84.9057 245.828C85.4923 245.479 86.1487 245.305 86.8749 245.305ZM95.4516 254L94.9223 252.049H92.1223L91.5931 254H89.8516L92.5162 245.489H94.5839L97.2423 254H95.4516ZM93.5193 246.751L92.4239 250.788H94.6085L93.5193 246.751ZM104.139 246.812H101.751V254H100.071V246.812H97.5851V245.489H104.311L104.139 246.812ZM105.663 245.489H110.956V246.751H109.153V252.738H110.956V254H105.663V252.738H107.466V246.751H105.663V245.489ZM119.003 249.742C119.003 250.636 118.876 251.417 118.622 252.086C118.371 252.751 117.998 253.268 117.502 253.637C117.005 254.002 116.402 254.185 115.692 254.185C114.978 254.185 114.373 254.006 113.877 253.649C113.385 253.288 113.011 252.775 112.757 252.111C112.507 251.446 112.382 250.658 112.382 249.748C112.382 248.857 112.507 248.078 112.757 247.409C113.011 246.741 113.387 246.224 113.883 245.858C114.379 245.489 114.983 245.305 115.692 245.305C116.406 245.305 117.009 245.485 117.502 245.846C117.998 246.203 118.371 246.716 118.622 247.385C118.876 248.049 119.003 248.835 119.003 249.742ZM117.268 249.742C117.268 249.011 117.214 248.414 117.108 247.951C117.001 247.487 116.831 247.143 116.597 246.917C116.367 246.687 116.066 246.572 115.692 246.572C115.319 246.572 115.015 246.687 114.782 246.917C114.552 247.147 114.384 247.495 114.277 247.963C114.17 248.427 114.117 249.022 114.117 249.748C114.117 250.831 114.242 251.629 114.492 252.142C114.747 252.654 115.147 252.911 115.692 252.911C116.07 252.911 116.373 252.796 116.603 252.566C116.837 252.336 117.005 251.99 117.108 251.526C117.214 251.063 117.268 250.468 117.268 249.742ZM121.371 246.929C121.539 248.209 121.623 249.372 121.623 250.418V254H120.158V245.489H122.3L124.78 252.548C124.612 251.403 124.527 250.254 124.527 249.102V245.489H125.992V254H123.875L121.371 246.929ZM141.004 251.557C141.004 252.074 140.87 252.531 140.604 252.929C140.337 253.323 139.952 253.631 139.447 253.852C138.946 254.074 138.352 254.185 137.662 254.185C136.313 254.185 135.236 253.793 134.432 253.009L135.318 252.018C135.97 252.605 136.743 252.898 137.638 252.898C138.109 252.898 138.495 252.792 138.795 252.578C139.098 252.361 139.25 252.057 139.25 251.668C139.25 251.43 139.201 251.233 139.102 251.077C139.004 250.917 138.836 250.775 138.598 250.652C138.364 250.525 138.029 250.396 137.595 250.265C136.95 250.068 136.427 249.854 136.025 249.625C135.627 249.391 135.33 249.116 135.133 248.8C134.94 248.484 134.844 248.109 134.844 247.674C134.844 247.198 134.977 246.782 135.244 246.425C135.51 246.064 135.876 245.787 136.339 245.594C136.803 245.401 137.322 245.305 137.896 245.305C138.512 245.305 139.059 245.395 139.539 245.575C140.023 245.752 140.454 246.012 140.832 246.357L139.988 247.311C139.701 247.065 139.389 246.882 139.053 246.763C138.717 246.64 138.37 246.578 138.013 246.578C137.586 246.578 137.242 246.665 136.979 246.837C136.717 247.005 136.585 247.247 136.585 247.563C136.585 247.768 136.641 247.941 136.752 248.08C136.866 248.219 137.055 248.349 137.318 248.468C137.58 248.587 137.964 248.724 138.468 248.88C139.018 249.048 139.476 249.239 139.841 249.452C140.206 249.666 140.491 249.943 140.696 250.283C140.901 250.624 141.004 251.048 141.004 251.557ZM147.95 246.732H144.504V249.065H147.519V250.289H144.504V252.763H148.165V254H142.817V245.489H148.122L147.95 246.732ZM155.72 248.006C155.72 248.597 155.552 249.089 155.216 249.483C154.883 249.873 154.44 250.16 153.886 250.345L156.219 254H154.286L152.274 250.609H151.499V254H149.819V245.489H152.323C154.588 245.489 155.72 246.328 155.72 248.006ZM153.973 248.006C153.973 247.555 153.839 247.227 153.573 247.022C153.31 246.812 152.908 246.708 152.366 246.708H151.499V249.415H152.422C152.935 249.415 153.32 249.303 153.579 249.077C153.841 248.851 153.973 248.494 153.973 248.006ZM158.192 245.489L160.02 252.554L161.866 245.489H163.589L160.992 254H158.986L156.401 245.489H158.192ZM164.726 245.489H170.018V246.751H168.215V252.738H170.018V254H164.726V252.738H166.529V246.751H164.726V245.489ZM175.469 245.305C176.035 245.305 176.523 245.378 176.933 245.526C177.348 245.674 177.739 245.897 178.109 246.197L177.253 247.212C176.745 246.794 176.17 246.585 175.53 246.585C175.116 246.585 174.745 246.693 174.416 246.911C174.092 247.128 173.834 247.471 173.641 247.938C173.448 248.406 173.352 249.003 173.352 249.729C173.352 250.792 173.549 251.579 173.942 252.092C174.34 252.601 174.874 252.855 175.542 252.855C175.94 252.855 176.283 252.79 176.57 252.658C176.857 252.527 177.145 252.345 177.432 252.111L178.226 253.114C177.504 253.828 176.585 254.185 175.469 254.185C174.714 254.185 174.045 254.014 173.462 253.674C172.884 253.329 172.431 252.823 172.102 252.154C171.774 251.481 171.61 250.673 171.61 249.729C171.61 248.806 171.778 248.012 172.115 247.348C172.455 246.679 172.917 246.172 173.499 245.828C174.086 245.479 174.742 245.305 175.469 245.305ZM184.864 246.732H181.418V249.065H184.433V250.289H181.418V252.763H185.079V254H179.731V245.489H185.036L184.864 246.732Z" fill="black"/>
<path d="M10.17 246.44L19 251.55L27.77 246.47M19 260.61V251.54" stroke="#3F3F3F" stroke-width="1.5" stroke-linecap="round" stroke-linejoin="round"/>
<path d="M16.93 241.48L11.59 244.44C10.38 245.11 9.39001 246.79 9.39001 248.17V253.82C9.39001 255.2 10.38 256.88 11.59 257.55L16.93 260.52C18.07 261.15 19.94 261.15 21.08 260.52L26.42 257.55C27.63 256.88 28.62 255.2 28.62 253.82V248.17C28.62 246.79 27.63 245.11 26.42 244.44L21.08 241.47C19.93 240.84 18.07 240.84 16.93 241.48Z" stroke="#3F3F3F" stroke-width="1.5" stroke-linecap="round" stroke-linejoin="round"/>
<rect x="465" y="131" width="58" height="26" rx="4" fill="#F3F3F3"/>
<rect x="465.5" y="131.5" width="57" height="25" rx="3.5" stroke="#161616" stroke-opacity="0.24"/>
<path d="M488.764 141.095V142.99H491.214V143.985H488.764V145.995H491.739V147H487.394V140.085H491.704L491.564 141.095H488.764ZM495.37 145.825L496.87 140.085H498.27L496.16 147H494.53L492.43 140.085H493.885L495.37 145.825ZM500.756 141.095V142.99H503.206V143.985H500.756V145.995H503.731V147H499.386V140.085H503.696L503.556 141.095H500.756ZM507.987 147L505.952 141.255C505.969 141.382 505.989 141.545 506.012 141.745C506.035 141.945 506.057 142.172 506.077 142.425C506.1 142.678 506.119 142.947 506.132 143.23C506.149 143.513 506.157 143.8 506.157 144.09V147H504.967V140.085H506.707L508.722 145.82C508.695 145.65 508.665 145.425 508.632 145.145C508.602 144.865 508.575 144.543 508.552 144.18C508.529 143.817 508.517 143.43 508.517 143.02V140.085H509.707V147H507.987ZM514.003 141.16V147H512.638V141.16H510.618V140.085H516.083L515.943 141.16H514.003Z" fill="black"/>
<path d="M469.835 137.661V139.503H482.727V137.661H469.835ZM473.058 141.345V143.187H482.727V141.345H473.058ZM469.835 145.028V146.87H482.727V145.028H469.835ZM473.058 148.712V150.554H482.727V148.712H473.058Z" fill="black"/>
</svg>
